<?xml version="1.0" standalone="no"?>
<!DOCTYPE svg PUBLIC "-//W3C//DTD SVG 20010904//EN"
 "http://www.w3.org/TR/2001/REC-SVG-20010904/DTD/svg10.dtd">
<svg version="1.0" xmlns="http://www.w3.org/2000/svg"
 width="700.000000pt" height="700.000000pt" viewBox="0 0 700.000000 700.000000"
 preserveAspectRatio="xMidYMid meet">
<metadata>
Created by potrace 1.11, written by Peter Selinger 2001-2013
</metadata>
<g transform="translate(0.000000,700.000000) scale(0.100000,-0.100000)"
fill="#000000" stroke="none">
<path d="M2281 6518 c-60 -23 -122 -88 -140 -149 -10 -32 -13 -306 -13 -1228
l0 -1186 -331 -1 c-299 0 -335 -2 -367 -18 -49 -25 -88 -64 -113 -111 l-21
-40 0 -1365 c0 -751 3 -1385 6 -1410 17 -123 61 -251 110 -323 88 -127 227
-206 383 -220 89 -8 104 17 61 101 -39 77 -66 181 -73 274 l-6 88 869 1 c478
0 880 3 894 5 35 7 94 47 124 86 37 50 47 114 46 307 -1 97 -1 210 -1 251 l1
75 706 0 705 0 -2 -79 c-3 -98 -20 -195 -56 -304 -24 -74 -25 -84 -12 -98 18
-18 35 -19 109 -10 104 12 213 56 295 119 110 84 206 256 229 412 2 17 8 50
12 75 12 68 12 3427 0 3475 -12 53 -47 108 -86 135 -68 48 -90 50 -614 50
-270 -1 -539 -1 -598 0 l-108 0 0 452 c0 326 -3 461 -12 487 -19 55 -73 117
-125 143 l-48 23 -887 1 c-844 0 -889 0 -937 -18z"/>
</g>
</svg>
