<?xml version="1.0" standalone="no"?>
<!DOCTYPE svg PUBLIC "-//W3C//DTD SVG 20010904//EN"
 "http://www.w3.org/TR/2001/REC-SVG-20010904/DTD/svg10.dtd">
<svg version="1.0" xmlns="http://www.w3.org/2000/svg"
 width="700.000000pt" height="700.000000pt" viewBox="0 0 700.000000 700.000000"
 preserveAspectRatio="xMidYMid meet">
<metadata>
Created by potrace 1.11, written by Peter Selinger 2001-2013
</metadata>
<g transform="translate(0.000000,700.000000) scale(0.100000,-0.100000)"
fill="#000000" stroke="none">
<path d="M3790 6844 c-292 -25 -482 -55 -685 -109 -137 -36 -356 -108 -438
-144 -27 -11 -55 -21 -62 -21 -15 0 -242 -115 -370 -188 -712 -405 -1278
-1079 -1560 -1857 -81 -226 -137 -449 -177 -715 -25 -172 -36 -647 -19 -854
47 -559 238 -1089 550 -1526 34 -47 61 -89 61 -93 0 -18 259 -294 365 -390
475 -429 1031 -685 1675 -773 153 -21 537 -24 685 -6 195 25 318 44 334 52 9
5 66 21 126 36 227 56 310 88 625 243 102 50 213 113 225 126 6 7 48 38 95 70
220 151 487 400 649 605 165 207 313 455 415 690 69 161 176 485 181 550 1 14
9 63 18 110 60 320 66 681 17 1006 -150 983 -788 1841 -1691 2273 -117 56
-355 151 -379 151 -7 0 -8 15 -3 43 10 55 10 598 0 658 l-8 46 -67 7 c-83 8
-501 15 -562 10z m925 -1199 c287 -142 487 -286 721 -519 358 -358 592 -769
720 -1264 19 -73 34 -141 34 -151 0 -15 -16 -20 -117 -30 -882 -94 -1679 -550
-2188 -1254 l-20 -28 -80 46 c-352 203 -739 332 -1175 392 -176 24 -586 24
-765 -1 -329 -45 -627 -131 -929 -270 -43 -20 -80 -36 -81 -36 -10 0 -75 364
-75 421 0 14 29 17 223 23 123 3 284 13 358 22 962 111 1824 605 2404 1379
126 167 208 299 307 491 152 294 236 530 322 896 l6 27 83 -29 c45 -17 159
-68 252 -115z"/>
</g>
</svg>
