<?xml version="1.0" encoding="utf-8"?>
<!-- Generator: Adobe Illustrator 23.0.0, SVG Export Plug-In . SVG Version: 6.00 Build 0)  -->
<svg version="1.1" id="Layer_1" xmlns="http://www.w3.org/2000/svg" xmlns:xlink="http://www.w3.org/1999/xlink" x="0px" y="0px"
	 viewBox="0 0 246.2 57.3" style="enable-background:new 0 0 246.2 57.3;" xml:space="preserve">
<style type="text/css">
	.st0{fill:#FFCB06;}
	.st1{fill:#294D24;}
	.st2{fill:#6DA141;}
	.st3{fill:#A0A738;}
</style>
<g id="logo" transform="translate(-3.321 -14.932)">
	<g id="Group_5" transform="translate(3.321 14.932)">
		<circle id="Ellipse_1" class="st0" cx="26" cy="31.3" r="24.7"/>
		<path id="Path_1" class="st1" d="M26,57.3c-14.3,0-26-11.6-26-26s11.6-26,26-26c14.3,0,26,11.6,26,26C51.9,45.7,40.3,57.3,26,57.3
			z M26,7.8C13,7.8,2.4,18.3,2.4,31.3S13,54.9,26,54.9c13,0,23.5-10.5,23.5-23.5C49.5,18.4,39,7.8,26,7.8L26,7.8z"/>
	</g>
	<g id="Group_6" transform="translate(13.255 52.769)">
		<path id="Path_2" class="st2" d="M5.2-2.4c-4.5,0-8.9,1.2-12.7,3.4c4.1,13,18,20.3,31,16.2c2-0.6,4-1.6,5.8-2.7
			C25.6,4.3,15.9-2.4,5.2-2.4z"/>
		<path id="Path_3" class="st1" d="M16,19.5C4.7,19.5-5.4,12.1-8.7,1.3L-9,0.4l0.9-0.5C4.7-7.5,21.1-3,28.5,9.9
			c0.7,1.3,1.4,2.7,1.9,4.1l0.3,0.9l-0.8,0.5C25.8,18.1,21,19.5,16,19.5z M-6.1,1.5c4.4,12.2,17.9,18.5,30.1,14.1
			c1.3-0.5,2.5-1,3.7-1.7C22.6,1.4,8.3-4.5-4.2,0.6C-4.8,0.9-5.5,1.2-6.1,1.5z"/>
	</g>
	<path id="Path_4" class="st2" d="M4.5,45c0,0.6,0,1.2,0.1,1.8c0.9,0.1,1.9,0.1,2.8,0.1c15.9,0,28.8-12.9,28.8-28.8c0,0,0,0,0,0
		c0-0.6,0-1.2-0.1-1.8c-0.9-0.1-1.9-0.1-2.8-0.1C17.5,16.1,4.5,29.1,4.5,45C4.5,45,4.5,45,4.5,45z"/>
	<path id="Path_5" class="st1" d="M7.4,48.1c-1,0-1.9,0-2.9-0.1l-1-0.1l-0.1-1c0-0.7-0.1-1.3-0.1-1.9c0-16.6,13.5-30,30-30.1
		c1,0,1.9,0,2.9,0.1l1,0.1l0.1,1c0,0.7,0.1,1.3,0.1,1.9C37.4,34.7,24,48.1,7.4,48.1z M5.8,45.6c0.6,0,1.1,0,1.6,0
		C22.6,45.7,35,33.3,35,18.1c0-0.2,0-0.4,0-0.7c-0.6,0-1.1,0-1.6,0C18.1,17.4,5.8,29.7,5.8,45C5.8,45.2,5.8,45.4,5.8,45.6L5.8,45.6z
		"/>
	<g id="Group_7" transform="translate(15.221 58.09)">
		<path id="Path_6" class="st2" d="M-7.4,0.5c6,10.4,18.6,15,29.9,10.9C18.9,0.8,7.4-5-3.3-1.4C-4.7-0.9-6.1-0.3-7.4,0.5z"/>
		<path id="Path_7" class="st1" d="M14.1,14.2c-9.3,0-17.9-5-22.5-13l-0.6-1l1-0.6c10.2-6.2,23.5-3,29.6,7.2c0.8,1.4,1.5,2.8,2,4.4
			l0.4,1.1l-1.1,0.4C20.1,13.6,17.1,14.2,14.1,14.2z M-5.7,1C0,9.8,10.9,13.7,20.9,10.7C16.9,0.9,5.8-3.8-4,0.2
			C-4.6,0.4-5.1,0.7-5.7,1z"/>
	</g>
	<g id="Group_8" transform="translate(17.719 62.785)">
		<path id="Path_8" class="st2" d="M15.4,7.9C12.5-0.2,3.6-4.4-4.6-1.5c-0.9,0.3-1.7,0.7-2.6,1.2c4.7,5.4,11.5,8.6,18.7,8.6
			C12.9,8.2,14.2,8.1,15.4,7.9z"/>
		<path id="Path_9" class="st1" d="M11.6,9.5C4,9.5-3.1,6.2-8.1,0.5l-1-1.1l1.3-0.7c8.1-4.7,18.4-1.9,23.1,6.1
			c0.5,0.9,0.9,1.8,1.3,2.8l0.5,1.4l-1.5,0.2C14.3,9.3,12.9,9.5,11.6,9.5z M-5.2,0c4.9,5,11.9,7.5,18.9,6.9C10.3-0.1,2-3.1-5.2,0z"
			/>
	</g>
	<g id="Group_9" transform="translate(12.352 20.972)">
		<path id="Path_10" class="st3" d="M-7.8,24c0,0.4,0,0.8,0,1.2C1.9,20.3,8,10.4,8-0.5c0-0.4,0-0.8,0-1.2C-1.7,3.2-7.8,13.1-7.8,24z
			"/>
		<path id="Path_11" class="st1" d="M-8.9,27.2L-9,25.3c0-0.4,0-0.8,0-1.3c0-11.3,6.4-21.7,16.5-26.8l1.7-0.9l0.1,1.9
			c0,0.4,0,0.8,0,1.3c0,11.3-6.4,21.7-16.5,26.8L-8.9,27.2z M6.8,0.3C-1.3,5.2-6.3,13.8-6.6,23.2C1.5,18.4,6.6,9.7,6.8,0.3z"/>
	</g>
	<g id="Group_19" transform="translate(39.402 45.523)">
		<g id="Group_10" transform="translate(8.719 24.279)">
			<path id="Path_12" class="st3" d="M-8.5-1c1-0.5,2-1,2.9-1.6C-6.5-2-7.5-1.5-8.5-1z"/>
			<path id="Path_13" class="st1" d="M-8,0.1l-1-2.2l0,0c1-0.4,1.9-1,2.8-1.5l0,0l1.3,2.1C-5.9-1-6.9-0.4-8,0.1z"/>
		</g>
		<g id="Group_11" transform="translate(5.681 26.774)">
			<path id="Path_14" class="st3" d="M-8.1-2.5c-0.2,0.1-0.4,0.1-0.6,0.2C-8.5-2.4-8.3-2.4-8.1-2.5z"/>
			<path id="Path_15" class="st1" d="M-8.3-1.1L-9-3.5c0.2-0.1,0.4-0.1,0.6-0.2l0.8,2.3C-7.9-1.3-8.1-1.2-8.3-1.1z"/>
		</g>
		<g id="Group_12" transform="translate(6.582 25.866)">
			<path id="Path_16" class="st3" d="M-8.6-1.7C-7.9-2-7.2-2.2-6.5-2.5C-7.2-2.2-7.9-2-8.6-1.7z"/>
			<path id="Path_17" class="st1" d="M-8.2-0.6L-9-2.9C-8.7-3-8.3-3.1-8-3.3C-7.6-3.4-7.3-3.5-7-3.7l1,2.2c-0.3,0.1-0.7,0.3-1,0.4
				C-7.4-0.9-7.8-0.7-8.2-0.6z"/>
		</g>
		<g id="Group_13" transform="translate(0.684)">
			<path id="Path_18" class="st3" d="M-7.3,9.2c4.5,3,7.9,7.4,9.8,12.5C9.6,17.1,14,9.2,14,0.7c0-1.1-0.1-2.1-0.2-3.2
				C5.2-2.3-2.7,2-7.3,9.2z"/>
			<path id="Path_19" class="st1" d="M1.8,23.5l-0.5-1.4c-1.8-4.8-5.1-9-9.3-11.9l-1-0.7l0.7-1C-3.5,1,4.8-3.5,13.7-3.6l1.1,0
				l0.1,1.1c0.1,1.1,0.2,2.2,0.2,3.3c0,8.9-4.5,17.2-12.1,21.9L1.8,23.5z M-5.7,8.9c3.8,2.8,6.8,6.6,8.7,10.9
				c6.1-4.4,9.7-11.5,9.7-19c0-0.6,0-1.3-0.1-1.9C5.4-0.7-1.4,3-5.7,8.9z"/>
		</g>
		<g id="Group_14" transform="translate(1.133 27.806)">
			<path id="Path_20" class="st3" d="M-8.9-2.4c0.1,0,0.2,0,0.3,0C-8.7-2.4-8.8-2.4-8.9-2.4z"/>
			<path id="Path_21" class="st1" d="M-8.8-1.2L-9-3.6l0.3,0l0.3,2.4L-8.8-1.2L-8.8-1.2z"/>
		</g>
		<g id="Group_15" transform="translate(2.404 27.623)">
			<path id="Path_22" class="st3" d="M-8.8-2.4c0.1,0,0.2,0,0.4-0.1C-8.6-2.4-8.7-2.4-8.8-2.4z"/>
			<path id="Path_23" class="st1" d="M-8.7-1.2L-9-3.6l0.3-0.1l0.4,2.4l-0.1,0l-0.1,0C-8.5-1.2-8.6-1.2-8.7-1.2z"/>
		</g>
		<g id="Group_16" transform="translate(0 27.895)">
			<path id="Path_24" class="st3" d="M-9-2.4c0.1,0,0.2,0,0.3,0C-8.8-2.4-8.9-2.4-9-2.4z"/>
			<path id="Path_25" class="st1" d="M-8.9-1.2L-9-3.6l0.3,0l0.1,2.4C-8.7-1.2-8.8-1.2-8.9-1.2z"/>
		</g>
		<g id="Group_17" transform="translate(3.425 27.419)">
			<path id="Path_26" class="st3" d="M-8.8-2.4c0.1,0,0.3-0.1,0.4-0.1C-8.5-2.4-8.7-2.4-8.8-2.4z"/>
			<path id="Path_27" class="st1" d="M-8.6-1.2L-9-3.6c0.1,0,0.3-0.1,0.4-0.1l0.5,2.4C-8.3-1.2-8.4-1.2-8.6-1.2z"/>
		</g>
		<g id="Group_18" transform="translate(4.491 27.088)">
			<path id="Path_28" class="st3" d="M-8.7-2.3C-8.5-2.4-8.3-2.4-8-2.5C-8.3-2.4-8.5-2.4-8.7-2.3z"/>
			<path id="Path_29" class="st1" d="M-8.5-1.1L-9-3.5c0.1,0,0.2-0.1,0.4-0.1l0.3-0.1l0.7,2.4l0,0l-0.4,0.1
				C-8.2-1.2-8.3-1.1-8.5-1.1L-8.5-1.1L-8.5-1.1z"/>
		</g>
	</g>
	<g id="Group_29" transform="translate(42.791 50.845)">
		<g id="Group_20" transform="translate(5.264 20.05)">
			<path id="Path_30" class="st3" d="M-8.5-2.1c0.3-0.2,0.7-0.3,1-0.5C-7.9-2.4-8.2-2.2-8.5-2.1z"/>
			<path id="Path_31" class="st1" d="M-8-1l-1-2.2c0.3-0.1,0.6-0.3,0.9-0.5L-7-1.5C-7.3-1.3-7.7-1.1-8-1z"/>
		</g>
		<g id="Group_21" transform="translate(7.199 18.957)">
			<path id="Path_32" class="st3" d="M-8.4-2c0.3-0.2,0.7-0.4,1-0.6C-7.8-2.4-8.1-2.2-8.4-2z"/>
			<path id="Path_33" class="st1" d="M-7.8-1L-9-3.1c0.3-0.2,0.6-0.4,0.9-0.6l1.3,2.1h0l0,0h0l0,0l0,0C-7.1-1.4-7.5-1.2-7.8-1
				L-7.8-1z"/>
		</g>
		<g id="Group_22" transform="translate(1.556)">
			<path id="Path_34" class="st3" d="M-7.5,7.3c2.5,2.6,4.4,5.7,5.7,9C4.7,12.2,8.9,5.3,9.6-2.4C2.6-2.3-3.9,1.3-7.5,7.3z"/>
			<path id="Path_35" class="st1" d="M-2.4,18.2L-3,16.7c-1.2-3.2-3-6.2-5.4-8.6L-9,7.5l0.5-0.8C-4.7,0.3,2.2-3.6,9.6-3.6l1.3,0
				l-0.1,1.3C10.1,5.7,5.7,13-1.2,17.4L-2.4,18.2z M-6,7.1c2,2.2,3.6,4.6,4.7,7.3c5.1-3.7,8.5-9.3,9.5-15.6C2.5-0.7-2.7,2.4-6,7.1
				L-6,7.1z"/>
		</g>
		<g id="Group_23" transform="translate(4.256 20.531)">
			<path id="Path_36" class="st3" d="M-8.6-2.1c0.3-0.1,0.7-0.3,1-0.4C-7.9-2.4-8.2-2.3-8.6-2.1z"/>
			<path id="Path_37" class="st1" d="M-8.1-1L-9-3.3l0,0c0.3-0.1,0.6-0.3,0.9-0.4h0l0,0l1,2.2C-7.4-1.3-7.8-1.1-8.1-1L-8.1-1z"/>
		</g>
		<g id="Group_24" transform="translate(6.244 19.525)">
			<path id="Path_38" class="st3" d="M-8.5-2.1c0.3-0.2,0.7-0.3,1-0.5C-7.8-2.4-8.1-2.2-8.5-2.1z"/>
			<path id="Path_39" class="st1" d="M-7.9-1L-9-3.2l0,0c0.3-0.2,0.6-0.3,0.9-0.5l1.2,2.1C-7.2-1.3-7.6-1.2-7.9-1L-7.9-1L-7.9-1z"/>
		</g>
		<g id="Group_25" transform="translate(3.224 20.966)">
			<path id="Path_40" class="st3" d="M-8.6-2.1c0.3-0.1,0.7-0.2,1-0.4C-8-2.4-8.3-2.3-8.6-2.1z"/>
			<path id="Path_41" class="st1" d="M-8.2-1L-9-3.3c0.3-0.1,0.6-0.2,1-0.4l0.9,2.3C-7.5-1.3-7.9-1.1-8.2-1z"/>
		</g>
		<g id="Group_26" transform="translate(0 21.984)">
			<path id="Path_42" class="st3" d="M-8.8-2.3c0.3-0.1,0.7-0.1,1-0.2C-8.1-2.4-8.5-2.3-8.8-2.3z"/>
			<path id="Path_43" class="st1" d="M-8.6-1.1L-9-3.5c0.2,0,0.3-0.1,0.5-0.1c0.1,0,0.3-0.1,0.4-0.1l0,0l0.6,2.4
				c-0.2,0-0.3,0.1-0.5,0.1C-8.2-1.1-8.4-1.1-8.6-1.1z"/>
		</g>
		<g id="Group_27" transform="translate(1.096 21.694)">
			<path id="Path_44" class="st3" d="M-8.7-2.2c0.3-0.1,0.7-0.2,1-0.3C-8.1-2.4-8.4-2.3-8.7-2.2z"/>
			<path id="Path_45" class="st1" d="M-8.5-1L-9-3.4l0.1,0c0.3-0.1,0.6-0.1,0.8-0.2l0.7,2.3l0,0C-7.7-1.2-8-1.1-8.5-1L-8.5-1L-8.5-1
				L-8.5-1z"/>
		</g>
		<g id="Group_28" transform="translate(2.171 21.354)">
			<path id="Path_46" class="st3" d="M-7.7-2.5c-0.3,0.1-0.7,0.2-1,0.3C-8.3-2.3-8-2.4-7.7-2.5z"/>
			<path id="Path_47" class="st1" d="M-8.3-1L-9-3.4c0.3-0.1,0.6-0.2,1-0.3l0.8,2.3C-7.6-1.2-8-1.1-8.3-1z"/>
		</g>
	</g>
	<g id="Group_32" transform="translate(46.369 55.468)">
		<g id="Group_30" transform="translate(0 14.335)">
			<path id="Path_48" class="st3" d="M-7.8-0.6L-7.8-0.6c1.4-0.6,2.7-1.2,4-2C-5.1-1.8-6.4-1.1-7.8-0.6z"/>
			<path id="Path_49" class="st1" d="M-9,1.2v-2.6l0.8-0.3C-7-2.2-5.7-2.9-4.5-3.7l0,0l0,0l1.3,2.1C-4.5-0.8-5.9,0-7.4,0.5L-9,1.2z"
				/>
		</g>
		<g id="Group_31" transform="translate(1.295)">
			<path id="Path_50" class="st3" d="M5.4-2.3c-5.6,0.4-10.6,3.8-13,9c1,1.6,1.9,3.3,2.5,5C0,8.5,3.7,3.5,5.4-2.3z"/>
			<path id="Path_51" class="st1" d="M-5.7,13.5l-0.5-1.4c-0.6-1.7-1.4-3.3-2.4-4.8L-9,6.8l0.3-0.6c2.6-5.5,8-9.2,14.1-9.7l1.7-0.1
				L6.6-2C4.8,4.1,0.9,9.3-4.5,12.7L-5.7,13.5z M-6.2,6.6c0.6,1,1.2,2.1,1.7,3.3C-0.8,7.2,2,3.4,3.6-0.8C-0.6,0-4.2,2.8-6.2,6.6z"/>
		</g>
	</g>
	<g id="Group_33" transform="translate(72.067 31.655)">
		<path id="Path_52" class="st3" d="M-7.1,21.6c-2.4-2.2-2.6-6-0.4-8.4c0.1-0.2,0.3-0.3,0.5-0.5c1.5-1.1,3.3-1.7,5.2-1.6
			c1.3,0,2.6,0.2,3.8,0.6c0-2.7-1.4-4.1-4.1-4.1c-1.4,0.1-2.8,0.3-4.1,0.8l-1-3.3c1.9-0.6,3.9-1,6-1c2.7,0,4.7,0.7,6,2.1
			c1.4,1.6,2.2,3.7,2,5.8v5.3c0,1.5,0.1,3,0.2,4.5c-2.7,0.8-5.5,1.3-8.4,1.3C-3.4,23.3-5.4,22.7-7.1,21.6z M2.1,19.1
			C2,18.6,2,17.8,2,16.9v-1.8c-1-0.4-2.1-0.7-3.1-0.7c-2.3,0-3.4,0.9-3.4,2.6c0,1.7,1.3,2.6,3.8,2.6C0.2,19.7,1.2,19.5,2.1,19.1
			L2.1,19.1z"/>
		<path id="Path_53" class="st3" d="M11,20.5c-1.6-1.9-2.4-4.3-2.3-6.8c-0.3-5,3.6-9.3,8.6-9.6c0.4,0,0.7,0,1.1,0
			c2.7,0,5.4,0.4,7.9,1.5C26.1,7.1,26,9.1,26,11.5v10.9c0.2,2.6-0.7,5.1-2.5,7c-1.6,1.7-4.1,2.5-7.3,2.5c-2.2,0-4.4-0.4-6.4-1.2
			l0.7-3.6c1.8,0.7,3.7,1,5.6,1.1c1.2,0,2.5-0.4,3.5-1.1c1-0.8,1.6-2,1.6-3.3v-1.1c-1.2,0.4-2.5,0.7-3.8,0.6
			C14.9,23.3,12.6,22.3,11,20.5z M21.1,19.1V8.2c-0.9-0.5-1.8-0.7-2.8-0.7C17,7.5,15.8,8.1,15,9.1c-0.9,1.3-1.3,2.9-1.2,4.5
			c-0.1,1.6,0.3,3.2,1.2,4.5c0.7,1,2,1.6,3.2,1.6C19.2,19.8,20.2,19.6,21.1,19.1L21.1,19.1z"/>
		<path id="Path_54" class="st3" d="M29,11.5c0-1.9-0.1-3.7-0.2-5.5c2.3-1.2,4.9-1.9,7.5-1.9c1.1,0,2.2,0.1,3.3,0.3v3.6
			c-0.6-0.1-1.3-0.2-1.9-0.2c-1.4-0.1-2.8,0.3-3.9,1.2c0.1,1.8,0.2,3.1,0.2,4v9.6H29L29,11.5z"/>
		<path id="Path_55" class="st3" d="M41.7,0.7C41.2,0.2,41-0.5,41-1.1c0-0.7,0.2-1.3,0.7-1.8c0.5-0.5,1.1-0.7,1.8-0.7
			c1.4,0,2.5,1.1,2.5,2.5c0,0,0,0,0,0c0,0.7-0.2,1.3-0.7,1.8c-0.5,0.5-1.1,0.7-1.8,0.7C42.8,1.4,42.2,1.1,41.7,0.7z M41,4.6h4.9
			v18.1H41V4.6z"/>
	</g>
	<g id="Group_34" transform="translate(130.345 31.509)">
		<path id="Path_56" class="st1" d="M-6.4,20.6c-1.8-1.9-2.7-4.3-2.6-6.9C-9.1,11.2-8.2,8.8-6.5,7c1.8-1.8,4.2-2.8,6.7-2.7
			c1.8,0,3.5,0.3,5.2,0.8L4.3,8.3c-1-0.4-2.1-0.5-3.1-0.5c-1.4-0.1-2.7,0.5-3.6,1.6c-0.9,1.2-1.4,2.7-1.3,4.2
			c-0.1,1.6,0.4,3.2,1.3,4.5c0.8,1.1,2.1,1.8,3.5,1.7c1.4,0,2.8-0.4,4-1L6.2,22c-1.8,1-3.9,1.4-5.9,1.4C-2.3,23.4-4.7,22.4-6.4,20.6
			z"/>
		<path id="Path_57" class="st1" d="M9.6,20.6c-1.8-1.9-2.7-4.4-2.6-6.9C6.9,11.2,7.8,8.8,9.5,7c3.8-3.6,9.8-3.6,13.6,0
			c1.7,1.8,2.7,4.2,2.6,6.7c0.1,2.6-0.8,5.1-2.6,6.9C19.3,24.2,13.4,24.2,9.6,20.6L9.6,20.6z M19.4,18.1c0.8-1.3,1.2-2.9,1.1-4.4
			c0.1-1.5-0.3-3-1.1-4.3c-1.1-1.7-3.4-2.2-5-1c-0.4,0.3-0.8,0.6-1.1,1.1c-0.8,1.3-1.2,2.8-1.1,4.3c-0.1,1.6,0.3,3.1,1.1,4.4
			c0.6,1.1,1.8,1.8,3.1,1.7C17.6,19.9,18.8,19.2,19.4,18.1L19.4,18.1z"/>
		<path id="Path_58" class="st1" d="M27.7,11.7c0-2.1-0.1-4.1-0.2-6c2.4-0.9,5-1.4,7.6-1.4c2-0.1,4,0.3,5.8,1.2
			c2-0.8,4.1-1.3,6.2-1.2c2.2-0.1,4.3,0.6,6.1,1.9c1.6,1.4,2.4,3.6,2.3,5.7v11h-4.9V11.3c0.1-1.1-0.2-2.1-1-2.9
			c-0.8-0.5-1.8-0.8-2.8-0.8c-1.1,0-2.2,0.3-3.1,0.8c0.4,1,0.6,2,0.5,3.1v11.2h-4.9V11.3c0.1-1-0.2-2.1-0.9-2.9
			c-0.8-0.5-1.7-0.8-2.7-0.8c-1,0-2,0.2-2.9,0.7v14.5h-4.9L27.7,11.7z"/>
		<path id="Path_59" class="st1" d="M63.4,22.5v9.1h-4.9v-20c0-2.3-0.1-4.3-0.2-5.9c2.3-1,4.9-1.4,7.4-1.5c3.3,0,5.8,0.8,7.6,2.5
			c1.9,1.8,2.9,4.3,2.7,6.9c0.1,2.5-0.7,4.9-2.3,6.8c-1.6,1.9-3.9,2.9-6.4,2.7C66,23.3,64.6,23.1,63.4,22.5z M69.5,18.3
			c0.9-1.4,1.3-3,1.2-4.7c0-3.9-1.5-5.9-4.6-5.9c-1,0-2,0.3-2.8,0.8c0.1,1.1,0.1,2.4,0.1,3.8v6.6c0.9,0.7,2.1,1.1,3.2,1
			C67.8,19.9,68.9,19.3,69.5,18.3z"/>
		<path id="Path_60" class="st1" d="M78.1-3.7H83v26.5h-4.9V-3.7z"/>
		<path id="Path_61" class="st1" d="M87.9,20.6c-1.9-1.9-3-4.5-2.8-7.1C85,11,85.9,8.6,87.6,6.8c1.6-1.6,3.8-2.5,6.1-2.5
			c2.3-0.1,4.5,0.8,6,2.4c1.4,1.7,2.1,3.9,2.1,6.1c0,0.3,0,0.8-0.1,1.6H90.1c0,1.5,0.6,2.9,1.6,3.9c1.2,1.1,2.8,1.7,4.4,1.6
			c1.4,0,2.7-0.3,4-0.8l0.9,3c-1.8,0.9-3.8,1.3-5.8,1.2C92.6,23.4,89.9,22.5,87.9,20.6z M97.6,11.8c0.1-1.2-0.3-2.3-1-3.3
			c-0.6-0.8-1.6-1.3-2.6-1.3c-1.1,0-2.1,0.5-2.7,1.4c-0.7,0.9-1.1,2.1-1.2,3.2H97.6z"/>
		<path id="Path_62" class="st1" d="M111.8,19.3c-0.5-0.9-1-1.9-1.4-3h0c-0.5,1.3-1.1,2.5-1.8,3.7l-1.5,2.8h-5.5l6-9.7l-5.3-8.5h5.5
			l1.4,2.7c0.9,1.6,1.3,2.5,1.3,2.5h0.1c0.2-0.4,0.7-1.4,1.5-3.1l1.1-2.1h5.3l-5.3,8.6l5.9,9.6h-5.5L111.8,19.3z"/>
	</g>
</g>
</svg>
