<svg xmlns="http://www.w3.org/2000/svg" width="133.286" height="133.286" viewBox="0 0 133.286 133.286">
  <g id="Group_194" data-name="Group 194" transform="translate(-3449.714 -2091)">
    <g id="Group_188" data-name="Group 188" transform="translate(3449.714 2091)">
      <g id="Group_114" data-name="Group 114">
        <circle id="Ellipse_8" data-name="Ellipse 8" cx="54.935" cy="54.935" r="54.935" transform="translate(11.407 11.407)" fill="#d2b7dc" opacity="0.662"/>
        <g id="Group_113" data-name="Group 113">
          <circle id="Ellipse_10" data-name="Ellipse 10" cx="66.643" cy="66.643" r="66.643" transform="translate(0)" fill="#d2b7dc" opacity="0.332"/>
          <circle id="Ellipse_9" data-name="Ellipse 9" cx="39.625" cy="39.625" r="39.625" transform="translate(27.017 27.017)" fill="#d2b7dc"/>
        </g>
      </g>
    </g>
    <g id="Group_189" data-name="Group 189" transform="translate(3217.643 2078.945)">
      <ellipse id="Ellipse_7" data-name="Ellipse 7" cx="37.44" cy="5.314" rx="37.44" ry="5.314" transform="translate(261.357 100.424)" fill="#ecedeb"/>
      <g id="Group_94" data-name="Group 94" transform="translate(263.174 63.06)">
        <path id="Path_411" data-name="Path 411" d="M346.148,115.138S345.733,99.1,340.062,97.3c-5.784-1.834-11.965-1.679-17.955-1.408-5.651.256-11.345.1-16.981.473-6.205.41-8.5,3.259-9.871,9a47.8,47.8,0,0,0-1.241,9.778l-1.383,4.149h54.9Z" transform="translate(-283.742 -95.727)" fill="#ffb451"/>
        <path id="Path_412" data-name="Path 412" d="M282.773,145.578v-3.6a3.225,3.225,0,0,0-3.18-2.9c-3.042-.276-11.34,6.223-11.2,7.606s1.66,11.2,2.628,11.616,3.457,2.351,5.67,1.244S282.773,145.578,282.773,145.578Z" transform="translate(-267.8 -124.232)" fill="#ff832e"/>
        <path id="Path_413" data-name="Path 413" d="M431.988,145.578v-3.6a3.225,3.225,0,0,1,3.18-2.9c3.042-.276,11.339,6.223,11.2,7.606s-1.66,11.2-2.628,11.616-3.457,2.351-5.67,1.244S431.988,145.578,431.988,145.578Z" transform="translate(-375.39 -124.232)" fill="#ff832e"/>
        <path id="Path_414" data-name="Path 414" d="M296.325,157.283a6.557,6.557,0,0,1-.727.648c-1.86,1.534-6.6,5.16-6.6,5.16h56.559l-7.606-6.223Z" transform="translate(-281.351 -135.937)" fill="#ff832e"/>
        <path id="Path_415" data-name="Path 415" d="M289,175.045v5.716h56.52l.039-5.716Z" transform="translate(-281.351 -147.891)" fill="#ffad43"/>
        <path id="Path_416" data-name="Path 416" d="M280.277,208.168l-1.77,5.546a.731.731,0,0,0,.7.953h0a.731.731,0,0,0,.6-.314l4.207-6.047Z" transform="translate(-274.43 -169.674)" fill="#b57053"/>
        <path id="Path_417" data-name="Path 417" d="M452.261,208.168l1.77,5.546a.731.731,0,0,1-.7.953h0a.731.731,0,0,1-.6-.314l-4.207-6.047Z" transform="translate(-386.267 -169.674)" fill="#b57053"/>
        <path id="Path_418" data-name="Path 418" d="M336.242,155.893a3.4,3.4,0,0,0-3.2.1c-2.489,1.245-2.213,6.223-2.213,6.223v5.532h-56.52v-5.532s.277-4.978-2.213-6.223a3.4,3.4,0,0,0-3.2-.1,4.165,4.165,0,0,0-2.194,4.32,77.77,77.77,0,0,0,1.8,9.889c.968,2.9.968,3.457,3.042,4.148,1.8.6,24.925.159,31.026.032,6.1.127,29.227.568,31.026-.032,2.074-.691,2.074-1.244,3.042-4.148a77.785,77.785,0,0,0,1.8-9.889A4.164,4.164,0,0,0,336.242,155.893Z" transform="translate(-266.666 -135.065)" fill="#ffb451"/>
      </g>
      <g id="Group_95" data-name="Group 95" transform="translate(276.691 46.055)">
        <path id="Path_419" data-name="Path 419" d="M314.563,90.788s-3.379,1.04-4.245,1.3-2.772,3.032-3.552,5.371a9.241,9.241,0,0,0-.6,3.874,12.722,12.722,0,0,0,.512,2.8c.346.393.873.371.96.025s.427-2.364.427-2.364l.26,1.213s.26.433.433-.346a10.18,10.18,0,0,0,.087-2.339,4.714,4.714,0,0,0-.607-1.992,16.448,16.448,0,0,1,3.326-3.127c1.129-.776.92-.982.92-.982l3.129.061-.271-3.144Z" transform="translate(-306.149 -75.474)" fill="#f6ba99"/>
        <path id="Path_420" data-name="Path 420" d="M406.106,90.788s3.379,1.04,4.245,1.3,2.772,3.032,3.552,5.371a9.237,9.237,0,0,1,.6,3.874,12.72,12.72,0,0,1-.513,2.8c-.346.393-.873.371-.96.025s-.426-2.364-.426-2.364l-.26,1.213s-.26.433-.433-.346a10.18,10.18,0,0,1-.087-2.339,4.716,4.716,0,0,1,.606-1.992A16.44,16.44,0,0,0,409.1,95.2c-1.129-.776-.92-.982-.92-.982l-3.128.061.271-3.144Z" transform="translate(-371.195 -75.474)" fill="#f6ba99"/>
        <path id="Path_421" data-name="Path 421" d="M356.413,86.479s-3.938-1.188-5.439-1.87-1.842-.273-5.184,0c-.443.036-.9.054-1.359.064l0-.027c-.386.017-.789.027-1.2.033s-.81-.016-1.2-.033l0,.027c-.458-.01-.915-.028-1.359-.064-3.342-.273-3.683-.682-5.184,0s-5.587,1.87-5.587,1.87a10.728,10.728,0,0,0-.415,2.5,1.631,1.631,0,0,0,.481,1.088h6.957l-2.36,17.926h17.232l-2.4-17.926h6.958a1.479,1.479,0,0,0,.61-1.088A9.038,9.038,0,0,0,356.413,86.479Z" transform="translate(-321.502 -71.165)" fill="#da5955"/>
        <path id="Path_422" data-name="Path 422" d="M367.774,86.381a1.621,1.621,0,0,0-.762-1.267c-.246.025-.5.049-.792.073-.443.036-.9.054-1.359.064l0-.027c-.386.017-.789.027-1.2.033s-.81-.016-1.2-.033l0,.027c-.424-.01-.846-.027-1.258-.058a1.561,1.561,0,0,0-.659,1.188c0,1.142,1.615,2.067,3.607,2.067S367.774,87.523,367.774,86.381Z" transform="translate(-341.932 -71.742)" fill="#eba4a1"/>
        <path id="Path_423" data-name="Path 423" d="M364.151,75.564a24.042,24.042,0,0,1-.2,3.07c-.2,1.3-.614,1.023.682,1.705s3.479.068,3.684-.409-.478-2.046-.546-2.865-.137-1.228-.137-1.228Z" transform="translate(-344.011 -65.462)" fill="#ea9476"/>
        <path id="Path_424" data-name="Path 424" d="M357.992,53.141s-1.173-.167-.838,1.006a1.986,1.986,0,0,0,1.174,1.425l.335-.167s1.089,2.179,2.682,2.514,2.6-1.09,2.933-1.425a7.346,7.346,0,0,0,.838-1.425s.087.5.67-.084a1.844,1.844,0,0,0,.4-2.211c-.465-.517-.671-.195-.991-.052l-.084-1.341a3.142,3.142,0,0,0,1.927-1.089c.671-.922-.251-1.676-1.257-2.011a11.525,11.525,0,0,1-1.76-.754s1.76-.335.586-.754-3.6.419-3.6.419,1.425-1.592-.251-1.006a4.587,4.587,0,0,0-3.017,3.352A15.988,15.988,0,0,0,357.992,53.141Z" transform="translate(-339.653 -46.055)" fill="#f6ba99"/>
        <path id="Path_425" data-name="Path 425" d="M366.283,51.381a3.142,3.142,0,0,0,1.927-1.089c.671-.922-.251-1.676-1.257-2.011a11.527,11.527,0,0,1-1.76-.754s1.76-.335.586-.754-3.6.419-3.6.419,1.425-1.592-.251-1.006a4.587,4.587,0,0,0-3.017,3.352,15.989,15.989,0,0,0,.251,3.6l.838.671s-.5-2.263.084-3.1,2.43-1.257,3.52-1.089,2.346.922,2.346,1.76a13.548,13.548,0,0,1-.084,1.509l.084.67.419-.838Z" transform="translate(-340.82 -46.055)" fill="#393762"/>
        <path id="Path_426" data-name="Path 426" d="M314.755,220.758s-3.07,2.456-2.183,3.342,4.229-1.3,5.457-1.91,1.364-.614,1.3-1.091S315.642,219.8,314.755,220.758Z" transform="translate(-310.267 -160.658)" fill="#b57053"/>
        <path id="Path_427" data-name="Path 427" d="M408.511,221.87s2.728,2.387,4.5,2.729,3.274-.2,2.182-1.364-1.637-1.978-2.524-2.115S409.4,221.119,408.511,221.87Z" transform="translate(-373.467 -161.155)" fill="#b57053"/>
        <path id="Path_428" data-name="Path 428" d="M353.665,166.212c-.136-.682-3.511-19.388-3.648-20.753s-.819-5.18-2.865-5.18a11.262,11.262,0,0,0-4.638,1.569,34.248,34.248,0,0,1-3.615-.818,15.445,15.445,0,0,0-5.866,0,34.268,34.268,0,0,1-3.615.818,11.261,11.261,0,0,0-4.639-1.569c-2.046,0-2.728,3.816-2.865,5.18s-3.511,20.07-3.648,20.753a19.415,19.415,0,0,0-.2,2.046s1.773.2,3.206.546a5.017,5.017,0,0,0,2.592-.068l3.853-20.753h0c.509.807,1.4.708,2.351.708l2.429.353a23.174,23.174,0,0,0,6.348.044l3.028-.4c.954,0,1.841.1,2.351-.708h0l3.852,20.753a5.017,5.017,0,0,0,2.592.068c1.433-.341,3.206-.546,3.206-.546A19.415,19.415,0,0,0,353.665,166.212Z" transform="translate(-313.984 -108.021)" fill="#393762"/>
      </g>
    </g>
  </g>
</svg>
