<svg id="Layer_1" data-name="Layer 1" xmlns="http://www.w3.org/2000/svg" viewBox="0 0 1080 1080"><path d="M505.77,787.84a30.28,30.28,0,0,0,30.28,30.27h29.62V651.24h-59.9Z" fill="#e68522"/><path d="M505.77,279.33a30.28,30.28,0,0,1,30.28-30.28H655.52V108.83A30.92,30.92,0,0,0,624.6,77.91h-259a30.92,30.92,0,0,0-30.93,30.92v367.4H505.77Z" fill="#00adb3"/><path d="M505.77,279.33v196.9h31.78a28.12,28.12,0,0,1,28.12,28.12V651.24h32.64c-.07,17.68-2.27,29.59-15.52,51.35,59.9-4.28,67.9-40.13,71.76-74.71a30.83,30.83,0,0,0,1-7.56V249.05H536.05A30.28,30.28,0,0,0,505.77,279.33Z" fill="#a386b9"/><path d="M365.55,651.24H505.77v-175H334.62V620.32A30.92,30.92,0,0,0,365.55,651.24Z" fill="#7bb82e"/><path d="M505.77,787.84V651.24H365.55a30.92,30.92,0,0,1-30.93-30.92V476.23H234.39a28.12,28.12,0,0,0-28.12,28.12v397.9c-.22,32.46,8.13,97,77.66,99.84-14.88-27-17.25-52-15-71.88H537.55a28.12,28.12,0,0,0,28.12-28.12v-84H536.05A30.28,30.28,0,0,1,505.77,787.84Z" fill="#ecb11f"/><path d="M843.46,249.05H655.52V620.32a30.83,30.83,0,0,1-1,7.56c-3.86,34.58-11.86,70.43-71.76,74.71,13.25-21.76,15.45-33.67,15.52-51.35H565.67V818.11h230.4c1.46,22.33-.72,49.32-12.19,77,74.82-3,88.4-66.33,89.72-104.71.08-.85.13-1.71.13-2.58V279.33A30.28,30.28,0,0,0,843.46,249.05Z" fill="#dd5143"/><path d="M537.55,476.23H505.77v175h59.9V504.35A28.12,28.12,0,0,0,537.55,476.23Z" fill="#fff"/><path d="M843.46,242.63H661.94V108.83A37.38,37.38,0,0,0,624.6,71.49h-259a37.38,37.38,0,0,0-37.34,37.34v361H234.39a34.57,34.57,0,0,0-34.54,34.54V902.41c-.1,17.3,2.16,42.35,13.41,63.85,14,26.7,37.65,40.91,70.41,42.25h.26a6.41,6.41,0,0,0,5.62-9.51c-11.08-20.11-16-41.06-14.75-62.37H537.55a34.57,34.57,0,0,0,34.54-34.54V824.53H790a162.73,162.73,0,0,1-12,68.14,6.43,6.43,0,0,0,5.93,8.88h.26c35.19-1.4,61.31-15.57,77.63-42.13,13.86-22.54,17.57-49.72,18.24-68.61.07-.86.14-1.87.14-3V279.33A36.73,36.73,0,0,0,843.46,242.63ZM602.86,646.72a6.42,6.42,0,0,0-3.91-1.86c-.21,0-.42,0-.64,0H572.09V504.35a34.57,34.57,0,0,0-34.54-34.54H512.19V279.33a23.88,23.88,0,0,1,23.86-23.86H649.11V620.32a24.91,24.91,0,0,1-.78,6,8,8,0,0,0-.16.85c-3.64,32.61-10.43,60.32-53.6,67.58,8.4-16.37,10.1-27.93,10.16-43.48A6.38,6.38,0,0,0,602.86,646.72ZM341,620.32V482.64H499.35V644.83H365.55A24.54,24.54,0,0,1,341,620.32Zm218.21,24.51H512.19V482.64h25.36a21.73,21.73,0,0,1,21.7,21.71Zm-47.06,12.83h47.06v154h-23.2a23.88,23.88,0,0,1-23.86-23.85ZM341,108.83a24.54,24.54,0,0,1,24.51-24.51H624.6a24.54,24.54,0,0,1,24.51,24.51v133.8H536.05a36.74,36.74,0,0,0-36.7,36.7V469.81H341ZM559.25,902.09a21.72,21.72,0,0,1-21.7,21.7H268.92a6.42,6.42,0,0,0-6.38,5.71A123.4,123.4,0,0,0,273,994.58c-52.65-8.52-60.52-60.62-60.31-92.29v-.1a2.44,2.44,0,0,0,0-.27V504.35a21.74,21.74,0,0,1,21.71-21.71h93.82V620.32a37.39,37.39,0,0,0,33.53,37.15,36.82,36.82,0,0,0,3.81.19h133.8V787.84a36.73,36.73,0,0,0,36.7,36.69h23.2ZM867.32,787.84c0,.68-.06,1.41-.11,2,0,.11,0,.21,0,.32-.6,17.35-3.93,42.27-16.36,62.49s-31.67,32-57.36,35.23a178.51,178.51,0,0,0,9-70.23,6.42,6.42,0,0,0-6.41-6h-224v-154h19.65c-.66,13.41-3.69,24-14.44,41.59a6.44,6.44,0,0,0,0,6.68,5.9,5.9,0,0,0,.5.7c.07.09.15.17.22.25a4.13,4.13,0,0,0,.67.64l.32.26.39.25.32.2.43.21.32.13.47.16.33.09.48.09.37.05.45,0,.21,0,.45,0c13.93-1,25.28-3.64,34.56-7.55,1.33-.56,2.61-1.14,3.86-1.75q.93-.45,1.83-.93c1.2-.63,2.37-1.29,3.49-2,.56-.34,1.11-.68,1.66-1C652.52,680.3,658.06,654,660.88,629a37.37,37.37,0,0,0,1-6.54c0-.72.07-1.44.07-2.15V255.47H843.46a23.89,23.89,0,0,1,23.86,23.86Z"/></svg>