<svg id="Layer_1" data-name="Layer 1" xmlns="http://www.w3.org/2000/svg" viewBox="0 0 1080 352"><path d="M130.28,250a9,9,0,0,0,9,9h8.84v-49.8H130.28Z" fill="#e68522"/><path d="M130.28,98.22a9,9,0,0,1,9-9H175V47.34a9.23,9.23,0,0,0-9.23-9.23H88.44a9.23,9.23,0,0,0-9.23,9.23V157h51.07Z" fill="#00adb3"/><path d="M130.28,98.22V157h9.48a8.39,8.39,0,0,1,8.39,8.39v43.83h9.74c0,5.28-.67,8.83-4.63,15.33,17.88-1.28,20.26-12,21.42-22.3A9.25,9.25,0,0,0,175,200V89.18H139.31A9,9,0,0,0,130.28,98.22Z" fill="#a386b9"/><path d="M88.44,209.19h41.84V157H79.21v43A9.22,9.22,0,0,0,88.44,209.19Z" fill="#7bb82e"/><path d="M130.28,250V209.19H88.44A9.22,9.22,0,0,1,79.21,200V157H49.3a8.39,8.39,0,0,0-8.39,8.39V284.09c-.07,9.69,2.42,29,23.17,29.8a35.58,35.58,0,0,1-4.48-21.45h80.16a8.39,8.39,0,0,0,8.39-8.39V259h-8.84A9,9,0,0,1,130.28,250Z" fill="#ecb11f"/><path d="M231,89.18H175V200a9.25,9.25,0,0,1-.29,2.25c-1.16,10.32-3.54,21-21.42,22.3,4-6.5,4.61-10.05,4.63-15.33h-9.74V259H216.9a51.08,51.08,0,0,1-3.63,23c22.32-.89,26.37-19.79,26.77-31.25,0-.25,0-.51,0-.77V98.22A9,9,0,0,0,231,89.18Z" fill="#dd5143"/><path d="M139.76,157h-9.48v52.22h17.87V165.36A8.39,8.39,0,0,0,139.76,157Z" fill="#fff"/><path d="M231,87.27H176.88V47.34A11.16,11.16,0,0,0,165.74,36.2H88.44A11.15,11.15,0,0,0,77.3,47.34V155.05h-28A10.33,10.33,0,0,0,39,165.36V284.05a.28.28,0,0,0,0,.09c0,5.16.64,12.64,4,19.05,4.17,8,11.24,12.21,21,12.61h.08A1.92,1.92,0,0,0,65.76,313a33.86,33.86,0,0,1-4.4-18.61h78.4a10.31,10.31,0,0,0,10.31-10.3V260.9h65a48.62,48.62,0,0,1-3.58,20.34,1.91,1.91,0,0,0,1.77,2.64h.07c10.5-.42,18.3-4.64,23.17-12.57,4.13-6.73,5.24-14.84,5.44-20.47,0-.26,0-.56,0-.89V98.22A11,11,0,0,0,231,87.27ZM159.25,207.84a1.92,1.92,0,0,0-1.17-.55h-8V165.36a10.32,10.32,0,0,0-10.31-10.31h-7.57V98.22a7.13,7.13,0,0,1,7.12-7.12h33.74V200a7.58,7.58,0,0,1-.23,1.79,2.21,2.21,0,0,0,0,.25c-1.08,9.73-3.11,18-16,20.17a25.5,25.5,0,0,0,3-13A1.92,1.92,0,0,0,159.25,207.84ZM81.13,200V158.89h47.23v48.39H88.44A7.32,7.32,0,0,1,81.13,200Zm65.11,7.31H132.19V158.89h7.57a6.48,6.48,0,0,1,6.48,6.47Zm-14.05,3.83h14.05v46h-6.93a7.13,7.13,0,0,1-7.12-7.12ZM81.13,47.34A7.32,7.32,0,0,1,88.44,40h77.3a7.32,7.32,0,0,1,7.31,7.31V87.27H139.31a11,11,0,0,0-10.95,11v56.83H81.13Zm65.11,236.71a6.48,6.48,0,0,1-6.48,6.47H59.6a1.92,1.92,0,0,0-1.9,1.7,36.87,36.87,0,0,0,3.12,19.42c-15.71-2.54-18.06-18.09-18-27.53v0s0-.06,0-.09V165.36a6.48,6.48,0,0,1,6.48-6.47h28V200a11.15,11.15,0,0,0,10,11.08,10.6,10.6,0,0,0,1.14.06h39.92V250a11,11,0,0,0,10.95,10.95h6.93ZM238.16,250a5.79,5.79,0,0,1,0,.61v.1c-.18,5.17-1.18,12.61-4.88,18.65s-9.46,9.55-17.12,10.51a53.38,53.38,0,0,0,2.69-21,1.93,1.93,0,0,0-1.92-1.79H150.07v-46h5.86c-.2,4-1.1,7.15-4.3,12.41a1.88,1.88,0,0,0,0,2,1.1,1.1,0,0,0,.14.21l.07.08.11.11.09.08.1.08.11.07.1.06.13.06.09,0,.14,0,.1,0,.14,0,.11,0h.34a32.42,32.42,0,0,0,10.31-2.26c.4-.16.78-.34,1.15-.52l.55-.28c.36-.19.7-.38,1-.58l.49-.31c7.13-4.62,8.78-12.45,9.62-19.92a11.1,11.1,0,0,0,.3-1.95c0-.22,0-.43,0-.64V91.1H231a7.12,7.12,0,0,1,7.12,7.12Z"/><path d="M331.07,152.5V119.91a80.61,80.61,0,0,1,18.5,0v99.61c-11,3.55-23.77,5.69-32.87,5.69-22.2,0-33.58-12.81-33.58-37s11.38-37,33.58-37A91.72,91.72,0,0,1,331.07,152.5Zm0,59.05V164.88a44.21,44.21,0,0,0-8.68-.86c-14.37,0-20.07,8-20.07,24.19s5.7,24.19,20.07,24.19A44.07,44.07,0,0,0,331.07,211.55Z" fill="#dd5143"/><path d="M366.78,129.87a10.89,10.89,0,1,1,10.81,11A10.84,10.84,0,0,1,366.78,129.87Zm20.06,22.77v71.14a79.49,79.49,0,0,1-18.5,0V152.64A80.61,80.61,0,0,1,386.84,152.64Z" fill="#dd5143"/><path d="M475.34,162.17A29.73,29.73,0,0,0,464.1,165a18.81,18.81,0,0,1,2.71,9.67c0,13.38-9.82,23.34-30.31,23.34a46.56,46.56,0,0,1-13.94-1.85,10.55,10.55,0,0,0-.86,4c0,6.69,5.83,8.83,14.94,8.83,18.93,0,37.28,2.27,37.28,22,0,14.94-12.66,25.47-37.42,25.47-21.77,0-34.43-8.54-34.43-23.34,0-6.82,3.41-13.09,9.81-17.5a18.82,18.82,0,0,1-4.41-12.09c0-5,1.57-8.11,4.7-12.81a21,21,0,0,1-7.26-16.08c0-13.51,11.24-23.47,31.59-23.47a35.76,35.76,0,0,1,18.35,4.69,79,79,0,0,1,18.79-8.25A54.8,54.8,0,0,1,475.34,162.17Zm-40.12,61H422.56a17.53,17.53,0,0,0-2,8.54c0,7.4,5.12,11.95,15.94,11.95,12.38,0,17.5-4.69,17.5-11.38C454,227.77,451.72,223.21,435.22,223.21ZM449,174.69c0-6.54-5-11.38-12.52-11.38s-12.38,4.84-12.38,11.38,5,11.25,12.38,11.25S449,181.24,449,174.69Z" fill="#dd5143"/><path d="M487.58,129.87a10.89,10.89,0,1,1,10.81,11A10.83,10.83,0,0,1,487.58,129.87Zm20.06,22.77v71.14a79.49,79.49,0,0,1-18.5,0V152.64A80.61,80.61,0,0,1,507.64,152.64Z" fill="#dd5143"/><path d="M576.44,209.27a38.1,38.1,0,0,1,1.14,12.66,61,61,0,0,1-20.34,3.28c-20.64,0-34.58-12.81-34.58-37s13.94-37,34.58-37a61,61,0,0,1,20.34,3.27,38.08,38.08,0,0,1-1.14,12.66c-5.83-1.85-10.67-3.13-17.93-3.13-9.53,0-15.93,7.54-15.93,24.19s6.4,24.19,15.93,24.19C565.77,212.4,570.61,211.12,576.44,209.27Z" fill="#00adb3"/><path d="M656.84,188.21c0,25.47-12.52,37-34.44,37S588,213.68,588,188.21s12.52-37,34.43-37S656.84,162.74,656.84,188.21Zm-19.93,0c0-17.93-6.25-24.19-14.51-24.19s-14.51,6.26-14.51,24.19,6.26,24.19,14.51,24.19S636.91,206.14,636.91,188.21Z" fill="#00adb3"/><path d="M770.09,171.85v51.93a79.41,79.41,0,0,1-18.49,0v-45.1c0-9-1.85-14.37-10-14.37A59.77,59.77,0,0,0,729.69,166v57.76a80.7,80.7,0,0,1-18.64,0v-45.1c0-9-1.71-14.37-9.82-14.37a59.72,59.72,0,0,0-12.1,1.71v57.76a79.41,79.41,0,0,1-18.49,0V157.19c9.67-3.55,24.75-6,34.71-6,7.12,0,12.24,1.14,15.94,3a121.87,121.87,0,0,1,24.62-3C766.25,151.22,770.09,160.32,770.09,171.85Z" fill="#00adb3"/><path d="M806,223.93v32.58a80.61,80.61,0,0,1-18.5,0v-99.6c10.82-3.56,23.77-5.69,32.87-5.69,22.06,0,33.58,12.8,33.58,37s-11.52,37-33.58,37A92.94,92.94,0,0,1,806,223.93Zm0-59.05v46.67a44,44,0,0,0,8.68.85c14.37,0,20.06-8,20.06-24.19S829,164,814.63,164A44.15,44.15,0,0,0,806,164.88Z" fill="#00adb3"/><path d="M867.7,119.91a80.61,80.61,0,0,1,18.5,0V223.78a79.49,79.49,0,0,1-18.5,0Z" fill="#00adb3"/><path d="M900,188.21c0-24.19,13.94-37,34.72-37,14.51,0,29,6.26,29,29.45a47.64,47.64,0,0,1-1.13,10.25H919.35c.71,15.5,7,21.48,18.93,21.48a64.56,64.56,0,0,0,18.35-3.13,38.37,38.37,0,0,1,1.14,12.66,71.59,71.59,0,0,1-20.92,3.28C913.66,225.21,900,212.4,900,188.21Zm45.39-8.39a26.83,26.83,0,0,0,.14-3.28c0-8.11-4.27-12.52-10.81-12.52-7.54,0-13.38,5.13-14.94,15.8Z" fill="#00adb3"/><path d="M1041,223.78a107.17,107.17,0,0,1-21.49,0,170,170,0,0,0-13.8-27.32l-13.8,27.32a105.78,105.78,0,0,1-21.35,0l20.35-37h.14c-7.68-10.67-13.65-22.06-19.63-34.15a110.09,110.09,0,0,1,21.63,0,162.77,162.77,0,0,0,12.66,26l13.37-26a110.09,110.09,0,0,1,21.63,0l-20.34,34.15h.14A234.09,234.09,0,0,1,1041,223.78Z" fill="#00adb3"/></svg>