<?xml version="1.0" encoding="utf-8"?>
<!-- Generator: Adobe Illustrator 23.0.0, SVG Export Plug-In . SVG Version: 6.00 Build 0)  -->
<svg version="1.1" id="Layer_1" xmlns="http://www.w3.org/2000/svg" xmlns:xlink="http://www.w3.org/1999/xlink" x="0px" y="0px"
	 viewBox="0 0 124.1 157.2" style="enable-background:new 0 0 124.1 157.2;" xml:space="preserve">
<style type="text/css">
	.st0{fill:#DB3D27;}
</style>
<g id="Group_1619" transform="translate(0 0)">
	<path id="Path_4393" class="st0" d="M0.8,139.7l25.9,17.2c0.3,0.2,0.6,0.3,1,0.3c0.1,0,0.2,0,0.3,0c0.5-0.1,0.9-0.4,1.1-0.7
		l3.6-5.2c0.5-0.8,0.3-1.9-0.5-2.5l-7.1-4.8l8.4-12.7l15.1,10c0.3,0.2,0.6,0.3,1,0.3c0.1,0,0.2,0,0.4,0c0.5-0.1,0.9-0.4,1.1-0.8
		l3.6-5.2c0.5-0.8,0.3-1.9-0.5-2.5l-3.7-2.5l44.5-67.3c1.9-2.9,2.5-6.4,1.8-9.7c-0.3-1.7-1-3.3-2-4.7l4-6c0.5-0.8,0.3-1.9-0.5-2.5
		c0,0,0,0,0,0l0,0L95.9,39l3.7-5.6c0.3-0.4,0.4-0.9,0.3-1.3c-0.1-0.5-0.4-0.9-0.8-1.1l-3.7-2.5L113,2L110,0L92.4,26.5L88.7,24
		c-0.8-0.5-1.9-0.3-2.5,0.5l-3.7,5.6l-2.2-1.5c-0.8-0.5-1.9-0.3-2.5,0.5l-4,5.9c-5.2-1.1-10.4,1.1-13.3,5.5l-44.6,67.4l-3.7-2.5
		c-0.8-0.5-1.9-0.3-2.4,0.5c0,0,0,0,0,0l-3.5,5.2c-0.5,0.8-0.3,1.9,0.5,2.5l15.1,10l-8.4,12.7l-7.1-4.8c-0.8-0.5-1.9-0.3-2.4,0.5
		c0,0,0,0,0,0l-3.5,5.2C-0.2,138.1,0,139.2,0.8,139.7C0.8,139.7,0.8,139.7,0.8,139.7L0.8,139.7z M47.2,128.6l-6.2-4.1l-2.3-1.5
		l26.9-40.5l8.4,5.6L47.2,128.6z M35.8,121.1l-5.6-3.7l26.9-40.5l5.6,3.7L35.8,121.1z M88.2,27.9l7.5,4.9L93,37l-7.5-5L88.2,27.9z
		 M79.8,32.5l14.9,9.9l-2.5,3.8c-0.3-0.3-0.7-0.5-1-0.8L78.4,37c-0.4-0.2-0.7-0.5-1.1-0.7L79.8,32.5z M63.5,42.6
		c2.3-3.4,6.6-5,10.5-3.7l17.2,11.4c1,1.2,1.7,2.6,2,4.1c0.5,2.5,0,5-1.4,7.1L76,85.2L58.1,73.3l-0.5-0.3l0,0l-9.9-6.6L63.5,42.6z
		 M45.7,69.3l8.4,5.6l-26.8,40.5l-8.4-5.6L45.7,69.3z M10.1,111.6l1.5-2.2l15.1,10l0,0l8.5,5.7l0,0l15.1,10l-1.5,2.3L10.1,111.6z
		 M24.8,125.5l5.6,3.7L22,142l-5.6-3.7L24.8,125.5z M5.7,135.5l15.6,10.4h0.1l7.1,4.8l-1.5,2.3L4.2,137.7L5.7,135.5z"/>
	<path id="Path_4394" class="st0" d="M113.4,11.8c-1.3,1.9-7.7,11.4-7.7,15.8c0,5.1,4.1,9.2,9.2,9.2c5.1,0,9.2-4.1,9.2-9.2
		c0-4.4-6.4-14-7.7-15.8c-0.6-0.8-1.7-1-2.5-0.4C113.7,11.5,113.5,11.6,113.4,11.8L113.4,11.8z M114.9,33.3c-3.1,0-5.6-2.5-5.6-5.6
		v0c0-2,2.9-7.4,5.6-11.6c2.7,4.2,5.6,9.5,5.6,11.6C120.5,30.7,118,33.3,114.9,33.3z"/>
</g>
</svg>
