<?xml version="1.0" encoding="utf-8"?>
<!-- Generator: Adobe Illustrator 23.0.0, SVG Export Plug-In . SVG Version: 6.00 Build 0)  -->
<svg version="1.1" id="Layer_1" xmlns="http://www.w3.org/2000/svg" xmlns:xlink="http://www.w3.org/1999/xlink" x="0px" y="0px"
	 viewBox="0 0 156.7 156.7" style="enable-background:new 0 0 156.7 156.7;" xml:space="preserve">
<style type="text/css">
	.st0{fill:#DB3D27;}
</style>
<g>
	<path id="Path_4395" class="st0" d="M144.1,5.1c-7,0-12.6,5.7-12.6,12.6v2.5h-10.1v-7.6c0-1.4-1.1-2.5-2.5-2.5c0,0,0,0,0,0h-2.5
		V2.5c0-1.4-1.1-2.5-2.5-2.5c0,0,0,0,0,0H98.6c-1.4,0-2.5,1.1-2.5,2.5c0,0,0,0,0,0v7.6h-2.5c-1.4,0-2.5,1.1-2.5,2.5c0,0,0,0,0,0v7.6
		H78.4c-4.2,0-7.6,3.4-7.6,7.6V91h-5.1c-2.8,0-5.1-2.3-5.1-5.1V70.8h2.5c1.4,0,2.5-1.1,2.5-2.5c0,0,0,0,0,0V37.9
		c0-1.4-1.1-2.5-2.5-2.5c0,0,0,0,0,0h-2.5V20.2c0-0.6-0.2-1.1-0.6-1.6L50,6l-3.9,3.2l9.6,11.9v14.3h-2.5c-1.4,0-2.5,1.1-2.5,2.5
		c0,0,0,0,0,0v30.3c0,1.4,1.1,2.5,2.5,2.5c0,0,0,0,0,0h2.5v15.2c0,5.6,4.5,10.1,10.1,10.1h5.1v17.7c0,4.2,3.4,7.6,7.6,7.6H134
		c4.2,0,7.6-3.4,7.6-7.6V96.1h5.1c5.6,0,10.1-4.5,10.1-10.1V17.7C156.7,10.7,151.1,5.1,144.1,5.1z M55.6,40.4h5.1v25.3h-5.1V40.4z
		 M101.1,5.1h10.1v5.1h-10.1L101.1,5.1z M96.1,15.2h20.2v5.1H96.1V15.2z M78.4,25.3H134c1.4,0,2.5,1.1,2.5,2.5v7.6H75.8v-7.6
		C75.8,26.4,77,25.3,78.4,25.3z M136.5,40.4v60.7H75.8V40.4L136.5,40.4z M134,116.3H78.4c-1.4,0-2.5-1.1-2.5-2.5v-7.6h60.7v7.6
		C136.5,115.1,135.4,116.3,134,116.3z M151.7,85.9c0,2.8-2.3,5.1-5.1,5.1h-5.1V27.8c0-3.2-2-6.1-5.1-7.1v-3c0-4.2,3.4-7.6,7.6-7.6
		c4.2,0,7.6,3.4,7.6,7.6V85.9z"/>
	<path id="Path_4396" class="st0" d="M106.2,96.1c14,0,25.3-11.3,25.3-25.3s-11.3-25.3-25.3-25.3c-14,0-25.3,11.3-25.3,25.3
		C80.9,84.7,92.2,96,106.2,96.1z M106.2,91c-4.5,0-8.8-1.5-12.4-4.3l8.7-8.7c2.6,1.9,5.8,2.9,9,2.9h2.2c1.4,0,2.5-1.1,2.5-2.5
		c0,0,0,0,0,0v-2.2c0-3.2-1-6.4-2.9-9l8.7-8.7c6.9,8.8,5.3,21.5-3.5,28.3C115.1,89.5,110.7,91,106.2,91z M101.1,65.7
		c1.8,0.1,3.5,0.6,5,1.5l-3.5,3.5C101.7,69.2,101.2,67.5,101.1,65.7L101.1,65.7z M111.2,75.8c-1.8-0.1-3.5-0.6-5-1.5l3.5-3.5
		C110.6,72.3,111.1,74.1,111.2,75.8L111.2,75.8z M106.2,50.6c4.5,0,8.8,1.5,12.4,4.3l-8.7,8.7c-2.6-1.9-5.8-2.9-9-2.9h-2.2
		c-1.4,0-2.5,1.1-2.5,2.5c0,0,0,0,0,0v2.2c0,3.2,1,6.4,2.9,9l-8.7,8.7c-6.9-8.8-5.3-21.5,3.5-28.3C97.3,52.1,101.7,50.6,106.2,50.6
		L106.2,50.6z"/>
	<path id="Path_4397" class="st0" d="M73.3,126.4h-2.2c-4.1,0-8,1.6-10.9,4.5c-0.7,0.8-1.4,1.6-2,2.5c-0.6-0.9-1.3-1.7-2-2.5
		c-2.9-2.9-6.8-4.5-11-4.5H43c-1.4,0-2.5,1.1-2.5,2.5c0,0,0,0,0,0v2.2c0,8.4,6.7,15.3,15.2,15.5v10.1h5.1v-10.1
		c8.4-0.2,15.2-7,15.2-15.5v-2.2C75.8,127.5,74.7,126.4,73.3,126.4C73.3,126.4,73.3,126.4,73.3,126.4z M48.6,138.5
		c-1.9-1.9-3-4.4-3-7.1c2.7,0.1,5.2,1.2,7.1,3c1.9,1.9,3,4.4,3,7.1C52.9,141.5,50.4,140.4,48.6,138.5z M67.7,138.5
		c-1.9,1.9-4.4,3-7.1,3c0.1-2.7,1.2-5.2,3-7.1c1.9-1.9,4.4-3,7.1-3C70.7,134.1,69.6,136.6,67.7,138.5L67.7,138.5z"/>
	<path id="Path_4398" class="st0" d="M113.7,126.4h-2.2c-4.1,0-8,1.6-10.9,4.5c-0.7,0.8-1.4,1.6-2,2.5c-0.6-0.9-1.3-1.7-2-2.5
		c-2.9-2.9-6.8-4.5-11-4.5h-2.2c-1.4,0-2.5,1.1-2.5,2.5c0,0,0,0,0,0v2.2c0,8.4,6.7,15.3,15.2,15.5v10.1h5.1v-10.1
		c8.4-0.2,15.2-7,15.2-15.5v-2.2C116.3,127.5,115.1,126.4,113.7,126.4C113.7,126.4,113.7,126.4,113.7,126.4z M89,138.5
		c-1.9-1.9-3-4.4-3-7.1c2.7,0.1,5.2,1.2,7.1,3c1.9,1.9,3,4.4,3,7.1C93.4,141.5,90.9,140.4,89,138.5z M108.2,138.5
		c-1.9,1.9-4.4,3-7.1,3c0.1-2.7,1.2-5.2,3-7.1c1.9-1.9,4.4-3,7.1-3C111.1,134.1,110,136.6,108.2,138.5L108.2,138.5z"/>
	<path id="Path_4399" class="st0" d="M154.2,126.4H152c-4.1,0-8,1.6-10.9,4.5c-0.7,0.8-1.4,1.6-2,2.5c-0.6-0.9-1.3-1.7-2-2.5
		c-2.9-2.9-6.8-4.5-11-4.5h-2.2c-1.4,0-2.5,1.1-2.5,2.5c0,0,0,0,0,0v2.2c0,8.4,6.7,15.3,15.2,15.5v10.1h5.1v-10.1
		c8.4-0.2,15.2-7,15.2-15.5v-2.2C156.7,127.5,155.6,126.4,154.2,126.4C154.2,126.4,154.2,126.4,154.2,126.4z M129.4,138.5
		c-1.9-1.9-3-4.4-3-7.1c2.7,0.1,5.2,1.2,7.1,3c1.9,1.9,3,4.4,3,7.1C133.8,141.5,131.3,140.4,129.4,138.5z M148.6,138.5
		c-1.9,1.9-4.4,3-7.1,3c0.1-2.7,1.2-5.2,3-7.1c1.9-1.9,4.4-3,7.1-3C151.6,134.1,150.5,136.6,148.6,138.5L148.6,138.5z"/>
	<path id="Path_4400" class="st0" d="M32.9,98.6h-2.2c-4.1,0-8,1.6-10.9,4.5c-0.7,0.8-1.4,1.6-2,2.5c-0.6-0.9-1.3-1.7-2-2.5
		c-2.9-2.9-6.8-4.5-11-4.5H2.5c-1.4,0-2.5,1.1-2.5,2.5c0,0,0,0,0,0v2.2c0,8.4,6.7,15.3,15.2,15.5v11.7c-2.8-2.6-6.6-4.1-10.4-4.1
		H2.5c-1.4,0-2.5,1.1-2.5,2.5c0,0,0,0,0,0v2.2c0,8.4,6.7,15.3,15.2,15.5v10.1h5.1v-10.1c8.4-0.2,15.2-7,15.2-15.5v-2.2
		c0-1.4-1.1-2.5-2.5-2.5c0,0,0,0,0,0h-2.2c-3.9,0-7.6,1.4-10.4,4.1v-11.7c8.4-0.2,15.2-7,15.2-15.5v-2.2
		C35.4,99.7,34.3,98.6,32.9,98.6C32.9,98.6,32.9,98.6,32.9,98.6z M8.1,110.7c-1.9-1.9-3-4.4-3-7.1c2.7,0.1,5.2,1.2,7.1,3
		c1.9,1.9,3,4.4,3,7.1C12.5,113.7,10,112.6,8.1,110.7z M8.1,138.5c-1.9-1.9-3-4.4-3-7.1c2.7,0.1,5.2,1.2,7.1,3c1.9,1.9,3,4.4,3,7.1
		C12.5,141.5,10,140.4,8.1,138.5L8.1,138.5z M23.3,134.5c1.9-1.9,4.4-3,7.1-3c-0.1,2.7-1.2,5.2-3,7.1c-1.9,1.9-4.4,3-7.1,3
		C20.3,138.9,21.4,136.4,23.3,134.5L23.3,134.5z M27.3,110.7c-1.9,1.9-4.4,3-7.1,3c0.1-2.7,1.2-5.2,3-7.1c1.9-1.9,4.4-3,7.1-3
		C30.2,106.3,29.2,108.8,27.3,110.7L27.3,110.7z"/>
	<path id="Path_4401" class="st0" d="M11.9,34.6l5.8-5.8l5.8,5.8l3.6-3.6l-5.8-5.8l5.8-5.8l-3.6-3.6l-5.8,5.8l-5.8-5.8l-3.6,3.6
		l5.8,5.8l-5.8,5.8L11.9,34.6z"/>
	<path id="Path_4402" class="st0" d="M11.9,59.9l5.8-5.8l5.8,5.8l3.6-3.6l-5.8-5.8l5.8-5.8l-3.6-3.6L17.7,47l-5.8-5.8l-3.6,3.6
		l5.8,5.8l-5.8,5.8L11.9,59.9z"/>
	<path id="Path_4403" class="st0" d="M11.9,85.2l5.8-5.8l5.8,5.8l3.6-3.6l-5.8-5.8l5.8-5.8l-3.6-3.6l-5.8,5.8l-5.8-5.8L8.3,70
		l5.8,5.8l-5.8,5.8L11.9,85.2z"/>
</g>
</svg>
