<svg id="Layer_1" data-name="Layer 1" xmlns="http://www.w3.org/2000/svg" viewBox="0 0 1775.4 523.61"><path d="M412.56,411.17c0,48.16,215,87.21,480.1,87.21s480.09-39.05,480.09-87.21S1157.81,324,892.66,324,412.56,363,412.56,411.17Z" fill="#9daad3"/><path d="M1145.18,395.33s0-5.79.82-7.71,3.85-9.76,3.85-9.76h11.82s2.2,7.14,2.34,9.48,0,8,0,8Z" fill="#0c3563"/><path d="M1220.23,395.33s0-5.79-.82-7.71-3.85-9.76-3.85-9.76h-11.82s-2.2,7.14-2.34,9.48,0,8,0,8Z" fill="#0c3563"/><path d="M1172.87,70.52s-.41,12.88-2.06,18.66l-13.06,9.1,49.14,7.36-11.72-16.2s-3.53-17.27-1.68-23.66S1172.87,70.52,1172.87,70.52Z" fill="#ffb27b"/><path d="M1172.8,72.3s3.89,9.35,11.21,9.15,9-8.49,9-8.49Z" fill="#ff985b"/><path d="M1168.43,64.72s-2.36-11.8-4-15.37-3-19.52,15.26-20.34c0,0,7,.82,10.86-1.51,0,0,0,2.33-1,3.16a12.16,12.16,0,0,1,11.27,4c5,5.5-3.29,24.74-2.88,29.28Z" fill="#1f3765"/><path d="M1183.17,77.83c-5.3-.09-15.07-7.15-15.07-15.9V48.28c0-3.19,2.23-5.8,5-5.8h20.23c2.73,0,5,2.61,5,5.8V61.16C1198.23,70.33,1189.25,77.94,1183.17,77.83Z" fill="#ffb27b"/><path d="M1168.1,55.57s0-8.2,6.53-9.46,21,4,23.09-2-28.1-5.88-29.62-2.06S1168.1,55.57,1168.1,55.57Z" fill="#1f3765"/><path d="M1146.66,194.92s2.07,63.15-1,99.18,0,86.19,0,86.19,9.89,5.45,20.61,0c0,0,11.76-69.62,11.68-86.19-.08-17.64,12.8-96.43,12.8-96.43Z" fill="#d04b3e"/><path d="M1219.8,380.28s-9.89,5.46-20.61,0c0,0-11.75-69.61-11.68-86.18,0-7.45-2.24-25.81-4.88-44.53-3.62-25.61-7.92-51.9-7.92-51.9l45.8-2.86s-3.77,63.26-.68,99.29S1219.8,380.28,1219.8,380.28Z" fill="#d04b3e"/><path d="M1220,205.42s-19.52,3.78-37.33,3.78a180.68,180.68,0,0,1-22.94-1.75c-7.43-1-12.75-2-12.75-2s-4,.35-1.62-19.17c1.77-14.85,1.22-28.26.82-42.06,0-1.53,0-3.35.08-5.37.76-16.08,5.63-45,9.33-46.6a67.75,67.75,0,0,1,15.26-3c0,.19,5.65,8.45,12.36,9.38,4.17-1.65,7.44-3.06,12-9.12A131.9,131.9,0,0,1,1214,93.07s.7,3.07,3.35,56.3C1218.39,170.45,1225.58,205.49,1220,205.42Z" fill="#5e9af2"/><path d="M1187.51,294.1c0-7.45-2.24-25.81-4.88-44.53,2.74-11.18,9.42-21.95,9.42-21.95C1200.5,251.33,1187.51,294.1,1187.51,294.1Z" fill="#c33f3b"/><path d="M1128.1,155.58c-.47.39,1.16,4.41,3.55,9.66,4.92,10.77,13.1,26.69,13.1,26.69a47.25,47.25,0,0,1-2.49,7.26c-13.75-10.81-22.62-20-28.28-27.05-8-9.92-9.59-15.61-9.59-15.61,30.63-62.34,52.18-64.64,52.18-64.64l-2.54,41.2S1129.51,154.4,1128.1,155.58Z" fill="#0d458d"/><path d="M1225.44,221.72c-4.57,9.14-21.78,8.81-21.78,8.81-3.16-24.28-3.87-140.46-3.87-140.46a118,118,0,0,1,13.57,2.79c5.59,10.81,7.57,31.06,8.06,45.33.27,8,.07,14.1-.23,15.64-.43,2.27.12,13.13,1,25.52C1223.45,198.68,1225.44,221.72,1225.44,221.72Z" fill="#0d458d"/><path d="M1166.28,89.75s-1.15,116.5-4.31,140.78c0,0-17.22.33-21.79-8.81,0,0,7.08-71.69,6-77.53-.78-4.06,1.24-37.48,8.68-51.84A78.71,78.71,0,0,1,1166.28,89.75Z" fill="#0d458d"/><path d="M1143.12,192.71s7.42-6.87,10.44-3,3.58,9.89,1.24,9.48-7.15-2.61-7.84-1.51-3.76,3.2-4.7,1.53S1143.12,192.71,1143.12,192.71Z" fill="#ffb27b"/><path d="M1144.75,191.93a47.25,47.25,0,0,1-2.49,7.26c-13.75-10.81-22.62-20-28.28-27.05,4.26-.32,10.5-1.85,17.67-6.9C1136.57,176,1144.75,191.93,1144.75,191.93Z" fill="#ffb27b"/><path d="M1263.05,156.53s-1.64,5.69-9.59,15.61c-5.67,7.05-14.54,16.24-28.29,27.05a46.69,46.69,0,0,1-2.48-7.26s8.17-15.92,13.1-26.69c2.39-5.25,4-9.27,3.55-9.66-1.1-.91-16.08-13.92-22.76-19.72l-3.17-2.77-1.53-40.59S1232.42,94.19,1263.05,156.53Z" fill="#0d458d"/><path d="M1224.32,192.71s-7.43-6.87-10.45-3-3.57,9.89-1.24,9.48,7.15-2.61,7.84-1.51,3.76,3.2,4.7,1.53S1224.32,192.71,1224.32,192.71Z" fill="#ffb27b"/><path d="M1222.68,191.93a47.25,47.25,0,0,0,2.49,7.26c13.75-10.81,22.62-20,28.28-27.05-4.26-.32-10.5-1.85-17.67-6.9C1230.86,176,1222.68,191.93,1222.68,191.93Z" fill="#ffb27b"/><path d="M1239.34,155.58c-1.1-.91-16.08-13.92-22.76-19.72,0,0,6.67-5,10.79,2.28S1239.34,155.58,1239.34,155.58Z" fill="#0c3563"/><path d="M1263.05,156.53s-1.64,5.69-9.59,15.61C1244.24,172,1263.05,156.53,1263.05,156.53Z" fill="#0c3563"/><path d="M1176.3,61.32c-1.94,0-5.81-.43-6.49-3.8a3,3,0,0,1,.55-2.62,3.63,3.63,0,0,1,2.84-1.2h6a2.64,2.64,0,0,1,2.36,1c.72,1.09.16,2.71-.11,3.36-.92,2.21-2.2,3.25-4,3.25A10.25,10.25,0,0,1,1176.3,61.32Zm-3.1-7.23a3.26,3.26,0,0,0-2.54,1.06,2.67,2.67,0,0,0-.47,2.29c.35,1.73,1.65,2.84,3.86,3.29a11.84,11.84,0,0,0,3.3.15h0c1.64,0,2.8-1,3.66-3,.19-.45.77-2,.14-3a2.29,2.29,0,0,0-2-.79Z" fill="#d04b3e"/><path d="M1190,61.32a10.25,10.25,0,0,1-1.09,0c-1.81,0-3.09-1-4-3.25-.27-.65-.82-2.27-.1-3.36a2.63,2.63,0,0,1,2.35-1h6a3.61,3.61,0,0,1,2.83,1.2,3,3,0,0,1,.56,2.62C1195.85,60.89,1192,61.32,1190,61.32Zm-2.86-7.23a2.28,2.28,0,0,0-2,.79c-.64.95-.06,2.53.13,3,.87,2.06,2,3,3.67,3h0a11.91,11.91,0,0,0,3.31-.15c2.21-.45,3.51-1.56,3.86-3.29a2.67,2.67,0,0,0-.48-2.29,3.22,3.22,0,0,0-2.53-1.06Z" fill="#d04b3e"/><path d="M1181,56.45a.24.24,0,0,1-.21-.14.24.24,0,0,1,.12-.31,5.56,5.56,0,0,1,4.5,0,.23.23,0,0,1,.1.32.24.24,0,0,1-.32.09,5.15,5.15,0,0,0-4.09,0Z" fill="#d04b3e"/><path d="M1222.15,179.35c-9.76-27.5-5.57-43.49-5.57-43.49l4.84,2.33c.27,8,.07,14.1-.23,15.64C1220.76,156.1,1221.31,167,1222.15,179.35Z" fill="#0c3563"/><path d="M773.49,74.21s-11.51-20.87-1-30.09,29.13-3.71,32.55,0,8,14.29-1.47,29.32Z" fill="#1f3765"/><path d="M750.56,407.61s0-5.79.83-7.72,3.85-9.75,3.85-9.75h11.82s2.2,7.14,2.34,9.48,0,8,0,8Z" fill="#0c3563"/><path d="M825.62,407.61s0-5.79-.83-7.72-3.85-9.75-3.85-9.75H809.12s-2.19,7.14-2.33,9.48,0,8,0,8Z" fill="#0c3563"/><path d="M778.26,82.8s-.42,12.88-2.06,18.66l-13.06,9.1,49.14,7.36-11.72-16.2S797,84.45,798.88,78.05,778.26,82.8,778.26,82.8Z" fill="#ca703a"/><path d="M778.19,84.58s3.88,9.35,11.2,9.14,9-8.48,9-8.48Z" fill="#ac5927"/><path d="M798.67,54.76H778.44c-2.72,0-5,2.61-5,5.8V74.21c0,8.74,9.76,15.81,15.07,15.9,6.08.11,15.06-7.5,15.06-16.67V60.56C803.62,57.37,801.39,54.76,798.67,54.76Z" fill="#ca703a"/><path d="M752.05,207.2s2.06,63.15-1,99.18,0,86.19,0,86.19,9.89,5.45,20.62,0c0,0,11.75-69.62,11.68-86.19-.08-17.64,12.8-96.43,12.8-96.43Z" fill="#ff9841"/><path d="M825.19,392.56s-9.89,5.46-20.61,0c0,0-11.75-69.61-11.68-86.18,0-7.45-2.24-25.81-4.89-44.53-3.61-25.61-7.91-51.9-7.91-51.9l45.8-2.86s-3.78,63.26-.68,99.29S825.19,392.56,825.19,392.56Z" fill="#ff9841"/><path d="M817.27,104.78v0a129.45,129.45,0,0,0-16.71-3.09c-4.56,6.06-7.83,7.47-12,9.12-6.71-.93-12.36-9.19-12.36-9.38A74.72,74.72,0,0,0,762,104.17c-.39,0-21.83,2.88-52.18,64.64,0,0,1.64,5.69,9.59,15.61,5.67,7.05,14.54,16.24,28.29,27.05a46.61,46.61,0,0,0,2.48-7.27S742,188.29,737,177.52c-2.39-5.25-4-9.27-3.55-9.66.89-.74,10.78-9.32,18.09-15.67-.06,1.59-.08,3,0,4.28.39,13.8,1,27.21-.83,42.06-2.33,19.52,1.62,19.17,1.62,19.17s5.33,1.05,12.76,2A180.38,180.38,0,0,0,788,221.48c17.82,0,37.34-3.78,37.34-3.78,5.62.07-1.57-35-2.63-56-.24-4.9-.47-9.37-.68-13.45,6.72,5.83,21.59,18.75,22.68,19.66.47.39-1.16,4.41-3.55,9.66-4.92,10.77-13.1,26.68-13.1,26.68a47.17,47.17,0,0,0,2.49,7.27c13.75-10.81,22.62-20,28.28-27.05,8-9.92,9.59-15.61,9.59-15.61C837.8,106.47,817.27,104.78,817.27,104.78Z" fill="#50adbf"/><path d="M765.08,219.73c-7.43-1-12.76-2-12.76-2s-4,.35-1.62-19.17c1.78-14.85,1.22-28.26.83-42.06,0-1.53,0-3.35.08-5.37,1.14,1.83,13.82,22.31,17.24,37.53C771.33,199.74,767.59,212.82,765.08,219.73Z" fill="#288e9c"/><path d="M792.9,306.38c0-7.45-2.24-25.81-4.89-44.53,2.75-11.18,9.43-22,9.43-22C805.89,263.61,792.9,306.38,792.9,306.38Z" fill="#ff862d"/><path d="M748.5,205s7.43-6.87,10.45-3,3.57,9.89,1.24,9.48-7.15-2.61-7.84-1.51-3.76,3.2-4.7,1.53S748.5,205,748.5,205Z" fill="#ca703a"/><path d="M750.13,204.21a46.69,46.69,0,0,1-2.48,7.26c-13.75-10.81-22.62-20-28.29-27.05,4.27-.32,10.5-1.85,17.67-6.9C742,188.29,750.13,204.21,750.13,204.21Z" fill="#ca703a"/><path d="M829.7,205s-7.42-6.87-10.44-3-3.58,9.89-1.24,9.48,7.15-2.61,7.83-1.51,3.77,3.2,4.71,1.53S829.7,205,829.7,205Z" fill="#ca703a"/><path d="M828.07,204.21a48,48,0,0,0,2.48,7.26c13.76-10.81,22.63-20,28.29-27.05-4.27-.32-10.5-1.85-17.67-6.9C836.25,188.29,828.07,204.21,828.07,204.21Z" fill="#ca703a"/><path d="M844.72,167.86c-1.1-.91-16.07-13.92-22.75-19.73,0,0,6.67-5,10.79,2.29S844.72,167.86,844.72,167.86Z" fill="#288e9c"/><path d="M868.43,168.81s-1.63,5.69-9.59,15.61C849.63,184.29,868.43,168.81,868.43,168.81Z" fill="#288e9c"/><path d="M773.49,66.1s3.68-11.24,15.74-9.49,13.11,4.33,14.39,7.32S807.38,53,807.38,53l-14.23-4.22s-17.21,2-18.45,4.84l-1.24,2.89Z" fill="#1f3765"/><path d="M787.57,44.36s-12.75-11.59-7.28-14.06S787.57,44.36,787.57,44.36Z" fill="#1f3765"/><path d="M787.06,44.66s-16.12-6.07-11.95-10.39S787.06,44.66,787.06,44.66Z" fill="#1f3765"/><path d="M788.11,45s-2.64-14.94,3.73-14.83S788.11,45,788.11,45Z" fill="#1f3765"/><path d="M789,44s6.9-16.07,13.32-14.56S789,44,789,44Z" fill="#1f3765"/><path d="M788.65,45s11-13.61,16.77-10.43S788.65,45,788.65,45Z" fill="#1f3765"/><path d="M1032.51,73.05s-4.84-13.76-5.1-17.33,1.35-13.88,13.26-15S1057,38.37,1057,38.37l-2.27,2.68a8.53,8.53,0,0,1,6.76,1.23c3.45,2.27,5.2,9,4.69,14.74s-5,12.13-5.09,14.52S1032.51,73.05,1032.51,73.05Z" fill="#0c3563"/><path d="M1000,215.79s-.27,3.14-3.55,10c0,0-1.51,4.64,8.33,11.62s.28-21.6.28-21.6Z" fill="#ee9358"/><path d="M1034.76,94.38s-5.52,29.55-11.54,60.41c-6.55,33.55-13.68,68.66-15,69.09-2.46.82-6.23-2.39-7.87-6.49-1.31-3.3-3.57-30.41-2-47.92a86,86,0,0,1,1.3-10c2.46-11.07,3.2-50.24,10.58-56.39S1034.76,94.38,1034.76,94.38Z" fill="#ee9358"/><path d="M1034.76,94.38s-3.19,17-7.35,38.73c-1.32,6.89-2.74,14.25-4.19,21.68-5.9,11.57-11,19.43-12.53,18-3.19-3-8.79-3.39-12.34-3.27a86,86,0,0,1,1.3-10c.19-.88.37-1.93.55-3.12,2.07-13.93,3.24-47.6,10-53.27C1017.61,97,1034.76,94.38,1034.76,94.38Z" fill="#5e9af2"/><path d="M1027.41,133.11c-1.32,6.89-2.74,14.25-4.19,21.68-5.9,11.57-11,19.43-12.53,18-3.19-3-8.79-3.39-12.34-3.27a86,86,0,0,1,1.3-10c.19-.88.37-1.93.55-3.12l17.69-42.7Z" fill="#2776ce"/><path d="M1059.24,93.94a130.07,130.07,0,0,0-.78-19.09l-23.78,3.89s0,7.26.1,15.32h0s-.65,7.47,8.55,8.56S1059.48,99.71,1059.24,93.94Z" fill="#ee9358"/><path d="M1034.61,80.21s5.6,11.48,12,11.48,12.43-10.8,12.43-10.8Z" fill="#e17e3f"/><path d="M1050.46,409.28s.87-6.75,2.87-10.76,14.76-1.45,14.76-1.45,2.56,2.18,3.1,12.39Z" fill="#0c3563"/><path d="M1007,409.19c3-1.83,1.29-15.48,1.29-15.48s-14-11.18-15.88-2.62-13.27,12.39-19.73,13.44c-4.46.72-5.84,3.19-6.27,4.66Z" fill="#0c3563"/><path d="M1035.38,81.06c2.31,1.82,9.09,3.62,11,3.84,0,0,10-2.25,11.87-3.35,2.83-1.71,2.65-5.18,2.8-10,.17-5.71.75-10.2.11-13.49-.76-3.94-3.26-6.18-10.25-6.79-12.84-1.11-18.18,2.1-18.41,6.4-.06,1.16-.11,2.26-.15,3.31C1031.89,74.39,1033,79.15,1035.38,81.06Z" fill="#ee9358"/><path d="M1035.93,307.76a63.06,63.06,0,0,0-1,7.55c-1.3,25.32-21.32,83.23-24.9,84.58-5.54,2.09-14.27-2.35-18.83-3.81a3.9,3.9,0,0,1-2.75-4.44c9.91-45.58,13.56-111.21,14.88-150.07a176.29,176.29,0,0,1,4-33.09s48.83-13,49.12,3.45C1056.72,226.51,1040.29,283.71,1035.93,307.76Z" fill="#0d458d"/><path d="M1035.93,307.76l-32.62-66.19a176.29,176.29,0,0,1,4-33.09s48.83-13,49.12,3.45C1056.72,226.51,1040.29,283.71,1035.93,307.76Z" fill="#0c3563"/><path d="M1025.07,212l25.81,187.08s11.34,2.74,20.15.55c0,0,7.56-99.5,6.93-123.56s5.42-64.36-1.38-68.81S1025.07,212,1025.07,212Z" fill="#0d458d"/><path d="M1080.29,207.25a3.86,3.86,0,0,1-3.8,4l-40.68.62-29.87.46c-1.4,0,3-11.17,3.11-84.16,0-16.28,25.24-33.81,25.7-33.81h0c0,2.34,3.69,6.67,9.39,7,6.75.45,15-2.92,15-6.81a18.17,18.17,0,0,1,2,2.65c3.37,4.91,10.17,16.89,14.51,37.76,3.42,16.47,2.11,38.5,4.57,66.92C1080.5,204,1080.24,205.81,1080.29,207.25Z" fill="#ffa400"/><path d="M1078.79,211.49a82.79,82.79,0,0,1-15.52,4.51,152.54,152.54,0,0,1-30.07,3c-19.78.13-27.26-6.68-27.26-6.68-1.4,0,3-11.17,3.11-84.16,0-16.28,25.24-33.81,25.7-33.81h0s-.65,21.68,5.91,28.06c0,0,9.2-7.11,21.14-27.33,3.37,4.91,9.6,19,13.94,39.91a112.86,112.86,0,0,1,1.85,13.85c1.15,14.39.89,32,2.72,53.07.18,2.05-.08,3.87,0,5.31C1080.37,209.42,1081,211.45,1078.79,211.49Z" fill="#5e9af2"/><path d="M1078.79,211.49a82.79,82.79,0,0,1-15.52,4.51c-3.19-4.85-7.2-13.61-7.75-27.41-.94-23.34,21.23-53.39,21.23-53.39l.85,13.67c1.15,14.39.89,32,2.72,53.07.18,2.05-.08,3.87,0,5.31C1080.37,209.42,1081,211.45,1078.79,211.49Z" fill="#2776ce"/><rect x="1033.84" y="139.36" width="43.64" height="59.86" transform="translate(56.79 550.5) rotate(-30)" fill="#0d458d"/><path d="M1095.43,180.94s-7.74.75-21-.61a201.64,201.64,0,0,1-36.37-7.32l4.22-7.2s17.23-.76,29.85-2.6a74.67,74.67,0,0,0,8.23-1.59c2.75-.73-10.87-35.26-17.74-55.56-1.64-4.84-2.9-8.88-3.46-11.45,0,0,1.2.2,3.09.57,5.35,1,16.22,3.53,20.85,7C1089.39,107,1105,160.31,1095.43,180.94Z" fill="#ee9358"/><path d="M1042.46,165.81s-5.84-5.46-8.09-5.46-8.76,2.37-9.42,4.19-.93,5.1.93,5.83a82.71,82.71,0,0,0,11.54,2.73C1039.41,173.28,1044.32,172.19,1042.46,165.81Z" fill="#ee9358"/><path d="M1095.43,180.94s-7.74.75-21-.61c.73-3.59,1.41-10.61-2.3-17.12a74.67,74.67,0,0,0,8.23-1.59c2.75-.73-10.87-35.26-17.74-55.56-.55-6.56-.84-11-.84-11l.47.07c5.35,1,16.22,3.53,20.85,7C1089.39,107,1105,160.31,1095.43,180.94Z" fill="#5e9af2"/><path d="M1040.67,122.44s18.4-8.11,18.68-8.75-.91-5.55-2.19-7c0,0,8.84.82,9.38-.27s.73-10.21.73-10.21-3.46-3.64-8-4c0,0-4,9.89-5.47,12.85C1049.87,112.87,1040.67,122.44,1040.67,122.44Z" fill="#2776ce"/><path d="M1036.29,106.41s1.19,9.47,4.38,16c0,0-9.61-6.7-10.44-8.88s2.33-6.43,2.33-6.43-5.74-.13-5.88-2,1.78-9.43,1.78-9.43,4.94-3.6,6.3-3.46Z" fill="#2776ce"/><path d="M1032.29,65.27s.49-8.55,5.8-8.66,14.55-.62,18.38-4.23-22.8-2-22.8-2S1030.45,60.73,1032.29,65.27Z" fill="#0c3563"/><path d="M1053.61,53.66s6.92,2.82,7.89,7.21C1061.5,60.87,1063.78,44.65,1053.61,53.66Z" fill="#0c3563"/><polygon points="649.16 353.57 654.89 377.72 663.48 377.67 663.79 353.57 649.16 353.57" fill="#ffb27b"/><polygon points="721.4 354.6 737.71 377.72 744.07 369.56 734.25 351.42 721.4 354.6" fill="#ffb27b"/><path d="M662.76,52.06a16.76,16.76,0,0,0-9.17.09,4.28,4.28,0,0,1,1.68-1.26c-1.55.08-4.62,2.26-4.62,2.26C628,49.29,630.94,80.9,632.83,88s-5.14,11-14.93,18.82c-18.69,15-17.6,29.85-17.6,29.85l.58.23c.68-2,2.15-5.69,3.84-6.55,0,.18-1.21,5-1.47,7.63,7.1,3.44,20.7,11.49,30.21,17.23a11.92,11.92,0,0,1-.37-4.67l2.19,5.77c5.09,3.08,8.61,5.26,8.61,5.26-1.7-5.7,18.92-41.76,31.05-53.76,2.4-5.69,1.82-14.79,1.77-15.51.83,7.14.42,11.32-.2,13.75C686.15,92.77,671.34,54.89,662.76,52.06Z" fill="#003261"/><path d="M671.72,110.21c.07,0-6.89,3.64-12.13,2.21-4.92-1.34-8.14-7.72-8.07-7.74,2.09-.41,2.69-3.28,2.64-15.59l1,.18L671,92.41s-.37,5-.38,9.69C670.57,106.05,670.81,109.79,671.72,110.21Z" fill="#ffb27b"/><path d="M646.29,60.65s6-9.7,17.21-3.9C663.5,56.75,657.7,56.91,646.29,60.65Z" fill="#00acb8"/><path d="M671,92.41s-.37,5-.38,9.69c-8.86-.25-13.55-8.34-15.47-12.83Z" fill="#ff9e64"/><path d="M651.85,89.83s-6-6.28-8.35-12.22c-1.66-4.23-2.71-21,14.13-21.93a22.68,22.68,0,0,1,9.93,1.63c4,1.68,10.21,5.83,7.34,21.2l-.52,5.11Z" fill="#003261"/><path d="M742.54,364.27s-4.21.73-7.67,1c-.77.06-1.5.1-2.13.1a37.4,37.4,0,0,1-6.68-1.1l-.16,0-1.81-.45-.1,0s-21-23.38-32.79-60.87c-.27-.88-.57-1.76-.87-2.65-6.45-18.8-19.82-42.4-26.86-63.77q-1.68-5.09-3-9.63c-.29-1-.58-1.92-.84-2.86a226.23,226.23,0,0,1-8.08-42.54l42.35,10.78S711.66,269.3,742.54,364.27Z" fill="#be3b35"/><path d="M673.73,94.92s-20.5,4.49-23.1-8.33-7-20.85,6-24.26,16.52,1,18.43,5S679,93.42,673.73,94.92Z" fill="#ffb27b"/><path d="M665.92,60.13s-2.6,16.17-10.79,20.13-12.41,2.41-12.41,2.41a25,25,0,0,0,5.09-16.08S660.23,53.83,665.92,60.13Z" fill="#003261"/><path d="M664.77,61.63s4.89,2.51,6.57,5.56,3.5,9.68,5.41,9.06c0,0,2.18-11.07-3.75-15.89C666.71,55.25,664.77,61.63,664.77,61.63Z" fill="#003261"/><path d="M654.6,376.37a23.33,23.33,0,0,1-1.09,9.9s-1.41,6.4,4.9,6.52,7.86-.47,7.14-4.4-2.07-10.72-2.07-10.72Z" fill="#ffb27b"/><path d="M653.51,386.27s-1.17,6.05-.46,9.26c0,0,1.91,1.43,6.49,1.43a13.16,13.16,0,0,0,6.61-1.43s.13-6.63-1-9.42C665.12,386.11,660.65,392.82,653.51,386.27Z" fill="#e05344"/><path d="M759.27,389s-11.63-12.91-15.2-19.47L735.42,374l19.33,18.15,4.53-.6Z" fill="#ffb27b"/><path d="M766.66,396.6s-12.5,0-14.64-.24-3.87-3.33-6.19-8c-1-1.89-3.08-2.94-5.26-3.52v10.76h-3.31l-3.12-11.43c-2.06-3.79-.17-7.22,1.28-10.2,1.69,0,6.22,1.14,14.81,10.82a11.27,11.27,0,0,0,9,4.22l.13.07C766.54,392.31,766.66,396.6,766.66,396.6Z" fill="#e05344"/><path d="M734.87,365.26c-.77.06-1.5.1-2.13.1a37.4,37.4,0,0,1-6.68-1.1l-.16,0-1.81-.45-.1,0s-21-23.38-32.79-60.87c-.27-.88-.57-1.76-.87-2.65-6.45-18.8-19.82-42.4-26.86-63.77q-1.68-5.09-3-9.63c-.29-1-.58-1.92-.84-2.86l7.49-5.69S689.58,254.7,696.54,289C702.31,317.38,727.16,354.21,734.87,365.26Z" fill="#a82b2b"/><path d="M667.87,292.17c.13,16.66-.71,55-2.88,70.85,0,0-2.06,1.82-7.17,1.84s-7.56-1.91-7.56-1.91c-5.45-27.58-9.32-50.4-12.14-70.07-2.32-16.14-4.37-30-6-41.89-1.41-10.55-2.43-19.59-2.93-27.39-.06-1.06-.12-2.1-.17-3.11-.06-1.33-.11-2.63-.13-3.89s0-2.5,0-3.7l.18,0,10.52-1,33.25-3.24C672.31,237.82,667.8,282.48,667.87,292.17Z" fill="#be3b35"/><path d="M657.82,364.86a13,13,0,0,1-7.56-1.91c-5.45-27.58-9.32-50.4-12.14-70.07-2.32-16.14-4.37-30-6-41.89-1.41-10.55-2.43-19.59-2.93-27.39-.06-3.84-.1-7.53-.14-10.72s-.1-6-.19-7.88l10.71,6.86,11.27,7.21s-16,14.54-12.06,42S652.35,361,657.82,364.86Z" fill="#a82b2b"/><path d="M666.53,104.15s17.09-2.71,22.82,3c7,7,20.23,47.08,19.7,51.65-.2,1.75-7.13.94-9.51-1.55C687.69,144.81,670.7,113.45,666.53,104.15Z" fill="#d83d3d"/><path d="M699.72,216.08c-12.75,3.31-72.27,9.85-72.78-5.05-.13-3.64,0-8,.28-12.78.89-14.73,3.31-32.92,4.47-42.94.53-4.59-1.24-25.14.12-36.34a25.09,25.09,0,0,1,.82-4.28c2.57-8.46,14.12-10.75,20-11l17.89-.61s18.48,20.64,21,27,3.41,28,5.41,38.56S705.93,214.47,699.72,216.08Z" fill="#d83d3d"/><path d="M664.57,165.7s-10,30.55-37.35,32.55c.89-14.73,3.31-32.92,4.47-42.94.53-4.59-1.24-25.14.12-36.34.35.07.68.27,1.05.34C663,125.14,667.31,159.33,664.57,165.7Z" fill="#be3b35"/><path d="M708.19,159.55s-18,5.89-39.84-3.56c0,0-6-.56-8.92.19,0,0,.63-5.91,3.53-7.52s15.33,1.87,19,1.36C690.14,148.9,704.3,148,708.19,159.55Z" fill="#ff9e64"/><path d="M692.18,145.79s1.69-14.59-4-23.39a3,3,0,0,1,3.46,1.6c1.45,2.28,11.54,24,6.73,25.56S692.18,145.79,692.18,145.79Z" fill="#be3b35"/><path d="M666,148.23c-.25,0-8.48,1.07-9.94,2.1s-.17,4.63,2.57,5S666,148.23,666,148.23Z" fill="#ff9e64"/><path d="M643.48,153.76s23.43-.86,44.68-5c0,0,3.88,0,3.42,3.43s-36.83,22.38-44.83,18.72Z" fill="#ffb27b"/><path d="M688.16,148.79s2.48-3,4-3,5.57,2,6.17,3.77-4.76.52-6.77,2.66S688.16,148.79,688.16,148.79Z" fill="#ffb27b"/><path d="M652.68,103.74s-19.69,0-22.56,7.12c-5.26,12.91,12.06,55.74,16.63,60.08,2,1.87,11.07-1.07,11.07-13.41C657.82,151.13,657.36,113.75,652.68,103.74Z" fill="#d83d3d"/><path d="M1086,231.83c-16.31-4.15-34.24-29.45-34.24-29.45l4.59-4c4.76,5.6,24.53,15.25,24.53,15.25-.11-5.13,0-9.8.35-14.06,2.19-28.94,13.1-38.59,16.08-40.7a8.11,8.11,0,0,1,.76-.49s0,.21,0,.61c0,.86.13,2.59.21,5C1098.94,181.69,1099.67,235.3,1086,231.83Z" fill="#ee9358"/><path d="M1056.39,198.4c-.06-.69-.52-10.63-2.5-12.52s-5.87-4.48-7-4.27-4.92,6.54-3.12,10.9,8,9.87,8,9.87Z" fill="#ee9358"/><path d="M1060.45,199.55l-10.74.45a.65.65,0,0,1-.68-.62l-.85-20.48a.65.65,0,0,1,.62-.67l10.74-.45a.65.65,0,0,1,.67.62l.86,20.48A.65.65,0,0,1,1060.45,199.55Z" fill="#ffa447"/><rect x="1046.31" y="178.09" width="12.04" height="21.79" rx="1.15" transform="translate(-6.98 44.16) rotate(-2.4)" fill="#f46700"/><path d="M1046.08,182.37s2.93-3.27,5.86-.77-.2,7.84-2.74,9.29a20.38,20.38,0,0,0-3.35,2.22Z" fill="#ee9358"/><path d="M1121.55,400.09c-1,4-2.09,7.71-3.2,11.21-.24.76-.47,1.49-.71,2.21l-.36,1.07-.69,2-.9,2.52c-.22.61-.44,1.2-.66,1.78-3.3,8.87-6.07,14.49-6.07,14.49l-6.59-.45a179.89,179.89,0,0,0,3-28.62c0-.61,0-1.21,0-1.83,0-1.3,0-2.64,0-4,0-.55,0-1.12,0-1.69-.13-14.52-1.93-31.67-7.66-48.06a311.32,311.32,0,0,1-10.49-37c-7.89-36.35-6-60.23-6-60.23l37.07,4.33,1.73.21c.16,17,.59,40.14,1,58.21.06,3.14.13,6.12.19,8.9.25,11.6.45,19.54.45,19.54C1128.77,360,1126.18,381.69,1121.55,400.09Z" fill="#e17e3f"/><path d="M1110.94,126.21s8.77,7.46.73,16.06c0,0,6.7.66,9-1.2a6.26,6.26,0,0,1-.85,1.31s7.49.27,10.58-2.07,1.1-40.66-19.69-36.38c0,0-17.62-1.33-16,19.07s-5,20.39-5,20.39a9.49,9.49,0,0,0,2.74.91s1.31-.5,1.57-1.22a4.68,4.68,0,0,1-.6,1.5s7.19.68,10.77-2S1112,130.41,1110.94,126.21Z" fill="#0c3563"/><path d="M1139.24,249.33c-7-15.72-10.36-20.16-10.48-25.1-.09-3.91,1.84-8.13,5.58-18.47a39.19,39.19,0,0,0,1.87-7.48c3-19.94-8.57-41.49-15.74-43-2-.53-5.37-7.73-5.33-19.33l-.9.17-15.09,3s.35,4.75.36,9.22c0,3.73-.2,7.53-1,8-1.09.1-2.07.3-2.07.3s-12.77,9-13.6,21.13c-1.1,16.25,10.35,35.51.19,68C1072.62,278.92,1143.11,258,1139.24,249.33Z" fill="#ee9358"/><path d="M1099.15,139.15s.35,4.75.36,9.22c8.44-.23,12.9-7.94,14.73-12.21Z" fill="#e17e3f"/><path d="M1115.8,134.52s4.43-7,5.49-13c.76-4.27-1.42-20.09-17.32-17.81a21.61,21.61,0,0,0-9,3.38c-3.45,2.34-8.43,7.37-2.86,21.18l1.45,4.66Z" fill="#0c3563"/><path d="M1096.33,143.39s20,.33,20-12.12,2.61-20.78-10.15-21.52-15.24,4-16.25,8.16S1091.14,143,1096.33,143.39Z" fill="#ee9358"/><path d="M1097.07,109.45s5.47,14.6,13.87,16.76,12-.09,12-.09a23.77,23.77,0,0,1-7.77-14.05S1101.2,102.5,1097.07,109.45Z" fill="#0c3563"/><path d="M1098.43,110.63s-4.09,3.26-5.08,6.43-1.45,9.69-3.35,9.47c0,0-4.12-9.92.51-15.54C1095.42,105,1098.43,110.63,1098.43,110.63Z" fill="#0c3563"/><path d="M1165.22,266l-6,1.8s-19.78-32.82-21.58-41.37c-.59-2.78-2-8.34-3.71-14.58-3.47-12.91-8-28.71-8-28.71l-1.48-6.39-5-21.81s9.65,1,15.29,3.34c1.87.78,3.29,1.71,3.79,2.8,4.14,9.11,8.28,32.11,11.19,48.51,1.62,9.14,2.85,16.24,3.5,17.74C1155,231.54,1160.52,254.62,1165.22,266Z" fill="#ee9358"/><path d="M1097.67,111.13s3.9,15.28,14.49,20.18c0,0-10.59-9.39-11.49-19.49S1097.67,111.13,1097.67,111.13Z" fill="#0c3563"/><path d="M1164.8,265s1.82,4.29,3.72,5.49a10.66,10.66,0,0,1,4.1,6.4c.72,4.25-2.54,6.89-4.94,6.89s-4.69-3.27-6.1-11.08c-.08-.43-2.36-4.91-2.36-4.91Z" fill="#ee9358"/><path d="M1142.81,396.9c-2.13,22.75-11.51,37.46-11.51,37.46l-3.21,2.91s-2.92-16.65-5-35.72c-2-18.12-4.77-37.3-7.88-43.15-4.65-8.75-8.09-26.64-10.56-45.54-4.08-31.27-5.52-65.32-5.52-65.32l37.58-1.86c3.78,6.35,5.43,16.78,5.82,28.63a289.28,289.28,0,0,1-1.93,39.05c-1.9,17.56-4.55,32.21-5.16,35.5h0a2,2,0,0,0,.25,1.26C1143.14,364.94,1144.22,381.87,1142.81,396.9Z" fill="#ee9358"/><path d="M1099,197.1c-.84,20.64-3.93,41.09-12.92,39.77-11-1.61-13.89-11.89-14.47-19.54a43.26,43.26,0,0,1,.16-8.49s5.42,0,6.3-.83c4.16-3.85,2.93-41.58,5-45.5s15.44-6.43,15.44-6.43S1099.79,176.69,1099,197.1Z" fill="#ff9841"/><path d="M1099,197.1c-.84,20.64-3.93,41.09-12.92,39.77-11-1.61-13.89-11.89-14.47-19.54,2.7-.13,7.46-.79,9.36-3.68,2.71-4.13,11.16-30.73,11.16-30.73S1095.4,188.89,1099,197.1Z" fill="#ff862d"/><path d="M1121.55,400.09c-1,4-2.09,7.71-3.2,11.21-.24.76-.47,1.49-.71,2.21l-.36,1.07-.69,2-.9,2.52c-.22.61-.44,1.2-.66,1.78-3.3,8.87-6.07,14.49-6.07,14.49l-6.59-.45a179.89,179.89,0,0,0,3-28.62c0-.61,0-1.21,0-1.83,0-1.3,0-2.64,0-4,0-.55,0-1.12,0-1.69-.13-14.52-1.93-31.67-7.66-48.06a311.32,311.32,0,0,1-10.49-37c3.92.81,7.37,0,17.37-.86,1.06-.08,6.09,6.14,11.06,14.39.25,11.6,6,17.43,6,17.43C1128.77,360,1126.18,381.69,1121.55,400.09Z" fill="#0c3563"/><path d="M1142.81,396.9c-2.13,22.75-11.51,37.46-11.51,37.46l-3.21,2.91s-2.92-16.65-5-35.72c-2-18.12-4.77-37.3-7.88-43.15-4.65-8.75-8.09-26.64-10.56-45.54,3.46,1.44,15.24,5.18,35.95.5-1.9,17.56-4.55,32.21-5.16,35.5h0a2,2,0,0,0,.25,1.26C1143.14,364.94,1144.22,381.87,1142.81,396.9Z" fill="#0d458d"/><path d="M1087.26,225.14s22.11,5.55,41.5-.91c0,0,10.65,22.61,13.58,32.3s7.67,29.69,7.67,29.69-39.38,12.16-71.74,0c0,0-1.48-26.65,2.76-40.54S1087.26,225.14,1087.26,225.14Z" fill="#0c3563"/><path d="M1167.4,235.5c0,5.19-5.29,8.37-11,9.92-5.46,1.5-11.27,1.48-13.09.26-3.14-2.1-8.25-25.48-9.74-32.6-.27-1.29-.42-2.05-.42-2.05s-4.08,9.73-4.21,10.64c-.06.41-.11,1-.14,1.47s-.07,1.09-.07,1.09-22.13,11.17-41.5.91c0,0-7.88-45.52-4.46-53.35,1.7-3.89,10.56-11.92,14.11-15.39.79-.78.71-2.32.41-3.73a1.62,1.62,0,0,1,2-1.93c2.28.59,6.38.49,10.78-1a25.88,25.88,0,0,0,6.59-3.22,1,1,0,0,1,1.56.72c.34,2.71,1.16,7.67,2.65,7.67,2.07,0,16.14,1.71,17.17,3.45.35.61,4,8.88,8.63,19.85v0C1155.37,198.84,1167.4,228.86,1167.4,235.5Z" fill="#ff9841"/><path d="M1133.18,211s-4.08,9.73-4.21,10.64c-.06.41-.11,1-.14,1.47a20.27,20.27,0,0,1-6.79,3.56c-6.89,2.09-9.89-11.13-9.48-17.73s10.17-25.43,13.42-25.82S1133.18,211,1133.18,211Z" fill="#ff862d"/><path d="M1133.6,213.08c-.27-1.29-.42-2.05-.42-2.05A11.15,11.15,0,0,1,1133.6,213.08Z" fill="#ff862d"/><path d="M1105.12,229.36c-12.6,0-17.59-3.54-18-3.83l-.81-5.93c.12.09,17,10.23,43.17.52l-.56,4.49C1118.89,228.35,1111.66,229.36,1105.12,229.36Z" fill="#d04b3e"/><path d="M1167.4,235.5c0,5.19-5.29,8.37-11,9.92,7.83-9.32-9.29-65.7-9.73-67.14C1155.37,198.84,1167.4,228.86,1167.4,235.5Z" fill="#ff862d"/><path d="M1120.89,155s-10.53,6.67-18.5,5.09c0,0-1.92-1.21.72-2.43,2.48-1.13,8.25-4.5,7-7.83a25.88,25.88,0,0,0,6.59-3.22,1,1,0,0,1,1.56.72C1118.58,150,1119.4,155,1120.89,155Z" fill="#ff862d"/><path d="M1112.75,440.94h-4.21c-1.41-.22-2.45-.63-3.89-.82a3.88,3.88,0,0,0-3.41.82l0,0h-17.86c-.45-.64,0-2.13.4-3.22a2.57,2.57,0,0,1,1.67-1.53c1.9-.55,5.63-1,9-4.13,1.93-1.74,9.3-6.4,9.3-6.4h0c.16,0,.93.24,4.28,3.07,1.73,1.46,4.69-2.06,4.69-2.06a4.34,4.34,0,0,1,1,1.31,4.49,4.49,0,0,1,.38,2.75c-.27,1.61.59,4.6,1.28,6.62.42,1.23.77,2.1.77,2.1S1116.37,440.49,1112.75,440.94Z" fill="#0c3563"/><path d="M1113.74,428c-1,.71-3.13,2.11-4.53,2.29-1.9.25-5.45-4.6-5.45-4.6h0c.16,0,.93.24,4.28,3.07,1.73,1.46,4.69-2.06,4.69-2.06A4.34,4.34,0,0,1,1113.74,428Z" fill="#2b6aa8"/><path d="M1112.75,440.94h-4.21c-1.41-.22-2.45-.63-3.89-.82a3.88,3.88,0,0,0-3.41.82l0,0h-17.86c-.45-.64,0-2.13.4-3.22.54-.48.7,2.1,1,2.51s14.57.15,15.4-.45a8.61,8.61,0,0,1,6.74-.83c3,.72,7.43-1.12,8.52-1.61.42,1.23.77,2.1.77,2.1S1116.37,440.49,1112.75,440.94Z" fill="#2b6aa8"/><path d="M1135.19,440.94H1131c-1.41-.22-2.45-.63-3.9-.82a3.87,3.87,0,0,0-3.4.82l0,0h-17.87c-.45-.64,0-2.13.41-3.22a2.53,2.53,0,0,1,1.67-1.53c1.89-.55,5.63-1,9.05-4.13,1.92-1.74,9.29-6.4,9.29-6.4h0c.16,0,.93.24,4.29,3.07,1.73,1.46,4.68-2.06,4.68-2.06a4.16,4.16,0,0,1,1,1.31,4.42,4.42,0,0,1,.38,2.75c-.26,1.61.6,4.6,1.28,6.62.42,1.23.77,2.1.77,2.1S1138.81,440.49,1135.19,440.94Z" fill="#0c3563"/><path d="M1136.18,428c-1,.71-3.12,2.11-4.53,2.29-1.9.25-5.45-4.6-5.45-4.6h0c.16,0,.93.24,4.29,3.07,1.73,1.46,4.68-2.06,4.68-2.06A4.16,4.16,0,0,1,1136.18,428Z" fill="#2b6aa8"/><path d="M1135.19,440.94H1131c-1.41-.22-2.45-.63-3.9-.82a3.87,3.87,0,0,0-3.4.82l0,0h-17.87c-.45-.64,0-2.13.41-3.22.54-.48.69,2.1,1,2.51s14.58.15,15.4-.45a8.65,8.65,0,0,1,6.75-.83c3,.72,7.42-1.12,8.51-1.61.42,1.23.77,2.1.77,2.1S1138.81,440.49,1135.19,440.94Z" fill="#2b6aa8"/><path d="M1281.61,349.48c-2.53,6.49-15.52,19.83-28.9,32.44-16,15.06-32.54,29.06-32.54,29.06s-7.56,2.31-4.26-8.83c0,0,18.24-33.52,26.08-43.42,2.24-2.82,4.55-5.4,6.72-7.65a108.65,108.65,0,0,1,9.9-9.14s-1-1.65-2.69-4.5c-8.14-13.95-31.52-56.65-24.3-75.61,8.69-22.84,30.3-33.13,30.3-33.13s6.85,28.9,12.63,58.61C1279.87,314.65,1284.28,342.67,1281.61,349.48Z" fill="#ff973d"/><path d="M1274.55,287.31c-4,18.3-10.87,44.18-18.63,50.13-8.14-13.95-31.52-56.65-24.3-75.61,8.69-22.84,30.3-33.13,30.3-33.13S1268.77,257.6,1274.55,287.31Z" fill="#ff7e1c"/><path d="M1252.71,381.92c-16,15.06-32.54,29.06-32.54,29.06s-7.56,2.31-4.26-8.83c0,0,18.24-33.52,26.08-43.42,2.24-2.82,4.55-5.4,6.72-7.65C1248.45,359.63,1248.7,374.15,1252.71,381.92Z" fill="#ff7e1c"/><path d="M1271.44,271.83s-18.94-47.53-17.94-48.9c.62-.86,1.82-26.79,2.64-46.27.5-11.85.86-21.32.86-21.32s8.39,3,10.4,23.4c.39,3.94.61,7.64.75,11.1.56,14.49-.49,24.69,1.67,29.52,2.68,6,1.72,33.26,2.54,36S1277.45,265,1271.44,271.83Z" fill="#ffb27b"/><path d="M1256.47,240.16l-1.51-5.57c-10.63,4.6-41.89-2.13-41.89-2.13s-9.31,11-4.52,33.43c2.34,10.93,10.62,57.61,14,71.29,1.23,4.95,2.18,8.47,2.56,9.87v0a1.93,1.93,0,0,1-.14,1.27,65.14,65.14,0,0,0-3.31,10.91c-7.74,36.22,13.45,76.24,13.45,76.24l3.62-2.14s1.41-48.27,5.16-70.06a41.26,41.26,0,0,1,2.12-8.44c2.26-5.27,3.86-13.56,5-23.3,2.1-18.42,2.47-42,2.36-60.19C1253.71,271.32,1256.47,240.16,1256.47,240.16Z" fill="#ff973d"/><path d="M1208.5,246.06c-4.32-6.54,10.51-33.26,10-35.78-1-5-3.48-10.46-5.87-15.41s-4.74-9.33-5.57-12.08c.77-1.07,1.52-2.08,2.22-3a27,27,0,0,0,2.58-4,5.58,5.58,0,0,0,.62-3.87,18.24,18.24,0,0,0-1-2.77c-.18-.43-.38-.85-.59-1.27a39.9,39.9,0,0,0-5.51-8c5.22-3.34,13.45-5.05,13.52-4.8.62-.2,1.16-.35,1.59-.46l.92-.22c1-.25,2.08-.46,3-.63,1.87-1.88,4.11-8.85,3.44-19.11l.91.11,15.2,2.06s0,4.75.21,9.21c.21,3.48.61,6.78,1.37,7.5l1.89.17h0l0,0c.86.07,1.65.15,2.37.23h.17c1.34.16,2.45.32,3.35.48l.18,0a14.64,14.64,0,0,1,3.48.93v0c-.13,4.79,7.61,13.17,7.07,24,0,.41-4,28.82-3.94,29.24.32,8.09,4.28,30.88,4.28,30.88C1268,246.56,1210.83,252.79,1208.5,246.06Z" fill="#ffb27b"/><path d="M1222.57,98c-.28-.78-3.59-9.17-16.8-5.5,0,0,6.67-1.26,8.67,1.22,0,0-5.48-2.11-8.69.13s-3.33,9.14-2.7,11.2,4.68,8.06,7.12,7.91a7.36,7.36,0,0,0,2.74-.86,33.92,33.92,0,0,0-.77,3.68c-1.84,12.34,6.83,21.11,10.88,18.56,2.6-1.63,4.92,2.95,4.92,2.95l20.48-30.92S1231.74,88.68,1222.57,98Z" fill="#1f3765"/><path d="M1244,136.73s0,4.75.22,9.21c-8.43.28-13.34-7.12-15.42-11.26Z" fill="#ff985b"/><path d="M1247,140.78s-19.87,1.55-20.65-10.84-3.86-20.54,8.8-22.06,15.42,3.07,16.69,7.14S1252.17,140.06,1247,140.78Z" fill="#ffb27b"/><path d="M1250.84,108.17c-3.3-3.54-5.58-2.58-6.81-1.38-11.24-5.31-17.71,3.95-17.71,3.95a23.71,23.71,0,0,1-6.88,14.47s3.76,2,12-.65a14.28,14.28,0,0,0,6.49-5.09,46.55,46.55,0,0,1-7.4,10.25c9.71-5.23,12.87-19.36,13.18-20.86,1.28,1,3.82,3.24,4.69,5.52,1.18,3.1,2,9.56,3.91,9.23C1252.3,123.61,1255.8,113.47,1250.84,108.17Z" fill="#1f3765"/><path d="M1258.87,436.63H1228s-1.15-4.92.87-8.27c1.79-3,.69-5-.08-7.49,1.39.58,3.06,1.49,5,1.37a15.11,15.11,0,0,0,5.37-2c1.33,1.51,6.23,8.38,8,9.66C1249.26,431.31,1258.25,430.79,1258.87,436.63Z" fill="#0c3563"/><path d="M1213,435.91l-11.61-28.58s4.13-2.92,8-2.3c3.42.55,4.72-.73,6.49-2.88a12.11,12.11,0,0,0,1,5.18,10.81,10.81,0,0,0,3.22,3.64c-.9,1.8-4.73,9.49-5.24,11.62C1214.34,425,1218.21,433.14,1213,435.91Z" fill="#0c3563"/><path d="M1260.13,208.64c0-.24,1.21-9.17,2.29-17.1a25.3,25.3,0,0,0,7.78-2c-.14-3.46-2.44-33.06-14.88-34.72-.6-.17-1.21-.3-1.8-.42l-.18,0c-1.53-.28-2.88-.43-3.35-.47l-.17,0s3.71,10.53,3.64,11.77-12,1.65-19.82,1.75-12.15-12.9-12.22-13.1l-.92.22c-.43.11-10.83,1.7-15.11,5.26a39.9,39.9,0,0,1,5.51,8c.21.42.41.85.59,1.28a17.76,17.76,0,0,1,1,2.76,5.57,5.57,0,0,1-.62,3.87,27,27,0,0,1-2.58,4c-.7,1-1.45,2-2.22,3a28.18,28.18,0,0,0,1.33,3.37h0c1.12,2.46,2.67,5.46,4.24,8.71,2.39,4.94,4.83,10.44,5.87,15.41.53,2.52-14.3,29.24-10,35.78.69,2,6.17,2.84,13.46,2.88,17.37.09,45-4.47,42.45-9.44C1264.41,239.51,1260.45,216.73,1260.13,208.64Z" fill="#0d458d"/><path d="M1222,249c-7.29,0-12.77-.9-13.46-2.88-4.32-6.54,10.51-33.26,10-35.78-1-5-3.48-10.47-5.87-15.41-1.57-3.25-3.12-6.25-4.24-8.71h0c.62-2.42,1-3.83,1-3.83s15.79,18.35,19.41,27C1231.58,216.13,1225,239.27,1222,249Z" fill="#0c3563"/><path d="M1214.46,236.51l-3.12,5.41c-20.07-7.95-32.86-25.86-32.86-25.86-.7-10.17,4.06-21.86,9.76-31.95q1.42-2.51,2.89-4.86a126.79,126.79,0,0,0,15,11.23c-.83,1.38-1.83,3-2.9,4.8-4.45,7.34-10.21,16.73-11,17.48C1191.06,214,1214.46,236.51,1214.46,236.51Z" fill="#ffb27b"/><path d="M1204.07,197.49c-9.88-.66-17.17-13.51-17.17-13.51a123.51,123.51,0,0,1,18.49-24.2C1232.78,170.24,1208.54,194.54,1204.07,197.49Z" fill="#0d458d"/><path d="M1214.46,236.5a6.17,6.17,0,0,0,2.79-1.2c1.1-1,4.6-3.68,4.81-2.84s-2.55,2.15-1.1,2.36,3.71-.76,6-.42,5.75,5.57,4.68,6.19-5-1.44-6-.72-8.39,4.74-14.27,2S1214.46,236.5,1214.46,236.5Z" fill="#ffb27b"/><path d="M967.79,131.1s-14.3-.72-14.7-9-12.2-14.27-8.78-20.89c4.19-8.12.36-15.92,5.66-21.38,5.83-6,13.2-2.75,17.08-6.25s11-6.74,18-2.41,12.36,2,17,6.17c5.09,4.61,3.16,10.41,7.36,13.55,3.85,2.89,2.28,10.78-1,17.19-2.34,4.61,3.05,8.94-6.2,14.25-3.85,2.21-3,7.77-14.7,8.73C982.27,131.53,970.85,129.07,967.79,131.1Z" fill="#1f3765"/><path d="M940.52,448.59s0-5.78.82-7.71,3.85-9.76,3.85-9.76H957s2.2,7.15,2.34,9.49,0,8,0,8Z" fill="#0c3563"/><path d="M1015.57,448.59s0-5.78-.83-7.71-3.84-9.76-3.84-9.76H999.08s-2.2,7.15-2.34,9.49,0,8,0,8Z" fill="#0c3563"/><path d="M968.21,123.78s-.41,12.89-2.06,18.66l-13.06,9.11,49.14,7.35-11.72-16.19S987,125.43,988.83,119,968.21,123.78,968.21,123.78Z" fill="#ca703a"/><path d="M968.14,125.56s3.89,9.36,11.21,9.15,9-8.48,9-8.48Z" fill="#ac5927"/><path d="M978.51,131.1c-5.31-.1-15.07-7.16-15.07-15.9V101.55c0-3.19,2.23-5.8,4.95-5.8h20.23c2.73,0,5,2.61,5,5.8v12.88C993.57,123.59,984.59,131.2,978.51,131.1Z" fill="#ca703a"/><path d="M942,248.18s2.07,63.16-1,99.19,0,86.18,0,86.18,9.89,5.46,20.61,0c0,0,11.76-69.61,11.68-86.18-.08-17.64,12.8-96.43,12.8-96.43Z" fill="#ff9841"/><path d="M1015.14,433.55s-9.89,5.46-20.61,0c0,0-11.75-69.61-11.68-86.18,0-7.45-2.24-25.81-4.89-44.53-3.61-25.62-7.91-51.9-7.91-51.9l45.8-2.86s-3.78,63.26-.68,99.29S1015.14,433.55,1015.14,433.55Z" fill="#ff9841"/><path d="M1007.22,145.77v0a131.05,131.05,0,0,0-16.71-3.08c-4.56,6.06-7.83,7.47-12,9.11-6.71-.92-12.36-9.19-12.36-9.38a74.44,74.44,0,0,0-14.25,2.72c-.39,0-21.83,2.88-52.18,64.64,0,0,1.64,5.69,9.6,15.6,5.66,7.06,14.53,16.25,28.28,27.06a47.68,47.68,0,0,0,2.49-7.27s-8.18-15.91-13.1-26.68c-2.4-5.25-4-9.27-3.55-9.66.88-.74,10.77-9.33,18.08-15.67-.06,1.59-.08,3,0,4.28.4,13.8.95,27.21-.83,42.06-2.33,19.52,1.63,19.17,1.63,19.17s5.32,1,12.75,2A180.52,180.52,0,0,0,978,262.47c17.82,0,37.34-3.78,37.34-3.78,5.62.07-1.57-35-2.62-56.06-.25-4.89-.47-9.36-.69-13.44,6.72,5.83,21.59,18.75,22.68,19.66.47.39-1.15,4.41-3.55,9.66-4.92,10.77-13.1,26.68-13.1,26.68a47.68,47.68,0,0,0,2.49,7.27c13.75-10.81,22.62-20,28.28-27.06,8-9.91,9.6-15.6,9.6-15.6C1027.76,147.45,1007.22,145.77,1007.22,145.77Z" fill="#d04b3e"/><path d="M955,260.72c-7.43-1-12.75-2-12.75-2s-4,.35-1.63-19.17c1.78-14.85,1.23-28.26.83-42.06-.05-1.53,0-3.35.08-5.37,1.14,1.82,13.82,22.31,17.24,37.53C961.28,240.73,957.54,253.81,955,260.72Z" fill="#c33f3b"/><path d="M982.85,347.37c0-7.45-2.24-25.81-4.89-44.53,2.75-11.19,9.43-21.95,9.43-21.95C995.84,304.6,982.85,347.37,982.85,347.37Z" fill="#ff862d"/><path d="M938.45,246s7.43-6.87,10.45-3,3.57,9.9,1.24,9.49-7.15-2.61-7.84-1.51-3.76,3.2-4.7,1.53S938.45,246,938.45,246Z" fill="#ca703a"/><path d="M940.09,245.19a47.68,47.68,0,0,1-2.49,7.27c-13.75-10.81-22.62-20-28.28-27.06,4.26-.31,10.49-1.84,17.67-6.89C931.91,229.28,940.09,245.19,940.09,245.19Z" fill="#ca703a"/><path d="M1019.65,246s-7.42-6.87-10.44-3-3.58,9.9-1.24,9.49,7.15-2.61,7.84-1.51,3.76,3.2,4.7,1.53S1019.65,246,1019.65,246Z" fill="#ca703a"/><path d="M1018,245.19a47.68,47.68,0,0,0,2.49,7.27c13.75-10.81,22.62-20,28.28-27.06-4.27-.31-10.5-1.84-17.67-6.89C1026.2,229.28,1018,245.19,1018,245.19Z" fill="#ca703a"/><path d="M1034.67,208.85c-1.1-.92-16.07-13.93-22.75-19.73,0,0,6.67-5,10.79,2.29S1034.67,208.85,1034.67,208.85Z" fill="#c33f3b"/><path d="M1058.39,209.8s-1.64,5.69-9.6,15.6C1039.58,225.28,1058.39,209.8,1058.39,209.8Z" fill="#c33f3b"/><path d="M963.44,107.08s3.68-11.23,15.74-9.48,13.11,4.33,14.39,7.32S997.33,94,997.33,94L983.1,89.77s-17.21,2-18.45,4.84l-1.24,2.89Z" fill="#1f3765"/><path d="M971.13,115.47c-2.08,0-6.25-.47-7-4.08a3.29,3.29,0,0,1,.6-2.82,3.87,3.87,0,0,1,3-1.29h6.4a2.82,2.82,0,0,1,2.52,1c.78,1.16.18,2.9-.11,3.6-1,2.38-2.36,3.49-4.31,3.49A10.52,10.52,0,0,1,971.13,115.47Zm-3.33-7.77a3.47,3.47,0,0,0-2.73,1.14,2.9,2.9,0,0,0-.51,2.46c.38,1.86,1.77,3,4.15,3.53a12.11,12.11,0,0,0,3.55.16h0c1.76,0,3-1,3.94-3.24.2-.49.82-2.18.14-3.2a2.42,2.42,0,0,0-2.17-.85Z" fill="#1f3765"/><path d="M985.89,115.47a10.52,10.52,0,0,1-1.17-.06c-1.94,0-3.32-1.11-4.31-3.49-.29-.7-.89-2.44-.11-3.6a2.82,2.82,0,0,1,2.52-1h6.4a3.87,3.87,0,0,1,3,1.29,3.29,3.29,0,0,1,.6,2.82C992.14,115,988,115.47,985.89,115.47Zm-3.07-7.77a2.42,2.42,0,0,0-2.17.85c-.68,1-.06,2.71.15,3.2.92,2.21,2.17,3.24,3.93,3.24h0a12.11,12.11,0,0,0,3.55-.16c2.38-.48,3.77-1.67,4.15-3.53a2.9,2.9,0,0,0-.51-2.46,3.47,3.47,0,0,0-2.73-1.14Z" fill="#1f3765"/><path d="M976.22,110.24a.25.25,0,0,1-.23-.15.26.26,0,0,1,.12-.34,6,6,0,0,1,4.84,0,.25.25,0,0,1,.11.34.26.26,0,0,1-.34.11,5.55,5.55,0,0,0-4.4,0A.19.19,0,0,1,976.22,110.24Z" fill="#1f3765"/><path d="M929.68,214.83l-5.86,1.09s-16-24.71-16.49-32.25c-.44-7.19-14.89-38.68,2-58.34a30.32,30.32,0,0,1,2.49-2.6l.1-.09.08.14a37.15,37.15,0,0,1,3.26,8.36c2.47,8.39,5.52,24,6.24,50.86C921.52,182,925.45,205,929.68,214.83Z" fill="#ffa76f"/><path d="M929.68,214.83s6.27,7.09,6.47,10-2.29,6.48-5.08,7.1-1.05-3.81-1.47-5.59-2.24-4.48-2.13-3.67,1.22,4,.88,4.47-1.25.59-1.59-1.1-3.15-3.66-2.6-5.48.1-3.2-.66-5.64-2-5.34-2-5.34l4.52-1Z" fill="#ffa76f"/><path d="M887.31,86.93s-.14,3,1.65,3.58-1.84,7-1.56,11.39,2.21,6.1,2.21,6.1-.92-2.4-.4-3.88c0,0-.09,3.08,2.16,4.64s1.65,2.9,1.65,2.9,5.09-1.52,5.23-5.34a9.89,9.89,0,0,1,0,2.44s4.39-3.3,4.6-7.1-3.46-7-5.13-7.06-5.39-3.34-5.29-4.58S887.31,86.93,887.31,86.93Z" fill="#1f3765"/><path d="M901.36,65.58c-3-4.49-14.71-2-26.24,5.62s-18.49,17.39-15.53,21.89,14.71,2,26.25-5.62S904.32,70.07,901.36,65.58Z" fill="#f2b05f"/><path d="M926.73,397.16l-6.22,2.32S893.5,362,890.17,329a50,50,0,0,1,.89-16.85s-.27-1.51-.73-4.18c-.21-1.24-.48-2.74-.78-4.46-.87-5-2.08-11.92-3.46-19.76-3.18-18-7.3-41.11-10.5-58.06l1.68-.54,18.13-5.85,3.75-11.9,13.5-3.56s3,5.9,5.71,33.78c.5,3.65.95,7.69,1.29,12.06a238.2,238.2,0,0,1-1.28,48.83c-.62,4.84-1.4,9.84-2.37,15a66.88,66.88,0,0,0-.52,14.8C916.84,355.28,926.73,397.16,926.73,397.16Z" fill="#0d458d"/><path d="M919.65,249.72,890.33,308c-.21-1.24-.48-2.74-.78-4.46-.87-5-2.08-11.92-3.46-19.76-3.18-18-7.3-41.11-10.5-58.06l1.68-.54,18.13-5.85,3.75-11.9,16.13-4.8s.39,7.14,3.08,35C918.86,241.31,919.31,245.35,919.65,249.72Z" fill="#0c3563"/><path d="M894.87,66.09,874.13,97.55s-2.37-4.65-5-3C865,97.17,856.2,88.28,858,75.74q.18-1.23.42-2.34c4.14-6,8.74-12.6,12-17.26C880,50.39,894.87,66.09,894.87,66.09Z" fill="#1f3765"/><path d="M904,129.64a35.4,35.4,0,0,1-11.55,6.89c-18.31,6.94-27.73-8.06-31.94-18.65a16.39,16.39,0,0,1,6.14-2.84c1.34-.35,2.76-.65,3.94-.87,1.91-1.92,4.16-9,3.46-19.43l.92.12,15.45,2s0,4.83.24,9.35c.22,3.54.63,6.89,1.41,7.62l1.91.17h0A95.85,95.85,0,0,1,904,129.64Z" fill="#ffb27b"/><path d="M890.4,96.91s0,4.83.24,9.36c-8.56.3-13.57-7.21-15.69-11.41Z" fill="#ff985b"/><path d="M893.53,101s-20.19,1.62-21-11-4-20.85,8.88-22.42,15.67,3.08,17,7.21S898.76,100.27,893.53,101Z" fill="#ffb27b"/><path d="M897.33,67.88c-3.36-3.59-5.67-2.61-6.92-1.38-11.43-5.37-18,4.06-18,4.06a24,24,0,0,1-7,14.7s3.83,2,12.18-.68a14.48,14.48,0,0,0,6.58-5.18,47.42,47.42,0,0,1-7.48,10.42c9.84-5.33,13-19.7,13.32-21.21,1.31,1,3.89,3.28,4.78,5.59,1.22,3.14,2.09,9.71,4,9.36C898.85,83.56,902.38,73.26,897.33,67.88Z" fill="#1f3765"/><path d="M946.2,407.61H914.87s-1.17-5,.89-8.4c1.82-3,1.12-4.72-.23-7.21a12.15,12.15,0,0,0,5.28,1,11.07,11.07,0,0,0,4.66-1.64c1.35,1.54,7.12,8.08,8.92,9.38C936.44,402.2,945.57,401.68,946.2,407.61Z" fill="#0c3563"/><path d="M857.61,81.93s-9.39-18.68,3.73-26.07,22.72-4.49,29.94,4.55Z" fill="#fcbd73"/><path d="M917.35,132.93c-2.51-12.57-10.3-16.17-10.3-16.17s-1.29-2-8.52-2.27c-1.13,0-2.36-.28-3.73-.39L894,114v0c.28.42,7.57,11.64,7.17,14.65s-27,2-28.89.47c-1.54-1.25-4.22-9.58-5.22-12.84-.26-.81-.41-1.3-.41-1.3s-9.27,1.61-13.63,5.23a40.3,40.3,0,0,1,5.57,8.16q.32.65.6,1.29a18.44,18.44,0,0,1,1,2.82,5.66,5.66,0,0,1-.64,3.92,26.83,26.83,0,0,1-2.64,4.11c-.71,1-1.48,2-2.27,3.07.55,1.83,1.27,4,2.07,6.51a175.39,175.39,0,0,1,5,18.21,17.44,17.44,0,0,1-.18,7.71,18.12,18.12,0,0,1-1,2.93c-.66,1.49-.82,3.53-1.57,5.45-3,7.86-6.53,18.11-3,23.47,2.34,6.84,56.55-9.78,52.9-17,0,0,2.17-37.65,3.66-49.32.05-.43.08-.84.11-1.25a17.89,17.89,0,0,0,0-1.94C917.22,136.31,917.35,132.93,917.35,132.93Z" fill="#ff973d"/><path d="M910.46,58.36c-2.71-4.33-12.15-3.63-23.55,1a93.29,93.29,0,0,0-14,7.22,90.46,90.46,0,0,0-15.14,11.7c-7.54,7.38-11.23,14.45-8.78,18.36,2.71,4.36,12.24,3.63,23.73-1.11-.93-1-2.24-1.87-3.62-1s-3.39.43-5.29-1.08a4.15,4.15,0,0,1-3-1.71,3.56,3.56,0,0,1-.43-2.45c.58-4.37,6.77-11.15,15.66-16.7,6.83-4.26,13.62-6.76,18.29-7.06,2.72-.18,4.73.39,5.6,1.8.76,1.22.6,2.92-.34,4.88a17.73,17.73,0,0,1,.31,6.12C908.64,70.41,913.08,62.57,910.46,58.36Z" fill="#ffcf7f"/><path d="M879.94,180.13a92.7,92.7,0,0,1-21.44,4c.74-1.91,1.29-3.65,2-5.14a18.12,18.12,0,0,0,1-2.93,17.44,17.44,0,0,0,.18-7.71c-1.4-6.79-5.1-18.38-6.74-23.49,4.38-9.77,8.91-4.44,8.91-4.44s13.24,5.93,18.88,16.88S886.68,178,879.94,180.13Z" fill="#ff7e1c"/><path d="M863,115.79a40,40,0,0,1,15.83,25l3.82-1.21s-1.48-12.13-16.06-24.58Z" fill="#0d458d"/><path d="M907.57,141.26l-4,.26a40.48,40.48,0,0,0-8.78-27.42c1.37.11,2.61.25,3.73.39C909,129.62,907.57,141.26,907.57,141.26Z" fill="#0d458d"/><path d="M912.53,205.1l2.83-1.22-2.78-42.2s-2.71-19.2-2.75-22.55a6.2,6.2,0,0,0-2.75-5s-19.87,1.05-25.47,1.36-5,3.51-5,3.51l2.69,11.24c3.77,16-17.8,25.82-17.8,25.82s-3.5,9.06-6.21,17.73c-4.66,14.87-.5,36.2-.5,36.2.7,11.33,2,59.47,3.34,73.72.49,5.17.91,8.84,1.09,10.31h0a2,2,0,0,1-.33,1.26,67.5,67.5,0,0,0-5,10.46c-13.22,35.23,2,78.61,2,78.61l4-1.59s8.69-48.29,15.74-69.62A42.77,42.77,0,0,1,879,325c3.06-4.95,5.91-13,8.5-22.65,4.88-18.19,8.81-41.85,11.42-60.11.37,0,4.13-25.6,13.55-36.89C912.56,205.24,912.58,205.16,912.53,205.1Z" fill="#0d458d"/><path d="M878.72,139.35a1.67,1.67,0,1,1,2.1,1.09A1.67,1.67,0,0,1,878.72,139.35Z" fill="#ff7e1c"/><path d="M879,139.26a1.67,1.67,0,1,1,2.1,1.09A1.67,1.67,0,0,1,879,139.26Z" fill="#ff973d"/><path d="M879.56,138.75a.25.25,0,1,1,.24.24A.24.24,0,0,1,879.56,138.75Z" fill="#0d458d"/><path d="M881.15,138.75a.25.25,0,0,1,.49,0,.25.25,0,1,1-.49,0Z" fill="#0d458d"/><path d="M903.36,137.22a1.67,1.67,0,1,1,2.1,1.09A1.67,1.67,0,0,1,903.36,137.22Z" fill="#ff7e1c"/><path d="M903.65,137.13a1.67,1.67,0,1,1,2.1,1.09A1.67,1.67,0,0,1,903.65,137.13Z" fill="#ff973d"/><path d="M904.21,136.62a.24.24,0,1,1,.24.25A.24.24,0,0,1,904.21,136.62Z" fill="#0d458d"/><path d="M905.79,136.62a.25.25,0,1,1,.25.25A.25.25,0,0,1,905.79,136.62Z" fill="#0d458d"/><path d="M860.4,89.33s-.14,3,1.65,3.57-1.85,7-1.56,11.39,2.21,6.11,2.21,6.11-.92-2.4-.41-3.88c0,0-.08,3.08,2.17,4.64s1.65,2.9,1.65,2.9,5.08-1.53,5.23-5.34a10.43,10.43,0,0,1,0,2.44s4.39-3.3,4.6-7.1-3.46-7-5.13-7.06-5.39-3.34-5.29-4.58S860.4,89.33,860.4,89.33Z" fill="#1f3765"/><path d="M860.42,189.44s6,3.81,6.92,3.78c2.08-.08,6.17-4.6,9.58-2.51s6.74,5.58,5.56,7-5.18-.26-7.1,0-6.65,2.64-10,1.53-10.14-5.44-10.14-5.44Z" fill="#ffb27b"/><path d="M853,120.27s-22.49,26.56-29.93,41.52c0,0,9,19.48,38,35.31a10,10,0,0,0,3.26-1.69c3.06-2.19-.34-3.79-1-4.23-7.36-4.77-20.22-25.3-20.59-27.08s16.12-17.77,21.13-23.67S860.78,117.22,853,120.27Z" fill="#ffb27b"/><path d="M887.31,94s3,1.83,5.14,1.62,3.28-2.77,3.28-2.77A17.76,17.76,0,0,0,887.31,94Z" fill="#fff1e8"/><path d="M853,120.27l-10.1,9.86s2.31,14.58,17.6,16.48c0,0,12.55-10.05,5-20.51S853,120.27,853,120.27Z" fill="#ff973d"/><path d="M867.34,193.22a3.26,3.26,0,0,1,1.64-2.05c1.3-.57,2.51-1.83,2.62-1.47a1.72,1.72,0,0,1-.49,1.73A4.35,4.35,0,0,1,867.34,193.22Z" fill="#ffb27b"/><path d="M878.93,407.61H847.6s-.75-4.78.89-8.4,4-5.06,3.44-9.26a11.27,11.27,0,0,0,9.76,3.73c.56.9,3.58,5.72,5.44,7.05C869.17,402.2,878.3,401.68,878.93,407.61Z" fill="#0c3563"/><path d="M510.24,405.68s0-5.79.83-7.71,3.85-9.76,3.85-9.76h11.82s2.2,7.15,2.34,9.48,0,8,0,8Z" fill="#0c3563"/><path d="M585.3,405.68s0-5.79-.83-7.71-3.85-9.76-3.85-9.76H568.8s-2.2,7.15-2.33,9.48,0,8,0,8Z" fill="#0c3563"/><path d="M537.94,80.87s-.42,12.89-2.06,18.66l-13.06,9.11L572,116,560.24,99.8s-3.54-17.28-1.68-23.67S537.94,80.87,537.94,80.87Z" fill="#ffb27b"/><path d="M537.87,82.65s3.88,9.35,11.2,9.15,9-8.48,9-8.48Z" fill="#ff985b"/><path d="M533.5,75.08s-2.36-11.8-4-15.38-3-19.51,15.25-20.34c0,0,7,.83,10.86-1.51,0,0,0,2.34-1,3.16a12.15,12.15,0,0,1,11.27,4c5,5.5-3.3,24.74-2.88,29.27Z" fill="#1f3765"/><path d="M563.3,58.64V71.51A15.29,15.29,0,0,1,562,77.63h0a19.56,19.56,0,0,1-6.6,8,12.68,12.68,0,0,1-7.13,2.59,13.81,13.81,0,0,1-6.79-2.55,19.19,19.19,0,0,1-7.62-9.39l0-.06,0-.16a12.35,12.35,0,0,1-.6-3.74V58.64c0-3.2,2.23-5.81,5-5.81h20.23C561.07,52.83,563.3,55.44,563.3,58.64Z" fill="#ffb27b"/><path d="M533.17,65.92s0-8.2,6.52-9.46,21,4,23.09-2-28.09-5.87-29.61-2.06S533.17,65.92,533.17,65.92Z" fill="#1f3765"/><path d="M511.73,205.27s2.06,63.15-1,99.19,0,86.18,0,86.18,9.89,5.45,20.62,0c0,0,11.75-69.61,11.68-86.18-.08-17.65,12.8-96.44,12.8-96.44Z" fill="#0d458d"/><path d="M584.87,390.64s-9.89,5.45-20.61,0c0,0-11.76-69.62-11.68-86.18,0-7.45-2.24-25.82-4.89-44.54-3.61-25.61-7.91-51.9-7.91-51.9l45.8-2.86s-3.78,63.27-.69,99.3S584.87,390.64,584.87,390.64Z" fill="#0d458d"/><path d="M524.76,217.81c-7.43-1-12.76-2-12.76-2s-3.95.34-1.62-19.17c1.78-14.86,1.22-28.27.83-42.06,0-1.54,0-3.35.08-5.37,1.14,1.82,13.82,22.31,17.24,37.53C531,197.81,527.26,210.89,524.76,217.81Z" fill="#ff7e1c"/><path d="M576.94,102.85v0a129.32,129.32,0,0,0-16.71-3.08c-4.56,6.06-7.83,7.46-12,9.11-6.71-.93-12.36-9.19-12.36-9.38a75.56,75.56,0,0,0-14.25,2.71c-.4.05-21.83,2.88-52.18,64.65,0,0,1.64,5.68,9.59,15.6,5.67,7,14.54,16.25,28.29,27.06a47.11,47.11,0,0,0,2.48-7.27s-8.17-15.91-13.1-26.69c-2.39-5.24-4-9.27-3.55-9.65.89-.74,10.78-9.33,18.09-15.67-.06,1.58-.08,3,0,4.28.39,13.79.95,27.2-.83,42.06-2.33,19.51,1.62,19.17,1.62,19.17s5.33,1,12.76,2a182.23,182.23,0,0,0,22.93,1.75c17.82,0,37.34-3.78,37.34-3.78,5.62.07-1.57-35-2.63-56.06-.24-4.9-.47-9.36-.68-13.45,6.72,5.83,21.59,18.75,22.68,19.67.47.38-1.16,4.41-3.55,9.65-4.92,10.78-13.1,26.69-13.1,26.69a47.68,47.68,0,0,0,2.49,7.27c13.75-10.81,22.62-20,28.28-27.06,8-9.92,9.59-15.6,9.59-15.6C597.48,104.54,576.94,102.85,576.94,102.85Z" fill="#ff973d"/><path d="M552.58,304.46c0-7.45-2.24-25.82-4.89-44.54,2.75-11.18,9.43-21.94,9.43-21.94C565.57,261.69,552.58,304.46,552.58,304.46Z" fill="#0c3563"/><path d="M508.18,203.07s7.43-6.88,10.45-3,3.57,9.9,1.24,9.49-7.15-2.62-7.84-1.52-3.76,3.2-4.7,1.54S508.18,203.07,508.18,203.07Z" fill="#ffb27b"/><path d="M509.81,202.28a47.11,47.11,0,0,1-2.48,7.27c-13.75-10.81-22.62-20-28.29-27.06,4.27-.32,10.5-1.84,17.67-6.9C501.64,186.37,509.81,202.28,509.81,202.28Z" fill="#ffb27b"/><path d="M589.38,203.07s-7.42-6.88-10.44-3-3.58,9.9-1.24,9.49,7.15-2.62,7.83-1.52,3.77,3.2,4.71,1.54S589.38,203.07,589.38,203.07Z" fill="#ffb27b"/><path d="M587.75,202.28a48.46,48.46,0,0,0,2.48,7.27c13.76-10.81,22.63-20,28.29-27.06-4.27-.32-10.5-1.84-17.67-6.9C595.93,186.37,587.75,202.28,587.75,202.28Z" fill="#ffb27b"/><path d="M555.37,79.91v5.68a12.68,12.68,0,0,1-7.13,2.59,13.81,13.81,0,0,1-6.79-2.55V79.91a5.77,5.77,0,0,1,5.76-5.76h2.4A5.77,5.77,0,0,1,555.37,79.91Z" fill="#1f3765"/><path d="M604.4,165.94c-1.1-.92-16.07-13.93-22.75-19.73,0,0,6.67-5,10.79,2.29S604.4,165.94,604.4,165.94Z" fill="#ff7e1c"/><path d="M562,77.63c-2.73,6.2-9.08,10.64-13.73,10.55-4.48-.08-12.13-5.12-14.41-11.94l0-.06,0-.16s4.8,4.1,8,2.07H555.1A6.59,6.59,0,0,0,562,77.63Z" fill="#1f3765"/><path d="M628.11,166.89s-1.63,5.68-9.59,15.6C609.31,182.36,628.11,166.89,628.11,166.89Z" fill="#ff7e1c"/><path d="M549.85,79.22H547c-.66,0-1.5-1.08-1.5-1.74a3.17,3.17,0,0,1,1.5-.66h2.88a2.4,2.4,0,0,1,1.78.94A2,2,0,0,1,549.85,79.22Z" fill="#ffb27b"/><path d="M670,261a17.36,17.36,0,0,1,10.88,19s-1.17,5.92-4.81,3.29-1.94-2.14-7.15-5.73-8.61-9.26-8-13.76Z" fill="#ffb27b"/><path d="M670.53,261.94,663,271.05a1.52,1.52,0,0,1-1.44.52c-7-1.29-31.24-16.9-39.17-23.27a23.46,23.46,0,0,1-2-1.71c-3-3-13.16-17.88-20.39-31.12-4.17-7.62-7.36-14.7-7.61-18.67-.9-14.18,6.56-34,6.56-34,22,7.67,24.37,25.28,24.37,25.28l12.22,45.49,34.63,25.89A1.72,1.72,0,0,1,670.53,261.94Z" fill="#5e9af2"/><path d="M622.41,248.3a23.46,23.46,0,0,1-2-1.71c-3-3-13.16-17.88-20.39-31.12-.94-8-.3-15.5,3-20.75C603.06,194.72,621.81,227.71,622.41,248.3Z" fill="#0582d6"/><path d="M609.7,379.39,606,395l-2.32,9.68-7.72,32.2a25.86,25.86,0,0,1-13.48,0A117.07,117.07,0,0,1,579.81,413a80.4,80.4,0,0,1,2.63-21.87,51.22,51.22,0,0,1,3.22-8.56C596.56,360.27,609.7,379.39,609.7,379.39Z" fill="#ffb27b"/><path d="M616.1,446.31H579.81a31,31,0,0,1,1-10.74,17.91,17.91,0,0,1,.87-2.31s8.1,1.84,15.09,0c0,0,6.56,5.6,10.54,7.31S615.68,441.35,616.1,446.31Z" fill="#0d458d"/><path d="M606,395l-2.32,9.68A56,56,0,0,1,579.81,413a80.4,80.4,0,0,1,2.63-21.87c3.34-1.7,6.74-2.58,9.63-2.08C599.27,390.26,603.56,392.89,606,395Z" fill="#ff9457"/><path d="M597.25,446.31H579.81a31,31,0,0,1,1-10.74C585.21,436.93,594.12,440.35,597.25,446.31Z" fill="#00366f"/><path d="M580.77,379.39,577,395l-2.32,9.68L567,436.9a25.86,25.86,0,0,1-13.48,0A117.07,117.07,0,0,1,550.88,413a80.4,80.4,0,0,1,2.63-21.87,49.53,49.53,0,0,1,3.22-8.56C567.62,360.27,580.77,379.39,580.77,379.39Z" fill="#ffb27b"/><path d="M552.76,433.26s8.11,1.84,15.09,0c0,0,6.57,5.6,10.54,7.31s8.36.79,8.78,5.74H550.88S550.12,439.07,552.76,433.26Z" fill="#0d458d"/><path d="M577,395l-2.32,9.68A56,56,0,0,1,550.88,413a80.4,80.4,0,0,1,2.63-21.87c3.34-1.7,6.74-2.58,9.63-2.08C570.34,390.26,574.62,392.89,577,395Z" fill="#ff9457"/><path d="M617.28,394a7.41,7.41,0,0,1-7.14,5.46h-58.2a7.52,7.52,0,0,1-7.5-8.09c.61-7.93,2.79-20.88,3.75-29.62a40.35,40.35,0,0,0,.35-8.06c-5.88-38.86-10.81-84.65-10.21-93.4.08-1.23.14-1.87.14-1.87s4.24-.35,10.69-.6c18.74-.74,56.15-.62,62.37,11.64,6.33,12.48,10.15,95.38,10.15,95.38C622.61,372.58,619.34,386.35,617.28,394Z" fill="#e25345"/><path d="M548.19,361.74a40.35,40.35,0,0,0,.35-8.06c-5.88-38.86-10.81-84.65-10.21-93.4.08-1.23.14-1.87.14-1.87s4.24-.35,10.69-.6c9.69,5.71,16,15.44,16,15.44S563.21,346,548.19,361.74Z" fill="#cc4238"/><path d="M577,105.12c0-4.31,2.71-8,7.35-6.81,4.19,1,8.27,1,8.27,5.31s-3.49,9.32-7.81,9.32A7.82,7.82,0,0,1,577,105.12Z" fill="#cc4238"/><path d="M581.92,143s-24.21-21.82-2.29-37.26c0,0,6.54-1.74,9.87-1.12,0,0,11.92-3.48,18.89,4.61s10,14,4,21.17S581.92,143,581.92,143Z" fill="#e25345"/><path d="M554.13,274.77a17.37,17.37,0,0,1-5.51,21.16s-5,3.41-5.75-1,.12-2.88-1.08-9.1.33-12.63,3.91-15.43Z" fill="#ffb27b"/><path d="M601.76,142.83s-.29,3.27-.85,7.68c-.27,2.16-.6,4.59-1,7.05-.27,1.76-.58,3.54-.92,5.25l-7.49,25.32L573.9,159.64s4.14-3.43,9.74-22c.06-.2.1-.3.1-.3Z" fill="#ffb27b"/><path d="M612,267.77c.23,2.84-.49,3.36-.49,3.36s-10.83,3.92-38,2.57l-8.32-.45c-17.54-1-26.93-2.12-26.93-2.12s-14.37-33.17,12.63-74A130.83,130.83,0,0,1,561.69,183c4.37-5,5.34-11.66,7-18,.47-1.81-.9-2.22-.21-3.93,0,0,4.92-1.39,5.43-1.39,2.8,2.46,6.49,7.25,15.64,8.2,6.19.64,8.62-2.85,9.5-4.94,2.36.86,4.8,2.33,6.8,3.29,16.6,8,18.12,23.41,18.12,23.41s-15.25,50.14-16.19,56.4C607.34,248.78,610.84,253.11,612,267.77Z" fill="#5e9af2"/><path d="M600.91,150.51c-.27,2.16-1.18,8.06-1.57,10.52-18.64-7.27-16.2-21.43-15.7-23.37.06-.2.1-.3.1-.3S593.6,144.36,600.91,150.51Z" fill="#ff9457"/><path d="M604.91,153s-21.54.69-21.76-12.73-3.15-22.36,10.58-23.37,16.5,4.07,17.66,8.53S610.5,152.49,604.91,153Z" fill="#ffb27b"/><path d="M606.79,114.91s-1.35,22.4-27.61,20C579.18,134.91,579.74,103.89,606.79,114.91Z" fill="#e25345"/><path d="M601.76,117.14s7.36,9.1,10.7,12C612.46,129.15,620.64,117.41,601.76,117.14Z" fill="#e25345"/><path d="M601.76,117.14s6.61,11.16,10,14.06c0,0,8.93-13.79-10-14.06Z" fill="#e25345"/><path d="M565.16,273.25c-17.54-1-26.93-2.12-26.93-2.12s-14.37-33.17,12.63-74C556.33,209.83,569.22,243.88,565.16,273.25Z" fill="#0582d6"/><path d="M573.9,159.64s-20.83,4.27-30.11,15c-7.11,8.23-14.89,48.5-14.89,55.15,0,6.36,7.3,40.16,11.87,46.64a1.49,1.49,0,0,0,1.39.64l11.73-1.25a1.71,1.71,0,0,0,1.52-2l-6.59-42.73,23.14-41S585.6,173.93,573.9,159.64Z" fill="#5e9af2"/><path d="M663.27,434.75A9,9,0,0,0,669,439a9.79,9.79,0,0,1,5.88,3.62,2.29,2.29,0,0,1-1.85,3.65H653.14a2.85,2.85,0,0,1-2.84-3.14c.15-1.47.3-3.18.37-4.49.14-2.87,3-5.18,3-5.18Z" fill="#1f3765"/><path d="M667.77,384.69c.82,15.1-1.23,49.4-1.23,49.4s-1.39,3.82-10.13,4.74a26.35,26.35,0,0,1-8.89-.73q-2.64-12.18-4.9-23.25c-10.78-52.93-15-85.62-15-85.62l42.58-9.9s-1.86,29.88-2.41,50.26C667.63,376,667.58,381.38,667.77,384.69Z" fill="#26468d"/><path d="M670.21,319.33s-1.86,29.88-2.41,50.26l-25.18,45.26c-10.78-52.93-15-85.62-15-85.62Z" fill="#1f3765"/><path d="M627.4,250.9s-16.48-7.5-28.95-.94-4.84,60.72,13,66h0S644.83,326.61,627.4,250.9Z" fill="#26468d"/><path d="M675.06,332h0a.83.83,0,0,0-.16-.21,46.69,46.69,0,0,1-2.16-4.75l-2.67,3.5c-.07.07-1.13-.75-1.19-.66l.26,9.05,2.66-.63a1.93,1.93,0,0,0,.34-.11h0a2,2,0,0,0,.81-.71l2.14-3.4A1.89,1.89,0,0,0,675.06,332Z" fill="#ff9457"/><path d="M662.78,242.48s5.25,0,8.38,7.39c6.5,15.29,3.68,48.3,3.28,53,0,0,2.23,9.39-1.08,25.61L669,331.06s-6.65-64.12-5.84-70.45S662.78,242.48,662.78,242.48Z" fill="#ff9457"/><path d="M628.72,434.75a9,9,0,0,0,5.67,4.29,9.78,9.78,0,0,1,5.89,3.62,2.29,2.29,0,0,1-1.85,3.65H618.59a2.85,2.85,0,0,1-2.84-3.14c.14-1.47.3-3.18.37-4.49.14-2.87,3-5.18,3-5.18Z" fill="#1f3765"/><path d="M642.53,182c-4.25,0-9.58,1.83-12.44,4.61-3,3-6.2,3.1-8.45,6.59-2.35,3.64-3.8,7.41-2.63,12.53,1.29,5.58,1,11,4.54,15.09,1.74,2,4.57,2.26,6.54,4.12,3.62,3.42,7.74,4.51,12.44,4.51,8.85,0,14.36-5.25,18.9-11.78,3.63-5.24,2.91-8.77,3.76-13.25C667.87,190.31,656.11,182,642.53,182Z" fill="#26468d"/><path d="M655,238.83l-16.92,8.65-3.4-11.74A36,36,0,0,0,637.81,225a45.27,45.27,0,0,0,.35-9.67L652,222.41a26.16,26.16,0,0,0-.55,3.16,22.75,22.75,0,0,0,.24,7.38A10.24,10.24,0,0,0,655,238.83Z" fill="#ffb27b"/><path d="M615.78,323.93s-3.22,42.66-2.5,110.64a26.23,26.23,0,0,0,8.56,2.51c8.74.87,10.87-2.6,10.87-2.6s8.94-33.18,11.18-48.13c2.06-13.78,15.59-63.52,15.59-63.52Z" fill="#26468d"/><path d="M666.18,240a54,54,0,0,0-13.33-3.77c.08,2.44-.57,4.71-4.84,5.26-5.68.75-10.76-3.13-13.34-5.77h0s-4,.43-8.67,1.45a56.14,56.14,0,0,0-7.09,2c-2.73,1-5.09,2.26-6.35,3.8h0c-4.37,5.37-11.56,21.52-11.56,21.52s12,4.44,15,7l.07.58,1.87,15.56-5.58,31a4.43,4.43,0,0,0-.07.81,4.57,4.57,0,0,0,3.5,4.44l1.36.2c5.92.83,29.93,3.69,48.76-1.42a9.14,9.14,0,0,0,6.67-9.57l-3.07-38.52c1.64-.28,3.53-.58,5.07-.75a9.39,9.39,0,0,1,2.73-.06S675.17,243.73,666.18,240Z" fill="#ff973d"/><path d="M630.65,297.18c-.24,10.82-7.32,23.52-13.51,26.95l-1.36-.2a4.57,4.57,0,0,1-3.5-4.44,4.43,4.43,0,0,1,.07-.81l5.58-31-1.87-15.56.14-.42S631.07,278.08,630.65,297.18Z" fill="#ff7e1c"/><path d="M674.57,273.87c-1.58.18-5.08.75-5.08.75l-1.77-16.13S673.64,269.86,674.57,273.87Z" fill="#ff7e1c"/><path d="M613.35,313.15l1.45-8c24.54-35.52,26.4-41.89,15.36-57.83a23.53,23.53,0,0,0-11.25-8.07,56.14,56.14,0,0,1,7.09-2,26.72,26.72,0,0,1,6.13,3.61C665.82,270,613.35,313.15,613.35,313.15Z" fill="#26468d"/><path d="M627.81,279.45a20.62,20.62,0,0,0,3.26-1.37s1.33-9.85,10.94-10.51c0,0,4,0,3.18,2.76s-.9,1.54-2,5.43-3.86,6.83-6.83,7l-3,.82S626.21,279.57,627.81,279.45Z" fill="#ffb27b"/><path d="M631.07,278.08s-16.13,1.47-18.51,2.52c0,0,1.31-3.54,3.64-8.89-2.11-2.06-9-5.14-13.59-6.55-3.5,8.9-4.84,17.72-2.88,26.21a2.06,2.06,0,0,0,1.92,1.58c5.16.25,22.28.16,34.72-10.3Z" fill="#ffb27b"/><path d="M651.64,233c-7.84-.21-13.83-7.93-13.83-7.93l13.59.55A22.75,22.75,0,0,0,651.64,233Z" fill="#ff9457"/><path d="M652.38,228.22s-17.32,2.11-17.69-10.1,6.85-20.12,11.67-20c9.61.18,11.2,4.07,12.31,8.11S660.36,227.35,652.38,228.22Z" fill="#ffb27b"/><path d="M647.75,221.18s.38,1.52,4.17,1.24c0,0,3.19-.23,3.07-1.91A10.23,10.23,0,0,0,647.75,221.18Z" fill="#fff"/><path d="M650.65,198.21s-14.81,0-11.41,10.16c2.15,6.4-5,7.4-5,7.4l-3.43-10.27,2.15-8Z" fill="#26468d"/><path d="M712.59,456.72s0-5.78.83-7.71,3.85-9.76,3.85-9.76h11.82s2.2,7.15,2.33,9.49,0,8,0,8Z" fill="#0c3563"/><path d="M787.65,456.72s0-5.78-.83-7.71-3.85-9.76-3.85-9.76H771.15s-2.2,7.15-2.34,9.49,0,8,0,8Z" fill="#0c3563"/><path d="M740.29,131.91s-.42,12.89-2.07,18.66l-13.05,9.11L774.31,167l-11.72-16.19s-3.54-17.28-1.68-23.67S740.29,131.91,740.29,131.91Z" fill="#ffb27b"/><path d="M740.22,133.69s3.88,9.36,11.2,9.15,9-8.48,9-8.48Z" fill="#ff985b"/><path d="M735.85,126.12s-2.37-11.8-4-15.37-3-19.52,15.25-20.35c0,0,7,.83,10.86-1.51,0,0,0,2.34-1,3.16a12.15,12.15,0,0,1,11.27,4c5,5.5-3.3,24.74-2.89,29.28Z" fill="#d04b3e"/><path d="M760.7,103.87H740.47c-2.72,0-5,2.62-5,5.81v13.65c0,8.74,9.76,15.8,15.06,15.9,6.09.1,15.07-7.51,15.07-16.68V109.68C765.65,106.49,763.42,103.87,760.7,103.87Z" fill="#ffb27b"/><path d="M735.52,117s0-8.2,6.52-9.47,21,4,23.09-2-28.09-5.87-29.61-2.06S735.52,117,735.52,117Z" fill="#d04b3e"/><path d="M714.07,256.31s2.07,63.16-1,99.19,0,86.18,0,86.18,9.89,5.45,20.61,0c0,0,11.76-69.61,11.69-86.18-.08-17.64,12.79-96.44,12.79-96.44Z" fill="#0d458d"/><path d="M787.22,441.68s-9.89,5.46-20.61,0c0,0-11.76-69.61-11.68-86.18,0-7.45-2.25-25.82-4.89-44.54-3.62-25.61-7.91-51.89-7.91-51.89l45.8-2.87s-3.78,63.27-.69,99.3S787.22,441.68,787.22,441.68Z" fill="#0d458d"/><path d="M727.11,268.85c-7.43-1-12.76-2-12.76-2s-4,.34-1.62-19.17c1.78-14.85,1.22-28.26.83-42.06,0-1.54,0-3.35.08-5.37,1.14,1.82,13.82,22.31,17.23,37.53C733.36,248.86,729.61,261.94,727.11,268.85Z" fill="#05417f"/><path d="M779.29,153.9v0a130.6,130.6,0,0,0-16.7-3.08c-4.56,6.06-7.84,7.46-12,9.11-6.7-.92-12.36-9.19-12.36-9.38A75.39,75.39,0,0,0,724,153.28c-.4.05-21.84,2.89-52.18,64.65,0,0,1.63,5.69,9.59,15.6,5.66,7.05,14.53,16.25,28.29,27.06a47.11,47.11,0,0,0,2.48-7.27s-8.18-15.91-13.1-26.69c-2.39-5.24-4-9.27-3.55-9.65.89-.74,10.78-9.33,18.08-15.67-.06,1.58-.07,3,0,4.28.39,13.8,1,27.21-.83,42.06-2.34,19.51,1.62,19.17,1.62,19.17s5.33,1,12.76,2A180.38,180.38,0,0,0,750,270.6c17.81,0,37.34-3.78,37.34-3.78,5.62.07-1.58-35-2.63-56.06-.24-4.89-.47-9.36-.68-13.45,6.72,5.83,21.58,18.75,22.68,19.67.47.38-1.16,4.41-3.55,9.65-4.92,10.78-13.1,26.69-13.1,26.69a47.11,47.11,0,0,0,2.48,7.27c13.76-10.81,22.63-20,28.29-27.06,8-9.91,9.59-15.6,9.59-15.6C799.83,155.58,779.29,153.9,779.29,153.9Z" fill="#065099"/><path d="M754.93,355.5c0-7.45-2.25-25.82-4.89-44.54,2.74-11.18,9.42-21.94,9.42-21.94C767.92,312.73,754.93,355.5,754.93,355.5Z" fill="#0c3563"/><path d="M710.53,254.11s7.42-6.88,10.45-3,3.57,9.9,1.23,9.49-7.14-2.61-7.83-1.52-3.77,3.21-4.7,1.54S710.53,254.11,710.53,254.11Z" fill="#ffb27b"/><path d="M712.16,253.32a47.11,47.11,0,0,1-2.48,7.27c-13.76-10.81-22.63-20-28.29-27.06,4.27-.31,10.5-1.84,17.67-6.9C704,237.41,712.16,253.32,712.16,253.32Z" fill="#ffb27b"/><path d="M791.73,254.11s-7.42-6.88-10.45-3-3.57,9.9-1.23,9.49,7.14-2.61,7.83-1.52,3.77,3.21,4.7,1.54S791.73,254.11,791.73,254.11Z" fill="#ffb27b"/><path d="M790.1,253.32a47.11,47.11,0,0,0,2.48,7.27c13.76-10.81,22.63-20,28.29-27.06-4.27-.31-10.5-1.84-17.67-6.9C798.28,237.41,790.1,253.32,790.1,253.32Z" fill="#ffb27b"/><path d="M806.75,217c-1.1-.92-16.07-13.93-22.75-19.73,0,0,6.67-5,10.79,2.29S806.75,217,806.75,217Z" fill="#0d458d"/><path d="M830.46,217.93s-1.63,5.69-9.59,15.6C811.66,233.41,830.46,217.93,830.46,217.93Z" fill="#0d458d"/><path d="M738.91,147.43a5.22,5.22,0,0,0-2.8,3.38s8.75,9,14.47,9.14Z" fill="#ff9841"/><path d="M750.58,160l11.3-13a5.33,5.33,0,0,1,2.3,4.07S755.44,160.3,750.58,160Z" fill="#ff9841"/><path d="M748.55,159s-8.62,74.43-5.62,83.5A61.27,61.27,0,0,0,748.19,254a3.06,3.06,0,0,0,5.29,0c2.29-4,5.28-9.73,5.28-12.65,0-4.73-6.54-82.44-6.54-82.44Z" fill="#ff9841"/><path d="M746.29,155.35a54.65,54.65,0,0,1,8.39-.2.88.88,0,0,1,.67,1.3c-.89,1.6-2.71,4.38-4.6,4.38C748.08,160.83,743.93,155.53,746.29,155.35Z" fill="#ff862d"/></svg>