<svg id="Layer_1" data-name="Layer 1" xmlns="http://www.w3.org/2000/svg" viewBox="0 0 1006.84 521.94"><path d="M27.45,409.49c0,48.17,215,87.22,480.1,87.22s480.09-39,480.09-87.22-214.95-87.21-480.09-87.21S27.45,361.32,27.45,409.49Z" fill="#9daad3"/><path d="M760.06,393.65s0-5.78.83-7.71,3.85-9.76,3.85-9.76h11.82s2.19,7.15,2.33,9.49,0,8,0,8Z" fill="#0c3563"/><path d="M835.12,393.65s0-5.78-.83-7.71-3.85-9.76-3.85-9.76H818.62s-2.2,7.15-2.34,9.49,0,8,0,8Z" fill="#0c3563"/><path d="M787.76,68.84s-.42,12.89-2.07,18.66l-13.05,9.11L821.78,104,810.06,87.77s-3.54-17.28-1.68-23.67S787.76,68.84,787.76,68.84Z" fill="#ffb27b"/><path d="M787.69,70.62s3.88,9.36,11.2,9.15,9-8.48,9-8.48Z" fill="#ff985b"/><path d="M783.32,63.05s-2.37-11.8-4-15.37-3-19.52,15.26-20.35c0,0,7,.83,10.86-1.51,0,0,0,2.34-1,3.16a12.15,12.15,0,0,1,11.27,4c4.95,5.5-3.3,24.74-2.89,29.28Z" fill="#1f3765"/><path d="M798.05,76.16C792.75,76.06,783,69,783,60.26V46.61c0-3.19,2.22-5.81,5-5.81h20.23c2.72,0,5,2.62,5,5.81V59.48C813.12,68.65,804.14,76.26,798.05,76.16Z" fill="#ffb27b"/><path d="M783,53.9s0-8.2,6.52-9.46,21,4,23.09-2S784.51,36.58,783,40.39,783,53.9,783,53.9Z" fill="#1f3765"/><path d="M761.54,193.24s2.07,63.16-1,99.19,0,86.18,0,86.18,9.89,5.45,20.61,0c0,0,11.76-69.61,11.69-86.18-.08-17.64,12.79-96.44,12.79-96.44Z" fill="#d04b3e"/><path d="M834.69,378.61s-9.89,5.46-20.61,0c0,0-11.76-69.61-11.68-86.18,0-7.45-2.25-25.82-4.89-44.54C793.89,222.28,789.6,196,789.6,196l45.8-2.87s-3.78,63.27-.69,99.3S834.69,378.61,834.69,378.61Z" fill="#d04b3e"/><path d="M834.85,203.75s-19.53,3.78-37.34,3.78a180.38,180.38,0,0,1-22.93-1.75c-7.43-1-12.76-2-12.76-2s-4,.34-1.62-19.17c1.78-14.85,1.22-28.26.83-42.06,0-1.54,0-3.35.08-5.37.76-16.09,5.62-45.05,9.33-46.6a67.84,67.84,0,0,1,15.25-3c0,.19,5.66,8.46,12.36,9.38,4.17-1.65,7.45-3,12-9.11a130.4,130.4,0,0,1,18.81,3.63s.7,3.07,3.35,56.29C833.27,168.78,840.47,203.82,834.85,203.75Z" fill="#5e9af2"/><path d="M802.4,292.43c0-7.45-2.25-25.82-4.89-44.54,2.74-11.18,9.42-21.94,9.42-21.94C815.39,249.66,802.4,292.43,802.4,292.43Z" fill="#c33f3b"/><path d="M743,153.91c-.47.38,1.16,4.41,3.55,9.65,4.92,10.78,13.1,26.69,13.1,26.69a47.11,47.11,0,0,1-2.48,7.27c-13.76-10.81-22.63-20-28.29-27.06-8-9.91-9.59-15.6-9.59-15.6,30.63-62.35,52.19-64.65,52.19-64.65l-2.55,41.21S744.4,152.73,743,153.91Z" fill="#0d458d"/><path d="M840.32,220.05c-4.56,9.13-21.78,8.8-21.78,8.8-3.16-24.27-3.86-140.45-3.86-140.45a119.06,119.06,0,0,1,13.56,2.78c5.6,10.81,7.58,31.06,8.06,45.33a113.47,113.47,0,0,1-.22,15.64c-.44,2.28.11,13.14.95,25.53C838.34,197,840.32,220.05,840.32,220.05Z" fill="#0d458d"/><path d="M781.16,88.08S780,204.57,776.85,228.85c0,0-17.21.33-21.78-8.8,0,0,7.07-71.7,6-77.53-.78-4.07,1.23-37.48,8.68-51.84A78.42,78.42,0,0,1,781.16,88.08Z" fill="#0d458d"/><path d="M758,191s7.42-6.88,10.45-3,3.57,9.9,1.23,9.49-7.14-2.61-7.83-1.51-3.77,3.2-4.7,1.53S758,191,758,191Z" fill="#ffb27b"/><path d="M759.63,190.25a47.11,47.11,0,0,1-2.48,7.27c-13.76-10.81-22.63-20-28.29-27.06,4.27-.31,10.5-1.84,17.67-6.9C751.45,174.34,759.63,190.25,759.63,190.25Z" fill="#ffb27b"/><path d="M877.93,154.86s-1.63,5.69-9.59,15.6c-5.66,7-14.53,16.25-28.29,27.06a47.11,47.11,0,0,1-2.48-7.27s8.18-15.91,13.1-26.69c2.39-5.24,4-9.27,3.55-9.65-1.1-.92-16.07-13.93-22.75-19.73l-3.18-2.76-1.53-40.59S847.3,92.51,877.93,154.86Z" fill="#0d458d"/><path d="M839.2,191s-7.42-6.88-10.45-3-3.57,9.9-1.23,9.49,7.14-2.61,7.83-1.51,3.77,3.2,4.7,1.53S839.2,191,839.2,191Z" fill="#ffb27b"/><path d="M837.57,190.25a47.11,47.11,0,0,0,2.48,7.27c13.76-10.81,22.63-20,28.29-27.06-4.27-.31-10.5-1.84-17.67-6.9C845.75,174.34,837.57,190.25,837.57,190.25Z" fill="#ffb27b"/><path d="M854.22,153.91c-1.1-.92-16.07-13.93-22.75-19.73,0,0,6.66-5,10.79,2.29S854.22,153.91,854.22,153.91Z" fill="#0c3563"/><path d="M877.93,154.86s-1.63,5.69-9.59,15.6C859.13,170.34,877.93,154.86,877.93,154.86Z" fill="#0c3563"/><path d="M791.18,59.64c-1.93,0-5.81-.43-6.49-3.79a3,3,0,0,1,.56-2.62A3.58,3.58,0,0,1,788.08,52h6a2.64,2.64,0,0,1,2.35,1c.72,1.08.17,2.7-.1,3.35-.93,2.22-2.21,3.25-4,3.26C792.19,59.6,791.78,59.64,791.18,59.64Zm-3.1-7.23a3.22,3.22,0,0,0-2.53,1.06,2.7,2.7,0,0,0-.48,2.3c.35,1.73,1.65,2.83,3.86,3.28a12.15,12.15,0,0,0,3.31.16h0c1.64,0,2.81-1,3.67-3,.19-.46.77-2,.13-3a2.26,2.26,0,0,0-2-.8Z" fill="#d04b3e"/><path d="M804.92,59.64c-.6,0-1,0-1.09,0-1.81,0-3.08-1-4-3.26-.27-.65-.82-2.27-.11-3.35a2.65,2.65,0,0,1,2.36-1H808a3.6,3.6,0,0,1,2.84,1.21,3,3,0,0,1,.55,2.62C810.74,59.21,806.86,59.64,804.92,59.64Zm-2.85-7.23a2.27,2.27,0,0,0-2,.8c-.63.95,0,2.52.14,3,.86,2.06,2,3,3.67,3h0a12.07,12.07,0,0,0,3.3-.16c2.22-.45,3.51-1.55,3.86-3.28a2.7,2.7,0,0,0-.47-2.3A3.26,3.26,0,0,0,808,52.41Z" fill="#d04b3e"/><path d="M795.92,54.78a.23.23,0,0,1-.21-.14.22.22,0,0,1,.11-.31,5.57,5.57,0,0,1,4.51,0,.24.24,0,0,1,.09.32.22.22,0,0,1-.31.1,5.1,5.1,0,0,0-4.09,0Z" fill="#d04b3e"/><path d="M837,177.68c-9.75-27.51-5.56-43.5-5.56-43.5l4.83,2.33a113.47,113.47,0,0,1-.22,15.64C835.64,154.43,836.19,165.29,837,177.68Z" fill="#0c3563"/><path d="M388.38,72.54s-11.51-20.88-1-30.09,29.14-3.72,32.55,0,8,14.28-1.46,29.31Z" fill="#1f3765"/><path d="M365.45,405.93s0-5.79.82-7.71,3.85-9.76,3.85-9.76h11.82s2.2,7.15,2.34,9.49,0,8,0,8Z" fill="#0c3563"/><path d="M440.5,405.93s0-5.79-.82-7.71-3.85-9.76-3.85-9.76H424s-2.2,7.15-2.34,9.49,0,8,0,8Z" fill="#0c3563"/><path d="M393.15,81.12s-.42,12.89-2.07,18.66L378,108.89l49.13,7.35-11.71-16.19s-3.54-17.28-1.69-23.67S393.15,81.12,393.15,81.12Z" fill="#ca703a"/><path d="M393.07,82.9s3.89,9.36,11.21,9.15,9-8.48,9-8.48Z" fill="#ac5927"/><path d="M413.56,53.08H393.32c-2.72,0-4.94,2.62-4.94,5.81V72.54c0,8.74,9.76,15.8,15.06,15.9,6.08.1,15.07-7.51,15.07-16.68V58.89C418.51,55.7,416.28,53.08,413.56,53.08Z" fill="#ca703a"/><path d="M366.93,205.52s2.07,63.15-1,99.19,0,86.18,0,86.18,9.89,5.45,20.61,0c0,0,11.76-69.61,11.68-86.18-.08-17.65,12.8-96.44,12.8-96.44Z" fill="#ff9841"/><path d="M440.08,390.89s-9.89,5.45-20.61,0c0,0-11.76-69.61-11.69-86.18,0-7.45-2.24-25.82-4.88-44.54-3.62-25.61-7.92-51.9-7.92-51.9l45.8-2.86s-3.77,63.27-.68,99.3S440.08,390.89,440.08,390.89Z" fill="#ff9841"/><path d="M432.15,103.1v0a130.92,130.92,0,0,0-16.7-3.08c-4.57,6.06-7.84,7.46-12,9.11-6.71-.93-12.36-9.19-12.36-9.38a75.2,75.2,0,0,0-14.24,2.71c-.4.05-21.84,2.88-52.18,64.65,0,0,1.63,5.68,9.59,15.6,5.66,7,14.53,16.25,28.29,27.06a47.11,47.11,0,0,0,2.48-7.27s-8.18-15.91-13.1-26.69c-2.39-5.24-4-9.27-3.55-9.65.88-.74,10.78-9.33,18.08-15.67-.06,1.58-.07,3,0,4.28.4,13.79,1,27.2-.82,42.06-2.34,19.51,1.62,19.17,1.62,19.17s5.33,1,12.76,2a180.38,180.38,0,0,0,22.93,1.75c17.81,0,37.34-3.78,37.34-3.78,5.62.07-1.58-35-2.63-56.06-.24-4.89-.47-9.36-.68-13.45,6.71,5.83,21.58,18.75,22.68,19.67.46.38-1.16,4.41-3.55,9.65-4.93,10.78-13.1,26.69-13.1,26.69a47.11,47.11,0,0,0,2.48,7.27c13.76-10.81,22.63-20,28.29-27.06,8-9.92,9.59-15.6,9.59-15.6C452.69,104.79,432.15,103.1,432.15,103.1Z" fill="#50adbf"/><path d="M380,218.06c-7.43-1-12.76-2-12.76-2s-4,.34-1.62-19.17c1.78-14.86,1.22-28.27.82-42.06,0-1.54,0-3.35.09-5.37,1.13,1.82,13.82,22.31,17.23,37.53C386.22,198.06,382.47,211.15,380,218.06Z" fill="#288e9c"/><path d="M407.78,304.71c0-7.45-2.24-25.82-4.88-44.54,2.74-11.18,9.42-21.94,9.42-21.94C420.77,261.94,407.78,304.71,407.78,304.71Z" fill="#ff862d"/><path d="M363.39,203.32s7.42-6.88,10.44-3,3.58,9.9,1.24,9.49-7.15-2.62-7.83-1.52-3.77,3.21-4.7,1.54S363.39,203.32,363.39,203.32Z" fill="#ca703a"/><path d="M365,202.53a47.11,47.11,0,0,1-2.48,7.27c-13.76-10.81-22.63-20-28.29-27.06,4.27-.32,10.5-1.84,17.67-6.9C356.84,186.62,365,202.53,365,202.53Z" fill="#ca703a"/><path d="M444.59,203.32s-7.42-6.88-10.45-3-3.57,9.9-1.24,9.49,7.15-2.62,7.84-1.52,3.77,3.21,4.7,1.54S444.59,203.32,444.59,203.32Z" fill="#ca703a"/><path d="M443,202.53a47.11,47.11,0,0,0,2.48,7.27c13.75-10.81,22.62-20,28.29-27.06-4.27-.32-10.5-1.84-17.67-6.9C451.13,186.62,443,202.53,443,202.53Z" fill="#ca703a"/><path d="M459.61,166.19c-1.1-.92-16.08-13.93-22.76-19.73,0,0,6.67-5,10.8,2.29S459.61,166.19,459.61,166.19Z" fill="#288e9c"/><path d="M483.32,167.14s-1.63,5.68-9.59,15.6C464.52,182.61,483.32,167.14,483.32,167.14Z" fill="#288e9c"/><path d="M388.38,64.42s3.68-11.23,15.74-9.48,13.1,4.33,14.39,7.32,3.75-10.93,3.75-10.93L408,47.1s-17.22,2-18.46,4.85l-1.23,2.89Z" fill="#1f3765"/><path d="M402.45,42.68s-12.74-11.58-7.27-14.06S402.45,42.68,402.45,42.68Z" fill="#1f3765"/><path d="M401.94,43S385.82,36.92,390,32.6,401.94,43,401.94,43Z" fill="#1f3765"/><path d="M403,43.32s-2.64-14.94,3.73-14.83S403,43.32,403,43.32Z" fill="#1f3765"/><path d="M403.89,42.35s6.9-16.07,13.33-14.57S403.89,42.35,403.89,42.35Z" fill="#1f3765"/><path d="M403.54,43.32s11-13.6,16.76-10.42S403.54,43.32,403.54,43.32Z" fill="#1f3765"/><path d="M647.39,71.38s-4.84-13.76-5.1-17.33,1.35-13.89,13.26-15,16.35-2.37,16.35-2.37l-2.27,2.68a8.52,8.52,0,0,1,6.76,1.24c3.44,2.27,5.2,9,4.68,14.74s-5,12.13-5.09,14.52S647.39,71.38,647.39,71.38Z" fill="#0c3563"/><path d="M614.91,214.12s-.27,3.14-3.55,10c0,0-1.5,4.65,8.34,11.62s.27-21.59.27-21.59Z" fill="#ee9358"/><path d="M649.64,92.7s-5.52,29.55-11.54,60.42c-6.54,33.55-13.68,68.66-15,69.08-2.46.83-6.22-2.39-7.86-6.49-1.32-3.3-3.58-30.4-2-47.92a87,87,0,0,1,1.29-10c2.46-11.07,3.21-50.23,10.59-56.38S649.64,92.7,649.64,92.7Z" fill="#ee9358"/><path d="M649.64,92.7s-3.18,17-7.35,38.74c-1.32,6.89-2.74,14.24-4.19,21.68-5.9,11.56-11,19.42-12.52,17.94-3.2-3-8.8-3.38-12.34-3.27a87,87,0,0,1,1.29-10c.2-.87.38-1.92.56-3.12,2.06-13.93,3.23-47.6,10-53.26C632.5,95.3,649.64,92.7,649.64,92.7Z" fill="#5e9af2"/><path d="M642.29,131.44c-1.32,6.89-2.74,14.24-4.19,21.68-5.9,11.56-11,19.42-12.52,17.94-3.2-3-8.8-3.38-12.34-3.27a87,87,0,0,1,1.29-10c.2-.87.38-1.92.56-3.12L632.77,112Z" fill="#2776ce"/><path d="M674.12,92.27a131.4,131.4,0,0,0-.77-19.09l-23.79,3.89s0,7.26.1,15.31h0s-.65,7.48,8.55,8.57S674.37,98,674.12,92.27Z" fill="#ee9358"/><path d="M649.49,78.54S655.1,90,661.52,90,674,79.22,674,79.22Z" fill="#e17e3f"/><path d="M665.35,407.6s.86-6.74,2.87-10.75S683,395.39,683,395.39s2.55,2.19,3.1,12.39Z" fill="#0c3563"/><path d="M621.89,407.51c3-1.83,1.29-15.48,1.29-15.48s-14-11.17-15.89-2.62-13.27,12.4-19.73,13.45c-4.46.72-5.84,3.19-6.27,4.65Z" fill="#0c3563"/><path d="M650.27,79.39c2.31,1.81,9.08,3.62,11,3.83,0,0,10.05-2.24,11.88-3.34,2.83-1.72,2.65-5.19,2.79-10,.18-5.72.75-10.2.11-13.49-.75-3.94-3.25-6.19-10.24-6.79-12.84-1.12-18.19,2.1-18.41,6.4-.06,1.16-.12,2.26-.15,3.3C646.77,72.71,647.83,77.47,650.27,79.39Z" fill="#ee9358"/><path d="M650.82,306.09a65.22,65.22,0,0,0-1,7.54c-1.3,25.33-21.32,83.24-24.9,84.59-5.54,2.09-14.26-2.36-18.83-3.81a3.92,3.92,0,0,1-2.75-4.45c9.92-45.58,13.56-111.21,14.89-150.06a176.33,176.33,0,0,1,4-33.1s48.83-13,49.12,3.46C671.6,224.84,655.17,282,650.82,306.09Z" fill="#0d458d"/><path d="M650.82,306.09,618.2,239.9a176.33,176.33,0,0,1,4-33.1s48.83-13,49.12,3.46C671.6,224.84,655.17,282,650.82,306.09Z" fill="#0c3563"/><path d="M640,210.31,665.76,397.4s11.34,2.73,20.16.54c0,0,7.55-99.5,6.92-123.55s5.43-64.37-1.38-68.81S640,210.31,640,210.31Z" fill="#0d458d"/><path d="M695.17,205.58a3.85,3.85,0,0,1-3.79,4l-40.68.62-29.88.46c-1.4,0,3-11.17,3.11-84.15,0-16.29,25.24-33.81,25.71-33.81h0c0,2.35,3.7,6.68,9.39,7,6.76.44,15.05-2.92,15.05-6.81a17.71,17.71,0,0,1,2,2.64c3.37,4.92,10.16,16.9,14.5,37.76,3.43,16.48,2.11,38.5,4.58,66.92C695.39,202.32,695.12,204.14,695.17,205.58Z" fill="#ffa400"/><path d="M693.67,209.81a82.84,82.84,0,0,1-15.52,4.52,153.31,153.31,0,0,1-30.07,3c-19.77.13-27.26-6.69-27.26-6.69-1.4,0,3-11.17,3.11-84.15,0-16.29,25.24-33.81,25.71-33.81h0s-.65,21.69,5.91,28.07c0,0,9.2-7.11,21.14-27.34,3.37,4.92,9.6,19,13.94,39.91a113.39,113.39,0,0,1,1.85,13.85c1.15,14.4.89,32,2.73,53.07.18,2.06-.09,3.88,0,5.32C695.26,207.74,695.84,209.78,693.67,209.81Z" fill="#5e9af2"/><path d="M693.67,209.81a82.84,82.84,0,0,1-15.52,4.52c-3.18-4.85-7.19-13.61-7.75-27.41-.94-23.34,21.23-53.4,21.23-53.4l.85,13.67c1.15,14.4.89,32,2.73,53.07.18,2.06-.09,3.88,0,5.32C695.26,207.74,695.84,209.78,693.67,209.81Z" fill="#2776ce"/><rect x="648.72" y="137.68" width="43.64" height="59.86" transform="translate(6.03 357.72) rotate(-30)" fill="#0d458d"/><path d="M710.31,179.26s-7.73.76-21-.6A201.39,201.39,0,0,1,653,171.34l4.21-7.2s17.24-.76,29.86-2.61a75.35,75.35,0,0,0,8.23-1.58c2.74-.74-10.88-35.26-17.75-55.56-1.64-4.85-2.89-8.88-3.45-11.45,0,0,1.2.19,3.08.56,5.35,1.06,16.23,3.54,20.85,7C704.27,105.27,719.9,158.64,710.31,179.26Z" fill="#ee9358"/><path d="M657.35,164.14s-5.84-5.47-8.1-5.47-8.75,2.37-9.42,4.19-.93,5.11.93,5.83a83.08,83.08,0,0,0,11.54,2.74C654.29,171.61,659.2,170.52,657.35,164.14Z" fill="#ee9358"/><path d="M710.31,179.26s-7.73.76-21-.6c.73-3.59,1.41-10.61-2.29-17.13a75.35,75.35,0,0,0,8.23-1.58c2.74-.74-10.88-35.26-17.75-55.56-.55-6.56-.84-11-.84-11l.47.07c5.35,1.06,16.23,3.54,20.85,7C704.27,105.27,719.9,158.64,710.31,179.26Z" fill="#5e9af2"/><path d="M655.55,120.77S674,112.66,674.23,112s-.91-5.56-2.19-7c0,0,8.84.82,9.39-.27s.73-10.2.73-10.2-3.46-3.65-8-4c0,0-4,9.89-5.47,12.84C664.76,111.2,655.55,120.77,655.55,120.77Z" fill="#2776ce"/><path d="M651.18,104.73s1.18,9.48,4.37,16c0,0-9.61-6.7-10.43-8.89s2.32-6.42,2.32-6.42-5.74-.14-5.87-2S643.34,94,643.34,94s4.94-3.61,6.31-3.47Z" fill="#2776ce"/><path d="M647.17,63.59s.5-8.55,5.81-8.65,14.54-.62,18.38-4.23-22.8-2-22.8-2S645.34,59.06,647.17,63.59Z" fill="#0c3563"/><path d="M668.49,52s6.92,2.82,7.9,7.22C676.39,59.2,678.66,43,668.49,52Z" fill="#0c3563"/><polygon points="264.04 351.9 269.77 376.05 278.36 376 278.68 351.9 264.04 351.9" fill="#ffb27b"/><polygon points="336.28 352.93 352.6 376.05 358.96 367.88 349.14 349.75 336.28 352.93" fill="#ffb27b"/><path d="M277.64,50.39a16.53,16.53,0,0,0-9.16.09,4.11,4.11,0,0,1,1.68-1.26c-1.56.08-4.63,2.26-4.63,2.26-22.64-3.86-19.71,27.74-17.82,34.84s-5.14,11-14.93,18.83c-18.68,15-17.6,29.85-17.6,29.85l.58.22c.68-2,2.15-5.68,3.85-6.54a74,74,0,0,0-1.47,7.62c7.09,3.44,20.7,11.5,30.2,17.23a12.06,12.06,0,0,1-.37-4.66l2.19,5.77c5.09,3.08,8.61,5.26,8.61,5.26-1.7-5.7,18.93-41.76,31.06-53.76,2.39-5.7,1.82-14.79,1.77-15.51.83,7.14.42,11.32-.21,13.75C301,91.1,286.23,53.21,277.64,50.39Z" fill="#003261"/><path d="M286.6,108.53c.07,0-6.89,3.65-12.12,2.22-4.92-1.35-8.14-7.73-8.07-7.74,2.08-.42,2.68-3.28,2.64-15.6l.94.19,15.85,3.14s-.36,5-.37,9.69C285.46,104.37,285.7,108.11,286.6,108.53Z" fill="#ffb27b"/><path d="M261.18,59s6-9.71,17.2-3.9C278.38,55.08,272.58,55.24,261.18,59Z" fill="#00acb8"/><path d="M285.84,90.74s-.36,5-.37,9.69c-8.87-.25-13.56-8.35-15.48-12.83Z" fill="#ff9e64"/><path d="M266.73,88.16s-6-6.28-8.34-12.22c-1.67-4.24-2.71-21,14.13-21.93a22.68,22.68,0,0,1,9.93,1.63c4,1.68,10.21,5.83,7.34,21.2l-.52,5.1Z" fill="#003261"/><path d="M357.43,362.6s-4.22.73-7.67,1c-.77.06-1.5.09-2.14.09a37.47,37.47,0,0,1-6.68-1.09l-.15,0-1.81-.44-.11,0s-21-23.39-32.79-60.88q-.4-1.31-.87-2.64c-6.45-18.81-19.81-42.41-26.86-63.77-1.12-3.4-2.13-6.6-3-9.63-.29-1-.57-1.93-.84-2.87a227.1,227.1,0,0,1-8.08-42.53l42.36,10.77S326.54,267.62,357.43,362.6Z" fill="#be3b35"/><path d="M288.61,93.25s-20.5,4.48-23.09-8.33-7-20.86,6-24.26,16.53,1,18.43,5S293.88,91.75,288.61,93.25Z" fill="#ffb27b"/><path d="M280.81,58.45s-2.6,16.17-10.8,20.14S257.6,81,257.6,81a24.94,24.94,0,0,0,5.09-16.07S275.12,52.15,280.81,58.45Z" fill="#003261"/><path d="M279.66,60s4.88,2.5,6.57,5.56,3.49,9.68,5.41,9.06c0,0,2.18-11.08-3.76-15.9C281.59,53.58,279.66,60,279.66,60Z" fill="#003261"/><path d="M269.49,374.69a23.29,23.29,0,0,1-1.1,9.91s-1.4,6.4,4.91,6.52,7.85-.48,7.14-4.4S278.36,376,278.36,376Z" fill="#ffb27b"/><path d="M268.39,384.6s-1.16,6-.45,9.26c0,0,1.9,1.42,6.49,1.42a13.21,13.21,0,0,0,6.6-1.42s.14-6.63-1-9.43C280,384.43,275.53,391.14,268.39,384.6Z" fill="#e05344"/><path d="M374.16,387.36s-11.63-12.91-15.2-19.48l-8.65,4.43,19.33,18.15,4.52-.59Z" fill="#ffb27b"/><path d="M381.54,394.92s-12.49,0-14.64-.24-3.86-3.33-6.18-8c-1-1.9-3.09-2.94-5.27-3.52v10.75h-3.3L349,382.52c-2.06-3.79-.16-7.22,1.29-10.21,1.68,0,6.22,1.15,14.81,10.83a11.27,11.27,0,0,0,9,4.22l.12.07C381.42,390.64,381.54,394.92,381.54,394.92Z" fill="#e05344"/><path d="M349.76,363.59c-.77.06-1.5.09-2.14.09a37.47,37.47,0,0,1-6.68-1.09l-.15,0-1.81-.44-.11,0s-21-23.39-32.79-60.88q-.4-1.31-.87-2.64c-6.45-18.81-19.81-42.41-26.86-63.77-1.12-3.4-2.13-6.6-3-9.63-.29-1-.57-1.93-.84-2.87l7.49-5.68S304.46,253,311.42,287.3C317.2,315.71,342,352.54,349.76,363.59Z" fill="#a82b2b"/><path d="M282.76,290.49c.12,16.67-.72,55-2.89,70.85,0,0-2.06,1.82-7.16,1.84s-7.57-1.9-7.57-1.9c-5.44-27.59-9.32-50.41-12.14-70.07-2.31-16.14-4.37-30-5.95-41.89-1.4-10.55-2.43-19.6-2.92-27.4-.07-1.06-.13-2.09-.17-3.1-.07-1.34-.11-2.64-.14-3.9s0-2.5,0-3.69l.18,0,10.53-1,33.24-3.24C287.2,236.14,282.68,280.81,282.76,290.49Z" fill="#be3b35"/><path d="M272.71,363.18a13,13,0,0,1-7.57-1.9c-5.44-27.59-9.32-50.41-12.14-70.07-2.31-16.14-4.37-30-5.95-41.89-1.4-10.55-2.43-19.6-2.92-27.4-.06-3.84-.1-7.52-.15-10.71s-.1-6-.19-7.88l10.72,6.85,11.27,7.21s-16,14.55-12.06,42S267.24,359.29,272.71,363.18Z" fill="#a82b2b"/><path d="M281.42,102.47s17.08-2.71,22.82,3c7,7,20.22,47.08,19.7,51.65-.2,1.75-7.14.93-9.51-1.56C302.58,143.14,285.58,111.77,281.42,102.47Z" fill="#d83d3d"/><path d="M314.61,214.4c-12.76,3.32-72.28,9.86-72.79-5.05-.13-3.63,0-8,.29-12.78.89-14.72,3.3-32.92,4.46-42.93.53-4.59-1.23-25.15.12-36.35a26.31,26.31,0,0,1,.82-4.28c2.57-8.45,14.13-10.74,20.06-11l17.89-.61s18.48,20.64,21.05,27,3.41,28,5.41,38.56S320.81,212.79,314.61,214.4Z" fill="#d83d3d"/><path d="M279.46,164s-9.95,30.55-37.35,32.55c.89-14.72,3.3-32.92,4.46-42.93.53-4.59-1.23-25.15.12-36.35.36.08.68.28,1.05.35C277.92,123.47,282.2,157.66,279.46,164Z" fill="#be3b35"/><path d="M323.08,157.87s-18,5.89-39.85-3.55c0,0-6-.57-8.92.18,0,0,.64-5.91,3.53-7.52s15.33,1.87,19.05,1.36C305,147.22,319.19,146.35,323.08,157.87Z" fill="#ff9e64"/><path d="M307.07,144.12s1.68-14.6-4-23.4a3.06,3.06,0,0,1,3.47,1.6c1.44,2.29,11.53,24,6.73,25.57S307.07,144.12,307.07,144.12Z" fill="#be3b35"/><path d="M280.85,146.56c-.26,0-8.49,1.07-9.94,2.1s-.17,4.63,2.57,5S280.85,146.56,280.85,146.56Z" fill="#ff9e64"/><path d="M258.36,152.09s23.43-.86,44.68-5c0,0,3.89,0,3.43,3.42s-36.83,22.39-44.83,18.73Z" fill="#ffb27b"/><path d="M303,147.12s2.49-3,4-3,5.57,2,6.17,3.77-4.77.51-6.77,2.65S303,147.12,303,147.12Z" fill="#ffb27b"/><path d="M267.57,102.06s-19.69,0-22.57,7.12c-5.26,12.91,12.07,55.75,16.64,60.09,2,1.87,11.07-1.08,11.07-13.41C272.71,149.46,272.25,112.08,267.57,102.06Z" fill="#d83d3d"/><path d="M700.92,230.16c-16.31-4.15-34.23-29.46-34.23-29.46l4.59-4C676,202.33,695.8,212,695.8,212c-.11-5.13,0-9.81.35-14.07,2.2-28.94,13.11-38.58,16.08-40.7a6.58,6.58,0,0,1,.76-.48l0,.61c0,.86.12,2.59.2,5C713.83,180,714.55,233.63,700.92,230.16Z" fill="#ee9358"/><path d="M671.28,196.72c-.07-.68-.53-10.63-2.5-12.52s-5.88-4.47-7-4.26-4.93,6.54-3.13,10.9,8,9.86,8,9.86Z" fill="#ee9358"/><path d="M675.33,197.88l-10.74.45a.65.65,0,0,1-.67-.62l-.86-20.48a.64.64,0,0,1,.62-.67l10.74-.45a.63.63,0,0,1,.67.61L676,197.2A.66.66,0,0,1,675.33,197.88Z" fill="#ffa447"/><rect x="661.19" y="176.42" width="12.04" height="21.79" rx="1.15" transform="translate(-7.25 28.05) rotate(-2.4)" fill="#f46700"/><path d="M661,180.7s2.93-3.27,5.86-.77-.19,7.83-2.73,9.29a21,21,0,0,0-3.36,2.22Z" fill="#ee9358"/><path d="M736.43,398.42c-1,3.95-2.08,7.71-3.2,11.21-.24.75-.47,1.49-.71,2.21-.12.36-.24.71-.35,1.06-.24.7-.47,1.38-.7,2-.3.87-.6,1.71-.9,2.53l-.65,1.78c-3.31,8.87-6.08,14.49-6.08,14.49l-6.59-.45a178.51,178.51,0,0,0,3-28.63c0-.6,0-1.21,0-1.82,0-1.31,0-2.64,0-4,0-.56,0-1.12,0-1.69-.13-14.52-1.93-31.68-7.67-48.06a315.14,315.14,0,0,1-10.49-37c-7.89-36.36-6-60.24-6-60.24l37.07,4.34,1.72.2c.16,17,.6,40.14,1,58.22.07,3.14.13,6.12.19,8.89.26,11.61.45,19.54.45,19.54C743.65,358.35,741.06,380,736.43,398.42Z" fill="#e17e3f"/><path d="M725.82,124.53s8.77,7.47.73,16.06c0,0,6.7.66,9-1.19a6.46,6.46,0,0,1-.86,1.31s7.49.27,10.58-2.07,1.11-40.67-19.68-36.38c0,0-17.63-1.33-16,19.06s-5,20.39-5,20.39a9.4,9.4,0,0,0,2.75.92s1.3-.5,1.56-1.22a4.72,4.72,0,0,1-.59,1.49s7.18.68,10.77-2S726.84,128.74,725.82,124.53Z" fill="#0c3563"/><path d="M754.12,247.65c-7-15.71-10.36-20.15-10.47-25.1-.09-3.91,1.83-8.12,5.58-18.47a38.15,38.15,0,0,0,1.86-7.47c3-19.94-8.57-41.5-15.73-43-2-.53-5.38-7.73-5.34-19.34l-.89.18-15.09,3s.34,4.75.35,9.22c0,3.73-.19,7.52-1,8a20.39,20.39,0,0,0-2.07.29s-12.77,9-13.59,21.13c-1.11,16.25,10.35,35.52.19,68C687.51,277.25,758,256.33,754.12,247.65Z" fill="#ee9358"/><path d="M714,137.48s.34,4.75.35,9.22c8.44-.24,12.91-7.94,14.74-12.21Z" fill="#e17e3f"/><path d="M730.68,132.85s4.43-7,5.49-13c.76-4.27-1.41-20.09-17.31-17.82a21.66,21.66,0,0,0-9,3.39c-3.45,2.33-8.43,7.37-2.86,21.17l1.44,4.67Z" fill="#0c3563"/><path d="M711.22,141.71s20,.33,20-12.11,2.6-20.79-10.15-21.52-15.24,4-16.26,8.16S706,141.31,711.22,141.71Z" fill="#ee9358"/><path d="M712,107.77s5.47,14.6,13.86,16.76,12-.09,12-.09a23.76,23.76,0,0,1-7.78-14S716.08,100.82,712,107.77Z" fill="#0c3563"/><path d="M713.31,109s-4.08,3.26-5.08,6.43-1.44,9.69-3.34,9.47c0,0-4.13-9.93.51-15.54C710.31,103.37,713.31,109,713.31,109Z" fill="#0c3563"/><path d="M780.11,264.34l-6,1.8s-19.79-32.83-21.59-41.37c-.58-2.78-2-8.35-3.7-14.58-3.48-12.91-8-28.71-8-28.71l-1.48-6.4-5-21.81s9.64,1,15.28,3.34c1.87.78,3.3,1.71,3.79,2.81,4.15,9.11,8.28,32.1,11.19,48.51,1.62,9.14,2.86,16.24,3.5,17.74C769.91,229.86,775.41,253,780.11,264.34Z" fill="#ee9358"/><path d="M712.55,109.45s3.9,15.29,14.49,20.19c0,0-10.59-9.4-11.49-19.49S712.55,109.45,712.55,109.45Z" fill="#0c3563"/><path d="M779.68,263.34s1.82,4.3,3.72,5.5a10.59,10.59,0,0,1,4.1,6.39c.72,4.26-2.54,6.9-4.94,6.9s-4.69-3.27-6.1-11.08c-.08-.43-2.35-4.91-2.35-4.91Z" fill="#ee9358"/><path d="M757.7,395.23c-2.13,22.74-11.52,37.45-11.52,37.45L743,435.6s-2.92-16.65-5-35.72c-2-18.12-4.76-37.3-7.87-43.16-4.66-8.74-8.09-26.63-10.56-45.53-4.08-31.27-5.53-65.32-5.53-65.32L751.58,244c3.78,6.35,5.42,16.77,5.81,28.62.42,12.47-.57,26.51-1.93,39.05-1.9,17.57-4.54,32.21-5.16,35.5v0a1.93,1.93,0,0,0,.24,1.26C758,363.26,759.11,380.2,757.7,395.23Z" fill="#ee9358"/><path d="M713.84,195.42c-.85,20.65-3.94,41.09-12.93,39.78-11-1.61-13.88-11.89-14.47-19.54a44.16,44.16,0,0,1,.16-8.49s5.42,0,6.3-.84c4.17-3.84,2.93-41.57,5-45.49s15.44-6.43,15.44-6.43S714.68,175,713.84,195.42Z" fill="#ff9841"/><path d="M713.84,195.42c-.85,20.65-3.94,41.09-12.93,39.78-11-1.61-13.88-11.89-14.47-19.54,2.71-.14,7.47-.8,9.36-3.68,2.71-4.13,11.16-30.73,11.16-30.73S710.29,187.22,713.84,195.42Z" fill="#ff862d"/><path d="M736.43,398.42c-1,3.95-2.08,7.71-3.2,11.21-.24.75-.47,1.49-.71,2.21-.12.36-.24.71-.35,1.06-.24.7-.47,1.38-.7,2-.3.87-.6,1.71-.9,2.53l-.65,1.78c-3.31,8.87-6.08,14.49-6.08,14.49l-6.59-.45a178.51,178.51,0,0,0,3-28.63c0-.6,0-1.21,0-1.82,0-1.31,0-2.64,0-4,0-.56,0-1.12,0-1.69-.13-14.52-1.93-31.68-7.67-48.06a315.14,315.14,0,0,1-10.49-37c3.92.81,7.37,0,17.38-.86,1.05-.09,6.08,6.14,11.05,14.38.26,11.61,5.95,17.43,5.95,17.43C743.65,358.35,741.06,380,736.43,398.42Z" fill="#0c3563"/><path d="M757.7,395.23c-2.13,22.74-11.52,37.45-11.52,37.45L743,435.6s-2.92-16.65-5-35.72c-2-18.12-4.76-37.3-7.87-43.16-4.66-8.74-8.09-26.63-10.56-45.53,3.46,1.44,15.23,5.18,35.94.49-1.9,17.57-4.54,32.21-5.16,35.5v0a1.93,1.93,0,0,0,.24,1.26C758,363.26,759.11,380.2,757.7,395.23Z" fill="#0d458d"/><path d="M702.14,223.47s22.11,5.54,41.51-.92c0,0,10.65,22.61,13.58,32.3s7.67,29.69,7.67,29.69-39.38,12.17-71.75,0c0,0-1.48-26.64,2.77-40.53S702.14,223.47,702.14,223.47Z" fill="#0c3563"/><path d="M782.29,233.82c0,5.19-5.29,8.38-11,9.93-5.46,1.49-11.27,1.47-13.09.26-3.14-2.11-8.25-25.49-9.75-32.61-.26-1.29-.42-2-.42-2s-4.08,9.73-4.2,10.64c-.06.41-.11,1-.15,1.46s-.06,1.09-.06,1.09-22.13,11.18-41.51.92c0,0-7.87-45.52-4.45-53.35,1.69-3.9,10.56-11.93,14.1-15.39.8-.78.72-2.32.41-3.73a1.63,1.63,0,0,1,2-1.94c2.28.6,6.38.49,10.77-.95a25.88,25.88,0,0,0,6.59-3.22,1,1,0,0,1,1.57.71c.33,2.71,1.15,7.67,2.65,7.67,2.06,0,16.13,1.72,17.16,3.46.36.6,4,8.88,8.63,19.84a0,0,0,0,1,0,0C770.25,197.17,782.29,227.19,782.29,233.82Z" fill="#ff9841"/><path d="M748.06,209.36s-4.08,9.73-4.2,10.64c-.06.41-.11,1-.15,1.46a20.07,20.07,0,0,1-6.78,3.57c-6.9,2.09-9.9-11.13-9.49-17.73s10.17-25.43,13.42-25.82S748.06,209.36,748.06,209.36Z" fill="#ff862d"/><path d="M748.48,211.4c-.26-1.29-.42-2-.42-2A9.75,9.75,0,0,1,748.48,211.4Z" fill="#ff862d"/><path d="M720,227.68c-12.59,0-17.59-3.53-18-3.83l-.82-5.93c.12.09,17,10.24,43.17.52l-.55,4.49C733.77,226.67,726.54,227.68,720,227.68Z" fill="#d04b3e"/><path d="M782.29,233.82c0,5.19-5.29,8.38-11,9.93,7.83-9.32-9.3-65.71-9.74-67.15C770.25,197.17,782.29,227.19,782.29,233.82Z" fill="#ff862d"/><path d="M735.78,153.27s-10.54,6.67-18.51,5.09c0,0-1.91-1.2.73-2.42,2.48-1.14,8.24-4.51,7-7.83a25.88,25.88,0,0,0,6.59-3.22,1,1,0,0,1,1.57.71C733.46,148.31,734.28,153.27,735.78,153.27Z" fill="#ff862d"/><path d="M727.63,439.27h-4.2c-1.41-.23-2.45-.63-3.9-.82a3.87,3.87,0,0,0-3.4.82l0,0H698.22c-.45-.64,0-2.13.41-3.22a2.5,2.5,0,0,1,1.67-1.53c1.89-.55,5.63-1,9.05-4.14,1.92-1.74,9.29-6.39,9.29-6.39h0c.16,0,.93.24,4.29,3.07,1.73,1.46,4.68-2.06,4.68-2.06a4,4,0,0,1,1,1.31,4.39,4.39,0,0,1,.38,2.74c-.26,1.61.6,4.6,1.28,6.63.42,1.22.77,2.09.77,2.09S731.25,438.81,727.63,439.27Z" fill="#0c3563"/><path d="M728.62,426.34c-1,.71-3.12,2.1-4.53,2.28-1.9.25-5.45-4.59-5.45-4.59h0c.16,0,.93.24,4.29,3.07,1.73,1.46,4.68-2.06,4.68-2.06A4,4,0,0,1,728.62,426.34Z" fill="#2b6aa8"/><path d="M727.63,439.27h-4.2c-1.41-.23-2.45-.63-3.9-.82a3.87,3.87,0,0,0-3.4.82l0,0H698.22c-.45-.64,0-2.13.41-3.22.54-.49.69,2.09,1,2.5s14.58.15,15.4-.45a8.62,8.62,0,0,1,6.75-.82c3,.71,7.42-1.12,8.51-1.61.42,1.22.77,2.09.77,2.09S731.25,438.81,727.63,439.27Z" fill="#2b6aa8"/><path d="M750.08,439.27h-4.21c-1.41-.23-2.45-.63-3.89-.82a3.88,3.88,0,0,0-3.41.82l0,0H720.67c-.45-.64,0-2.13.4-3.22a2.55,2.55,0,0,1,1.67-1.53c1.9-.55,5.63-1,9-4.14,1.93-1.74,9.3-6.39,9.3-6.39h0c.16,0,.93.24,4.28,3.07,1.73,1.46,4.69-2.06,4.69-2.06a4.18,4.18,0,0,1,1,1.31,4.46,4.46,0,0,1,.38,2.74c-.27,1.61.59,4.6,1.28,6.63.42,1.22.77,2.09.77,2.09S753.7,438.81,750.08,439.27Z" fill="#0c3563"/><path d="M751.07,426.34c-1,.71-3.13,2.1-4.53,2.28-1.9.25-5.45-4.59-5.45-4.59h0c.16,0,.93.24,4.28,3.07,1.73,1.46,4.69-2.06,4.69-2.06A4.18,4.18,0,0,1,751.07,426.34Z" fill="#2b6aa8"/><path d="M750.08,439.27h-4.21c-1.41-.23-2.45-.63-3.89-.82a3.88,3.88,0,0,0-3.41.82l0,0H720.67c-.45-.64,0-2.13.4-3.22.54-.49.7,2.09,1,2.5s14.57.15,15.4-.45a8.58,8.58,0,0,1,6.74-.82c3,.71,7.42-1.12,8.52-1.61.42,1.22.77,2.09.77,2.09S753.7,438.81,750.08,439.27Z" fill="#2b6aa8"/><path d="M896.5,347.81c-2.54,6.48-15.52,19.83-28.91,32.43-16,15.06-32.53,29.06-32.53,29.06s-7.57,2.31-4.27-8.82c0,0,18.25-33.53,26.08-43.42,2.24-2.83,4.55-5.41,6.72-7.66a106.74,106.74,0,0,1,9.91-9.13s-1-1.65-2.7-4.51c-8.14-13.94-31.52-56.65-24.3-75.61,8.7-22.84,30.3-33.12,30.3-33.12s6.85,28.9,12.63,58.61C894.75,313,899.17,341,896.5,347.81Z" fill="#ff973d"/><path d="M889.43,285.64c-4,18.29-10.87,44.18-18.63,50.12-8.14-13.94-31.52-56.65-24.3-75.61,8.7-22.84,30.3-33.12,30.3-33.12S883.65,255.93,889.43,285.64Z" fill="#ff7e1c"/><path d="M867.59,380.24c-16,15.06-32.53,29.06-32.53,29.06s-7.57,2.31-4.27-8.82c0,0,18.25-33.53,26.08-43.42,2.24-2.83,4.55-5.41,6.72-7.66C863.34,358,863.58,372.48,867.59,380.24Z" fill="#ff7e1c"/><path d="M886.32,270.15s-18.93-47.52-17.94-48.89c.62-.86,1.83-26.79,2.65-46.27.5-11.86.85-21.33.85-21.33s8.4,3,10.4,23.4c.39,3.94.62,7.65.75,11.11.57,14.48-.49,24.69,1.67,29.51,2.68,6,1.72,33.27,2.55,36S892.34,263.31,886.32,270.15Z" fill="#ffb27b"/><path d="M871.35,238.48l-1.51-5.56c-10.63,4.6-41.88-2.13-41.88-2.13s-9.32,11-4.52,33.42c2.34,10.93,10.62,57.62,14,71.29,1.22,5,2.17,8.47,2.56,9.88h0a2,2,0,0,1-.13,1.28,65.73,65.73,0,0,0-3.32,10.9C828.83,393.8,850,433.81,850,433.81l3.62-2.13s1.41-48.27,5.17-70.07a41.44,41.44,0,0,1,2.12-8.44c2.26-5.26,3.85-13.55,5-23.3,2.1-18.42,2.48-42,2.36-60.19C868.6,269.65,871.35,238.48,871.35,238.48Z" fill="#ff973d"/><path d="M823.39,244.39c-4.32-6.54,10.5-33.26,10-35.78-1-5-3.48-10.47-5.88-15.41s-4.73-9.34-5.57-12.09c.77-1.07,1.53-2.07,2.22-3a25.84,25.84,0,0,0,2.58-4.06,5.61,5.61,0,0,0,.63-3.86,20.24,20.24,0,0,0-1-2.77c-.19-.43-.39-.85-.6-1.27a39.28,39.28,0,0,0-5.5-8c5.22-3.35,13.45-5.05,13.52-4.8.61-.21,1.15-.35,1.59-.46l.91-.23c1-.24,2.08-.46,3-.62,1.88-1.88,4.12-8.85,3.44-19.12l.91.12,15.21,2.05s-.05,4.76.21,9.21c.2,3.49.6,6.79,1.37,7.51l1.89.16h0l0,0c.86.07,1.64.14,2.37.22l.17,0c1.33.15,2.44.32,3.34.48l.19,0a14.2,14.2,0,0,1,3.47.92v.05c-.12,4.79,7.61,13.17,7.07,24,0,.41-4,28.82-3.94,29.24.32,8.09,4.28,30.87,4.28,30.87C882.91,244.88,825.71,251.12,823.39,244.39Z" fill="#ffb27b"/><path d="M837.46,96.36c-.28-.79-3.6-9.17-16.8-5.5,0,0,6.66-1.26,8.66,1.21,0,0-5.47-2.11-8.68.14s-3.34,9.14-2.71,11.2,4.69,8,7.13,7.9a7.07,7.07,0,0,0,2.74-.86,31.44,31.44,0,0,0-.77,3.69c-1.84,12.34,6.82,21.11,10.87,18.56,2.6-1.63,4.92,2.94,4.92,2.94l20.49-30.92S846.63,87,837.46,96.36Z" fill="#1f3765"/><path d="M858.84,135.06s-.05,4.75.21,9.2c-8.42.28-13.34-7.12-15.42-11.26Z" fill="#ff985b"/><path d="M861.91,139.11s-19.88,1.54-20.65-10.85-3.86-20.54,8.8-22,15.42,3.06,16.68,7.14S867.06,138.38,861.91,139.11Z" fill="#ffb27b"/><path d="M865.73,106.49c-3.31-3.54-5.58-2.58-6.81-1.38-11.24-5.31-17.71,4-17.71,4a23.75,23.75,0,0,1-6.89,14.46s3.77,2,12-.64a14.25,14.25,0,0,0,6.49-5.09,46.69,46.69,0,0,1-7.39,10.25c9.7-5.23,12.86-19.37,13.17-20.86,1.28,1,3.82,3.24,4.69,5.52,1.19,3.09,2,9.56,3.91,9.22C867.18,121.93,870.68,111.8,865.73,106.49Z" fill="#1f3765"/><path d="M873.76,435H842.91s-1.15-4.91.88-8.26c1.79-3,.68-5-.09-7.49,1.4.57,3.07,1.48,5.06,1.37a15.21,15.21,0,0,0,5.37-2.05c1.33,1.52,6.23,8.39,8,9.67C864.15,429.63,873.14,429.12,873.76,435Z" fill="#0c3563"/><path d="M827.91,434.23l-11.6-28.57s4.12-2.92,8-2.3c3.42.54,4.73-.73,6.5-2.88a11.81,11.81,0,0,0,1.05,5.18,10.79,10.79,0,0,0,3.22,3.64c-.9,1.8-4.73,9.49-5.25,11.62C829.23,423.33,833.09,431.46,827.91,434.23Z" fill="#0c3563"/><path d="M875,207c0-.23,1.21-9.16,2.3-17.09a25.34,25.34,0,0,0,7.77-2c-.13-3.46-2.44-33.05-14.88-34.72-.59-.16-1.2-.3-1.79-.41l-.19,0c-1.52-.28-2.88-.43-3.34-.48h-.17s3.71,10.53,3.63,11.76-12,1.65-19.82,1.76-12.15-12.9-12.22-13.1l-.91.22c-.44.11-10.83,1.69-15.11,5.26a39.62,39.62,0,0,1,5.5,8c.21.42.41.84.6,1.27a20.72,20.72,0,0,1,1,2.77,5.64,5.64,0,0,1-.63,3.87,26.26,26.26,0,0,1-2.58,4.05c-.69.95-1.45,1.95-2.22,3a27.42,27.42,0,0,0,1.34,3.37h0c1.11,2.46,2.66,5.47,4.23,8.71,2.4,5,4.84,10.45,5.88,15.41.53,2.52-14.3,29.24-10,35.78.69,2,6.17,2.85,13.45,2.88,17.37.09,45-4.47,42.45-9.44C879.29,237.83,875.33,215.05,875,207Z" fill="#0d458d"/><path d="M836.84,247.27c-7.28,0-12.76-.89-13.45-2.88-4.32-6.54,10.51-33.26,10-35.78-1-5-3.48-10.46-5.88-15.41-1.57-3.24-3.12-6.25-4.23-8.71h0c.61-2.42,1-3.83,1-3.83s15.78,18.35,19.4,27C846.47,214.46,839.84,237.59,836.84,247.27Z" fill="#0c3563"/><path d="M829.34,234.83l-3.12,5.41c-20.07-8-32.85-25.86-32.85-25.86-.7-10.17,4.06-21.85,9.76-31.94.94-1.67,1.91-3.3,2.89-4.86a126,126,0,0,0,15,11.23c-.84,1.38-1.83,3-2.91,4.8-4.45,7.34-10.2,16.73-11,17.48C806,212.32,829.34,234.83,829.34,234.83Z" fill="#ffb27b"/><path d="M819,195.81c-9.88-.65-17.16-13.5-17.16-13.5a123.07,123.07,0,0,1,18.49-24.2C847.66,168.56,823.42,192.86,819,195.81Z" fill="#0d458d"/><path d="M829.34,234.83a6.17,6.17,0,0,0,2.79-1.2c1.1-1,4.6-3.68,4.81-2.84s-2.54,2.15-1.1,2.35,3.71-.76,6-.41,5.76,5.57,4.68,6.19-5-1.45-6-.72-8.39,4.74-14.26,2S829.34,234.83,829.34,234.83Z" fill="#ffb27b"/><path d="M582.67,129.42s-14.29-.71-14.69-9-12.21-14.26-8.79-20.88c4.19-8.12.37-15.93,5.66-21.39,5.83-6,13.2-2.74,17.09-6.25s11-6.73,18-2.4,12.36,2,17,6.16c5.09,4.61,3.17,10.41,7.36,13.56,3.85,2.89,2.28,10.77-1,17.18-2.34,4.62,3.05,9-6.19,14.26-3.85,2.21-3,7.77-14.7,8.72C597.16,129.86,585.74,127.39,582.67,129.42Z" fill="#1f3765"/><path d="M555.4,446.92s0-5.79.83-7.71,3.84-9.76,3.84-9.76h11.82s2.2,7.15,2.34,9.48,0,8,0,8Z" fill="#0c3563"/><path d="M630.45,446.92s0-5.79-.82-7.71-3.85-9.76-3.85-9.76H614s-2.2,7.15-2.34,9.48,0,8,0,8Z" fill="#0c3563"/><path d="M583.1,122.11S582.68,135,581,140.77l-13,9.11,49.14,7.35L605.4,141s-3.54-17.28-1.69-23.67S583.1,122.11,583.1,122.11Z" fill="#ca703a"/><path d="M583,123.89s3.88,9.35,11.2,9.15,9-8.48,9-8.48Z" fill="#ac5927"/><path d="M593.39,129.42c-5.3-.09-15.06-7.15-15.06-15.9V99.88c0-3.2,2.22-5.81,4.94-5.81h20.24c2.72,0,5,2.61,5,5.81v12.87C608.46,121.92,599.47,129.53,593.39,129.42Z" fill="#ca703a"/><path d="M556.88,246.51s2.07,63.15-1,99.19,0,86.18,0,86.18,9.89,5.45,20.61,0c0,0,11.76-69.62,11.69-86.18C588.1,328.05,601,249.26,601,249.26Z" fill="#ff9841"/><path d="M630,431.88s-9.89,5.45-20.61,0c0,0-11.76-69.62-11.68-86.18,0-7.46-2.25-25.82-4.89-44.54-3.62-25.61-7.91-51.9-7.91-51.9l45.8-2.86s-3.78,63.26-.69,99.3S630,431.88,630,431.88Z" fill="#ff9841"/><path d="M622.1,144.09v0A128.88,128.88,0,0,0,605.4,141c-4.56,6.05-7.84,7.46-12,9.11-6.71-.93-12.36-9.19-12.36-9.38a75.2,75.2,0,0,0-14.24,2.71c-.4.05-21.84,2.88-52.18,64.65,0,0,1.63,5.68,9.59,15.6,5.66,7.05,14.53,16.25,28.29,27.05a46.69,46.69,0,0,0,2.48-7.26s-8.18-15.91-13.1-26.69c-2.39-5.24-4-9.27-3.55-9.66.89-.73,10.78-9.32,18.08-15.67-.06,1.59-.07,3,0,4.29.4,13.79,1,27.2-.82,42.05-2.34,19.52,1.62,19.18,1.62,19.18s5.33,1,12.76,2a180.31,180.31,0,0,0,22.93,1.76c17.81,0,37.34-3.78,37.34-3.78,5.62.07-1.58-35-2.63-56.06-.24-4.9-.47-9.36-.68-13.45,6.71,5.83,21.58,18.75,22.68,19.66.47.39-1.16,4.42-3.55,9.66-4.92,10.78-13.1,26.69-13.1,26.69a46.69,46.69,0,0,0,2.48,7.26c13.76-10.8,22.63-20,28.29-27.05,8-9.92,9.59-15.6,9.59-15.6C642.64,145.78,622.1,144.09,622.1,144.09Z" fill="#d04b3e"/><path d="M569.92,259c-7.43-1-12.76-2-12.76-2s-4,.34-1.62-19.18c1.78-14.85,1.22-28.26.82-42.05,0-1.54,0-3.35.09-5.37,1.13,1.82,13.82,22.3,17.23,37.53C576.17,239.05,572.42,252.13,569.92,259Z" fill="#c33f3b"/><path d="M597.74,345.7c0-7.46-2.25-25.82-4.89-44.54,2.74-11.18,9.42-21.94,9.42-21.94C610.72,302.93,597.74,345.7,597.74,345.7Z" fill="#ff862d"/><path d="M553.34,244.3s7.42-6.87,10.44-3,3.58,9.9,1.24,9.48-7.15-2.61-7.83-1.51-3.77,3.2-4.7,1.53S553.34,244.3,553.34,244.3Z" fill="#ca703a"/><path d="M555,243.52a46.69,46.69,0,0,1-2.48,7.26c-13.76-10.8-22.63-20-28.29-27.05,4.27-.32,10.5-1.84,17.67-6.9C546.79,227.61,555,243.52,555,243.52Z" fill="#ca703a"/><path d="M634.54,244.3s-7.42-6.87-10.45-3-3.57,9.9-1.23,9.48,7.14-2.61,7.83-1.51,3.77,3.2,4.7,1.53S634.54,244.3,634.54,244.3Z" fill="#ca703a"/><path d="M632.91,243.52a46.69,46.69,0,0,0,2.48,7.26c13.76-10.8,22.63-20,28.29-27.05-4.27-.32-10.5-1.84-17.67-6.9C641.08,227.61,632.91,243.52,632.91,243.52Z" fill="#ca703a"/><path d="M649.56,207.17c-1.1-.91-16.07-13.92-22.75-19.72,0,0,6.66-5,10.79,2.29S649.56,207.17,649.56,207.17Z" fill="#c33f3b"/><path d="M673.27,208.13s-1.63,5.68-9.59,15.6C654.47,223.6,673.27,208.13,673.27,208.13Z" fill="#c33f3b"/><path d="M578.33,105.41s3.68-11.24,15.74-9.48,13.1,4.33,14.39,7.32,3.75-10.93,3.75-10.93L598,88.09s-17.22,2-18.46,4.85l-1.23,2.88Z" fill="#1f3765"/><path d="M586,113.79c-2.08,0-6.25-.46-7-4.08a3.27,3.27,0,0,1,.59-2.81,3.88,3.88,0,0,1,3-1.3h6.4a2.83,2.83,0,0,1,2.53,1c.77,1.16.18,2.91-.11,3.6-1,2.38-2.37,3.49-4.32,3.5C587.1,113.75,586.65,113.79,586,113.79ZM582.68,106a3.46,3.46,0,0,0-2.72,1.14,2.86,2.86,0,0,0-.51,2.47c.37,1.85,1.77,3,4.14,3.52a12.82,12.82,0,0,0,3.56.17h0c1.76,0,3-1,3.94-3.24.21-.49.83-2.18.15-3.2a2.44,2.44,0,0,0-2.18-.86Z" fill="#1f3765"/><path d="M600.78,113.79a11.56,11.56,0,0,1-1.17-.05c-2,0-3.32-1.12-4.32-3.5-.29-.69-.88-2.44-.11-3.6a2.83,2.83,0,0,1,2.53-1h6.4a3.88,3.88,0,0,1,3,1.3,3.27,3.27,0,0,1,.59,2.81C607,113.33,602.86,113.79,600.78,113.79ZM597.71,106a2.44,2.44,0,0,0-2.18.86c-.68,1-.06,2.71.15,3.2.92,2.21,2.18,3.24,3.94,3.24h0a12.82,12.82,0,0,0,3.56-.17c2.37-.48,3.77-1.67,4.14-3.52a2.86,2.86,0,0,0-.51-2.47,3.46,3.46,0,0,0-2.72-1.14Z" fill="#1f3765"/><path d="M591.1,108.56a.25.25,0,0,1-.1-.48,6,6,0,0,1,4.84,0,.24.24,0,0,1,.1.34.25.25,0,0,1-.34.1,5.54,5.54,0,0,0-4.39,0Z" fill="#1f3765"/><path d="M544.56,213.16l-5.86,1.08s-16-24.71-16.48-32.24c-.45-7.2-14.89-38.69,2-58.35a30.22,30.22,0,0,1,2.49-2.59.38.38,0,0,1,.09-.09l.09.13a38.52,38.52,0,0,1,3.26,8.37c2.46,8.39,5.51,24,6.23,50.85C536.4,180.32,540.34,203.35,544.56,213.16Z" fill="#ffa76f"/><path d="M544.56,213.16s6.28,7.08,6.47,10-2.29,6.49-5.08,7.11-1.05-3.82-1.47-5.59-2.24-4.48-2.13-3.68,1.23,4,.88,4.48-1.24.59-1.58-1.11-3.15-3.66-2.6-5.47.1-3.21-.66-5.64-2-5.35-2-5.35l4.52-1Z" fill="#ffa76f"/><path d="M502.19,85.26s-.14,3,1.66,3.57-1.85,7-1.56,11.39,2.21,6.11,2.21,6.11-.93-2.4-.41-3.88c0,0-.08,3.08,2.17,4.64S507.9,110,507.9,110s5.09-1.52,5.23-5.33a9.82,9.82,0,0,1,0,2.43s4.4-3.29,4.61-7.09-3.46-7-5.13-7.07-5.4-3.33-5.3-4.57S502.19,85.26,502.19,85.26Z" fill="#1f3765"/><path d="M516.25,63.9c-3-4.49-14.71-2-26.25,5.62s-18.48,17.4-15.52,21.89,14.71,2,26.24-5.61S519.21,68.4,516.25,63.9Z" fill="#f2b05f"/><path d="M541.62,395.49l-6.22,2.32s-27-37.48-30.35-70.44a50.34,50.34,0,0,1,.89-16.86l-.72-4.17-.78-4.46c-.88-5-2.09-11.92-3.47-19.76-3.18-18-7.3-41.11-10.5-58.07l1.68-.54,18.13-5.85,3.75-11.9,13.51-3.55s3,5.9,5.71,33.77c.5,3.66,1,7.69,1.29,12.06a238.28,238.28,0,0,1-1.29,48.83c-.62,4.85-1.4,9.85-2.37,15a66.85,66.85,0,0,0-.52,14.8C531.73,353.61,541.62,395.49,541.62,395.49Z" fill="#0d458d"/><path d="M534.54,248l-29.32,58.3-.78-4.46c-.88-5-2.09-11.92-3.47-19.76-3.18-18-7.3-41.11-10.5-58.07l1.68-.54,18.13-5.85,3.75-11.9,16.13-4.8s.39,7.15,3.09,35C533.75,239.64,534.2,243.67,534.54,248Z" fill="#0c3563"/><path d="M509.75,64.42,489,95.87s-2.37-4.64-5-3c-4.11,2.59-12.94-6.29-11.1-18.84.13-.82.27-1.59.43-2.34,4.14-6,8.73-12.59,12-17.26C494.9,48.71,509.75,64.42,509.75,64.42Z" fill="#1f3765"/><path d="M518.87,128a35.51,35.51,0,0,1-11.56,6.88c-18.31,6.94-27.72-8-31.94-18.65a16.55,16.55,0,0,1,6.14-2.84c1.34-.34,2.77-.65,3.95-.87,1.9-1.91,4.16-9,3.45-19.42l.92.12,15.46,2s0,4.83.23,9.35c.22,3.54.64,6.89,1.41,7.62,1.2.09,1.92.16,1.92.16h0A98.33,98.33,0,0,1,518.87,128Z" fill="#ffb27b"/><path d="M505.29,95.24s0,4.83.23,9.35c-8.55.3-13.56-7.2-15.69-11.4Z" fill="#ff985b"/><path d="M508.41,99.34s-20.18,1.62-21-11-4-20.86,8.89-22.42,15.67,3.07,17,7.21S513.64,98.6,508.41,99.34Z" fill="#ffb27b"/><path d="M512.22,66.21c-3.37-3.59-5.68-2.61-6.93-1.39-11.43-5.37-18,4.06-18,4.06a24.12,24.12,0,0,1-7,14.71s3.82,2,12.18-.68a14.5,14.5,0,0,0,6.57-5.19,47.33,47.33,0,0,1-7.48,10.43c9.84-5.34,13-19.7,13.33-21.22,1.3,1,3.89,3.28,4.78,5.59,1.21,3.15,2.08,9.71,4,9.37C513.73,81.89,517.26,71.59,512.22,66.21Z" fill="#1f3765"/><path d="M561.08,405.93H529.76s-1.18-5,.88-8.4c1.82-3,1.12-4.72-.22-7.21a12.21,12.21,0,0,0,5.27,1,11.07,11.07,0,0,0,4.66-1.64c1.35,1.54,7.12,8.08,8.93,9.38C551.32,400.53,560.45,400,561.08,405.93Z" fill="#0c3563"/><path d="M472.49,80.26s-9.38-18.69,3.73-26.07,22.72-4.49,29.94,4.54Z" fill="#fcbd73"/><path d="M532.23,131.25c-2.51-12.56-10.29-16.16-10.29-16.16s-1.3-2-8.53-2.27c-1.12,0-2.35-.28-3.72-.39l-.84-.06h0c.27.43,7.57,11.64,7.16,14.66s-27,2-28.89.46c-1.54-1.24-4.22-9.57-5.22-12.83l-.4-1.31s-9.27,1.62-13.63,5.23a40.49,40.49,0,0,1,5.56,8.16c.21.43.42.86.6,1.3a18.32,18.32,0,0,1,1,2.81,5.64,5.64,0,0,1-.64,3.93,28,28,0,0,1-2.63,4.11c-.72,1-1.49,2-2.27,3.06.55,1.84,1.27,4,2.07,6.51a172.63,172.63,0,0,1,5,18.22,17.59,17.59,0,0,1-.17,7.71,18.12,18.12,0,0,1-1,2.93c-.67,1.48-.83,3.53-1.57,5.45-3,7.85-6.54,18.11-3,23.46,2.34,6.85,56.56-9.78,52.91-17,0,0,2.16-37.66,3.65-49.32.05-.43.09-.84.11-1.26a17.75,17.75,0,0,0,0-1.93C532.11,134.64,532.23,131.25,532.23,131.25Z" fill="#ff973d"/><path d="M525.34,56.68c-2.7-4.33-12.15-3.63-23.55,1a93.42,93.42,0,0,0-14,7.23,90.34,90.34,0,0,0-15.13,11.69C465.14,84,461.46,91.09,463.9,95c2.72,4.35,12.25,3.62,23.74-1.11-.94-1-2.25-1.88-3.62-1s-3.39.42-5.29-1.09a4.15,4.15,0,0,1-3-1.7,3.57,3.57,0,0,1-.43-2.45c.59-4.37,6.78-11.16,15.67-16.7,6.82-4.26,13.61-6.77,18.29-7.07,2.72-.17,4.72.4,5.6,1.81.76,1.22.59,2.91-.34,4.87a18.3,18.3,0,0,1,.31,6.13C523.52,68.74,528,60.89,525.34,56.68Z" fill="#ffcf7f"/><path d="M494.82,178.46a93.14,93.14,0,0,1-21.44,4c.74-1.92,1.29-3.66,2-5.14a18.12,18.12,0,0,0,1-2.93,17.44,17.44,0,0,0,.17-7.71c-1.39-6.8-5.09-18.39-6.73-23.5,4.38-9.77,8.9-4.44,8.9-4.44s13.24,5.94,18.88,16.89S501.56,176.3,494.82,178.46Z" fill="#ff7e1c"/><path d="M477.92,114.11a40.11,40.11,0,0,1,15.84,25l3.81-1.21s-1.48-12.13-16.06-24.59Z" fill="#0d458d"/><path d="M522.46,139.59l-4,.26a40.52,40.52,0,0,0-8.77-27.42q2.06.16,3.72.39C523.87,128,522.46,139.59,522.46,139.59Z" fill="#0d458d"/><path d="M527.41,203.43l2.83-1.22L527.46,160s-2.7-19.19-2.74-22.54a6.18,6.18,0,0,0-2.75-5s-19.88,1-25.48,1.36-5,3.5-5,3.5l2.69,11.25c3.77,16-17.8,25.82-17.8,25.82s-3.5,9-6.21,17.72c-4.65,14.87-.5,36.2-.5,36.2.71,11.33,2,59.48,3.35,73.73.48,5.16.91,8.84,1.08,10.3v0a2.1,2.1,0,0,1-.33,1.26,66.56,66.56,0,0,0-5,10.45c-13.22,35.23,2,78.62,2,78.62l4-1.6s8.68-48.28,15.74-69.61a41.94,41.94,0,0,1,3.39-8.16c3.07-4.95,5.92-13,8.5-22.66,4.88-18.19,8.81-41.85,11.43-60.11.36,0,4.12-25.6,13.55-36.89C527.45,203.57,527.46,203.49,527.41,203.43Z" fill="#0d458d"/><path d="M493.6,137.67a1.67,1.67,0,1,1,2.1,1.09A1.67,1.67,0,0,1,493.6,137.67Z" fill="#ff7e1c"/><path d="M493.89,137.58a1.67,1.67,0,1,1,2.1,1.09A1.67,1.67,0,0,1,493.89,137.58Z" fill="#ff973d"/><path d="M494.45,137.07a.24.24,0,0,1,.24-.24.25.25,0,0,1,0,.49A.24.24,0,0,1,494.45,137.07Z" fill="#0d458d"/><path d="M496,137.08a.25.25,0,1,1,.49,0,.25.25,0,0,1-.49,0Z" fill="#0d458d"/><path d="M518.25,135.55a1.67,1.67,0,1,1,2.1,1.09A1.68,1.68,0,0,1,518.25,135.55Z" fill="#ff7e1c"/><path d="M518.53,135.46a1.67,1.67,0,1,1,3.19-1,1.67,1.67,0,0,1-3.19,1Z" fill="#ff973d"/><path d="M519.09,135a.25.25,0,1,1,.24.24A.25.25,0,0,1,519.09,135Z" fill="#0d458d"/><path d="M520.68,135a.24.24,0,0,1,.24-.24.24.24,0,1,1,0,.48A.24.24,0,0,1,520.68,135Z" fill="#0d458d"/><path d="M475.28,87.66s-.14,3,1.65,3.57-1.84,7-1.56,11.39,2.22,6.1,2.22,6.1-.93-2.39-.41-3.87c0,0-.08,3.08,2.17,4.63s1.64,2.9,1.64,2.9,5.09-1.52,5.23-5.34a9.91,9.91,0,0,1,0,2.44s4.39-3.3,4.6-7.1-3.45-7-5.12-7.06-5.4-3.34-5.3-4.58S475.28,87.66,475.28,87.66Z" fill="#1f3765"/><path d="M475.3,187.77s6,3.81,6.93,3.78c2.07-.08,6.16-4.61,9.57-2.52s6.74,5.59,5.56,7-5.18-.25-7.1,0-6.65,2.63-10,1.52-10.15-5.44-10.15-5.44Z" fill="#ffb27b"/><path d="M467.88,118.59S445.39,145.15,438,160.12c0,0,8.94,19.48,37.95,35.31a10.28,10.28,0,0,0,3.26-1.69c3.07-2.19-.33-3.8-1-4.23-7.36-4.77-20.22-25.31-20.59-27.09s16.11-17.76,21.12-23.67S475.67,115.55,467.88,118.59Z" fill="#ffb27b"/><path d="M502.19,92.31s3,1.82,5.15,1.61,3.27-2.77,3.27-2.77A17.84,17.84,0,0,0,502.19,92.31Z" fill="#fff1e8"/><path d="M467.88,118.59l-10.1,9.87s2.3,14.57,17.59,16.48c0,0,12.55-10.05,5.05-20.52S467.88,118.59,467.88,118.59Z" fill="#ff973d"/><path d="M482.23,191.55a3.22,3.22,0,0,1,1.64-2.05c1.3-.58,2.5-1.84,2.61-1.47a1.7,1.7,0,0,1-.48,1.72A4.34,4.34,0,0,1,482.23,191.55Z" fill="#ffb27b"/><path d="M493.82,405.93H462.49s-.75-4.77.88-8.4c1.57-3.47,4-5,3.44-9.26a11.28,11.28,0,0,0,9.76,3.74c.56.9,3.59,5.71,5.44,7.05C484.06,400.53,493.19,400,493.82,405.93Z" fill="#0c3563"/><path d="M125.13,404s0-5.79.82-7.71,3.85-9.76,3.85-9.76h11.82s2.2,7.14,2.34,9.48,0,8,0,8Z" fill="#0c3563"/><path d="M200.18,404s0-5.79-.82-7.71-3.85-9.76-3.85-9.76H183.69s-2.2,7.14-2.34,9.48,0,8,0,8Z" fill="#0c3563"/><path d="M152.82,79.2s-.41,12.88-2.06,18.66l-13,9.1,49.13,7.36-11.72-16.2s-3.53-17.27-1.68-23.66S152.82,79.2,152.82,79.2Z" fill="#ffb27b"/><path d="M152.75,81s3.89,9.35,11.21,9.14,9-8.48,9-8.48Z" fill="#ff985b"/><path d="M148.39,73.4S146,61.6,144.37,58s-3-19.52,15.26-20.34c0,0,7,.82,10.86-1.52,0,0,0,2.34-1,3.17a12.13,12.13,0,0,1,11.27,4c4.94,5.5-3.3,24.74-2.89,29.28Z" fill="#1f3765"/><path d="M178.18,57V69.84A15.12,15.12,0,0,1,176.85,76h0a19.57,19.57,0,0,1-6.59,8,12.66,12.66,0,0,1-7.14,2.6A13.81,13.81,0,0,1,156.34,84a19.17,19.17,0,0,1-7.62-9.38l0-.06,0-.17a12.29,12.29,0,0,1-.6-3.73V57c0-3.19,2.23-5.8,4.95-5.8h20.23C176,51.16,178.18,53.77,178.18,57Z" fill="#ffb27b"/><path d="M148.06,64.25s0-8.2,6.52-9.46,21,4,23.09-2-28.1-5.88-29.61-2.07S148.06,64.25,148.06,64.25Z" fill="#1f3765"/><path d="M126.61,203.6s2.07,63.15-1,99.18,0,86.19,0,86.19,9.89,5.45,20.61,0c0,0,11.76-69.62,11.68-86.19-.08-17.64,12.8-96.43,12.8-96.43Z" fill="#0d458d"/><path d="M199.75,389s-9.88,5.46-20.6,0c0,0-11.76-69.61-11.69-86.18,0-7.45-2.24-25.81-4.88-44.53-3.62-25.61-7.92-51.9-7.92-51.9l45.8-2.86s-3.77,63.26-.68,99.29S199.75,389,199.75,389Z" fill="#0d458d"/><path d="M139.65,216.13c-7.43-1-12.76-2-12.76-2s-4,.35-1.62-19.17c1.78-14.85,1.22-28.26.82-42.06,0-1.53,0-3.35.09-5.37,1.13,1.83,13.82,22.31,17.23,37.54C145.9,196.14,142.15,209.22,139.65,216.13Z" fill="#ff7e1c"/><path d="M191.83,101.18v0a131.18,131.18,0,0,0-16.71-3.09c-4.56,6.06-7.83,7.47-12,9.12-6.71-.93-12.36-9.19-12.36-9.38a74.37,74.37,0,0,0-14.24,2.71c-.4.05-21.84,2.88-52.18,64.64,0,0,1.63,5.69,9.59,15.61,5.66,7.05,14.53,16.24,28.29,27.05a46.69,46.69,0,0,0,2.48-7.26s-8.18-15.92-13.1-26.69c-2.39-5.25-4-9.27-3.55-9.66.88-.74,10.78-9.32,18.08-15.67-.06,1.59-.07,3,0,4.28.4,13.8,1,27.21-.82,42.06-2.34,19.52,1.62,19.17,1.62,19.17s5.33,1.05,12.76,2a180.38,180.38,0,0,0,22.93,1.75c17.81,0,37.34-3.78,37.34-3.78,5.62.07-1.58-35-2.63-56-.24-4.9-.47-9.37-.68-13.45,6.71,5.83,21.58,18.75,22.68,19.66.46.39-1.16,4.41-3.55,9.66-4.93,10.77-13.1,26.69-13.1,26.69a46.69,46.69,0,0,0,2.48,7.26c13.76-10.81,22.63-20,28.29-27.05,8-9.92,9.59-15.61,9.59-15.61C212.37,102.87,191.83,101.18,191.83,101.18Z" fill="#ff973d"/><path d="M167.46,302.78c0-7.45-2.24-25.81-4.88-44.53,2.74-11.18,9.42-21.95,9.42-21.95C180.45,260,167.46,302.78,167.46,302.78Z" fill="#0c3563"/><path d="M123.07,201.39s7.42-6.87,10.44-3,3.58,9.89,1.24,9.48-7.15-2.61-7.83-1.51-3.77,3.2-4.71,1.53S123.07,201.39,123.07,201.39Z" fill="#ffb27b"/><path d="M124.7,200.61a46.69,46.69,0,0,1-2.48,7.26c-13.76-10.81-22.63-20-28.29-27.05,4.27-.32,10.5-1.85,17.67-6.9C116.52,184.69,124.7,200.61,124.7,200.61Z" fill="#ffb27b"/><path d="M204.27,201.39s-7.43-6.87-10.45-3-3.57,9.89-1.24,9.48,7.15-2.61,7.84-1.51,3.77,3.2,4.7,1.53S204.27,201.39,204.27,201.39Z" fill="#ffb27b"/><path d="M202.64,200.61a46.69,46.69,0,0,0,2.48,7.26c13.75-10.81,22.62-20,28.29-27.05-4.27-.32-10.5-1.85-17.67-6.9C210.81,184.69,202.64,200.61,202.64,200.61Z" fill="#ffb27b"/><path d="M170.26,78.24v5.67a12.66,12.66,0,0,1-7.14,2.6A13.81,13.81,0,0,1,156.34,84V78.24a5.77,5.77,0,0,1,5.76-5.76h2.4A5.77,5.77,0,0,1,170.26,78.24Z" fill="#1f3765"/><path d="M219.29,164.26c-1.1-.91-16.08-13.92-22.76-19.73,0,0,6.67-5,10.8,2.29S219.29,164.26,219.29,164.26Z" fill="#ff7e1c"/><path d="M176.85,76c-2.72,6.2-9.07,10.63-13.73,10.55-4.47-.08-12.12-5.12-14.4-11.94l0-.06,0-.17s4.81,4.11,8,2.07H170A6.61,6.61,0,0,0,176.85,76Z" fill="#1f3765"/><path d="M243,165.21s-1.63,5.69-9.59,15.61C224.2,180.69,243,165.21,243,165.21Z" fill="#ff7e1c"/><path d="M164.74,77.55h-2.88c-.66,0-1.5-1.08-1.5-1.74a3.17,3.17,0,0,1,1.5-.66h2.88a2.39,2.39,0,0,1,1.78.94A2,2,0,0,1,164.74,77.55Z" fill="#ffb27b"/><path d="M284.83,259.33a17.38,17.38,0,0,1,10.89,19s-1.17,5.92-4.82,3.3-1.94-2.15-7.14-5.74-8.61-9.25-8-13.75Z" fill="#ffb27b"/><path d="M285.41,260.27l-7.5,9.1a1.49,1.49,0,0,1-1.44.52c-7-1.29-31.25-16.89-39.18-23.26a23,23,0,0,1-2-1.72c-3-3-13.15-17.87-20.39-31.11-4.17-7.63-7.35-14.71-7.6-18.68-.91-14.17,6.55-34,6.55-34,22.05,7.68,24.37,25.28,24.37,25.28l12.23,45.5,34.62,25.88A1.72,1.72,0,0,1,285.41,260.27Z" fill="#5e9af2"/><path d="M237.29,246.63a23,23,0,0,1-2-1.72c-3-3-13.15-17.87-20.39-31.11-.94-8-.29-15.51,3-20.75C217.94,193.05,236.69,226,237.29,246.63Z" fill="#0582d6"/><path d="M224.59,377.71l-3.75,15.64L218.52,403l-7.72,32.21a25.91,25.91,0,0,1-13.49,0,117.65,117.65,0,0,1-2.61-24,80.52,80.52,0,0,1,2.63-21.88,49.42,49.42,0,0,1,3.22-8.55C211.44,358.59,224.59,377.71,224.59,377.71Z" fill="#ffb27b"/><path d="M231,444.64h-36.3a30.91,30.91,0,0,1,1-10.75,17.72,17.72,0,0,1,.86-2.3s8.1,1.83,15.09,0c0,0,6.57,5.59,10.54,7.31S230.57,439.68,231,444.64Z" fill="#0d458d"/><path d="M220.84,393.35,218.52,403a55.92,55.92,0,0,1-23.82,8.26,80.52,80.52,0,0,1,2.63-21.88c3.33-1.69,6.73-2.58,9.63-2.07C214.16,388.58,218.44,391.22,220.84,393.35Z" fill="#ff9457"/><path d="M212.14,444.64H194.69a30.91,30.91,0,0,1,1-10.75C200.1,435.26,209,438.68,212.14,444.64Z" fill="#00366f"/><path d="M195.66,377.71l-3.75,15.64L189.59,403l-7.73,32.21a25.86,25.86,0,0,1-13.48,0,118,118,0,0,1-2.62-24,80.52,80.52,0,0,1,2.63-21.88,51.11,51.11,0,0,1,3.22-8.55C182.51,358.59,195.66,377.71,195.66,377.71Z" fill="#ffb27b"/><path d="M167.65,431.59s8.1,1.83,15.09,0c0,0,6.57,5.59,10.54,7.31s8.36.78,8.78,5.74h-36.3S165,437.39,167.65,431.59Z" fill="#0d458d"/><path d="M191.91,393.35,189.59,403a55.92,55.92,0,0,1-23.83,8.26,80.52,80.52,0,0,1,2.63-21.88c3.34-1.69,6.74-2.58,9.63-2.07C185.23,388.58,189.51,391.22,191.91,393.35Z" fill="#ff9457"/><path d="M232.16,392.31a7.39,7.39,0,0,1-7.14,5.46h-58.2a7.5,7.5,0,0,1-7.49-8.09c.61-7.93,2.79-20.87,3.74-29.61a38.87,38.87,0,0,0,.35-8.06c-5.87-38.87-10.81-84.65-10.21-93.4.09-1.23.15-1.87.15-1.87s4.24-.36,10.68-.61c18.75-.74,56.16-.61,62.37,11.65,6.33,12.48,10.16,95.38,10.16,95.38C237.49,370.9,234.22,384.68,232.16,392.31Z" fill="#e25345"/><path d="M163.07,360.07a38.87,38.87,0,0,0,.35-8.06c-5.87-38.87-10.81-84.65-10.21-93.4.09-1.23.15-1.87.15-1.87s4.24-.36,10.68-.61c9.7,5.71,16,15.44,16,15.44S178.1,344.31,163.07,360.07Z" fill="#cc4238"/><path d="M191.86,103.45c0-4.31,2.7-8,7.35-6.81,4.18,1,8.27,1,8.27,5.31s-3.5,9.31-7.81,9.31A7.81,7.81,0,0,1,191.86,103.45Z" fill="#cc4238"/><path d="M196.81,141.36s-24.22-21.81-2.3-37.25c0,0,6.55-1.75,9.87-1.12,0,0,11.92-3.49,18.89,4.6s10,14,4,21.18S196.81,141.36,196.81,141.36Z" fill="#e25345"/><path d="M169,273.09a17.37,17.37,0,0,1-5.52,21.17s-5,3.41-5.74-1,.12-2.89-1.09-9.1.34-12.63,3.91-15.43Z" fill="#ffb27b"/><path d="M216.65,141.16s-.3,3.27-.86,7.68c-.26,2.15-.59,4.59-1,7-.28,1.76-.59,3.54-.92,5.24l-7.5,25.33L188.78,158s4.14-3.42,9.75-22c.05-.2.09-.31.09-.31Z" fill="#ffb27b"/><path d="M226.91,266.09c.23,2.85-.5,3.37-.5,3.37s-10.82,3.92-38,2.56q-4.43-.21-8.31-.45c-17.55-1-26.93-2.11-26.93-2.11s-14.38-33.18,12.63-74a130.61,130.61,0,0,1,10.82-14.12c4.37-5,5.34-11.66,7-18,.47-1.82-.9-2.22-.22-3.93,0,0,4.93-1.4,5.43-1.4,2.8,2.47,6.49,7.26,15.65,8.2,6.19.65,8.61-2.84,9.49-4.93a74.57,74.57,0,0,1,6.81,3.29c16.59,8,18.11,23.41,18.11,23.41s-15.24,50.13-16.19,56.39C222.23,247.11,225.72,251.44,226.91,266.09Z" fill="#5e9af2"/><path d="M215.79,148.84c-.26,2.15-1.18,8.06-1.57,10.52-18.64-7.27-16.2-21.44-15.69-23.37.05-.2.09-.31.09-.31S208.49,142.69,215.79,148.84Z" fill="#ff9457"/><path d="M219.79,151.34s-21.53.7-21.76-12.72-3.15-22.36,10.59-23.37,16.5,4.06,17.66,8.52S225.39,150.82,219.79,151.34Z" fill="#ffb27b"/><path d="M221.67,113.24s-1.35,22.4-27.6,20C194.07,133.23,194.63,102.21,221.67,113.24Z" fill="#e25345"/><path d="M216.65,115.46s7.35,9.11,10.69,12C227.34,127.47,235.52,115.73,216.65,115.46Z" fill="#e25345"/><path d="M216.65,115.46s6.61,11.16,9.94,14.07c0,0,8.93-13.8-9.94-14.07Z" fill="#e25345"/><path d="M180.05,271.57c-17.55-1-26.93-2.11-26.93-2.11s-14.38-33.18,12.63-74C171.21,208.15,184.1,242.21,180.05,271.57Z" fill="#0582d6"/><path d="M188.78,158s-20.83,4.28-30.11,15c-7.11,8.24-14.89,48.5-14.89,55.15,0,6.36,7.31,40.16,11.87,46.64a1.51,1.51,0,0,0,1.39.64l11.73-1.24a1.73,1.73,0,0,0,1.53-2l-6.6-42.73,23.14-41S200.49,172.26,188.78,158Z" fill="#5e9af2"/><path d="M278.15,433.07a9,9,0,0,0,5.68,4.3,9.77,9.77,0,0,1,5.88,3.61,2.3,2.3,0,0,1-1.84,3.66H268a2.85,2.85,0,0,1-2.84-3.14c.15-1.47.3-3.18.37-4.5.15-2.86,3-5.17,3-5.17Z" fill="#1f3765"/><path d="M282.65,383c.83,15.09-1.23,49.39-1.23,49.39s-1.38,3.83-10.12,4.74a26.28,26.28,0,0,1-8.9-.72q-2.64-12.18-4.89-23.25c-10.79-52.93-15-85.62-15-85.62l42.59-9.9s-1.87,29.88-2.42,50.25C282.51,374.28,282.47,379.71,282.65,383Z" fill="#26468d"/><path d="M285.1,317.66s-1.87,29.88-2.42,50.25l-25.17,45.27c-10.79-52.93-15-85.62-15-85.62Z" fill="#1f3765"/><path d="M242.28,249.22s-16.48-7.5-28.94-.93-4.85,60.72,13,66h0S259.72,324.93,242.28,249.22Z" fill="#26468d"/><path d="M290,330.28h0l-.16-.21a46.29,46.29,0,0,1-2.17-4.75l-2.67,3.5c-.07.08-1.13-.75-1.18-.66l.26,9.06,2.66-.63.33-.12h0a1.91,1.91,0,0,0,.81-.71l2.15-3.4A1.93,1.93,0,0,0,290,330.28Z" fill="#ff9457"/><path d="M277.67,240.81s5.24,0,8.38,7.39c6.49,15.29,3.67,48.29,3.28,53,0,0,2.23,9.38-1.09,25.61l-4.32,2.56s-6.65-64.12-5.84-70.46S277.67,240.81,277.67,240.81Z" fill="#ff9457"/><path d="M243.6,433.07a9,9,0,0,0,5.68,4.3,9.77,9.77,0,0,1,5.88,3.61,2.3,2.3,0,0,1-1.84,3.66H233.47a2.85,2.85,0,0,1-2.84-3.14c.15-1.47.3-3.18.37-4.5.15-2.86,3-5.17,3-5.17Z" fill="#1f3765"/><path d="M257.41,180.32c-4.24,0-9.58,1.83-12.44,4.61-3,2.95-6.2,3.1-8.45,6.59s-3.8,7.41-2.62,12.52c1.29,5.59,1,11,4.53,15.09,1.74,2,4.57,2.26,6.54,4.13,3.63,3.42,7.74,4.5,12.44,4.5,8.86,0,14.37-5.24,18.9-11.78,3.63-5.24,2.91-8.77,3.76-13.25C282.75,188.63,271,180.32,257.41,180.32Z" fill="#26468d"/><path d="M269.88,237.16,253,245.81l-3.39-11.74a35.93,35.93,0,0,0,3.13-10.72,44.63,44.63,0,0,0,.35-9.67l13.79,7.06a26.16,26.16,0,0,0-.55,3.16,23,23,0,0,0,.24,7.38A10.23,10.23,0,0,0,269.88,237.16Z" fill="#ffb27b"/><path d="M230.66,322.25s-3.22,42.66-2.5,110.64a26,26,0,0,0,8.57,2.51c8.74.87,10.87-2.59,10.87-2.59s8.94-33.18,11.17-48.13c2.06-13.79,15.6-63.52,15.6-63.52Z" fill="#26468d"/><path d="M281.07,238.34a54.93,54.93,0,0,0-13.33-3.76c.07,2.43-.58,4.7-4.85,5.26-5.68.74-10.76-3.14-13.33-5.77h0s-4,.43-8.68,1.45a53.42,53.42,0,0,0-7.09,2c-2.73,1-5.09,2.25-6.34,3.79h0c-4.37,5.36-11.56,21.52-11.56,21.52s12,4.44,15,7l.07.57L232.82,286l-5.58,31a4.45,4.45,0,0,0-.08.81,4.57,4.57,0,0,0,3.5,4.43l1.36.2c5.92.83,29.94,3.7,48.77-1.41a9.14,9.14,0,0,0,6.67-9.57L284.39,273c1.64-.29,3.53-.58,5.06-.75a9.47,9.47,0,0,1,2.74-.06S290.06,242.06,281.07,238.34Z" fill="#ff973d"/><path d="M245.54,295.51c-.24,10.81-7.33,23.52-13.52,26.94l-1.36-.2a4.57,4.57,0,0,1-3.5-4.43,4.45,4.45,0,0,1,.08-.81l5.58-31-1.88-15.56.14-.41S246,276.41,245.54,295.51Z" fill="#ff7e1c"/><path d="M289.45,272.2c-1.57.17-5.07.75-5.07.75l-1.77-16.14S288.53,268.19,289.45,272.2Z" fill="#ff7e1c"/><path d="M228.23,311.47l1.45-8.05c24.55-35.51,26.41-41.88,15.37-57.83a23.47,23.47,0,0,0-11.26-8.06,53.42,53.42,0,0,1,7.09-2,26.65,26.65,0,0,1,6.14,3.61C280.7,268.29,228.23,311.47,228.23,311.47Z" fill="#26468d"/><path d="M242.7,277.78a21.61,21.61,0,0,0,3.26-1.37s1.33-9.85,10.94-10.51c0,0,4,0,3.18,2.75s-.91,1.55-2,5.43-3.86,6.84-6.84,7l-3,.83S241.1,277.9,242.7,277.78Z" fill="#ffb27b"/><path d="M246,276.41s-16.13,1.46-18.52,2.52c0,0,1.31-3.54,3.64-8.89-2.1-2.07-9-5.14-13.59-6.56-3.49,8.91-4.83,17.72-2.87,26.22a2,2,0,0,0,1.91,1.58c5.16.24,22.29.16,34.72-10.3Z" fill="#ffb27b"/><path d="M266.52,231.28c-7.84-.21-13.83-7.93-13.83-7.93l13.59.55A23,23,0,0,0,266.52,231.28Z" fill="#ff9457"/><path d="M267.27,226.54s-17.33,2.11-17.7-10.1,6.85-20.11,11.67-20c9.62.18,11.2,4.06,12.32,8.11S275.25,225.68,267.27,226.54Z" fill="#ffb27b"/><path d="M262.63,219.5s.38,1.53,4.18,1.25c0,0,3.18-.24,3.07-1.92A10.33,10.33,0,0,0,262.63,219.5Z" fill="#fff"/><path d="M265.53,196.53s-14.8,0-11.4,10.16c2.14,6.41-5,7.4-5,7.4l-3.43-10.27,2.15-8Z" fill="#26468d"/><path d="M327.48,455.05s0-5.79.82-7.71,3.85-9.76,3.85-9.76H344s2.2,7.15,2.34,9.48,0,8,0,8Z" fill="#0c3563"/><path d="M402.53,455.05s0-5.79-.82-7.71-3.85-9.76-3.85-9.76H386s-2.2,7.15-2.34,9.48,0,8,0,8Z" fill="#0c3563"/><path d="M355.17,130.24s-.41,12.88-2.06,18.66L340.05,158l49.14,7.36-11.72-16.19s-3.53-17.28-1.68-23.67S355.17,130.24,355.17,130.24Z" fill="#ffb27b"/><path d="M355.1,132s3.89,9.35,11.21,9.15,9-8.49,9-8.49Z" fill="#ff985b"/><path d="M350.73,124.44s-2.36-11.79-4-15.37-3-19.52,15.26-20.34c0,0,7,.82,10.86-1.51,0,0,0,2.33-1,3.16a12.16,12.16,0,0,1,11.27,4c4.95,5.5-3.29,24.75-2.88,29.28Z" fill="#d04b3e"/><path d="M375.58,102.2H355.35c-2.72,0-5,2.61-5,5.8v13.65c0,8.75,9.76,15.81,15.07,15.9,6.08.11,15.06-7.5,15.06-16.67V108C380.53,104.81,378.31,102.2,375.58,102.2Z" fill="#ffb27b"/><path d="M350.4,115.29s0-8.2,6.53-9.46,21,4,23.09-2-28.1-5.88-29.62-2.06S350.4,115.29,350.4,115.29Z" fill="#d04b3e"/><path d="M329,254.64s2.07,63.15-1,99.18S328,440,328,440s9.89,5.45,20.61,0c0,0,11.76-69.62,11.68-86.19-.08-17.64,12.8-96.43,12.8-96.43Z" fill="#0d458d"/><path d="M402.1,440s-9.89,5.46-20.61,0c0,0-11.75-69.61-11.68-86.18,0-7.45-2.24-25.81-4.88-44.53-3.62-25.61-7.92-51.9-7.92-51.9l45.8-2.86s-3.78,63.26-.68,99.29S402.1,440,402.1,440Z" fill="#0d458d"/><path d="M342,267.17c-7.43-1-12.75-2-12.75-2s-4,.35-1.62-19.17c1.77-14.85,1.22-28.26.82-42.06,0-1.53,0-3.35.08-5.37,1.14,1.83,13.82,22.31,17.24,37.54C348.25,247.18,344.5,260.26,342,267.17Z" fill="#05417f"/><path d="M394.18,152.22v0a129.32,129.32,0,0,0-16.71-3.08c-4.56,6.05-7.83,7.46-12,9.11-6.71-.93-12.36-9.19-12.36-9.38a75.56,75.56,0,0,0-14.25,2.71c-.39,0-21.83,2.88-52.17,64.64,0,0,1.63,5.69,9.59,15.61,5.66,7,14.53,16.24,28.28,27.05a47.25,47.25,0,0,0,2.49-7.26S318.87,235.73,314,225c-2.4-5.25-4-9.27-3.55-9.66.88-.73,10.77-9.32,18.08-15.67-.06,1.59-.08,3,0,4.28.4,13.8.95,27.21-.82,42.06-2.34,19.52,1.62,19.17,1.62,19.17s5.32,1.05,12.75,2a180.68,180.68,0,0,0,22.94,1.75c17.81,0,37.33-3.78,37.33-3.78,5.62.07-1.57-35-2.62-56-.25-4.9-.47-9.37-.69-13.45,6.72,5.83,21.59,18.75,22.69,19.66.46.39-1.16,4.41-3.55,9.66-4.93,10.77-13.1,26.69-13.1,26.69a46.69,46.69,0,0,0,2.48,7.26c13.75-10.81,22.62-20,28.28-27.05,8-9.92,9.6-15.61,9.6-15.61C414.72,153.91,394.18,152.22,394.18,152.22Z" fill="#065099"/><path d="M369.81,353.82c0-7.45-2.24-25.81-4.88-44.53,2.74-11.18,9.42-22,9.42-22C382.8,311.05,369.81,353.82,369.81,353.82Z" fill="#0c3563"/><path d="M325.42,252.43s7.42-6.87,10.44-3,3.58,9.89,1.24,9.48-7.15-2.61-7.84-1.51-3.76,3.2-4.7,1.53S325.42,252.43,325.42,252.43Z" fill="#ffb27b"/><path d="M327.05,251.65a47.25,47.25,0,0,1-2.49,7.26c-13.75-10.81-22.62-20-28.28-27.05,4.26-.32,10.5-1.84,17.67-6.9C318.87,235.73,327.05,251.65,327.05,251.65Z" fill="#ffb27b"/><path d="M406.62,252.43s-7.43-6.87-10.45-3-3.57,9.89-1.24,9.48,7.15-2.61,7.84-1.51,3.76,3.2,4.7,1.53S406.62,252.43,406.62,252.43Z" fill="#ffb27b"/><path d="M405,251.65a47.25,47.25,0,0,0,2.49,7.26c13.75-10.81,22.62-20,28.28-27.05-4.26-.32-10.5-1.84-17.67-6.9C413.16,235.73,405,251.65,405,251.65Z" fill="#ffb27b"/><path d="M421.64,215.3c-1.11-.91-16.08-13.92-22.76-19.72,0,0,6.67-5,10.79,2.28S421.64,215.3,421.64,215.3Z" fill="#0d458d"/><path d="M445.35,216.25s-1.64,5.69-9.6,15.61C426.54,231.73,445.35,216.25,445.35,216.25Z" fill="#0d458d"/><path d="M353.79,145.76a5.19,5.19,0,0,0-2.8,3.38s8.75,9,14.48,9.14Z" fill="#ff9841"/><path d="M365.47,158.28l11.3-13a5.29,5.29,0,0,1,2.29,4.06S370.33,158.62,365.47,158.28Z" fill="#ff9841"/><path d="M363.43,157.32s-8.62,74.43-5.62,83.51a62.57,62.57,0,0,0,5.26,11.53,3.06,3.06,0,0,0,5.29,0c2.29-4,5.28-9.72,5.28-12.64,0-4.73-6.54-82.44-6.54-82.44Z" fill="#ff9841"/><path d="M361.18,153.67a54.56,54.56,0,0,1,8.38-.2.88.88,0,0,1,.67,1.31c-.89,1.6-2.7,4.37-4.6,4.37C363,159.15,358.81,153.86,361.18,153.67Z" fill="#ff862d"/></svg>