<svg xmlns="http://www.w3.org/2000/svg" width="975" height="810.899" viewBox="0 0 975 810.899">
  <g id="Group_201" data-name="Group 201" transform="translate(-2403 136)">
    <path id="Path_587" data-name="Path 587" d="M487.5,0C756.739,0,975,206.366,975,460.931S756.739,810.9,487.5,810.9c-250.659,0-457.134-67.9-484.46-298.2A440.026,440.026,0,0,1,0,460.931C0,206.366,218.261,0,487.5,0Z" transform="translate(2403 -136)" fill="#7a2d9a" opacity="0.133"/>
    <g id="Group_197" data-name="Group 197" transform="translate(2474 191.087)" opacity="0.819">
      <path id="Path_98" data-name="Path 98" d="M109.817,126.223H35.253l14.579-73.26H95.238Z" transform="translate(-26.042 -52.963)" fill="#fff"/>
      <rect id="Rectangle_22" data-name="Rectangle 22" width="7.038" height="239.09" transform="translate(42.974 73.26)" fill="#4a3a31"/>
      <path id="Path_99" data-name="Path 99" d="M122.942,249.087c-.268-9.939-20.969-17.967-46.494-17.967s-46.224,8.028-46.492,17.967Z" transform="translate(-29.957 78.717)" fill="#4a3a31"/>
    </g>
    <g id="Group_199" data-name="Group 199" transform="translate(2534.043 321.831)" opacity="0.818">
      <ellipse id="Ellipse_4" data-name="Ellipse 4" cx="181.738" cy="23.74" rx="181.738" ry="23.74" transform="translate(0 183.105)" fill="#e8e9e6"/>
      <g id="Group_14" data-name="Group 14" transform="translate(11.373 2.461)">
        <path id="Path_70" data-name="Path 70" d="M601.415,574.041s-1.976-76.459-29.007-85.029c-27.571-8.742-57.029-8-85.581-6.71-26.933,1.22-54.075.479-80.936,2.254-29.578,1.956-40.53,15.533-47.051,42.879a227.9,227.9,0,0,0-5.917,46.6l-6.59,19.774H608.007Z" transform="translate(-303.963 -481.524)" fill="#d34e4b"/>
        <path id="Path_71" data-name="Path 71" d="M389.026,558.787V541.65s-.659-12.523-15.16-13.843-54.048,29.662-53.389,36.254S328.385,617.45,333,619.428s16.478,11.2,27.025,5.931S389.026,558.787,389.026,558.787Z" transform="translate(-317.656 -457.041)" fill="#d12d43"/>
        <path id="Path_72" data-name="Path 72" d="M495.015,558.787V541.65s.659-12.523,15.16-13.843,54.048,29.662,53.389,36.254-7.909,53.389-12.523,55.367-16.478,11.2-27.025,5.931S495.015,558.787,495.015,558.787Z" transform="translate(-225.245 -457.041)" fill="#d12d43"/>
        <path id="Path_73" data-name="Path 73" d="M377.387,548.734a31.41,31.41,0,0,1-3.467,3.086c-8.865,7.314-31.467,24.6-31.467,24.6H612.038l-36.252-29.66Z" transform="translate(-306.016 -446.988)" fill="#d12d43"/>
        <path id="Path_74" data-name="Path 74" d="M342.453,566.149v27.245h269.4l.185-27.245Z" transform="translate(-306.016 -436.72)" fill="#d34e4b"/>
        <path id="Path_75" data-name="Path 75" d="M339.828,601.489l-8.436,26.435a3.485,3.485,0,0,0,3.32,4.544h0a3.487,3.487,0,0,0,2.862-1.494l20.052-28.825Z" transform="translate(-311.961 -418.01)" fill="#a75b40"/>
        <path id="Path_76" data-name="Path 76" d="M530.457,601.489l8.438,26.435a3.485,3.485,0,0,1-3.32,4.544h0a3.487,3.487,0,0,1-2.862-1.494l-20.052-28.825Z" transform="translate(-215.903 -418.01)" fill="#a75b40"/>
        <path id="Path_77" data-name="Path 77" d="M650.255,547.011c-4.367-2.143-9.311-2.471-15.242.494-11.865,5.933-10.547,29.66-10.547,29.66v26.366h-269.4V577.165s1.318-23.727-10.545-29.66c-5.933-2.965-10.876-2.637-15.242-.494-7.585,3.72-11.592,12.22-10.46,20.591,1.857,13.736,5.368,37.549,8.563,47.134,4.614,13.843,4.614,16.48,14.5,19.774,8.575,2.86,118.8.759,147.882.151,29.081.607,139.307,2.709,147.884-.151,9.886-3.294,9.886-5.931,14.5-19.774,3.2-9.585,6.707-33.4,8.563-47.134C661.845,559.231,657.838,550.73,650.255,547.011Z" transform="translate(-318.629 -447.736)" fill="#e93f53"/>
      </g>
      <g id="Group_15" data-name="Group 15" transform="translate(24.391 0)">
        <path id="Path_78" data-name="Path 78" d="M392.789,565.6l-4.255-36.751s25.919-7.737,39.845-8.123,30.948-.774,32.109-.774,10.444,37.91,10.444,37.91-32.881,4.257-50.676,6.963S392.789,565.6,392.789,565.6Z" transform="translate(-294.637 -458.715)" fill="#fd9d3c"/>
        <path id="Path_79" data-name="Path 79" d="M435.664,560.449l7.349-36.364s18.569-2.32,32.5,0,45.262,14.7,45.262,14.7l-8.124,36.751s-30.174-.774-47.582-4.643A223.319,223.319,0,0,1,434.89,562" transform="translate(-270.095 -457.075)" fill="#fd9d3c"/>
        <path id="Path_80" data-name="Path 80" d="M498.061,544.731s13.887-5.642,16.057-6.945,4.341-.433,3.472,3.039-8.245,13.02-11.284,15.19-4.773,2.17-8.245,5.208-8.681,7.378-8.681,7.378l-13.02-8.247Z" transform="translate(-248.139 -449.579)" fill="#d8bfa7"/>
        <path id="Path_81" data-name="Path 81" d="M495.724,557.429s21.7-8.681,25.171-10.851,1.3,2.17-1.3,9.548-7.812,16.059-12.153,19.1-15.19.869-15.19.869Z" transform="translate(-239.726 -444.917)" fill="#d8bfa7"/>
        <path id="Path_82" data-name="Path 82" d="M418.665,550.008s46.872-18.664,55.119-18.664,59.025,16.493,59.025,16.493-6.511,8.679-10.417,12.151-11.284,5.209-11.284,5.209-38.626-13.454-51.647-13.454-34.72,1.736-34.72,1.736-12.587-.434-13.889-.434S418.665,550.008,418.665,550.008Z" transform="translate(-282.888 -452.686)" fill="#141d51"/>
        <path id="Path_83" data-name="Path 83" d="M371.4,573.484s37.759,9.114,52.949,9.114,40.8-10.416,51.647-11.284S556.286,583.9,559.324,583.9s2.6-6.509,3.472-13.02.869-9.114-2.169-9.981-16.493-1.737-43.835-13.022-39.929-8.68-51.647-6.509-40.8,5.642-40.8,5.642l-10.415-4.775s-15.625.869-21.7,4.34-22.568,26.474-22.568,26.474Z" transform="translate(-304.629 -448.386)" fill="#252a50"/>
        <path id="Path_84" data-name="Path 84" d="M361.974,513.89s-11.605-3.482-20.115-5.03-14.314-1.159-14.7,3.1,5.8,39.458,8.511,52.611,12.766,23.985,18.569,24.758,28.626-.774,28.626-5.029S361.974,513.89,361.974,513.89Z" transform="translate(-327.141 -465.029)" fill="#fd9d3c"/>
        <path id="Path_85" data-name="Path 85" d="M344.566,567.449C338.217,554,330.428,511.366,329.9,508.431a3.758,3.758,0,0,0-2.739,3.311c-.387,4.255,5.8,39.458,8.511,52.611s12.766,23.985,18.569,24.758a51.541,51.541,0,0,0,7.779.1C357.341,585.378,349.459,577.807,344.566,567.449Z" transform="translate(-327.141 -464.817)" fill="#f26926"/>
        <path id="Path_86" data-name="Path 86" d="M401.119,508.084s4,2.8,4.2,5.2-6.794,6.994-6.794,7.593,4.2,15.186,5.2,18.982,0,7.792-1.8,9.791-6.994.6-8.592-1.8-3.8-4-3-8.392,3-17.784,3.4-18.983S401.119,508.084,401.119,508.084Z" transform="translate(-293.777 -465)" fill="#f37e63"/>
        <path id="Path_87" data-name="Path 87" d="M369.044,511.351a28.023,28.023,0,0,1,8.592,4.4c4.2,3.2,25.577,21.579,25.577,21.579l.2,7.594-34.567-30.371Z" transform="translate(-305.061 -463.271)" fill="#6baadd"/>
        <path id="Path_88" data-name="Path 88" d="M352.654,515.649s-7.812,5.208-8.245,10.85,32.116,64.667,35.154,66.4,8.247-.434,9.114-2.17,23-24.739,27.777-26.909,14.322-.867,13.887-5.642-44.7-42.532-47.307-45.136-17.793-4.341-21.267-3.472S352.654,515.649,352.654,515.649Z" transform="translate(-318.001 -464.332)" fill="#6baadd"/>
        <path id="Path_89" data-name="Path 89" d="M362.231,509.719l5.114,4.091L370,520.56l-2.864-3.886.2,6.545-6.545-5.932Z" transform="translate(-309.321 -464.135)" fill="#89b9e4"/>
        <path id="Path_90" data-name="Path 90" d="M350.249,503.251a9.141,9.141,0,0,1,.434,7.812l-1.736,4.341,22.134,9.981-3.037-14.756Z" transform="translate(-315.596 -467.559)" fill="#f37e63"/>
        <path id="Path_91" data-name="Path 91" d="M371.455,496.075s5.208-5.642,3.037-10.85-8.245-6.076-8.245-4.773v3.9s-7.812-4.339-7.812-3.038a6.689,6.689,0,0,0,1.3,3.038s-9.983-3.038-8.68.434,5.208,5.642,5.208,5.642-7.378-3.037-11.719,4.775-.869,16.492,2.17,19.529,7.378,8.681,7.378,8.681l12.586-8.247-2.6-16.492Z" transform="translate(-319.007 -479.914)" fill="#252a50"/>
        <path id="Path_92" data-name="Path 92" d="M371.566,488.64s6.944,22.568,6.944,26.909-6.076,5.642-12.153,5.208-9.981-5.208-9.981-5.208-9.983-4.341-9.983-8.681,3.906-6.944,5.642-4.773a17.186,17.186,0,0,1,2.6,5.208l4.773-.434-1.3-4.339a3.593,3.593,0,0,0,.434-3.473,43.9,43.9,0,0,0-4.341-5.642S360.282,486.47,371.566,488.64Z" transform="translate(-316.948 -475.517)" fill="#f4aa85"/>
        <path id="Path_93" data-name="Path 93" d="M349.281,509.21l17.794,5.642,7.812,9.548-28.211-8.68Z" transform="translate(-316.798 -464.404)" fill="#89b9e4"/>
        <path id="Path_94" data-name="Path 94" d="M353.214,517.241s-6.944-4.773-13.02.869,19.1,55.554,19.1,55.554L370.574,553.7,354.517,520.28" transform="translate(-320.731 -461.151)" fill="#85b7e3"/>
        <path id="Path_95" data-name="Path 95" d="M389.81,527.455l6.076-22.568,9.548-3.906-9.114,30.381Z" transform="translate(-293.962 -468.761)" fill="#252a50"/>
        <path id="Path_96" data-name="Path 96" d="M365.345,557.373,397.9,534.8s1.3-11.284,2.17-12.586,5.208-6.511,8.245-7.378,6.511-6.511,6.511-2.6-3.039,6.944-3.039,8.681,1.736,4.773-.867,10.415-10.417,10.85-11.284,12.153-20.4,25.606-27.343,30.381-13.02,12.586-14.756,5.642S365.345,557.373,365.345,557.373Z" transform="translate(-311.162 -463.524)" fill="#f4aa85"/>
        <path id="Path_97" data-name="Path 97" d="M373.127,541.362s-3.472,11.719-6.945,17.795-1.736,9.114-4.773,9.548-12.586-3.037-11.284-10.415,9.114-19.965,13.454-20.832S372.258,536.588,373.127,541.362Z" transform="translate(-315.037 -449.683)" fill="#89b9e4"/>
      </g>
    </g>
    <g id="Group_198" data-name="Group 198" transform="translate(2941.997 165)" opacity="0.799">
      <path id="Path_100" data-name="Path 100" d="M431.355,72.358V72.4a33.8,33.8,0,0,1-1.711,8.014,12.577,12.577,0,0,1-.543,1.5,36.158,36.158,0,0,1-18.45,19.7c-.96.417-2,.835-3.005,1.21a33.092,33.092,0,0,1-5.3,1.419,23.058,23.058,0,0,1-2.964.459c-1.252.125-2.546.209-3.84.209s-2.546-.083-3.84-.209a24.244,24.244,0,0,1-2.963-.459,34.307,34.307,0,0,1-5.3-1.419c-1.043-.376-2.129-.835-3.13-1.294-.042,0-.085-.042-.127-.042-1-.5-1.962-1-2.88-1.544a32.219,32.219,0,0,1-6.72-5.134,28.952,28.952,0,0,1-3.381-3.757,10.539,10.539,0,0,1-1-1.379,30.024,30.024,0,0,1-3.381-5.843,30.408,30.408,0,0,1-1.294-3.214.319.319,0,0,1-.084-.209c-.334-1-.626-2.045-.876-3.089a27.6,27.6,0,0,1-.835-4.925v-.292c.084-.417.167-.877.25-1.294A36.123,36.123,0,0,1,378.011,45.56c.084-.083.124-.125.207-.125,0-.042.044-.042.085-.042a36.4,36.4,0,0,1,34.478,0c.042-.042.042,0,.083.042.082-.042.123.042.207.125a35.967,35.967,0,0,1,18.033,25.3A9.4,9.4,0,0,1,431.355,72.358Z" transform="translate(-359.561 -32.871)" fill="#383838" opacity="0.2"/>
      <g id="Group_19" data-name="Group 19" transform="translate(0 0)">
        <g id="Group_18" data-name="Group 18">
          <path id="Path_101" data-name="Path 101" d="M395.613,36.348A35.992,35.992,0,0,0,359.632,72.37V73.5c.042.793.083,1.586.167,2.379a27.6,27.6,0,0,0,.835,4.925c.25,1.043.543,2.087.876,3.089a.318.318,0,0,0,.084.209,30.407,30.407,0,0,0,1.294,3.214,30.024,30.024,0,0,0,3.381,5.843,10.535,10.535,0,0,0,1,1.379,28.951,28.951,0,0,0,3.381,3.757,32.218,32.218,0,0,0,6.72,5.134c.918.543,1.878,1.043,2.88,1.544.042,0,.085.042.127.042,1,.459,2.087.918,3.13,1.294a34.309,34.309,0,0,0,5.3,1.419,23.055,23.055,0,0,0,2.963.459c1.294.125,2.546.209,3.84.209s2.588-.083,3.84-.209a23.054,23.054,0,0,0,2.964-.459,33.093,33.093,0,0,0,5.3-1.419c1-.376,2.045-.793,3.005-1.21a36.158,36.158,0,0,0,18.45-19.7,12.572,12.572,0,0,0,.543-1.5,33.8,33.8,0,0,0,1.711-8.014v-.042c.083-.668.125-1.336.167-2.045V73.5a10.191,10.191,0,0,0,.042-1.127A36,36,0,0,0,395.613,36.348ZM424.79,73.33V73.5a4.049,4.049,0,0,1-.042.71c-.042.584-.083,1.169-.167,1.753a3.178,3.178,0,0,1-.125.877A21.05,21.05,0,0,1,424,79.174a17.149,17.149,0,0,1-.71,2.5,15.064,15.064,0,0,1-.71,1.92l-.042.042a2.55,2.55,0,0,1-.209.5,4.806,4.806,0,0,1-.5,1.043c-.209.5-.459.96-.71,1.461-.167.292-.334.584-.5.835-.376.584-.751,1.169-1.169,1.753a25.536,25.536,0,0,1-1.628,2.087,26.668,26.668,0,0,1-3.631,3.55,10.874,10.874,0,0,1-1.379,1.042,6.554,6.554,0,0,1-1.294.92,27.6,27.6,0,0,1-4.8,2.5,24.417,24.417,0,0,1-2.63.96c-.877.25-1.795.5-2.713.668a4.538,4.538,0,0,1-1.085.167,24.968,24.968,0,0,1-4.675.417,26.312,26.312,0,0,1-4.8-.417,7.7,7.7,0,0,1-.96-.167c-.918-.167-1.837-.417-2.713-.668a24.416,24.416,0,0,1-2.63-.96,22.811,22.811,0,0,1-2.5-1.169,21.411,21.411,0,0,1-2.089-1.21c-.5-.334-1-.668-1.5-1.045a10.834,10.834,0,0,1-1.376-1.042,22.08,22.08,0,0,1-2.047-1.88,16.459,16.459,0,0,1-1.837-2,25.257,25.257,0,0,1-2-2.713,14.214,14.214,0,0,1-1.21-2,20.128,20.128,0,0,1-1.21-2.546.153.153,0,0,1-.042-.125,12.182,12.182,0,0,1-.876-2.337c-.25-.835-.5-1.67-.668-2.5a4.546,4.546,0,0,1-.209-1.085,14.331,14.331,0,0,1-.334-2.337c-.083-.584-.125-1.21-.167-1.837V72.37a29.023,29.023,0,0,1,8.556-20.621,23.876,23.876,0,0,1,3.3-2.838c0-.042.044-.042.085-.042a29.015,29.015,0,0,1,34.478,0c.042-.042.042,0,.083.042a26.837,26.837,0,0,1,3.339,2.838,29.023,29.023,0,0,1,8.556,20.621A7.078,7.078,0,0,1,424.79,73.33Z" transform="translate(-359.632 -36.348)" fill="#4a3a31"/>
          <path id="Path_102" data-name="Path 102" d="M392.737,40.272a29.193,29.193,0,1,0,29.193,29.191A29.194,29.194,0,0,0,392.737,40.272Z" transform="translate(-356.742 -33.448)" fill="#fff"/>
          <rect id="Rectangle_23" data-name="Rectangle 23" width="20.352" height="3.055" transform="matrix(0.742, -0.67, 0.67, 0.742, 34.97, 34.884)" fill="#5e5e5e"/>
          <rect id="Rectangle_24" data-name="Rectangle 24" width="3.054" height="25.104" transform="translate(17.715 18.742) rotate(-43.136)" fill="#5e5e5e"/>
          <path id="Path_103" data-name="Path 103" d="M385.226,58.518a3.436,3.436,0,1,1-3.436-3.437A3.438,3.438,0,0,1,385.226,58.518Z" transform="translate(-345.795 -22.502)" fill="#878787"/>
          <rect id="Rectangle_25" data-name="Rectangle 25" width="2.138" height="5.972" transform="translate(34.893 57.688)" fill="#5e5e5e"/>
          <rect id="Rectangle_26" data-name="Rectangle 26" width="5.973" height="2.139" transform="translate(8.35 34.927)" fill="#5e5e5e"/>
        </g>
        <rect id="Rectangle_27" data-name="Rectangle 27" width="2.139" height="5.972" transform="translate(34.925 8.373)" fill="#5e5e5e"/>
        <rect id="Rectangle_28" data-name="Rectangle 28" width="5.972" height="2.138" transform="translate(57.666 34.96)" fill="#5e5e5e"/>
      </g>
    </g>
    <g id="Group_200" data-name="Group 200" transform="translate(2881.128 427.607)" opacity="0.756">
      <g id="Group_22" data-name="Group 22" transform="translate(0 0)">
        <path id="Path_104" data-name="Path 104" d="M130.852,88.272a28.089,28.089,0,0,0-8.191-4.216,35.314,35.314,0,0,0-9.41-2.374c-6.988-.534-13.748,2.5-19.783,6.059,1.313-3.492,4.894-5.556,8.363-6.927,9.647-3.816,20.89-4.374,30.248.1s16.264,14.494,15.536,24.842c-.16,2.27-.948,4.864-3.076,5.67a159.136,159.136,0,0,0-7.15-14.5C135.617,93.755,133.676,90.569,130.852,88.272Z" transform="translate(-93.468 -50.727)" fill="#12a881"/>
        <path id="Path_105" data-name="Path 105" d="M140,112.029c-2.1-7.412-3.158-15.137-6-22.3s-7.92-13.955-15.223-16.4c-6.814-2.283-14.254-.433-21.149,1.584,10.657-7.388,26.475-6.092,35.788,2.934,6.195,6,9.315,14.492,11.264,22.9.537,2.315,1,4.751.37,7.045S142.368,112.159,140,112.029Z" transform="translate(-90.398 -56.366)" fill="#038261"/>
        <path id="Path_106" data-name="Path 106" d="M125.278,124.591c-1.957-9.327-3.925-18.76-3.633-28.285s3.07-19.3,9.518-26.316c4.894-5.325,12.273-8.859,19.372-7.475-8.57,4.79-14.423,13.5-17.631,22.776s-4.045,19.189-4.633,28.989C128.052,117.927,127.737,121.89,125.278,124.591Z" transform="translate(-72.663 -62.214)" fill="#12a881"/>
        <path id="Path_107" data-name="Path 107" d="M122.422,113.464c-.209-11.516,7.409-21.755,16.087-29.329,5.127-4.475,11.1-8.515,17.875-9.123,6.525-.584,12.908,2.1,18.558,5.414-3.84,1.139-8-.452-11.956.157a21.325,21.325,0,0,0-5.96,2.17c-10.694,5.172-21.915,11.341-27.17,21.993C128.088,108.327,126.371,112.883,122.422,113.464Z" transform="translate(-72.071 -52.813)" fill="#038261"/>
        <path id="Path_108" data-name="Path 108" d="M164.216,87.6a22.6,22.6,0,0,1,15,19.8,36.1,36.1,0,0,0-6.475-6.475,34.308,34.308,0,0,0-9.4-4.184c-4.923-1.6-9.962-3.094-15.136-3.183s-10.576,1.393-14.249,5.04c-3.379,3.353-5.779,8.683-10.525,9.049-1.673.129-3.687-.887-3.649-2.563a3.771,3.771,0,0,1,.65-1.77c6.139-10.423,18.551-15.774,30.6-16.838A32.513,32.513,0,0,1,164.216,87.6Z" transform="translate(-74.015 -44.43)" fill="#12a881"/>
        <path id="Path_109" data-name="Path 109" d="M143.66,96.039q-.258-.879-.518-1.757a42.315,42.315,0,0,0-13.071-4.595c-7.819-1.367-16.336-.348-22.795,4.264S96.988,107.2,99.337,114.778a24.755,24.755,0,0,1,10.605-15.84,28.59,28.59,0,0,1,18.666-4.466C133.646,94.987,138.646,96.745,143.66,96.039Z" transform="translate(-89.645 -42.322)" fill="#038261"/>
        <g id="Group_21" data-name="Group 21" transform="translate(32.214 53.613)">
          <path id="Path_110" data-name="Path 110" d="M146.871,127.655H120.716l-8.726-34.614H155.6Z" transform="translate(-111.991 -93.041)" fill="#634e42"/>
          <path id="Path_111" data-name="Path 111" d="M151.868,104.2l2.192-8.7H112.611l2.192,8.7Z" transform="translate(-111.533 -91.223)" fill="#4a3a31"/>
        </g>
      </g>
      <rect id="Rectangle_29" data-name="Rectangle 29" width="104.192" height="8.694" transform="translate(2.853 88.21)" fill="#4a3a31"/>
      <rect id="Rectangle_30" data-name="Rectangle 30" width="104.192" height="13.258" transform="translate(2.853 96.904)" fill="#1d1d1b" opacity="0.1"/>
    </g>
    <g id="Group_196" data-name="Group 196" transform="translate(2686.346 165)" opacity="0.765">
      <rect id="Rectangle_31" data-name="Rectangle 31" width="127.882" height="95.034" transform="translate(3.816 6.517)" fill="#38e0e0"/>
      <rect id="Rectangle_32" data-name="Rectangle 32" width="112.346" height="33.457" transform="translate(13.177 61.052)" fill="#c5b91e"/>
      <path id="Path_112" data-name="Path 112" d="M176.442,23.117v107.46h138.8V23.117Zm126.545,95.77H188.605V34.74H302.987Z" transform="translate(-176.441 -23.117)" fill="#634e42"/>
      <path id="Path_113" data-name="Path 113" d="M298.247,102.192v.39a5.137,5.137,0,0,1,1.017-.151v-.323C298.943,102.142,298.6,102.175,298.247,102.192Zm0,0v.39a5.137,5.137,0,0,1,1.017-.151v-.323C298.943,102.142,298.6,102.175,298.247,102.192Zm0,0v.39a5.137,5.137,0,0,1,1.017-.151v-.323C298.943,102.142,298.6,102.175,298.247,102.192ZM181.472,28.069v90.154h121.2V28.069Zm116.775,85.9H185.9V32.328H298.247Zm0-11.774v.39a5.137,5.137,0,0,1,1.017-.151v-.323C298.943,102.142,298.6,102.175,298.247,102.192Zm0,0v.39a5.137,5.137,0,0,1,1.017-.151v-.323C298.943,102.142,298.6,102.175,298.247,102.192Zm0,0v.39a5.137,5.137,0,0,1,1.017-.151v-.323C298.943,102.142,298.6,102.175,298.247,102.192Z" transform="translate(-172.724 -19.457)" fill="#4a3a31"/>
      <path id="Path_114" data-name="Path 114" d="M315.152,23.117l-13.2,12.86H189.624L176.442,23.134v-.017Z" transform="translate(-176.442 -23.117)" fill="#1d1d1b" opacity="0.1"/>
      <path id="Path_115" data-name="Path 115" d="M315.238,90.408h-138.8v-.085l.017-.017,2.68-2.629.882-.848,2.24-2.189,3-2.918,2.715-2.647.628-.611,1.018-1H301.97l.254.255.763.746.577.56L306.11,81.5l.221.221.339.322.9.865.068.085.7.679,5.276,5.14.237.237Z" transform="translate(-176.442 17.052)" fill="#1d1d1b" opacity="0.1"/>
      <g id="Group_24" data-name="Group 24" transform="translate(67.404 44.288)">
        <path id="Path_116" data-name="Path 116" d="M245.98,60.167l8.386,15.767H245.86l-8.231-15.482,1.294-2.431-.082.626a9.14,9.14,0,0,0,1.569-1.339c.3.033.336.449.313.751a5.335,5.335,0,0,0,.089,1.449c.026.148.082.318.23.362s.313-.077.428-.2c.2-.209.407-.417.61-.631q.485,1.711.976,3.414c.122.416.313.91.741.993q.01-2.337.028-4.676a6.43,6.43,0,0,0,2.136,3.2A8.941,8.941,0,0,1,245.98,60.167Z" transform="translate(-198.621 -42.134)" fill="#7b6a58"/>
        <path id="Path_117" data-name="Path 117" d="M241.127,59.116,249.359,74.6H232.9Z" transform="translate(-202.119 -40.798)" fill="#a48a7b"/>
        <path id="Path_118" data-name="Path 118" d="M245.465,62.229a8.941,8.941,0,0,0-.021,1.805,6.43,6.43,0,0,1-2.136-3.2q-.016,2.337-.028,4.676c-.428-.083-.619-.577-.741-.993q-.493-1.706-.976-3.414c-.2.214-.407.423-.61.631-.115.12-.268.252-.428.2s-.2-.214-.23-.362a5.333,5.333,0,0,1-.089-1.449c.023-.3-.01-.718-.313-.751a9.14,9.14,0,0,1-1.569,1.339l.082-.626,2.958-5.565Z" transform="translate(-198.105 -44.196)" fill="#fff"/>
        <path id="Path_119" data-name="Path 119" d="M242.519,57l3.332,6.263-8.233,15.482h-2.744L226.505,63l2.976-5.6c1.668-.8,2.508-2.755,4.115-3.677q-.665,2.272-1.334,4.543c.144.2.445-.016.577-.219.553-.861,1.113-1.718,1.668-2.579.685.779.132,2.3,1.026,2.826a34.266,34.266,0,0,0,.8-3.72c1.163,1.367,1.212,3.374,2.19,4.878.092.143.224.3.395.29.275-.016.341-.384.323-.657-.115-1.861-.224-3.722-.341-5.583.939,1.13,1.871,2.263,2.81,3.391.186.226.522.463.725.259A.344.344,0,0,0,242.519,57Z" transform="translate(-206.843 -44.943)" fill="#a48a7b"/>
        <path id="Path_120" data-name="Path 120" d="M230.062,58.968l8.369,15.739H221.693Z" transform="translate(-210.399 -40.908)" fill="#a48a7b"/>
        <path id="Path_121" data-name="Path 121" d="M237.254,63.1c-.977-1.5-1.026-3.511-2.19-4.878a34.266,34.266,0,0,1-.8,3.72c-.894-.522-.341-2.047-1.026-2.826-.555.861-1.115,1.718-1.668,2.579-.132.2-.433.423-.577.219q.668-2.27,1.334-4.543c-1.607.922-2.447,2.875-4.115,3.677l6.628-12.463,6.41,12.056a.343.343,0,0,1-.087.16c-.2.2-.539-.033-.725-.259-.939-1.129-1.871-2.261-2.81-3.391.117,1.861.226,3.722.341,5.583.017.273-.049.642-.323.657C237.479,63.393,237.346,63.24,237.254,63.1Z" transform="translate(-205.578 -48.583)" fill="#fff"/>
        <path id="Path_122" data-name="Path 122" d="M231.811,56.809a1.966,1.966,0,0,0,1.355.565l1.7,3.19L226.493,76.3H215.2l10-18.8c.155-.143.308-.285.461-.423q0,1.745-.005,3.49a24.83,24.83,0,0,1,2.1-3.409,9.516,9.516,0,0,1,.181,4.308c.285.122.543-.209.685-.489q.916-1.86,1.84-3.72a10.445,10.445,0,0,0,.729,1.553c.077.132.181.28.336.27.2-.012.263-.287.268-.5C231.8,58,231.806,57.4,231.811,56.809Z" transform="translate(-215.199 -42.503)" fill="#634e42"/>
        <path id="Path_123" data-name="Path 123" d="M227.562,59.726c-.005.593-.012,1.186-.017,1.777-.005.209-.066.483-.268.5-.155.01-.259-.137-.336-.27a10.444,10.444,0,0,1-.729-1.553q-.924,1.86-1.84,3.72c-.143.28-.4.61-.685.489a9.516,9.516,0,0,0-.181-4.308,24.832,24.832,0,0,0-2.1,3.409q.008-1.745.005-3.49c-.153.137-.306.28-.461.423l4.017-7.556,3.951,7.43A1.966,1.966,0,0,1,227.562,59.726Z" transform="translate(-210.95 -45.42)" fill="#fff"/>
      </g>
      <path id="Path_124" data-name="Path 124" d="M217.046,39.426a2.4,2.4,0,0,0-2.141-1.315,2.354,2.354,0,0,0-2.075-2.245,2.847,2.847,0,0,0-.964-.005,2.8,2.8,0,0,0-1.988-.807,2.937,2.937,0,0,0-1.457.374,4.854,4.854,0,0,0-3.308-1.207c-2.318-.007-4.2,1.355-4.209,3.04-1.588-.005-2.878.932-2.882,2.1,0,.024.017.045.019.07Z" transform="translate(-160.49 -14.91)" fill="#fff"/>
      <path id="Path_125" data-name="Path 125" d="M230.143,49.363c-.078-.678-.861-1.23-1.892-1.325a2.017,2.017,0,0,0-1.777-1.925,2.442,2.442,0,0,0-.826-.005,2.393,2.393,0,0,0-1.7-.69,2.5,2.5,0,0,0-1.249.32,4.152,4.152,0,0,0-2.835-1.035c-1.988-.005-3.6,1.16-3.609,2.605-1.36,0-2.466.8-2.47,1.8a1.246,1.246,0,0,0,.071.259Z" transform="translate(-148.843 -7.163)" fill="#fff"/>
      <path id="Path_126" data-name="Path 126" d="M254.866,48.888a2.728,2.728,0,0,0-2.567-1.659,2.571,2.571,0,0,0-2.254-2,3.229,3.229,0,0,0-1.452.09,2.98,2.98,0,0,0-1.736-.911,3.131,3.131,0,0,0-1.81.228,3.456,3.456,0,0,0-2.193-.79,3.35,3.35,0,0,0-3.092,1.913,2.512,2.512,0,0,0-1.687-.619,2.077,2.077,0,0,0-2.263,1.763c-.094-.007-.183-.017-.278-.019-1.574-.005-2.852.762-2.856,1.713a1.059,1.059,0,0,0,.1.29Z" transform="translate(-134.876 -7.796)" fill="#fff"/>
      <path id="Path_127" data-name="Path 127" d="M255.666,41.854c-.31-1.259-1.809-2.261-3.783-2.445a3.788,3.788,0,0,0-3.32-2.944,4.727,4.727,0,0,0-2.137.134,4.4,4.4,0,0,0-2.558-1.343,4.605,4.605,0,0,0-2.666.336,5.091,5.091,0,0,0-3.231-1.163,4.935,4.935,0,0,0-4.555,2.817,3.714,3.714,0,0,0-2.485-.913c-1.821-.005-3.3,1.153-3.334,2.6-.137-.009-.27-.026-.41-.026-2.317-.007-4.2,1.122-4.205,2.523a1.591,1.591,0,0,0,.141.426Z" transform="translate(-142.043 -14.757)" fill="#fff"/>
      <path id="Path_128" data-name="Path 128" d="M204.547,48.883a2.574,2.574,0,0,0-2.094-1.144,2.354,2.354,0,0,0-2.075-2.247,2.882,2.882,0,0,0-.962-.005,2.8,2.8,0,0,0-1.99-.807,2.926,2.926,0,0,0-1.456.374,4.849,4.849,0,0,0-3.31-1.205c-2.318-.007-4.2,1.353-4.209,3.038-1.539-.005-2.776.883-2.854,2Z" transform="translate(-169.673 -7.794)" fill="#fff"/>
      <rect id="Rectangle_33" data-name="Rectangle 33" width="13.844" height="5.112" transform="translate(62.476 100.454)" fill="#fff"/>
      <g id="Group_25" data-name="Group 25" transform="translate(20.433 16.932)">
        <rect id="Rectangle_34" data-name="Rectangle 34" width="0.784" height="11.439" transform="translate(27.528 0.216)" fill="#c69f8a"/>
        <rect id="Rectangle_35" data-name="Rectangle 35" width="16.852" height="52.008" transform="translate(19.494 20.565)" fill="#ffffde"/>
        <path id="Path_129" data-name="Path 129" d="M199.4,46.042v2.78h11.576V82.045h5.276v-36Z" transform="translate(-179.906 -23.105)" fill="#171715" opacity="0.1"/>
        <rect id="Rectangle_36" data-name="Rectangle 36" width="18.824" height="36.018" transform="translate(2.512 36.555)" fill="#ffe9c0"/>
        <path id="Path_130" data-name="Path 130" d="M212.038,50.9v5.856l-2.511,2.105H190.7l-2.512-2.105V50.9h2.7v2.16h3.682V50.9h3.7v2.16h3.682V50.9h3.7v2.16h3.682V50.9Z" transform="translate(-188.191 -19.513)" fill="#ffe9c0"/>
        <rect id="Rectangle_37" data-name="Rectangle 37" width="3.683" height="2.16" transform="translate(26.816 52.927)" fill="#ffe9c0"/>
        <rect id="Rectangle_38" data-name="Rectangle 38" width="3.683" height="2.16" transform="translate(37.798 52.927)" fill="#ffe9c0"/>
        <rect id="Rectangle_39" data-name="Rectangle 39" width="3.682" height="2.16" transform="translate(45.118 52.927)" fill="#ffe9c0"/>
        <path id="Path_131" data-name="Path 131" d="M188.191,54.269l2.512,2.105H204.25V89.6h5.276V56.374l2.511-2.105Z" transform="translate(-188.191 -17.024)" fill="#171715" opacity="0.1"/>
        <rect id="Rectangle_40" data-name="Rectangle 40" width="32.741" height="17.586" transform="translate(16.059 54.988)" fill="#ffe9c0"/>
        <rect id="Rectangle_41" data-name="Rectangle 41" width="3.682" height="2.16" transform="translate(19.494 52.927)" fill="#ffe9c0"/>
        <path id="Path_132" data-name="Path 132" d="M198.553,52.627l9.9-15.494,9.9,15.494Z" transform="translate(-180.531 -29.69)" fill="#ff6f39"/>
        <path id="Path_133" data-name="Path 133" d="M218.382,36.643c-4.713,3.165-9.424-3.163-14.137,0V33.766c4.713-3.163,9.424,3.165,14.137,0-2.356,2.063-4.713,1.751-7.069,1.44C213.669,36.476,216.026,37.747,218.382,36.643Z" transform="translate(-176.324 -32.853)" fill="#ff6f39"/>
        <path id="Path_134" data-name="Path 134" d="M196.658,65.313h-3.791V59.738a1.875,1.875,0,0,1,1.876-1.876h.036a1.878,1.878,0,0,1,1.878,1.876Z" transform="translate(-184.734 -14.369)" fill="#8a735b"/>
        <path id="Path_135" data-name="Path 135" d="M210.051,73.147v6.268H199.743V73.147a5.1,5.1,0,0,1,5.1-5.1h.1A5.1,5.1,0,0,1,210.051,73.147Z" transform="translate(-179.652 -6.84)" fill="#8a735b"/>
        <path id="Path_136" data-name="Path 136" d="M205.888,53.074h-2.306V49.683a1.14,1.14,0,0,1,1.141-1.141h.024a1.14,1.14,0,0,1,1.141,1.141Z" transform="translate(-176.815 -21.257)" fill="#8a735b"/>
        <path id="Path_137" data-name="Path 137" d="M205.888,62.393h-2.306V59a1.14,1.14,0,0,1,1.141-1.141h.024A1.14,1.14,0,0,1,205.888,59Z" transform="translate(-176.815 -14.369)" fill="#8a735b"/>
      </g>
    </g>
  </g>
</svg>
