<?xml version="1.0" encoding="utf-8"?>
<!-- Generator: Adobe Illustrator 23.0.0, SVG Export Plug-In . SVG Version: 6.00 Build 0)  -->
<svg version="1.1" id="Layer_1" xmlns="http://www.w3.org/2000/svg" xmlns:xlink="http://www.w3.org/1999/xlink" x="0px" y="0px"
	 viewBox="0 0 121.5 121.6" style="enable-background:new 0 0 121.5 121.6;" xml:space="preserve">
<style type="text/css">
	.st0{fill:#FFFFFF;}
</style>
<g>
	<path id="Path_111" class="st0" d="M107.3,25.2v9.3c0,1.1,0.9,2,2,2c0,0,0,0,0,0h8.1c1.1,0,2-0.9,2-2c0,0,0,0,0,0v-9.3l1.4-1.4
		c0.4-0.4,0.6-0.9,0.6-1.4v-8.1c0-2.1-1.1-4-2.8-5.1c0.5-0.9,0.8-1.9,0.8-3c0-3.4-2.8-6-6.2-6c-3.3,0-6,2.7-6,6c0,1,0.3,2.1,0.8,3
		c-1.8,1.1-2.8,3-2.8,5.1v8.1c0,0.5,0.2,1.1,0.6,1.4L107.3,25.2z M113.4,4.1c1.1,0,2,0.9,2,2s-0.9,2-2,2c-1.1,0-2-0.9-2-2
		C111.4,5,112.3,4.1,113.4,4.1z M109.4,14.3c0-1.1,0.9-2,2-2h4.1c1.1,0,2,0.9,2,2v7.3l-1.4,1.4c-0.4,0.4-0.6,0.9-0.6,1.4v8.1h-4.1
		v-8.1c0-0.5-0.2-1.1-0.6-1.4l-1.4-1.4V14.3z"/>
	<path id="Path_112" class="st0" d="M81,25.2v9.3c0,1.1,0.9,2,2,2c0,0,0,0,0,0h8.1c1.1,0,2-0.9,2-2c0,0,0,0,0,0v-9.3l1.4-1.4
		c0.4-0.4,0.6-0.9,0.6-1.4v-8.1c0-2.1-1.1-4-2.8-5.1c0.5-0.9,0.8-1.9,0.8-3c0-3.4-2.6-6.1-6-6.2c-3.4,0-6.1,2.6-6.2,6
		c0,0.1,0,0.1,0,0.2c0,1,0.3,2.1,0.8,3c-1.8,1.1-2.8,3-2.8,5.1v8.1c0,0.5,0.2,1.1,0.6,1.4L81,25.2z M87.1,4.1c1.1,0,2,0.9,2,2
		s-0.9,2-2,2s-2-0.9-2-2C85.1,5,86,4.1,87.1,4.1z M83,14.3c0-1.1,0.9-2,2-2h4c1.1,0,2,0.9,2,2v7.3l-1.4,1.4
		c-0.4,0.4-0.6,0.9-0.6,1.4v8.1h-4.1v-8.1c0-0.5-0.2-1.1-0.6-1.4L83,21.5V14.3z"/>
	<path id="Path_113" class="st0" d="M28.4,25.2v9.3c0,1.1,0.9,2,2,2l0,0h8.1c1.1,0,2-0.9,2-2l0,0v-9.3l1.4-1.4
		c0.4-0.4,0.6-0.9,0.6-1.4v-8.1c0-2.1-1.1-4-2.8-5.1c0.5-0.9,0.8-1.9,0.8-3c0-3.4-2.8-6-6.2-6c-3.3,0-6,2.7-6,6c0,1,0.3,2.1,0.8,3
		c-1.8,1.1-2.8,3-2.8,5.1v8.1c0,0.5,0.2,1.1,0.6,1.4L28.4,25.2z M34.4,4.1c1.1,0,2,0.9,2,2c0,1.1-0.9,2-2,2c-1.1,0-2-0.9-2-2l0,0
		C32.4,5,33.3,4.1,34.4,4.1z M30.4,14.3c0-1.1,0.9-2,2-2h4.1c1.1,0,2,0.9,2,2v7.3L37,22.9c-0.4,0.4-0.6,0.9-0.6,1.4v8.1h-4v-8.1
		c0-0.5-0.2-1.1-0.6-1.4l-1.4-1.4V14.3z"/>
	<path id="Path_114" class="st0" d="M2,25.2v9.3c0,1.1,0.9,2,2,2h8.1c1.1,0,2-0.9,2-2l0,0v-9.3l1.4-1.4c0.4-0.4,0.6-0.9,0.6-1.4
		v-8.1c0-2.1-1.1-4-2.8-5.1c0.5-0.9,0.8-1.9,0.8-3c0-3.4-2.8-6-6.2-6c-3.3,0-6,2.7-6,6c0,1,0.3,2.1,0.8,3c-1.8,1.1-2.8,3-2.8,5.1
		v8.1c0,0.5,0.2,1.1,0.6,1.4L2,25.2z M8.1,4.1c1.1,0,2,0.9,2,2c0,1.1-0.9,2-2,2c-1.1,0-2-0.9-2-2C6.1,5,7,4.1,8.1,4.1z M4.1,14.3
		c0-1.1,0.9-2,2-2h4c1.1,0,2,0.9,2,2v7.3l-1.4,1.4c-0.4,0.4-0.6,0.9-0.6,1.4v8.1h-4v-8.1c0-0.5-0.2-1.1-0.6-1.4l-1.4-1.4V14.3z"/>
	<path id="Path_115" class="st0" d="M54.7,25.2v9.3c0,1.1,0.9,2,2,2l0,0h8.1c1.1,0,2-0.9,2-2c0,0,0,0,0,0v-9.3l1.4-1.4
		c0.4-0.4,0.6-0.9,0.6-1.4v-8.1c0-2.1-1.1-4-2.8-5.1c0.5-0.9,0.8-1.9,0.8-3c0-3.4-2.6-6.1-6-6.2c-3.4,0-6.1,2.6-6.2,6
		c0,0.1,0,0.1,0,0.2c0,1,0.3,2.1,0.8,3c-1.8,1.1-2.8,3-2.8,5.1v8.1c0,0.5,0.2,1.1,0.6,1.4L54.7,25.2z M60.8,4.1c1.1,0,2,0.9,2,2
		s-0.9,2-2,2c-1.1,0-2-0.9-2-2C58.7,5,59.6,4.1,60.8,4.1z M56.7,14.3c0-1.1,0.9-2,2-2h4c1.1,0,2,0.9,2,2v7.3l-1.4,1.4
		c-0.4,0.4-0.6,0.9-0.6,1.4v8.1h-4v-8.1c0-0.5-0.2-1.1-0.6-1.4l-1.4-1.4V14.3z"/>
	<path id="Path_116" class="st0" d="M113.4,85.1c-3.4,0-6.1,2.7-6.1,6.1c0,1,0.3,2.1,0.8,3c-1.8,1.1-2.8,3-2.8,5.1v8.1
		c0,0.5,0.2,1.1,0.6,1.4l1.4,1.4v9.3c0,1.1,0.9,2,2,2c0,0,0,0,0,0h8.1c1.1,0,2-0.9,2-2l0,0v-9.3l1.4-1.4c0.4-0.4,0.6-0.9,0.6-1.4
		v-8.1c0-2.1-1.1-4-2.8-5.1c0.5-0.9,0.8-1.9,0.8-3C119.5,87.9,116.8,85.1,113.4,85.1z M113.4,89.2c1.1,0,2,0.9,2,2s-0.9,2-2,2
		c-1.1,0-2-0.9-2-2C111.4,90.1,112.3,89.2,113.4,89.2z M117.5,106.6L116,108c-0.4,0.4-0.6,0.9-0.6,1.4v8.1h-4.1v-8.1
		c0-0.5-0.2-1.1-0.6-1.4l-1.4-1.4v-7.3c0-1.1,0.9-2,2-2h4.1c1.1,0,2,0.9,2,2V106.6z"/>
	<path id="Path_117" class="st0" d="M83,121.6h8.1c1.1,0,2-0.9,2-2l0,0v-9.3l1.4-1.4c0.4-0.4,0.6-0.9,0.6-1.4v-8.1
		c0-2.1-1.1-4-2.8-5.1c0.5-0.9,0.8-1.9,0.8-3c0-3.4-2.6-6.1-6-6.2s-6.1,2.6-6.2,6c0,0.1,0,0.1,0,0.2c0,1,0.3,2.1,0.8,3
		c-1.8,1.1-2.8,3-2.8,5.1v8.1c0,0.5,0.2,1.1,0.6,1.4l1.4,1.4v9.3C81,120.7,81.9,121.6,83,121.6C83,121.6,83,121.6,83,121.6z
		 M87.1,89.2c1.1,0,2,0.9,2,2s-0.9,2-2,2s-2-0.9-2-2C85.1,90.1,86,89.2,87.1,89.2C87.1,89.2,87.1,89.2,87.1,89.2L87.1,89.2z
		 M83,99.3c0-1.1,0.9-2,2-2h4c1.1,0,2,0.9,2,2v7.3l-1.4,1.4c-0.4,0.4-0.6,0.9-0.6,1.4v8.1h-4.1v-8.1c0-0.5-0.2-1.1-0.6-1.4l-1.4-1.4
		V99.3z"/>
	<path id="Path_118" class="st0" d="M30.4,121.6h8.1c1.1,0,2-0.9,2-2l0,0v-9.3l1.4-1.4c0.4-0.4,0.6-0.9,0.6-1.4v-8.1
		c0-2.1-1.1-4-2.8-5.1c0.5-0.9,0.8-1.9,0.8-3c0-3.4-2.8-6-6.2-6c-3.3,0-6,2.7-6,6c0,1,0.3,2.1,0.8,3c-1.8,1.1-2.8,3-2.8,5.1v8.1
		c0,0.5,0.2,1.1,0.6,1.4l1.4,1.4v9.3C28.4,120.7,29.3,121.6,30.4,121.6C30.4,121.6,30.4,121.6,30.4,121.6z M34.4,89.2
		c1.1,0,2,0.9,2,2c0,1.1-0.9,2-2,2s-2-0.9-2-2C32.4,90.1,33.3,89.2,34.4,89.2C34.4,89.2,34.4,89.2,34.4,89.2L34.4,89.2z M30.4,99.3
		c0-1.1,0.9-2,2-2h4.1c1.1,0,2,0.9,2,2v7.3L37,108c-0.4,0.4-0.6,0.9-0.6,1.4v8.1h-4v-8.1c0-0.5-0.2-1.1-0.6-1.4l-1.4-1.4V99.3z"/>
	<path id="Path_119" class="st0" d="M2,110.3v9.3c0,1.1,0.9,2,2,2c0,0,0,0,0,0h8.1c1.1,0,2-0.9,2-2l0,0v-9.3l1.4-1.4
		c0.4-0.4,0.6-0.9,0.6-1.4v-8.1c0-2.1-1.1-4-2.8-5.1c0.5-0.9,0.8-1.9,0.8-3c0-3.4-2.8-6-6.2-6c-3.3,0-6,2.7-6,6c0,1,0.3,2.1,0.8,3
		c-1.8,1.1-2.8,3-2.8,5.1v8.1c0,0.5,0.2,1.1,0.6,1.4L2,110.3z M8.1,89.2c1.1,0,2,0.9,2,2s-0.9,2-2,2s-2-0.9-2-2
		C6.1,90.1,7,89.2,8.1,89.2z M4.1,99.3c0-1.1,0.9-2,2-2h4c1.1,0,2,0.9,2,2v7.3l-1.4,1.4c-0.4,0.4-0.6,0.9-0.6,1.4v8.1h-4v-8.1
		c0-0.5-0.2-1.1-0.6-1.4l-1.4-1.4V99.3z"/>
	<path id="Path_120" class="st0" d="M52.7,99.3v8.1c0,0.5,0.2,1.1,0.6,1.4l1.4,1.4v9.3c0,1.1,0.9,2,2,2l0,0h8.1c1.1,0,2-0.9,2-2l0,0
		v-9.3l1.4-1.4c0.4-0.4,0.6-0.9,0.6-1.4v-8.1c0-2.1-1.1-4-2.8-5.1c0.5-0.9,0.8-1.9,0.8-3c0-3.4-2.8-6-6.2-6c-3.3,0-6,2.7-6,6
		c0,1,0.3,2.1,0.8,3C53.7,95.3,52.7,97.2,52.7,99.3z M60.8,89.2c1.1,0,2,0.9,2,2s-0.9,2-2,2c-1.1,0-2-0.9-2-2
		C58.7,90.1,59.6,89.2,60.8,89.2z M56.7,99.3c0-1.1,0.9-2,2-2h4c1.1,0,2,0.9,2,2v7.3l-1.4,1.4c-0.4,0.4-0.6,0.9-0.6,1.4v8.1h-4v-8.1
		c0-0.5-0.2-1.1-0.6-1.4l-1.4-1.4V99.3z"/>
	<rect id="Rectangle_37" x="58.7" y="71" class="st0" width="4.1" height="10.1"/>
	<rect id="Rectangle_38" x="58.7" y="40.6" class="st0" width="4.1" height="10.1"/>
	<path id="Path_121" class="st0" d="M85.1,81.1h4.1V73c0-1-0.7-1.8-1.6-2l-20.3-4.1l-0.8,4l18.6,3.7L85.1,81.1z"/>
	<path id="Path_122" class="st0" d="M115.4,81.1V68.9c0-1-0.7-1.9-1.7-2l-42.5-6.1l-0.6,4l40.8,5.8v10.4L115.4,81.1z"/>
	<path id="Path_123" class="st0" d="M54.3,66.9L34,71c-0.9,0.2-1.6,1-1.6,2v8.1h4v-6.4l18.6-3.7L54.3,66.9z"/>
	<path id="Path_124" class="st0" d="M6.1,81.1h4.1V70.7l40.8-5.8l-0.6-4L7.8,66.9c-1,0.1-1.7,1-1.7,2V81.1z"/>
	<path id="Path_125" class="st0" d="M32.4,40.6v8.1c0,1,0.7,1.8,1.6,2l20.3,4l0.8-4L36.5,47v-6.4H32.4z"/>
	<path id="Path_126" class="st0" d="M6.1,40.6v12.2c0,1,0.7,1.9,1.7,2l42.5,6.1l0.6-4L10.1,51V40.6H6.1z"/>
	<path id="Path_127" class="st0" d="M85.1,47l-18.6,3.7l0.8,4l20.3-4c0.9-0.2,1.6-1,1.6-2v-8.1h-4V47z"/>
	<path id="Path_128" class="st0" d="M111.4,51l-40.8,5.8l0.6,4l42.5-6.1c1-0.1,1.7-1,1.7-2V40.6h-4V51z"/>
	<path id="Path_129" class="st0" d="M52.7,60.8c0,4.5,3.6,8.1,8.1,8.1s8.1-3.6,8.1-8.1s-3.6-8.1-8.1-8.1h0
		C56.3,52.7,52.7,56.4,52.7,60.8z M60.8,56.8c2.2,0,4,1.8,4,4c0,2.2-1.8,4.1-4,4.1c-2.2,0-4-1.8-4-4.1l0,0
		C56.7,58.6,58.5,56.8,60.8,56.8z"/>
</g>
</svg>
