<?xml version="1.0" encoding="utf-8"?>
<!-- Generator: Adobe Illustrator 23.0.0, SVG Export Plug-In . SVG Version: 6.00 Build 0)  -->
<svg version="1.1" id="Layer_1" xmlns="http://www.w3.org/2000/svg" xmlns:xlink="http://www.w3.org/1999/xlink" x="0px" y="0px"
	 viewBox="0 0 121.5 121.5" style="enable-background:new 0 0 121.5 121.5;" xml:space="preserve">
<style type="text/css">
	.st0{fill:#FFFFFF;}
</style>
<g>
	<path id="Path_149" class="st0" d="M60.8,0C27.2,0,0,27.2,0,60.8s27.2,60.8,60.8,60.8s60.8-27.2,60.8-60.8
		C121.5,27.2,94.3,0,60.8,0z M60.8,116.3c-30.7,0-55.6-24.9-55.6-55.6S30.1,5.2,60.8,5.2s55.6,24.9,55.6,55.6
		C116.3,91.4,91.4,116.3,60.8,116.3z M46.5,72.6c-4.3,0-15.3,2.6-16.6,9.2L29,87c-0.2,1.4,0.7,2.7,2.1,3c0,0,0,0,0,0
		c0.1,0,0.3,0,0.4,0c1.3,0,2.3-0.9,2.5-2.2l0.9-5.2c0.5-2.3,7.2-4.9,11.5-4.9c1.4,0,2.6-1.1,2.6-2.5C49.1,73.8,48,72.6,46.5,72.6
		C46.5,72.6,46.5,72.6,46.5,72.6L46.5,72.6z M84.1,81.7c-1.2-6.2-10.6-9-16.6-9c-1.4,0-2.6,1.2-2.6,2.6c0,1.4,1.2,2.6,2.6,2.6
		c5.1,0,11,2.5,11.5,4.8l0.9,5.3c0.2,1.2,1.3,2.2,2.5,2.2c0.1,0,0.3,0,0.4,0c1.4-0.2,2.4-1.6,2.1-3L84.1,81.7z M67.8,68.9l0.1-0.2
		c1.6-2.9,3-5.9,4.2-8.9c1.5-0.7,2.4-2.2,2.4-3.9v-3.5c0-1.4-0.6-2.7-1.8-3.5V48c0-8.7-5.9-14-15.7-14s-15.7,5.2-15.7,14V49
		c-1.1,0.8-1.7,2.1-1.8,3.5v3.5c0,1.6,0.9,3.1,2.4,3.9c1.1,3.1,2.5,6.1,4.2,8.9l0.1,0.2c1.2,1.9,3.5,5.3,10.8,5.3
		S66.5,70.8,67.8,68.9z M63.5,66.1c-0.9,1.4-2,3-6.5,3s-5.5-1.6-6.5-3l-0.1-0.2c-1.6-2.9-3-6-4.1-9.1c-0.3-0.7-0.9-1.3-1.6-1.5v-2.1
		c1-0.4,1.8-1.3,1.8-2.5V48c0-5.8,3.5-8.8,10.6-8.8s10.6,3,10.6,8.8v2.6c0,1.1,0.7,2.1,1.8,2.4v2.1c-0.7,0.2-1.3,0.8-1.6,1.5
		c-1.1,3.1-2.5,6.2-4.1,9.1L63.5,66.1z M96.8,37.2h-8.3v-8.3c0-1.4-1.2-2.6-2.6-2.6c-1.4,0-2.6,1.2-2.6,2.6v8.3H75
		c-1.4,0-2.6,1.2-2.6,2.6c0,1.4,1.2,2.6,2.6,2.6h8.3v8.3c0,1.4,1.2,2.6,2.6,2.6c1.4,0,2.6-1.2,2.6-2.6v-8.3h8.3
		c1.4,0,2.6-1.2,2.6-2.6C99.3,38.3,98.2,37.2,96.8,37.2L96.8,37.2L96.8,37.2z"/>
</g>
</svg>
