<?xml version="1.0" encoding="utf-8"?>
<!-- Generator: Adobe Illustrator 23.0.0, SVG Export Plug-In . SVG Version: 6.00 Build 0)  -->
<svg version="1.1" id="Layer_1" xmlns="http://www.w3.org/2000/svg" xmlns:xlink="http://www.w3.org/1999/xlink" x="0px" y="0px"
	 viewBox="0 0 119.6 120.9" style="enable-background:new 0 0 119.6 120.9;" xml:space="preserve">
<style type="text/css">
	.st0{fill:#FFFFFF;}
</style>
<g>
	<g id="Group_175" transform="translate(94.981 32.942)">
		<g id="Group_174" transform="translate(0 0)">
			<path id="Path_106" class="st0" d="M20.7,87.9c-3.1,0-7.4-0.9-9.6-3.1c-2.4-2.4-3.5-5.8-3-9.2c0.3-1.2,0.6-2.4,1-3.6
				c0.5-1.4,1-2.7,0.6-3.4c-0.1-0.4-0.8-0.9-1.3-1.3c-0.3-0.3-0.6-0.5-0.9-0.8C5.3,64.4,4.4,62,5,59.8c0.5-1.6,1.7-3,3.2-3.6
				c-2.9-1.7-4.3-5.1-3.6-8.4c0.5-1.6,1.4-3,2.6-4.1c0.4-0.4,0.8-0.9,1-1.4c-0.7-0.6-1.5-1-2.3-1.2C1.2,39.2,0,36.3,0,34.4
				c0-4,3.6-5.8,5.8-6.9l0,0c2-1,3.8-2.4,5.2-4.3c2.7-3.6,3-6.9,3.2-10.5c0.3-3.9,0.6-8.4,4.7-12c1.3-1.1,3.2-1.1,4.3,0.2
				s1.1,3.2-0.2,4.3l-0.1,0.1c-2.1,1.8-2.3,4-2.6,7.8c-0.3,4.3-0.6,9.6-5.4,15c-1.7,1.9-3.9,3.5-6.2,4.7L8.6,33
				c-0.9,0.3-1.7,0.8-2.3,1.4c0.6,0.5,1.2,0.8,1.9,1c1.6,0.6,5.8,2.2,6.2,6.3c0.1,2.4-1,4.7-3,6.2c-2.1,1.4-0.9,3,0,3.4
				c5.8,2.5,6.3,5.3,5,7.9c-1,1.9-5,2.5-5.3,2.5c0.2,0.1,0.3,0.3,0.4,0.5c0.2,0.2,0.4,0.4,0.6,0.5c1.2,0.9,2.3,2,3,3.4
				c1.4,3,0.4,5.8-0.5,8.1c-0.3,0.8-0.6,1.6-0.8,2.5C13.6,78,14,79.4,15,80.4c1.9,1,4,1.4,6.1,1.2c1.6-0.3,3.2,0.8,3.5,2.5
				c0.3,1.6-0.8,3.2-2.4,3.5h-0.1C22.1,87.9,21.5,87.9,20.7,87.9z"/>
		</g>
	</g>
	<g id="Group_178" transform="translate(0 0)">
		<g id="Group_177" transform="translate(0 0)">
			<g id="Group_176">
				<path id="Path_107" class="st0" d="M8.8,120.2c-2.5,0-4.9-0.6-7.1-1.8c-1.5-0.7-2.1-2.6-1.3-4v-0.1c0.8-1.5,2.6-2,4.1-1.3
					c2.4,1.3,5.4,1.4,7.9,0.1c2-1,3.3-2.9,3.5-5.2c0.3-2.2-0.6-4.4-1.6-6.5c-0.8-1.9-1.7-3.9-1.6-5.9c0.2-2,1-3.8,2.3-5.3l0.8-0.8
					c1.6-1.7,1.6-1.9,1.2-2.6c0-0.1-0.1-0.1-0.1-0.1l0,0c-0.5-0.1-0.9-0.2-1.4-0.1c-0.6,0-1.2,0-1.8-0.1c-3.3-0.3-6-2.5-7-5.7
					c-1.2-3.4-0.3-7.2,2.2-9.8c2.1-1.9,5.1-2.5,7.8-1.4c1,0.4,2.5,0.5,3,0c-0.2-0.5-0.5-1-0.8-1.6c-1.5-2.1-2.3-4.6-2.2-7.2
					c0.5-4.7,4.7-5.6,7-6.1c2.6-0.5,2.6-0.8,2.7-1.6c0.1-1.4-3-4.4-5.6-6.9C15.1,41,7,33.5,11,22.5C13.3,16,14,11,7.1,5.6
					c-1.3-1.1-1.5-3-0.5-4.4c1.1-1.3,3-1.5,4.4-0.5c3.2,2.6,10.7,10.6,5.8,23.8c-2.5,6.7,1.9,11.5,8.4,17.6c4,3.7,7.9,7.4,7.5,11.8
					c-0.5,5.4-5,6.3-7.5,6.9c-0.7,0.1-1.4,0.3-2.1,0.6v0.1c-0.1,1,0.4,1.9,1.3,3.5c1.2,1.8,2.8,4.5,1,7.6c-2.2,3.7-7,4.1-10.6,2.7
					c-0.9-0.3-1.2,0-1.3,0.1c-0.8,1-1,2.4-0.6,3.6c0.3,0.9,1,1.5,1.9,1.6h1c1.8,0,5.4,0.1,7.1,4c1.9,4.4-0.8,7.4-2.3,9
					c-0.3,0.3-0.4,0.5-0.6,0.6c-0.4,0.5-0.7,1.2-0.9,1.8c0.2,1.1,0.6,2.1,1,3.1c1,2.5,2.3,5.7,1.9,9.4c-0.5,4.3-3.1,8-6.9,10
					C13.3,119.6,11,120.2,8.8,120.2z"/>
			</g>
		</g>
	</g>
	<g id="Group_185" transform="translate(29.228 52.554)">
		<g id="Group_180" transform="translate(0 16.175)">
			<g id="Group_179">
				<path id="Path_108" class="st0" d="M11.3,20.7c2.5-1.8,4.1-4.5,4.5-7.5C16.8,6.9,12.5,1,6.2,0C4.5-0.2,3,0.9,2.7,2.5
					c0,0.2,0,0.3,0,0.5c0,1.5,1.1,2.8,2.6,3.1c2.9,0.5,4.9,3.2,4.5,6.1c-0.2,1.4-1,2.7-2.2,3.5s-2.6,1.2-4,1
					c-1.6-0.3-3.2,0.8-3.5,2.4C0,19.6,0,20,0.1,20.5c0.3,1.2,1.3,2.1,2.6,2.3c0.4,0,0.8,0.1,1.2,0.1C6.5,23.1,9.2,22.3,11.3,20.7z"
					/>
			</g>
		</g>
		<g id="Group_182" transform="translate(0.706 8.036)">
			<g id="Group_181">
				<path id="Path_109" class="st0" d="M25.5,22.9C27.2,12,19.7,1.7,8.8,0c0,0,0,0-0.1,0C7-0.2,5.5,0.9,5.2,2.6c0,0.3,0,0.5,0,0.8
					c0.2,1.4,1.3,2.5,2.7,2.7c7.6,1.3,12.7,8.5,11.5,16c-1.3,7.5-8.3,12.6-15.9,11.5c-1.7-0.3-3.2,0.9-3.5,2.5c0,0.3,0,0.5,0,0.8
					c0.2,1.5,1.4,2.7,2.8,2.8C3.5,40,4.1,40,4.7,40C14.9,40.3,23.8,33,25.5,22.9z"/>
			</g>
		</g>
		<g id="Group_184" transform="translate(1.223 0)">
			<g id="Group_183">
				<path id="Path_110" class="st0" d="M35.2,27.5c0-4.2-1-8.4-3-12.2C28.1,7.2,20.4,1.5,11.4,0.1C9.7-0.3,8.1,0.8,7.7,2.4
					c-0.4,1.7,0.7,3.3,2.4,3.7h0.1C22.4,8,30.7,19.4,28.8,31.6c-0.3,1.9-0.8,3.8-1.6,5.6c-0.8,1.9-1.9,3.6-3.2,5.2
					c-5,5.9-12.7,8.8-20.4,7.6c-1.7-0.3-3.2,0.9-3.5,2.5c0,0.3,0,0.5,0,0.8c0.2,1.5,1.4,2.6,2.8,2.8c0.9,0.2,1.8,0.2,2.7,0.3
					c15.6,0.7,28.9-11.4,29.6-27C35.2,28.7,35.2,28.1,35.2,27.5z"/>
			</g>
		</g>
	</g>
</g>
</svg>
