<svg id="Layer_1" data-name="Layer 1" xmlns="http://www.w3.org/2000/svg" viewBox="0 0 1775.4 515.8"><path d="M133.92,336.08c0,13.72,33.07,24.84,73.87,24.84s73.86-11.12,73.86-24.84-33.07-24.85-73.86-24.85S133.92,322.36,133.92,336.08Z" fill="#9daad3"/><path d="M463.22,462.22c0,13.72,33.07,24.84,73.87,24.84S611,475.94,611,462.22s-33.07-24.85-73.86-24.85S463.22,448.5,463.22,462.22Z" fill="#9daad3"/><path d="M751.22,386.31c0,13.72,33.07,24.85,73.87,24.85S899,400,899,386.31s-33.07-24.84-73.86-24.84S751.22,372.59,751.22,386.31Z" fill="#9daad3"/><path d="M1060.43,437.66c0,13.72,33.07,24.85,73.87,24.85s73.86-11.13,73.86-24.85-33.07-24.84-73.86-24.84S1060.43,423.94,1060.43,437.66Z" fill="#9daad3"/><path d="M1265.83,351.71c0,13.72,33.07,24.84,73.86,24.84s73.87-11.12,73.87-24.84-33.07-24.85-73.87-24.85S1265.83,338,1265.83,351.71Z" fill="#9daad3"/><path d="M1473.45,435.43c0,13.72,33.07,24.84,73.87,24.84s73.86-11.12,73.86-24.84-33.07-24.85-73.86-24.85S1473.45,421.7,1473.45,435.43Z" fill="#9daad3"/><polygon points="491.88 427.79 497.05 449.57 504.8 449.52 505.08 427.79 491.88 427.79" fill="#ffb27b"/><polygon points="557.04 428.71 571.76 449.57 577.49 442.2 568.64 425.85 557.04 428.71" fill="#ffb27b"/><path d="M504.15,155.83a15,15,0,0,0-8.27.08,3.82,3.82,0,0,1,1.52-1.14c-1.4.07-4.17,2-4.17,2-20.43-3.48-17.78,25-16.08,31.43s-4.63,9.88-13.46,17c-16.86,13.54-15.88,26.92-15.88,26.92l.52.21c.62-1.77,1.94-5.13,3.47-5.9a67.4,67.4,0,0,0-1.32,6.87c6.4,3.1,18.67,10.37,27.24,15.54a10.87,10.87,0,0,1-.33-4.21l2,5.21c4.59,2.78,7.76,4.74,7.76,4.74-1.53-5.14,17.07-37.66,28-48.49,2.16-5.13,1.64-13.34,1.6-14,.74,6.44.38,10.21-.19,12.41C525.25,192.54,511.89,158.37,504.15,155.83Z" fill="#003261"/><path d="M512.23,208.27c.07,0-6.21,3.29-10.93,2-4.44-1.21-7.35-7-7.28-7,1.88-.37,2.42-3,2.38-14.07l.85.17,14.29,2.83s-.32,4.5-.33,8.74C511.2,204.52,511.42,207.89,512.23,208.27Z" fill="#ffb27b"/><path d="M489.3,163.58s5.43-8.76,15.52-3.52C504.82,160.06,499.59,160.2,489.3,163.58Z" fill="#00acb8"/><path d="M511.54,192.22s-.32,4.5-.33,8.74c-8-.23-12.23-7.52-14-11.57Z" fill="#ff9e64"/><path d="M494.31,189.89s-5.42-5.66-7.53-11c-1.5-3.83-2.44-18.93,12.75-19.79a20.47,20.47,0,0,1,9,1.47c3.64,1.52,9.21,5.26,6.62,19.13l-.47,4.6Z" fill="#003261"/><path d="M576.11,437.44s-3.79.65-6.91.89c-.7.05-1.35.09-1.93.09a34.32,34.32,0,0,1-6-1l-.13,0c-.8-.19-1.41-.35-1.63-.41l-.1,0s-19-21.1-29.57-54.91c-.25-.79-.51-1.58-.79-2.39-5.82-17-17.88-38.24-24.23-57.51-1-3.07-1.92-6-2.73-8.69-.27-.88-.52-1.74-.76-2.59A204.63,204.63,0,0,1,494,272.52l38.21,9.72S548.26,351.77,576.11,437.44Z" fill="#be3b35"/><path d="M514.05,194.48s-18.5,4.05-20.84-7.5-6.3-18.82,5.4-21.89,14.91.87,16.63,4.54S518.8,193.13,514.05,194.48Z" fill="#ffb27b"/><path d="M507,163.1s-2.35,14.58-9.74,18.16-11.2,2.17-11.2,2.17a22.48,22.48,0,0,0,4.59-14.5S501.87,157.42,507,163.1Z" fill="#003261"/><path d="M506,164.46s4.4,2.26,5.92,5,3.16,8.73,4.88,8.17c0,0,2-10-3.38-14.34C507.71,158.7,506,164.46,506,164.46Z" fill="#003261"/><path d="M496.79,448.35a20.93,20.93,0,0,1-1,8.93s-1.27,5.78,4.42,5.88,7.08-.43,6.44-4-1.87-9.67-1.87-9.67Z" fill="#ffb27b"/><path d="M495.81,457.28s-1.06,5.45-.41,8.35c0,0,1.72,1.29,5.85,1.29a11.87,11.87,0,0,0,6-1.29s.12-6-.93-8.5C506.28,457.13,502.25,463.18,495.81,457.28Z" fill="#e05344"/><path d="M591.2,459.77s-10.49-11.64-13.71-17.57l-7.8,4,17.44,16.37,4.08-.53Z" fill="#ffb27b"/><path d="M597.87,466.59s-11.27,0-13.21-.21-3.48-3-5.58-7.19c-.85-1.72-2.78-2.66-4.75-3.18v9.7h-3l-2.82-10.31c-1.85-3.41-.14-6.51,1.16-9.2,1.52,0,5.61,1,13.36,9.77a10.17,10.17,0,0,0,8.15,3.8.34.34,0,0,0,.12.06C597.76,462.73,597.87,466.59,597.87,466.59Z" fill="#e05344"/><path d="M569.2,438.33c-.7.05-1.35.09-1.93.09a34.32,34.32,0,0,1-6-1l-.13,0-1.63-.41-.1,0s-19-21.1-29.57-54.91c-.25-.79-.51-1.58-.79-2.39-5.82-17-17.88-38.24-24.23-57.51-1-3.07-1.92-6-2.73-8.69-.27-.88-.52-1.74-.76-2.59l6.76-5.12s20.28,32.84,26.56,63.76C539.83,395.14,562.24,428.36,569.2,438.33Z" fill="#a82b2b"/><path d="M508.76,372.4c.12,15-.64,49.59-2.6,63.9,0,0-1.86,1.65-6.46,1.67s-6.83-1.72-6.83-1.72c-4.91-24.88-8.4-45.47-10.95-63.21-2.08-14.55-3.94-27-5.36-37.78-1.27-9.52-2.19-17.68-2.64-24.71-.06-1-.11-1.89-.15-2.8-.06-1.21-.1-2.38-.13-3.51s0-2.26,0-3.34h.16l9.49-.93,30-2.92C512.77,323.38,508.7,363.66,508.76,372.4Z" fill="#be3b35"/><path d="M499.7,438a11.78,11.78,0,0,1-6.83-1.72c-4.91-24.88-8.4-45.47-10.95-63.21-2.08-14.55-3.94-27-5.36-37.78-1.27-9.52-2.19-17.68-2.64-24.71-.05-3.47-.09-6.79-.13-9.66s-.09-5.39-.17-7.11l9.66,6.18,10.17,6.5S479,319.58,482.57,344.38,494.77,434.45,499.7,438Z" fill="#a82b2b"/><path d="M507.56,202.81s15.41-2.45,20.58,2.7c6.34,6.31,18.24,42.46,17.77,46.59-.18,1.57-6.44.84-8.58-1.41C526.64,239.48,511.31,211.2,507.56,202.81Z" fill="#d83d3d"/><path d="M537.49,303.77c-11.5,3-65.19,8.89-65.65-4.56-.12-3.28,0-7.24.26-11.53.8-13.28,3-29.69,4-38.72.48-4.14-1.11-22.68.11-32.79a23.27,23.27,0,0,1,.74-3.86c2.32-7.62,12.74-9.69,18.09-9.87l16.14-.55s16.67,18.62,19,24.34,3.07,25.29,4.87,34.78S543.09,302.31,537.49,303.77Z" fill="#d83d3d"/><path d="M505.79,258.33s-9,27.55-33.69,29.35c.8-13.28,3-29.69,4-38.72.48-4.14-1.11-22.68.11-32.79.32.07.62.25.95.32C504.4,221.74,508.26,252.58,505.79,258.33Z" fill="#be3b35"/><path d="M545.13,252.78s-16.2,5.31-35.94-3.21c0,0-5.38-.51-8,.17,0,0,.57-5.33,3.18-6.78s13.83,1.68,17.18,1.22C528.85,243.17,541.62,242.38,545.13,252.78Z" fill="#ff9e64"/><path d="M530.69,240.37s1.52-13.17-3.63-21.1a2.75,2.75,0,0,1,3.13,1.44c1.3,2.06,10.4,21.62,6.07,23.06S530.69,240.37,530.69,240.37Z" fill="#be3b35"/><path d="M507,242.57c-.23,0-7.65,1-9,1.9s-.16,4.17,2.31,4.48S507,242.57,507,242.57Z" fill="#ff9e64"/><path d="M486.76,247.56a305.31,305.31,0,0,0,40.3-4.49s3.5,0,3.09,3.1-33.22,20.19-40.44,16.89Z" fill="#ffb27b"/><path d="M527.06,243.07s2.24-2.7,3.63-2.7,5,1.78,5.57,3.4-4.3.46-6.11,2.4S527.06,243.07,527.06,243.07Z" fill="#ffb27b"/><path d="M495.06,202.44s-17.76,0-20.35,6.42c-4.74,11.65,10.88,50.28,15,54.2,1.78,1.68,10-1,10-12.1C499.7,245.19,499.28,211.47,495.06,202.44Z" fill="#d83d3d"/><path d="M1104.77,234.59c-15.63-4-32.81-28.22-32.81-28.22l4.4-3.81c4.56,5.37,23.5,14.62,23.5,14.62-.1-4.92,0-9.4.34-13.48,2.1-27.74,12.56-37,15.41-39a7.5,7.5,0,0,1,.72-.47l0,.58c0,.83.12,2.49.2,4.77C1117.14,186.55,1117.83,237.92,1104.77,234.59Z" fill="#ee9358"/><path d="M1076.36,202.56c-.06-.66-.5-10.19-2.4-12s-5.63-4.29-6.7-4.09-4.72,6.27-3,10.45,7.7,9.45,7.7,9.45Z" fill="#ee9358"/><rect x="1068.89" y="183.01" width="11.54" height="20.88" rx="0.62" transform="translate(-7.15 45.1) rotate(-2.4)" fill="#ffa447"/><rect x="1066.7" y="183.1" width="11.54" height="20.88" rx="1.1" transform="translate(-7.15 45) rotate(-2.4)" fill="#f46700"/><path d="M1066.48,187.2s2.8-3.13,5.61-.74-.19,7.51-2.62,8.91a19.41,19.41,0,0,0-3.21,2.12Z" fill="#ee9358"/><path d="M1138.8,395.84c-1,3.79-2,7.39-3.07,10.74-.23.72-.45,1.43-.68,2.12-.11.35-.23.69-.34,1-.23.67-.45,1.32-.67,1.95-.29.83-.57,1.64-.86,2.43l-.62,1.7c-3.17,8.5-5.83,13.89-5.83,13.89l-6.31-.44a171.42,171.42,0,0,0,2.84-27.43c0-.57,0-1.15,0-1.74,0-1.26,0-2.53,0-3.84,0-.53,0-1.07,0-1.62-.13-13.91-1.85-30.35-7.35-46.05a300,300,0,0,1-10-35.5c-7.56-34.84-5.79-57.72-5.79-57.72l35.53,4.15,1.65.2c.15,16.31.57,38.47.94,55.79.06,3,.12,5.86.18,8.52.25,11.12.43,18.73.43,18.73C1145.71,357.44,1143.23,378.2,1138.8,395.84Z" fill="#e17e3f"/><path d="M1128.63,133.38s8.4,7.15.7,15.39c0,0,6.42.63,8.59-1.15a5.72,5.72,0,0,1-.82,1.26s7.18.26,10.14-2,1.06-39-18.86-34.87c0,0-16.89-1.27-15.32,18.27s-4.8,19.54-4.8,19.54a9,9,0,0,0,2.63.88s1.25-.48,1.5-1.17a4.53,4.53,0,0,1-.57,1.43s6.88.65,10.32-1.95S1129.61,137.41,1128.63,133.38Z" fill="#0c3563"/><path d="M1155.75,251.36c-6.71-15.05-9.93-19.31-10-24.05-.09-3.75,1.76-7.79,5.35-17.7a37.34,37.34,0,0,0,1.79-7.16c2.83-19.11-8.22-39.77-15.08-41.17-1.91-.51-5.15-7.41-5.11-18.53l-.86.17-14.46,2.86s.33,4.55.34,8.84c0,3.57-.19,7.21-1,7.63-1,.1-2,.29-2,.29s-12.23,8.59-13,20.25c-1.06,15.57,9.92,34,.18,65.15C1091.91,279.73,1159.46,259.68,1155.75,251.36Z" fill="#ee9358"/><path d="M1117.34,145.78s.33,4.55.34,8.84c8.09-.23,12.36-7.61,14.12-11.7Z" fill="#e17e3f"/><path d="M1133.29,141.34s4.24-6.7,5.26-12.43c.73-4.09-1.36-19.25-16.59-17.06a20.64,20.64,0,0,0-8.59,3.24c-3.31,2.24-8.08,7.06-2.74,20.29l1.38,4.47Z" fill="#0c3563"/><path d="M1114.63,149.84s19.15.32,19.16-11.61,2.5-19.92-9.73-20.62-14.6,3.84-15.57,7.82S1109.65,149.45,1114.63,149.84Z" fill="#ee9358"/><path d="M1115.34,117.32s5.24,14,13.29,16.06,11.53-.09,11.53-.09a22.77,22.77,0,0,1-7.45-13.46S1119.3,110.66,1115.34,117.32Z" fill="#0c3563"/><path d="M1116.64,118.45s-3.91,3.13-4.87,6.16-1.38,9.29-3.2,9.08c0,0-4-9.51.49-14.89C1113.76,113.09,1116.64,118.45,1116.64,118.45Z" fill="#0c3563"/><path d="M1180.65,267.35l-5.75,1.73s-19-31.46-20.68-39.65c-.56-2.66-1.94-8-3.55-14C1147.34,203.09,1143,188,1143,188l-1.41-6.13-4.83-20.9s9.24.94,14.65,3.2c1.79.75,3.15,1.64,3.63,2.69,4,8.73,7.94,30.76,10.72,46.48,1.56,8.76,2.74,15.56,3.36,17C1170.88,234.32,1176.15,256.44,1180.65,267.35Z" fill="#ee9358"/><path d="M1115.91,118.92s3.74,14.66,13.89,19.35c0,0-10.15-9-11-18.68S1115.91,118.92,1115.91,118.92Z" fill="#0c3563"/><path d="M1180.24,266.4s1.75,4.11,3.57,5.26a10.21,10.21,0,0,1,3.93,6.13c.69,4.08-2.44,6.61-4.74,6.61s-4.49-3.13-5.84-10.62c-.08-.41-2.26-4.7-2.26-4.7Z" fill="#ee9358"/><path d="M1159.18,392.78c-2,21.8-11,35.9-11,35.9l-3.07,2.79s-2.8-16-4.82-34.23c-1.92-17.37-4.56-35.75-7.54-41.36-4.46-8.38-7.75-25.52-10.12-43.63-3.91-30-5.3-62.6-5.3-62.6l36-1.78c3.62,6.09,5.2,16.08,5.58,27.43a278.16,278.16,0,0,1-1.85,37.42c-1.82,16.84-4.36,30.87-5,34v0a1.88,1.88,0,0,0,.23,1.2C1159.49,362.15,1160.53,378.38,1159.18,392.78Z" fill="#ee9358"/><path d="M1117.15,201.31c-.81,19.79-3.77,39.38-12.39,38.12-10.56-1.54-13.31-11.4-13.87-18.73a41.55,41.55,0,0,1,.16-8.14s5.19,0,6-.79c4-3.69,2.81-39.85,4.78-43.6s14.8-6.17,14.8-6.17S1118,181.75,1117.15,201.31Z" fill="#ff9841"/><path d="M1117.15,201.31c-.81,19.79-3.77,39.38-12.39,38.12-10.56-1.54-13.31-11.4-13.87-18.73,2.59-.13,7.16-.76,9-3.52,2.6-4,10.7-29.45,10.7-29.45S1113.74,193.45,1117.15,201.31Z" fill="#ff862d"/><path d="M1138.8,395.84c-1,3.79-2,7.39-3.07,10.74-.23.72-.45,1.43-.68,2.12-.11.35-.23.69-.34,1-.23.67-.45,1.32-.67,1.95-.29.83-.57,1.64-.86,2.43l-.62,1.7c-3.17,8.5-5.83,13.89-5.83,13.89l-6.31-.44a171.42,171.42,0,0,0,2.84-27.43c0-.57,0-1.15,0-1.74,0-1.26,0-2.53,0-3.84,0-.53,0-1.07,0-1.62-.13-13.91-1.85-30.35-7.35-46.05a300,300,0,0,1-10-35.5c3.75.78,7.06,0,16.65-.82,1-.09,5.83,5.88,10.59,13.78.25,11.12,5.7,16.71,5.7,16.71C1145.71,357.44,1143.23,378.2,1138.8,395.84Z" fill="#0c3563"/><path d="M1159.18,392.78c-2,21.8-11,35.9-11,35.9l-3.07,2.79s-2.8-16-4.82-34.23c-1.92-17.37-4.56-35.75-7.54-41.36-4.46-8.38-7.75-25.52-10.12-43.63,3.32,1.38,14.6,5,34.45.47-1.82,16.84-4.36,30.87-5,34v0a1.88,1.88,0,0,0,.23,1.2C1159.49,362.15,1160.53,378.38,1159.18,392.78Z" fill="#0d458d"/><path d="M1105.94,228.18s21.19,5.32,39.77-.87c0,0,10.21,21.67,13,30.95s7.35,28.45,7.35,28.45-37.74,11.66-68.76,0c0,0-1.41-25.53,2.65-38.84S1105.94,228.18,1105.94,228.18Z" fill="#0c3563"/><path d="M1182.74,238.11c0,5-5.07,8-10.51,9.51-5.23,1.43-10.8,1.41-12.55.25-3-2-7.9-24.42-9.33-31.24l-.41-2s-3.9,9.32-4,10.19c-.05.39-.1.93-.14,1.4s-.06,1.05-.06,1.05-21.21,10.71-39.77.87c0,0-7.55-43.61-4.27-51.12,1.63-3.73,10.12-11.43,13.52-14.75.76-.74.68-2.22.39-3.57a1.56,1.56,0,0,1,1.91-1.86c2.19.57,6.12.47,10.33-.91a24.71,24.71,0,0,0,6.31-3.09,1,1,0,0,1,1.5.69c.32,2.6,1.11,7.35,2.54,7.35,2,0,15.46,1.64,16.45,3.31.34.58,3.85,8.51,8.27,19a0,0,0,0,1,0,0C1171.21,203,1182.74,231.75,1182.74,238.11Z" fill="#ff9841"/><path d="M1149.94,214.67s-3.9,9.32-4,10.19c-.05.39-.1.93-.14,1.4a19.22,19.22,0,0,1-6.5,3.42c-6.61,2-9.48-10.67-9.08-17s9.74-24.37,12.85-24.74S1149.94,214.67,1149.94,214.67Z" fill="#ff862d"/><path d="M1150.35,216.63l-.41-2A10.08,10.08,0,0,1,1150.35,216.63Z" fill="#ff862d"/><path d="M1123.05,232.23c-12.07,0-16.85-3.39-17.22-3.67l-.78-5.69c.11.09,16.31,9.81,41.37.5l-.54,4.31C1136.25,231.26,1129.32,232.23,1123.05,232.23Z" fill="#d04b3e"/><path d="M1182.74,238.11c0,5-5.07,8-10.51,9.51,7.5-8.93-8.91-63-9.33-64.34C1171.21,203,1182.74,231.75,1182.74,238.11Z" fill="#ff862d"/><path d="M1138.17,160.92s-10.09,6.39-17.73,4.88c0,0-1.84-1.16.69-2.33,2.38-1.09,7.9-4.32,6.69-7.5a24.71,24.71,0,0,0,6.31-3.09,1,1,0,0,1,1.5.69C1136,156.17,1136.74,160.92,1138.17,160.92Z" fill="#ff862d"/><path d="M1130.37,435h-4c-1.35-.21-2.35-.6-3.74-.78a3.78,3.78,0,0,0-3.26.78l0,0h-17.12c-.43-.61,0-2,.39-3.08a2.42,2.42,0,0,1,1.6-1.47c1.82-.52,5.4-1,8.67-4,1.85-1.67,8.91-6.13,8.91-6.13h0c.15,0,.89.23,4.1,2.95,1.66,1.39,4.49-2,4.49-2a4.08,4.08,0,0,1,.93,1.26,4.26,4.26,0,0,1,.37,2.63c-.26,1.54.57,4.41,1.23,6.34.4,1.18.73,2,.73,2S1133.83,434.55,1130.37,435Z" fill="#0c3563"/><path d="M1131.31,422.6a12.77,12.77,0,0,1-4.34,2.19c-1.82.23-5.22-4.41-5.22-4.41h0c.15,0,.89.23,4.1,2.95,1.66,1.39,4.49-2,4.49-2A4.08,4.08,0,0,1,1131.31,422.6Z" fill="#2b6aa8"/><path d="M1130.37,435h-4c-1.35-.21-2.35-.6-3.74-.78a3.78,3.78,0,0,0-3.26.78l0,0h-17.12c-.43-.61,0-2,.39-3.08.52-.47.67,2,1,2.4s14,.14,14.76-.43a8.23,8.23,0,0,1,6.46-.79c2.88.68,7.12-1.08,8.17-1.55.4,1.18.73,2,.73,2S1133.83,434.55,1130.37,435Z" fill="#2b6aa8"/><path d="M1151.88,435h-4c-1.36-.21-2.35-.6-3.74-.78a3.78,3.78,0,0,0-3.26.78l0,0h-17.12c-.43-.61,0-2,.39-3.08a2.42,2.42,0,0,1,1.6-1.47c1.82-.52,5.4-1,8.67-4,1.85-1.67,8.91-6.13,8.91-6.13h0c.15,0,.89.23,4.1,2.95,1.66,1.39,4.49-2,4.49-2a4.08,4.08,0,0,1,.93,1.26,4.26,4.26,0,0,1,.37,2.63c-.26,1.54.57,4.41,1.23,6.34.39,1.18.73,2,.73,2S1155.34,434.55,1151.88,435Z" fill="#0c3563"/><path d="M1152.82,422.6a12.77,12.77,0,0,1-4.34,2.19c-1.82.23-5.22-4.41-5.22-4.41h0c.15,0,.89.23,4.1,2.95,1.66,1.39,4.49-2,4.49-2A4.08,4.08,0,0,1,1152.82,422.6Z" fill="#2b6aa8"/><path d="M1151.88,435h-4c-1.36-.21-2.35-.6-3.74-.78a3.78,3.78,0,0,0-3.26.78l0,0h-17.12c-.43-.61,0-2,.39-3.08.52-.47.66,2,1,2.4s14,.14,14.76-.43a8.23,8.23,0,0,1,6.46-.79c2.88.68,7.12-1.08,8.17-1.55.39,1.18.73,2,.73,2S1155.34,434.55,1151.88,435Z" fill="#2b6aa8"/><path d="M1589.7,356.92c-2.39,6.11-14.63,18.68-27.23,30.56-15.06,14.18-30.65,27.37-30.65,27.37s-7.13,2.17-4-8.31c0,0,17.19-31.58,24.57-40.9,2.11-2.66,4.29-5.1,6.33-7.21a100.11,100.11,0,0,1,9.33-8.61s-1-1.55-2.54-4.24c-7.67-13.14-29.69-53.36-22.89-71.22,8.19-21.52,28.54-31.21,28.54-31.21s6.46,27.23,11.9,55.21C1588.05,324.11,1592.21,350.5,1589.7,356.92Z" fill="#ff973d"/><path d="M1583,298.36c-3.75,17.24-10.24,41.62-17.55,47.22-7.67-13.14-29.69-53.36-22.89-71.22,8.19-21.52,28.54-31.21,28.54-31.21S1577.6,270.38,1583,298.36Z" fill="#ff7e1c"/><path d="M1562.47,387.48c-15.06,14.18-30.65,27.37-30.65,27.37s-7.13,2.17-4-8.31c0,0,17.19-31.58,24.57-40.9,2.11-2.66,4.29-5.1,6.33-7.21C1558.46,366.49,1558.69,380.16,1562.47,387.48Z" fill="#ff7e1c"/><path d="M1580.11,283.77s-17.84-44.76-16.9-46c.58-.81,1.72-25.24,2.49-43.59.47-11.16.81-20.09.81-20.09s7.9,2.82,9.8,22.05c.36,3.71.57,7.2.7,10.46.53,13.64-.46,23.25,1.58,27.8,2.52,5.63,1.62,31.33,2.39,33.92S1585.78,277.33,1580.11,283.77Z" fill="#ffb27b"/><path d="M1566,253.94l-1.42-5.24c-10,4.33-39.46-2-39.46-2s-8.77,10.39-4.26,31.48c2.21,10.29,10,54.27,13.2,67.15,1.16,4.67,2,8,2.41,9.3v0a1.92,1.92,0,0,1-.13,1.2,62.53,62.53,0,0,0-3.13,10.27c-7.28,34.13,12.67,71.82,12.67,71.82l3.42-2s1.32-45.47,4.86-66a39,39,0,0,1,2-7.95c2.13-5,3.63-12.77,4.68-22,2-17.35,2.33-39.59,2.22-56.7C1563.41,283.3,1566,253.94,1566,253.94Z" fill="#ff973d"/><path d="M1520.83,259.51c-4.07-6.16,9.89-31.33,9.4-33.71-1-4.67-3.28-9.86-5.53-14.51s-4.47-8.8-5.26-11.39c.73-1,1.44-2,2.1-2.85a25.32,25.32,0,0,0,2.43-3.82,5.31,5.31,0,0,0,.59-3.64,17.26,17.26,0,0,0-.92-2.61c-.17-.4-.36-.8-.56-1.2a37.24,37.24,0,0,0-5.18-7.55c4.91-3.15,12.66-4.76,12.73-4.52.58-.19,1.09-.33,1.5-.43s.58-.15.86-.21c1-.24,2-.44,2.81-.59,1.76-1.78,3.87-8.34,3.24-18l.85.11,14.33,1.93s0,4.48.2,8.68c.19,3.28.57,6.39,1.29,7.07l1.78.15h0l0,0c.81.06,1.55.13,2.23.21l.16,0c1.26.14,2.3.29,3.15.45l.18,0a13.93,13.93,0,0,1,3.27.87v.05c-.12,4.51,7.17,12.4,6.66,22.62,0,.38-3.73,27.14-3.71,27.54.3,7.62,4,29.08,4,29.08C1576.9,260,1523,265.84,1520.83,259.51Z" fill="#ffb27b"/><path d="M1534.08,120.07c-.26-.75-3.39-8.64-15.83-5.19,0,0,6.28-1.18,8.17,1.15,0,0-5.16-2-8.18.12s-3.14,8.62-2.55,10.56,4.41,7.58,6.71,7.44a6.76,6.76,0,0,0,2.58-.81,29,29,0,0,0-.72,3.47c-1.74,11.63,6.43,19.89,10.24,17.49,2.45-1.54,4.63,2.77,4.63,2.77l19.3-29.13S1542.72,111.26,1534.08,120.07Z" fill="#1f3765"/><path d="M1554.22,156.52s0,4.47.2,8.67c-7.93.26-12.56-6.71-14.53-10.61Z" fill="#ff985b"/><path d="M1557.11,160.33s-18.72,1.46-19.45-10.21-3.63-19.35,8.29-20.78,14.52,2.89,15.71,6.73S1562,159.65,1557.11,160.33Z" fill="#ffb27b"/><path d="M1560.71,129.61c-3.11-3.33-5.26-2.43-6.42-1.3a13.14,13.14,0,0,0-16.68,3.73,22.36,22.36,0,0,1-6.48,13.62s3.54,1.9,11.29-.61a13.33,13.33,0,0,0,6.11-4.79,43.72,43.72,0,0,1-7,9.65c9.14-4.92,12.12-18.24,12.41-19.64,1.2,1,3.6,3,4.42,5.19,1.11,2.92,1.91,9,3.68,8.7C1562.08,144.16,1565.38,134.61,1560.71,129.61Z" fill="#1f3765"/><path d="M1568.27,439h-29s-1.09-4.63.82-7.78c1.69-2.79.65-4.69-.08-7.06a10.63,10.63,0,0,0,4.77,1.29,14.23,14.23,0,0,0,5-1.92c1.25,1.42,5.87,7.9,7.54,9.1C1559.22,434,1567.69,433.52,1568.27,439Z" fill="#0c3563"/><path d="M1525.09,438.33l-10.93-26.91s3.88-2.75,7.52-2.17c3.22.51,4.45-.69,6.12-2.71a11.14,11.14,0,0,0,1,4.88,10.16,10.16,0,0,0,3,3.43c-.85,1.69-4.46,8.94-4.94,10.94C1526.33,428.06,1530,435.72,1525.09,438.33Z" fill="#0c3563"/><path d="M1569.46,224.25c0-.22,1.14-8.63,2.16-16.1a24,24,0,0,0,7.32-1.88c-.12-3.26-2.29-31.14-14-32.71-.56-.15-1.14-.28-1.69-.39l-.18,0c-1.44-.27-2.71-.41-3.15-.45l-.16,0s3.49,9.92,3.42,11.09-11.29,1.55-18.67,1.65-11.44-12.15-11.51-12.34c-.28.06-.58.13-.86.21s-10.2,1.59-14.23,4.95a37.24,37.24,0,0,1,5.18,7.55c.2.4.39.8.56,1.2a17.26,17.26,0,0,1,.92,2.61,5.25,5.25,0,0,1-.59,3.64,25.32,25.32,0,0,1-2.43,3.82c-.66.9-1.37,1.84-2.1,2.85a27.2,27.2,0,0,0,1.26,3.18h0c1.06,2.32,2.52,5.16,4,8.21,2.25,4.66,4.55,9.84,5.53,14.51.49,2.38-13.47,27.55-9.4,33.71.65,1.87,5.81,2.68,12.67,2.71,16.36.09,42.39-4.21,40-8.89C1573.49,253.33,1569.76,231.87,1569.46,224.25Z" fill="#0d458d"/><path d="M1533.5,262.22c-6.86,0-12-.84-12.67-2.71-4.07-6.16,9.89-31.33,9.4-33.71-1-4.67-3.28-9.85-5.53-14.51-1.48-3-2.94-5.89-4-8.21h0l.92-3.61s14.86,17.29,18.27,25.44C1542.57,231.31,1536.32,253.11,1533.5,262.22Z" fill="#0c3563"/><path d="M1526.44,250.5l-2.94,5.1c-18.91-7.49-31-24.36-31-24.36-.66-9.58,3.82-20.59,9.19-30.09q1.34-2.35,2.72-4.58a119.77,119.77,0,0,0,14.15,10.58c-.78,1.3-1.72,2.86-2.74,4.52-4.19,6.91-9.6,15.76-10.31,16.46C1504.4,229.3,1526.44,250.5,1526.44,250.5Z" fill="#ffb27b"/><path d="M1516.65,213.75c-9.31-.62-16.17-12.72-16.17-12.72a116.25,116.25,0,0,1,17.42-22.8C1543.69,188.08,1520.86,211,1516.65,213.75Z" fill="#0d458d"/><path d="M1526.43,250.5a5.84,5.84,0,0,0,2.63-1.13c1-.91,4.34-3.47,4.53-2.67s-2.39,2-1,2.21,3.49-.71,5.63-.39,5.42,5.25,4.41,5.83-4.7-1.36-5.67-.68-7.9,4.47-13.44,1.93S1526.43,250.5,1526.43,250.5Z" fill="#ffb27b"/><path d="M1335.19,82.77s-12.32-.62-12.67-7.73-10.52-12.29-7.57-18c3.61-7,.32-13.73,4.88-18.44,5-5.18,11.37-2.36,14.72-5.38s9.48-5.81,15.52-2.08,10.66,1.72,14.63,5.32c4.39,4,2.72,9,6.34,11.68,3.32,2.49,2,9.29-.83,14.81-2,4,2.63,7.71-5.34,12.29-3.31,1.9-2.59,6.69-12.66,7.52C1347.67,83.14,1337.83,81,1335.19,82.77Z" fill="#1f3765"/><path d="M1311.68,356.41s0-5,.71-6.65,3.32-8.41,3.32-8.41h10.19s1.89,6.16,2,8.18,0,6.88,0,6.88Z" fill="#0c3563"/><path d="M1376.37,356.41s0-5-.71-6.65-3.32-8.41-3.32-8.41h-10.19s-1.89,6.16-2,8.18,0,6.88,0,6.88Z" fill="#0c3563"/><path d="M1335.55,76.46s-.36,11.11-1.78,16.09l-11.25,7.84,42.35,6.34-10.1-14s-3-14.89-1.45-20.4S1335.55,76.46,1335.55,76.46Z" fill="#ca703a"/><path d="M1335.49,78s3.35,8.06,9.66,7.88,7.74-7.31,7.74-7.31Z" fill="#ac5927"/><path d="M1344.42,82.77c-4.57-.08-13-6.17-13-13.71V57.3c0-2.75,1.92-5,4.27-5h17.43c2.35,0,4.27,2.25,4.27,5V68.4C1357.41,76.3,1349.67,82.86,1344.42,82.77Z" fill="#ca703a"/><path d="M1313,183.68s1.78,54.43-.88,85.49,0,74.28,0,74.28a20.15,20.15,0,0,0,17.76,0s10.13-60,10.07-74.28c-.07-15.21,11-83.12,11-83.12Z" fill="#ff9841"/><path d="M1376,343.44a20.11,20.11,0,0,1-17.76,0s-10.14-60-10.07-74.27c0-6.43-1.93-22.25-4.21-38.39-3.12-22.07-6.82-44.73-6.82-44.73l39.47-2.46s-3.25,54.52-.59,85.58S1376,343.44,1376,343.44Z" fill="#ff9841"/><path d="M1369.17,95.41v0a112,112,0,0,0-14.4-2.65c-3.93,5.22-6.75,6.43-10.34,7.85-5.79-.8-10.66-7.92-10.66-8.08a64.69,64.69,0,0,0-12.27,2.33c-.35,0-18.82,2.49-45,55.72,0,0,1.41,4.9,8.27,13.45,4.88,6.08,12.53,14,24.38,23.32a41,41,0,0,0,2.14-6.27s-7-13.71-11.29-23c-2.06-4.52-3.46-8-3.06-8.32.76-.64,9.29-8,15.58-13.51,0,1.37-.06,2.61,0,3.69.34,11.89.82,23.45-.71,36.25-2,16.82,1.4,16.53,1.4,16.53s4.59.89,11,1.74A154.85,154.85,0,0,0,1344,196c15.35,0,32.18-3.25,32.18-3.25,4.84.06-1.36-30.15-2.27-48.32-.21-4.22-.4-8.07-.58-11.59,5.78,5,18.6,16.16,19.54,16.95.41.33-1,3.8-3.06,8.32-4.24,9.29-11.29,23-11.29,23a41,41,0,0,0,2.14,6.27c11.86-9.32,19.5-17.24,24.38-23.32,6.86-8.55,8.27-13.45,8.27-13.45C1386.87,96.86,1369.17,95.41,1369.17,95.41Z" fill="#d04b3e"/><path d="M1324.19,194.48c-6.4-.85-11-1.74-11-1.74s-3.41.29-1.4-16.53c1.53-12.8,1-24.36.71-36.25,0-1.32,0-2.88.07-4.62,1,1.57,11.92,19.22,14.86,32.34C1329.58,177.25,1326.35,188.53,1324.19,194.48Z" fill="#c33f3b"/><path d="M1348.17,269.17c0-6.43-1.93-22.25-4.21-38.39,2.36-9.63,8.12-18.91,8.12-18.91C1359.36,232.31,1348.17,269.17,1348.17,269.17Z" fill="#ff862d"/><path d="M1309.91,181.78s6.39-5.92,9-2.61,3.08,8.53,1.06,8.18-6.16-2.25-6.75-1.31-3.24,2.76-4,1.33S1309.91,181.78,1309.91,181.78Z" fill="#ca703a"/><path d="M1311.31,181.1a41,41,0,0,1-2.14,6.27c-11.85-9.32-19.5-17.24-24.38-23.32,3.68-.28,9-1.59,15.23-6C1304.26,167.39,1311.31,181.1,1311.31,181.1Z" fill="#ca703a"/><path d="M1379.89,181.78s-6.4-5.92-9-2.61-3.08,8.53-1.07,8.18,6.16-2.25,6.75-1.31,3.25,2.76,4,1.33S1379.89,181.78,1379.89,181.78Z" fill="#ca703a"/><path d="M1378.48,181.1a41,41,0,0,0,2.14,6.27c11.86-9.32,19.5-17.24,24.38-23.32-3.68-.28-9-1.59-15.23-6C1385.53,167.39,1378.48,181.1,1378.48,181.1Z" fill="#ca703a"/><path d="M1392.83,149.78c-.94-.79-13.85-12-19.61-17,0,0,5.75-4.31,9.3,2A164,164,0,0,0,1392.83,149.78Z" fill="#c33f3b"/><path d="M1413.27,150.6s-1.41,4.9-8.27,13.45C1397.06,163.94,1413.27,150.6,1413.27,150.6Z" fill="#c33f3b"/><path d="M1331.44,62.07s3.17-9.68,13.57-8.17,11.29,3.73,12.4,6.31,3.24-9.42,3.24-9.42l-12.26-3.65s-14.84,1.69-15.91,4.18l-1.06,2.49Z" fill="#1f3765"/><path d="M1338.07,69.3c-1.8,0-5.39-.4-6-3.52a2.83,2.83,0,0,1,.52-2.43,3.32,3.32,0,0,1,2.62-1.11h5.52a2.45,2.45,0,0,1,2.18.89c.67,1,.15,2.51-.1,3.11-.86,2.05-2,3-3.72,3A8.58,8.58,0,0,1,1338.07,69.3Zm-2.88-6.7a3,3,0,0,0-2.34,1,2.46,2.46,0,0,0-.44,2.13c.32,1.6,1.52,2.62,3.57,3a11.24,11.24,0,0,0,3.06.14h0c1.52,0,2.6-.89,3.4-2.79.18-.43.71-1.89.13-2.77a2.14,2.14,0,0,0-1.88-.73Z" fill="#1f3765"/><path d="M1350.79,69.3a8.84,8.84,0,0,1-1,0c-1.68,0-2.86-1-3.72-3-.25-.6-.76-2.11-.09-3.11a2.44,2.44,0,0,1,2.18-.89h5.51a3.34,3.34,0,0,1,2.63,1.11,2.83,2.83,0,0,1,.51,2.43C1356.17,68.9,1352.58,69.3,1350.79,69.3Zm-2.64-6.7a2.12,2.12,0,0,0-1.88.73c-.59.88,0,2.34.13,2.77.79,1.9,1.87,2.79,3.39,2.79h0a11.24,11.24,0,0,0,3.06-.14c2.05-.42,3.26-1.44,3.58-3a2.49,2.49,0,0,0-.44-2.13,3,3,0,0,0-2.35-1Z" fill="#1f3765"/><path d="M1342.45,64.79a.23.23,0,0,1-.2-.13.22.22,0,0,1,.11-.29,5.14,5.14,0,0,1,4.17,0,.21.21,0,0,1,.09.29.2.2,0,0,1-.29.09,4.76,4.76,0,0,0-3.79,0Z" fill="#1f3765"/><path d="M175.15,339.35s0-5.2.74-6.93,3.45-8.76,3.45-8.76H190s2,6.42,2.1,8.52,0,7.17,0,7.17Z" fill="#0c3563"/><path d="M242.55,339.35s0-5.2-.74-6.93-3.46-8.76-3.46-8.76H227.74s-2,6.42-2.1,8.52,0,7.17,0,7.17Z" fill="#0c3563"/><path d="M200,47.66s-.37,11.57-1.86,16.76L186.44,72.6l44.13,6.6L220.05,64.66s-3.18-15.52-1.52-21.26S200,47.66,200,47.66Z" fill="#ffb27b"/><path d="M200,49.26s3.48,8.4,10.06,8.22,8.07-7.62,8.07-7.62Z" fill="#ff985b"/><path d="M196,42.46s-2.12-10.6-3.6-13.81-2.72-17.52,13.7-18.26c0,0,6.29.74,9.75-1.36,0,0,0,2.1-.86,2.84a10.91,10.91,0,0,1,10.12,3.58c4.44,4.93-3,22.22-2.59,26.29Z" fill="#1f3765"/><path d="M222.79,27.7V39.26a13.6,13.6,0,0,1-1.19,5.49h0a17.47,17.47,0,0,1-5.92,7.15,11.44,11.44,0,0,1-6.41,2.33,12.36,12.36,0,0,1-6.09-2.3,17.2,17.2,0,0,1-6.84-8.43l0,0,0-.14a11.14,11.14,0,0,1-.53-3.36V27.7c0-2.87,2-5.22,4.44-5.22h18.17C220.79,22.48,222.79,24.83,222.79,27.7Z" fill="#ffb27b"/><path d="M195.74,34.24s0-7.36,5.85-8.5,18.89,3.59,20.74-1.78-25.23-5.27-26.59-1.85S195.74,34.24,195.74,34.24Z" fill="#1f3765"/><path d="M176.48,159.38s1.86,56.71-.92,89.07,0,77.39,0,77.39a21,21,0,0,0,18.51,0s10.56-62.51,10.49-77.39c-.07-15.85,11.49-86.6,11.49-86.6Z" fill="#0d458d"/><path d="M242.16,325.84a21,21,0,0,1-18.5,0s-10.56-62.51-10.5-77.39c0-6.69-2-23.18-4.38-40-3.25-23-7.11-46.6-7.11-46.6l41.13-2.57s-3.39,56.81-.61,89.17S242.16,325.84,242.16,325.84Z" fill="#0d458d"/><path d="M188.18,170.63c-6.67-.88-11.45-1.82-11.45-1.82s-3.56.31-1.46-17.22c1.6-13.33,1.1-25.38.74-37.77,0-1.37,0-3,.08-4.82,1,1.64,12.41,20,15.48,33.71C193.8,152.68,190.43,164.43,188.18,170.63Z" fill="#ff7e1c"/><path d="M235.05,67.4v0a115.79,115.79,0,0,0-15-2.77c-4.1,5.44-7,6.7-10.78,8.18-6-.83-11.11-8.25-11.11-8.42a67,67,0,0,0-12.79,2.44c-.35,0-19.6,2.58-46.85,58.05,0,0,1.46,5.1,8.61,14,5.08,6.33,13.05,14.59,25.4,24.3a42.29,42.29,0,0,0,2.23-6.53s-7.34-14.29-11.76-24c-2.15-4.71-3.61-8.32-3.19-8.67.79-.66,9.68-8.37,16.24-14.07-.06,1.42-.07,2.72,0,3.84.36,12.39.86,24.44-.74,37.77-2.1,17.53,1.46,17.22,1.46,17.22s4.78.94,11.45,1.82a161.78,161.78,0,0,0,20.6,1.58c16,0,33.53-3.4,33.53-3.4,5.05.06-1.42-31.4-2.36-50.34-.22-4.4-.42-8.41-.61-12.08,6,5.24,19.38,16.84,20.36,17.66.42.35-1,4-3.18,8.67-4.43,9.68-11.77,24-11.77,24a42.29,42.29,0,0,0,2.23,6.53c12.35-9.71,20.32-18,25.4-24.3,7.15-8.91,8.62-14,8.62-14C253.49,68.92,235.05,67.4,235.05,67.4Z" fill="#ff973d"/><path d="M213.16,248.45c0-6.69-2-23.18-4.38-40,2.46-10,8.46-19.7,8.46-19.7C224.83,210,213.16,248.45,213.16,248.45Z" fill="#0c3563"/><path d="M173.3,157.4s6.66-6.18,9.38-2.72,3.21,8.89,1.11,8.52-6.42-2.35-7-1.36-3.38,2.87-4.22,1.37S173.3,157.4,173.3,157.4Z" fill="#ffb27b"/><path d="M174.76,156.69a42.29,42.29,0,0,1-2.23,6.53c-12.35-9.71-20.32-18-25.4-24.3,3.83-.29,9.43-1.66,15.87-6.2C167.42,142.4,174.76,156.69,174.76,156.69Z" fill="#ffb27b"/><path d="M246.22,157.4s-6.67-6.18-9.39-2.72-3.2,8.89-1.11,8.52,6.42-2.35,7-1.36,3.38,2.87,4.22,1.37S246.22,157.4,246.22,157.4Z" fill="#ffb27b"/><path d="M244.75,156.69a42.29,42.29,0,0,0,2.23,6.53c12.35-9.71,20.32-18,25.4-24.3-3.83-.29-9.43-1.66-15.87-6.2C252.09,142.4,244.75,156.69,244.75,156.69Z" fill="#ffb27b"/><path d="M215.67,46.8v5.1a11.44,11.44,0,0,1-6.41,2.33,12.36,12.36,0,0,1-6.09-2.3V46.8a5.19,5.19,0,0,1,5.18-5.17h2.15A5.18,5.18,0,0,1,215.67,46.8Z" fill="#1f3765"/><path d="M259.7,124.05c-1-.82-14.43-12.5-20.43-17.71,0,0,6-4.49,9.69,2A170.13,170.13,0,0,0,259.7,124.05Z" fill="#ff7e1c"/><path d="M221.59,44.75c-2.44,5.57-8.14,9.55-12.33,9.48-4-.07-10.88-4.6-12.93-10.73l0,0,0-.14s4.32,3.68,7.17,1.85h12A5.9,5.9,0,0,0,221.59,44.75Z" fill="#1f3765"/><path d="M281,124.91s-1.47,5.1-8.62,14C264.11,138.81,281,124.91,281,124.91Z" fill="#ff7e1c"/><path d="M210.72,46.18h-2.59c-.59,0-1.35-1-1.35-1.56a2.86,2.86,0,0,1,1.35-.6h2.59a2.18,2.18,0,0,1,1.6.85A1.78,1.78,0,0,1,210.72,46.18Z" fill="#ffb27b"/><path d="M833,84.66s-4.29-12.18-4.52-15.34S829.7,57,840.24,56.05,854.71,54,854.71,54l-2,2.37a7.58,7.58,0,0,1,6,1.09c3,2,4.6,7.94,4.14,13s-4.45,10.74-4.5,12.86S833,84.66,833,84.66Z" fill="#0c3563"/><path d="M804.27,211s-.25,2.78-3.15,8.83c0,0-1.33,4.12,7.38,10.29s.24-19.12.24-19.12Z" fill="#ee9358"/><path d="M835,103.54S830.12,129.7,824.79,157c-5.79,29.7-12.11,60.78-13.24,61.16-2.18.73-5.51-2.12-7-5.75-1.17-2.92-3.17-26.91-1.81-42.42a75.86,75.86,0,0,1,1.15-8.82c2.17-9.8,2.84-44.47,9.37-49.91S835,103.54,835,103.54Z" fill="#ee9358"/><path d="M835,103.54s-2.82,15.08-6.51,34.3c-1.16,6.09-2.42,12.61-3.71,19.19-5.22,10.24-9.7,17.2-11.09,15.89-2.82-2.67-7.78-3-10.92-2.9a75.86,75.86,0,0,1,1.15-8.82c.17-.77.33-1.7.49-2.76,1.82-12.33,2.86-42.14,8.88-47.15C819.83,105.84,835,103.54,835,103.54Z" fill="#5e9af2"/><path d="M828.5,137.84c-1.16,6.09-2.42,12.61-3.71,19.19-5.22,10.24-9.7,17.2-11.09,15.89-2.82-2.67-7.78-3-10.92-2.9a75.86,75.86,0,0,1,1.15-8.82c.17-.77.33-1.7.49-2.76l15.66-37.8Z" fill="#2776ce"/><path d="M856.68,103.16a115.36,115.36,0,0,0-.68-16.9L834.94,89.7s0,6.43.09,13.56h0s-.58,6.62,7.57,7.58S856.9,108.26,856.68,103.16Z" fill="#ee9358"/><path d="M834.88,91s5,10.16,10.65,10.16,11-9.56,11-9.56Z" fill="#e17e3f"/><path d="M848.91,382.32s.77-6,2.54-9.51,13.07-1.29,13.07-1.29,2.26,1.93,2.75,11Z" fill="#0c3563"/><path d="M810.44,382.24c2.65-1.62,1.14-13.7,1.14-13.7s-12.36-9.89-14.06-2.32-11.75,11-17.47,11.9c-3.95.64-5.17,2.83-5.55,4.12Z" fill="#0c3563"/><path d="M835.56,91.75c2.05,1.61,8.05,3.21,9.78,3.4,0,0,8.9-2,10.52-3,2.5-1.52,2.34-4.59,2.47-8.86.15-5.06.66-9,.1-12-.67-3.49-2.89-5.47-9.08-6-11.36-1-16.09,1.86-16.29,5.67,0,1-.1,2-.13,2.92C832.47,85.85,833.41,90.06,835.56,91.75Z" fill="#ee9358"/><path d="M836.05,292.46a58.92,58.92,0,0,0-.91,6.67c-1.15,22.43-18.87,73.69-22,74.89-4.91,1.85-12.63-2.09-16.67-3.37a3.46,3.46,0,0,1-2.43-3.94c8.77-40.35,12-98.46,13.17-132.86a155.62,155.62,0,0,1,3.57-29.29S854,193,854.22,207.61C854.45,220.52,839.9,271.16,836.05,292.46Z" fill="#0d458d"/><path d="M836.05,292.46l-28.88-58.61a155.62,155.62,0,0,1,3.57-29.29S854,193,854.22,207.61C854.45,220.52,839.9,271.16,836.05,292.46Z" fill="#0c3563"/><path d="M826.43,207.66l22.85,165.63s10,2.42,17.84.48c0,0,6.69-88.08,6.14-109.38s4.8-57-1.23-60.92S826.43,207.66,826.43,207.66Z" fill="#0d458d"/><path d="M875.32,203.47A3.42,3.42,0,0,1,872,207l-36,.55-26.46.4c-1.23,0,2.68-9.89,2.76-74.5,0-14.42,22.34-29.93,22.75-29.93h0c0,2.08,3.27,5.91,8.31,6.24,6,.39,13.32-2.58,13.32-6a15.45,15.45,0,0,1,1.82,2.34c3,4.35,9,15,12.84,33.43,3,14.59,1.86,34.09,4.05,59.25C875.51,200.58,875.27,202.2,875.32,203.47Z" fill="#ffa400"/><path d="M874,207.22a73.82,73.82,0,0,1-13.74,4,135.06,135.06,0,0,1-26.62,2.67c-17.51.11-24.14-5.92-24.14-5.92-1.23,0,2.68-9.89,2.76-74.5,0-14.42,22.34-29.93,22.75-29.93h0s-.57,19.2,5.23,24.85c0,0,8.15-6.29,18.72-24.2,3,4.35,8.5,16.86,12.34,35.33a101.19,101.19,0,0,1,1.64,12.26c1,12.75.79,28.31,2.41,47,.16,1.81-.08,3.43,0,4.7C875.39,205.39,875.91,207.19,874,207.22Z" fill="#5e9af2"/><path d="M874,207.22a73.82,73.82,0,0,1-13.74,4c-2.82-4.3-6.37-12.05-6.86-24.27-.83-20.66,18.8-47.27,18.8-47.27l.75,12.1c1,12.75.79,28.31,2.41,47,.16,1.81-.08,3.43,0,4.7C875.39,205.39,875.91,207.19,874,207.22Z" fill="#2776ce"/><rect x="834.19" y="143.36" width="38.63" height="52.99" transform="translate(29.42 449.51) rotate(-30)" fill="#0d458d"/><path d="M888.72,180.18a104,104,0,0,1-18.56-.54,178.85,178.85,0,0,1-32.2-6.48l3.74-6.37s15.25-.68,26.42-2.31a66.82,66.82,0,0,0,7.29-1.41c2.43-.65-9.63-31.21-15.71-49.18-1.45-4.29-2.56-7.86-3.06-10.14,0,0,1.07.17,2.74.5,4.73.94,14.36,3.13,18.45,6.23C883.37,114.67,897.21,161.92,888.72,180.18Z" fill="#ee9358"/><path d="M841.83,166.79s-5.17-4.84-7.16-4.84-7.76,2.09-8.35,3.71-.82,4.51.83,5.16a74.07,74.07,0,0,0,10.22,2.42C839.13,173.4,843.48,172.43,841.83,166.79Z" fill="#ee9358"/><path d="M888.72,180.18a104,104,0,0,1-18.56-.54c.65-3.18,1.25-9.4-2-15.16a66.82,66.82,0,0,0,7.29-1.41c2.43-.65-9.63-31.21-15.71-49.18-.49-5.81-.74-9.7-.74-9.7l.42.06c4.73.94,14.36,3.13,18.45,6.23C883.37,114.67,897.21,161.92,888.72,180.18Z" fill="#5e9af2"/><path d="M840.24,128.39s16.3-7.18,16.54-7.75-.81-4.92-1.94-6.21c0,0,7.83.73,8.31-.24s.65-9,.65-9-3.07-3.23-7.1-3.55c0,0-3.53,8.75-4.84,11.37C848.39,119.92,840.24,128.39,840.24,128.39Z" fill="#2776ce"/><path d="M836.37,114.19s1,8.39,3.87,14.2c0,0-8.51-5.93-9.23-7.87s2-5.68,2-5.68-5.08-.12-5.2-1.82,1.57-8.35,1.57-8.35,4.37-3.19,5.58-3.07Z" fill="#2776ce"/><path d="M832.82,77.77s.44-7.57,5.14-7.66,12.88-.55,16.28-3.74-20.19-1.74-20.19-1.74S831.2,73.76,832.82,77.77Z" fill="#0c3563"/><path d="M851.7,67.49s6.13,2.5,7,6.39C858.69,73.88,860.7,59.52,851.7,67.49Z" fill="#0c3563"/></svg>