<svg id="Layer_1" data-name="Layer 1" xmlns="http://www.w3.org/2000/svg" viewBox="0 0 971.68 486.22"><path d="M15.25,399.08c0,13.72,33.07,24.85,73.87,24.85S163,412.8,163,399.08s-33.07-24.84-73.86-24.84S15.25,385.36,15.25,399.08Z" fill="#9daad3"/><path d="M191.79,447.71c0,13.72,33.07,24.84,73.86,24.84s73.87-11.12,73.87-24.84-33.07-24.85-73.87-24.85S191.79,434,191.79,447.71Z" fill="#9daad3"/><path d="M324.25,371.8c0,13.72,33.07,24.84,73.86,24.84S472,385.52,472,371.8,438.91,347,398.11,347,324.25,358.08,324.25,371.8Z" fill="#9daad3"/><path d="M506.58,423.15c0,13.72,33.07,24.84,73.87,24.84s73.86-11.12,73.86-24.84-33.07-24.85-73.86-24.85S506.58,409.43,506.58,423.15Z" fill="#9daad3"/><path d="M664.71,337.2c0,13.72,33.07,24.84,73.87,24.84s73.86-11.12,73.86-24.84-33.07-24.85-73.86-24.85S664.71,323.47,664.71,337.2Z" fill="#9daad3"/><path d="M807,420.92c0,13.72,33.07,24.84,73.86,24.84s73.87-11.12,73.87-24.84-33.07-24.85-73.87-24.85S807,407.19,807,420.92Z" fill="#9daad3"/><polygon points="220.45 413.27 225.62 435.06 233.36 435.01 233.65 413.27 220.45 413.27" fill="#ffb27b"/><polygon points="285.61 414.2 300.32 435.06 306.06 427.69 297.2 411.33 285.61 414.2" fill="#ffb27b"/><path d="M232.71,141.31a15,15,0,0,0-8.27.09,3.82,3.82,0,0,1,1.52-1.14c-1.4.07-4.17,2-4.17,2-20.43-3.49-17.78,25-16.07,31.43s-4.64,9.88-13.47,17c-16.85,13.54-15.87,26.92-15.87,26.92l.52.21c.61-1.77,1.94-5.13,3.47-5.91a67.49,67.49,0,0,0-1.33,6.88c6.4,3.1,18.67,10.37,27.24,15.54a10.87,10.87,0,0,1-.33-4.21l2,5.21c4.59,2.78,7.76,4.74,7.76,4.74-1.53-5.14,17.07-37.66,28-48.49,2.16-5.14,1.64-13.34,1.59-14,.75,6.44.38,10.21-.18,12.41C253.81,178,240.46,143.86,232.71,141.31Z" fill="#003261"/><path d="M240.79,193.76c.07,0-6.21,3.29-10.93,2-4.44-1.21-7.34-7-7.28-7,1.88-.38,2.42-3,2.38-14.07l.85.17,14.3,2.83s-.33,4.5-.34,8.74C239.76,190,240,193.38,240.79,193.76Z" fill="#ffb27b"/><path d="M217.86,149.06s5.43-8.75,15.52-3.52C233.38,145.54,228.15,145.69,217.86,149.06Z" fill="#00acb8"/><path d="M240.11,177.71s-.33,4.5-.34,8.74c-8-.23-12.23-7.52-14-11.57Z" fill="#ff9e64"/><path d="M222.87,175.38s-5.42-5.66-7.52-11c-1.51-3.82-2.45-18.92,12.74-19.78a20.51,20.51,0,0,1,9,1.47c3.64,1.52,9.21,5.26,6.62,19.12l-.47,4.61Z" fill="#003261"/><path d="M304.68,422.93s-3.8.65-6.92.89c-.69.05-1.35.08-1.93.08a33.31,33.31,0,0,1-6-1l-.14,0c-.8-.18-1.41-.34-1.63-.4l-.1,0s-18.95-21.1-29.57-54.91c-.25-.79-.51-1.58-.79-2.39-5.82-17-17.87-38.24-24.23-57.52-1-3.06-1.92-5.95-2.73-8.69-.26-.87-.52-1.73-.76-2.58A203.69,203.69,0,0,1,222.58,258l38.2,9.72S276.82,337.26,304.68,422.93Z" fill="#be3b35"/><path d="M242.61,180s-18.49,4.05-20.83-7.51-6.31-18.81,5.4-21.88,14.9.87,16.62,4.53S247.36,178.62,242.61,180Z" fill="#ffb27b"/><path d="M235.57,148.59s-2.35,14.58-9.74,18.16-11.19,2.17-11.19,2.17a22.54,22.54,0,0,0,4.59-14.5S230.44,142.91,235.57,148.59Z" fill="#003261"/><path d="M234.53,149.94s4.41,2.27,5.92,5,3.16,8.74,4.88,8.17c0,0,2-10-3.38-14.33C236.28,144.19,234.53,149.94,234.53,149.94Z" fill="#003261"/><path d="M225.36,433.84a21,21,0,0,1-1,8.93s-1.27,5.77,4.42,5.88,7.09-.43,6.44-4-1.87-9.67-1.87-9.67Z" fill="#ffb27b"/><path d="M224.37,442.77s-1.05,5.45-.41,8.35c0,0,1.72,1.29,5.85,1.29a11.87,11.87,0,0,0,6-1.29s.12-6-.93-8.5C234.84,442.62,230.81,448.67,224.37,442.77Z" fill="#e05344"/><path d="M319.77,445.26s-10.49-11.64-13.71-17.57l-7.8,4,17.43,16.37,4.08-.53Z" fill="#ffb27b"/><path d="M326.43,452.08s-11.27,0-13.2-.21-3.49-3-5.59-7.19c-.85-1.72-2.77-2.66-4.75-3.18v9.7h-3l-2.82-10.31c-1.86-3.41-.15-6.51,1.16-9.2,1.52,0,5.61,1,13.36,9.76a10.14,10.14,0,0,0,8.15,3.81l.11.06C326.32,448.22,326.43,452.08,326.43,452.08Z" fill="#e05344"/><path d="M297.76,423.82c-.69.05-1.35.08-1.93.08a33.31,33.31,0,0,1-6-1l-.14,0-1.63-.4-.1,0s-18.95-21.1-29.57-54.91c-.25-.79-.51-1.58-.79-2.39-5.82-17-17.87-38.24-24.23-57.52-1-3.06-1.92-5.95-2.73-8.69-.26-.87-.52-1.73-.76-2.58l6.76-5.13s20.29,32.85,26.56,63.77C268.39,380.63,290.8,413.85,297.76,423.82Z" fill="#a82b2b"/><path d="M237.33,357.89c.11,15-.65,49.59-2.61,63.9,0,0-1.85,1.65-6.46,1.66s-6.82-1.72-6.82-1.72c-4.91-24.87-8.41-45.46-10.95-63.2-2.09-14.55-3.94-27-5.37-37.78-1.26-9.52-2.19-17.68-2.64-24.71-.06-1-.11-1.89-.15-2.8q-.09-1.82-.12-3.51c0-1.15,0-2.26,0-3.34l.16,0,9.49-.92,30-2.93C241.33,308.87,237.26,349.15,237.33,357.89Z" fill="#be3b35"/><path d="M228.26,423.45a11.64,11.64,0,0,1-6.82-1.72c-4.91-24.87-8.41-45.46-10.95-63.2-2.09-14.55-3.94-27-5.37-37.78-1.26-9.52-2.19-17.68-2.64-24.71,0-3.47-.09-6.79-.13-9.67s-.09-5.38-.17-7.1l9.66,6.18L222,292s-14.42,13.12-10.88,37.92S223.33,419.94,228.26,423.45Z" fill="#a82b2b"/><path d="M236.12,188.3s15.41-2.45,20.58,2.7c6.34,6.3,18.24,42.46,17.77,46.59-.18,1.57-6.43.84-8.58-1.41C255.2,225,239.88,196.68,236.12,188.3Z" fill="#d83d3d"/><path d="M266.05,289.26c-11.5,3-65.18,8.89-65.65-4.56-.11-3.28,0-7.24.26-11.53.8-13.28,3-29.69,4-38.72.48-4.14-1.12-22.68.11-32.79a22.28,22.28,0,0,1,.74-3.86c2.32-7.62,12.74-9.69,18.08-9.87l16.14-.55s16.67,18.61,19,24.33,3.07,25.3,4.88,34.78S271.65,287.8,266.05,289.26Z" fill="#d83d3d"/><path d="M234.35,243.81s-9,27.56-33.69,29.36c.8-13.28,3-29.69,4-38.72.48-4.14-1.12-22.68.11-32.79.32.07.61.25.94.32C233,207.23,236.82,238.07,234.35,243.81Z" fill="#be3b35"/><path d="M273.69,238.27s-16.2,5.31-35.94-3.21c0,0-5.37-.51-8,.17,0,0,.57-5.33,3.18-6.79s13.83,1.69,17.19,1.23C257.41,228.66,270.18,227.87,273.69,238.27Z" fill="#ff9e64"/><path d="M259.26,225.86s1.52-13.17-3.64-21.1a2.75,2.75,0,0,1,3.13,1.44c1.3,2.06,10.4,21.62,6.07,23.06S259.26,225.86,259.26,225.86Z" fill="#be3b35"/><path d="M235.6,228.06c-.23,0-7.65,1-9,1.89s-.16,4.18,2.32,4.49S235.6,228.06,235.6,228.06Z" fill="#ff9e64"/><path d="M215.32,233.05a305.31,305.31,0,0,0,40.3-4.49s3.51,0,3.09,3.1-33.22,20.18-40.43,16.89Z" fill="#ffb27b"/><path d="M255.62,228.56s2.24-2.7,3.64-2.7,5,1.78,5.56,3.4-4.3.46-6.11,2.4S255.62,228.56,255.62,228.56Z" fill="#ffb27b"/><path d="M223.63,187.93s-17.76,0-20.36,6.42c-4.74,11.64,10.89,50.28,15,54.2,1.77,1.68,10-1,10-12.1C228.26,230.68,227.85,197,223.63,187.93Z" fill="#d83d3d"/><path d="M550.92,220.08c-15.63-4-32.81-28.22-32.81-28.22l4.4-3.82c4.56,5.37,23.5,14.63,23.5,14.63-.1-4.92,0-9.4.34-13.48,2.1-27.74,12.56-37,15.41-39a7.44,7.44,0,0,1,.73-.46s0,.2,0,.58c0,.82.12,2.49.2,4.76C563.29,172,564,223.41,550.92,220.08Z" fill="#ee9358"/><path d="M522.51,188c-.06-.65-.5-10.18-2.39-12s-5.63-4.29-6.71-4.09-4.72,6.27-3,10.45,7.7,9.45,7.7,9.45Z" fill="#ee9358"/><rect x="515.05" y="168.49" width="11.54" height="20.88" rx="0.62" transform="translate(-7.03 21.93) rotate(-2.4)" fill="#ffa447"/><rect x="512.85" y="168.59" width="11.54" height="20.88" rx="1.1" transform="translate(-7.03 21.84) rotate(-2.4)" fill="#f46700"/><path d="M512.63,172.69s2.81-3.13,5.61-.74-.18,7.51-2.62,8.9a19.71,19.71,0,0,0-3.21,2.13Z" fill="#ee9358"/><path d="M585,381.33c-1,3.78-2,7.39-3.06,10.74-.23.72-.46,1.43-.69,2.12l-.34,1c-.22.66-.44,1.32-.67,2-.28.83-.57,1.64-.86,2.42-.21.59-.42,1.15-.62,1.71-3.17,8.5-5.83,13.89-5.83,13.89l-6.31-.44a171.42,171.42,0,0,0,2.84-27.43c0-.58,0-1.16.05-1.75,0-1.25,0-2.52,0-3.83,0-.53,0-1.07,0-1.62-.13-13.91-1.85-30.35-7.35-46.05a300,300,0,0,1-10-35.5c-7.56-34.84-5.78-57.72-5.78-57.72L581.83,245l1.66.2c.15,16.31.56,38.46.93,55.78.07,3,.13,5.87.18,8.53.25,11.12.43,18.72.43,18.72C591.87,342.93,589.39,363.69,585,381.33Z" fill="#e17e3f"/><path d="M574.78,118.86s8.41,7.16.7,15.4c0,0,6.42.63,8.59-1.15a5.72,5.72,0,0,1-.82,1.26s7.18.25,10.14-2,1.06-39-18.86-34.86c0,0-16.89-1.27-15.32,18.27s-4.8,19.54-4.8,19.54a9.06,9.06,0,0,0,2.63.87s1.25-.47,1.5-1.17a4.55,4.55,0,0,1-.57,1.44s6.88.65,10.32-1.95S575.76,122.9,574.78,118.86Z" fill="#0c3563"/><path d="M601.9,236.85c-6.71-15.06-9.92-19.31-10-24-.09-3.75,1.75-7.79,5.34-17.7a36.71,36.71,0,0,0,1.79-7.17c2.84-19.1-8.21-39.76-15.08-41.17-1.91-.5-5.15-7.4-5.11-18.52l-.86.17-14.46,2.86s.33,4.55.34,8.84c0,3.57-.19,7.21-1,7.63-1,.1-2,.29-2,.29s-12.24,8.59-13,20.25c-1.06,15.57,9.92,34,.19,65.15C538.07,265.21,605.61,245.17,601.9,236.85Z" fill="#ee9358"/><path d="M563.49,131.27s.33,4.55.34,8.84c8.09-.23,12.37-7.61,14.12-11.7Z" fill="#e17e3f"/><path d="M579.44,126.83s4.24-6.7,5.26-12.43c.73-4.09-1.36-19.25-16.59-17.07a20.75,20.75,0,0,0-8.59,3.25c-3.3,2.23-8.08,7.06-2.74,20.29l1.39,4.47Z" fill="#0c3563"/><path d="M560.79,135.33s19.14.32,19.15-11.61,2.5-19.92-9.73-20.62-14.6,3.84-15.57,7.82S555.81,134.94,560.79,135.33Z" fill="#ee9358"/><path d="M561.5,102.8s5.24,14,13.28,16.06,11.54-.08,11.54-.08a22.77,22.77,0,0,1-7.45-13.46S565.45,96.15,561.5,102.8Z" fill="#0c3563"/><path d="M562.79,103.94s-3.91,3.12-4.86,6.16-1.39,9.29-3.21,9.08c0,0-4-9.51.49-14.89C559.91,98.58,562.79,103.94,562.79,103.94Z" fill="#0c3563"/><path d="M626.8,252.84l-5.75,1.73s-18.95-31.46-20.68-39.65c-.56-2.66-1.94-8-3.55-14-3.33-12.37-7.63-27.51-7.63-27.51l-1.41-6.13L583,146.41s9.24.94,14.65,3.2c1.79.75,3.16,1.64,3.63,2.68,4,8.74,7.94,30.77,10.73,46.49,1.55,8.76,2.73,15.56,3.35,17C617,219.8,622.3,241.93,626.8,252.84Z" fill="#ee9358"/><path d="M562.07,104.41s3.73,14.65,13.88,19.35c0,0-10.15-9-11-18.68S562.07,104.41,562.07,104.41Z" fill="#0c3563"/><path d="M626.39,251.89s1.75,4.11,3.57,5.26a10.21,10.21,0,0,1,3.93,6.13c.69,4.08-2.43,6.61-4.73,6.61s-4.5-3.14-5.85-10.62c-.07-.41-2.25-4.7-2.25-4.7Z" fill="#ee9358"/><path d="M605.33,378.27c-2,21.8-11,35.9-11,35.9L591.22,417s-2.79-16-4.81-34.23c-1.93-17.37-4.57-35.75-7.55-41.36-4.46-8.38-7.75-25.52-10.12-43.63-3.91-30-5.3-62.6-5.3-62.6l36-1.78c3.63,6.08,5.2,16.07,5.58,27.43a278.16,278.16,0,0,1-1.85,37.42c-1.82,16.84-4.36,30.87-5,34v0a1.88,1.88,0,0,0,.23,1.2C605.64,347.64,606.68,363.87,605.33,378.27Z" fill="#ee9358"/><path d="M563.3,186.8c-.81,19.78-3.77,39.38-12.39,38.11-10.56-1.54-13.31-11.39-13.87-18.72a42.51,42.51,0,0,1,.16-8.14s5.19,0,6-.8c4-3.68,2.8-39.84,4.78-43.59s14.79-6.17,14.79-6.17S564.1,167.24,563.3,186.8Z" fill="#ff9841"/><path d="M563.3,186.8c-.81,19.78-3.77,39.38-12.39,38.11-10.56-1.54-13.31-11.39-13.87-18.72,2.6-.13,7.16-.76,9-3.53,2.6-4,10.7-29.44,10.7-29.44S559.9,178.94,563.3,186.8Z" fill="#ff862d"/><path d="M585,381.33c-1,3.78-2,7.39-3.06,10.74-.23.72-.46,1.43-.69,2.12l-.34,1c-.22.66-.44,1.32-.67,2-.28.83-.57,1.64-.86,2.42-.21.59-.42,1.15-.62,1.71-3.17,8.5-5.83,13.89-5.83,13.89l-6.31-.44a171.42,171.42,0,0,0,2.84-27.43c0-.58,0-1.16.05-1.75,0-1.25,0-2.52,0-3.83,0-.53,0-1.07,0-1.62-.13-13.91-1.85-30.35-7.35-46.05a300,300,0,0,1-10-35.5c3.76.77,7.06,0,16.65-.82,1-.09,5.83,5.88,10.59,13.78.25,11.12,5.7,16.7,5.7,16.7C591.87,342.93,589.39,363.69,585,381.33Z" fill="#0c3563"/><path d="M605.33,378.27c-2,21.8-11,35.9-11,35.9L591.22,417s-2.79-16-4.81-34.23c-1.93-17.37-4.57-35.75-7.55-41.36-4.46-8.38-7.75-25.52-10.12-43.63,3.32,1.38,14.6,5,34.45.47-1.82,16.84-4.36,30.87-5,34v0a1.88,1.88,0,0,0,.23,1.2C605.64,347.64,606.68,363.87,605.33,378.27Z" fill="#0d458d"/><path d="M552.09,213.67s21.19,5.32,39.78-.87c0,0,10.2,21.67,13,30.95s7.35,28.45,7.35,28.45-37.74,11.66-68.76,0c0,0-1.41-25.53,2.65-38.84S552.09,213.67,552.09,213.67Z" fill="#0c3563"/><path d="M628.89,223.6c0,5-5.07,8-10.51,9.51-5.23,1.43-10.8,1.41-12.54.25-3-2-7.91-24.42-9.34-31.25-.26-1.23-.4-2-.4-2s-3.91,9.33-4,10.2c0,.39-.1.93-.13,1.4s-.07,1.05-.07,1.05-21.2,10.7-39.77.87c0,0-7.55-43.61-4.27-51.12,1.63-3.73,10.12-11.43,13.52-14.75.76-.75.69-2.22.39-3.58a1.56,1.56,0,0,1,1.91-1.85c2.19.57,6.12.47,10.33-.91a25.27,25.27,0,0,0,6.32-3.09,1,1,0,0,1,1.49.69c.32,2.6,1.11,7.35,2.54,7.35,2,0,15.46,1.64,16.45,3.31.34.58,3.85,8.51,8.27,19,0,0,0,0,0,0C617.36,188.47,628.89,217.24,628.89,223.6Z" fill="#ff9841"/><path d="M596.1,200.15s-3.91,9.33-4,10.2c0,.39-.1.93-.13,1.4a19.41,19.41,0,0,1-6.5,3.42c-6.61,2-9.49-10.67-9.09-17s9.74-24.37,12.86-24.75S596.1,200.15,596.1,200.15Z" fill="#ff862d"/><path d="M596.5,202.11c-.26-1.23-.4-2-.4-2A10.19,10.19,0,0,1,596.5,202.11Z" fill="#ff862d"/><path d="M569.2,217.71c-12.06,0-16.85-3.38-17.22-3.67l-.78-5.68c.11.09,16.31,9.81,41.37.5l-.53,4.3C582.4,216.75,575.47,217.71,569.2,217.71Z" fill="#d04b3e"/><path d="M628.89,223.6c0,5-5.07,8-10.51,9.51,7.5-8.93-8.91-63-9.33-64.35C617.36,188.47,628.89,217.24,628.89,223.6Z" fill="#ff862d"/><path d="M584.32,146.41s-10.09,6.39-17.73,4.88c0,0-1.83-1.16.69-2.33s7.9-4.32,6.69-7.5a25.27,25.27,0,0,0,6.32-3.09,1,1,0,0,1,1.49.69C582.1,141.66,582.89,146.41,584.32,146.41Z" fill="#ff862d"/><path d="M576.52,420.47h-4c-1.35-.21-2.35-.6-3.73-.78a3.74,3.74,0,0,0-3.27.78l0,0H548.33c-.43-.61,0-2,.39-3.08a2.42,2.42,0,0,1,1.6-1.47c1.82-.53,5.4-1,8.68-4,1.84-1.67,8.9-6.13,8.9-6.13h0c.16,0,.89.23,4.11,2.94,1.66,1.4,4.49-2,4.49-2a4,4,0,0,1,.92,1.26,4.17,4.17,0,0,1,.37,2.62c-.25,1.55.57,4.41,1.23,6.35.4,1.18.73,2,.73,2S580,420,576.52,420.47Z" fill="#0c3563"/><path d="M577.46,408.09c-1,.67-3,2-4.34,2.18-1.82.24-5.22-4.4-5.22-4.4h0c.16,0,.89.23,4.11,2.94,1.66,1.4,4.49-2,4.49-2A4,4,0,0,1,577.46,408.09Z" fill="#2b6aa8"/><path d="M576.52,420.47h-4c-1.35-.21-2.35-.6-3.73-.78a3.74,3.74,0,0,0-3.27.78l0,0H548.33c-.43-.61,0-2,.39-3.08.52-.47.67,2,.95,2.4s14,.14,14.76-.43a8.25,8.25,0,0,1,6.47-.79c2.87.68,7.11-1.08,8.16-1.55.4,1.18.73,2,.73,2S580,420,576.52,420.47Z" fill="#2b6aa8"/><path d="M598,420.47h-4c-1.35-.21-2.35-.6-3.73-.78a3.72,3.72,0,0,0-3.27.78l0,0H569.84c-.43-.61,0-2,.39-3.08a2.42,2.42,0,0,1,1.6-1.47c1.82-.53,5.4-1,8.68-4,1.84-1.67,8.9-6.13,8.9-6.13h0c.15,0,.89.23,4.11,2.94,1.66,1.4,4.49-2,4.49-2a4,4,0,0,1,.92,1.26,4.24,4.24,0,0,1,.37,2.62c-.25,1.55.57,4.41,1.23,6.35.4,1.18.73,2,.73,2S601.5,420,598,420.47Z" fill="#0c3563"/><path d="M599,408.09c-1,.67-3,2-4.34,2.18-1.82.24-5.22-4.4-5.22-4.4h0c.15,0,.89.23,4.11,2.94,1.66,1.4,4.49-2,4.49-2A4,4,0,0,1,599,408.09Z" fill="#2b6aa8"/><path d="M598,420.47h-4c-1.35-.21-2.35-.6-3.73-.78a3.72,3.72,0,0,0-3.27.78l0,0H569.84c-.43-.61,0-2,.39-3.08.52-.47.67,2,.95,2.4s14,.14,14.76-.43a8.25,8.25,0,0,1,6.47-.79c2.87.68,7.11-1.08,8.16-1.55.4,1.18.73,2,.73,2S601.5,420,598,420.47Z" fill="#2b6aa8"/><path d="M923.28,342.41c-2.39,6.11-14.62,18.68-27.23,30.56C881,387.15,865.4,400.34,865.4,400.34s-7.13,2.17-4-8.31c0,0,17.19-31.58,24.57-40.91,2.11-2.66,4.29-5.09,6.33-7.2a101.65,101.65,0,0,1,9.33-8.61s-1-1.56-2.54-4.24c-7.67-13.14-29.69-53.37-22.88-71.23,8.18-21.51,28.53-31.2,28.53-31.2s6.46,27.22,11.9,55.21C921.63,309.6,925.79,336,923.28,342.41Z" fill="#ff973d"/><path d="M916.62,283.85c-3.74,17.23-10.23,41.62-17.55,47.22-7.67-13.14-29.69-53.37-22.88-71.23,8.18-21.51,28.53-31.2,28.53-31.2S911.18,255.86,916.62,283.85Z" fill="#ff7e1c"/><path d="M896.05,373C881,387.15,865.4,400.34,865.4,400.34s-7.13,2.17-4-8.31c0,0,17.19-31.58,24.57-40.91,2.11-2.66,4.29-5.09,6.33-7.2C892,352,892.27,365.65,896.05,373Z" fill="#ff7e1c"/><path d="M913.69,269.26s-17.84-44.76-16.9-46.06c.59-.8,1.72-25.23,2.49-43.58.47-11.17.81-20.09.81-20.09s7.91,2.82,9.8,22.05c.36,3.71.58,7.2.71,10.46.53,13.64-.47,23.25,1.57,27.8,2.52,5.63,1.62,31.33,2.4,33.92S919.36,262.82,913.69,269.26Z" fill="#ffb27b"/><path d="M899.59,239.43l-1.42-5.24c-10,4.33-39.46-2-39.46-2s-8.77,10.4-4.25,31.49c2.2,10.29,10,54.27,13.19,67.15,1.16,4.67,2.05,8,2.41,9.3v0a1.85,1.85,0,0,1-.13,1.2,61.54,61.54,0,0,0-3.12,10.27c-7.29,34.12,12.67,71.81,12.67,71.81l3.41-2s1.33-45.47,4.86-66a39.62,39.62,0,0,1,2-7.95c2.13-5,3.63-12.78,4.68-22,2-17.35,2.33-39.59,2.22-56.7C897,268.78,899.59,239.43,899.59,239.43Z" fill="#ff973d"/><path d="M854.41,245c-4.07-6.16,9.9-31.33,9.4-33.7-1-4.68-3.28-9.86-5.53-14.51s-4.46-8.8-5.25-11.39c.72-1,1.43-2,2.09-2.85a25.82,25.82,0,0,0,2.43-3.82,5.25,5.25,0,0,0,.59-3.64,18.38,18.38,0,0,0-.91-2.61c-.18-.4-.37-.8-.56-1.2a37.52,37.52,0,0,0-5.19-7.55c4.92-3.15,12.67-4.76,12.74-4.52.57-.2,1.08-.33,1.49-.44l.86-.21c1-.23,2-.43,2.81-.59,1.77-1.77,3.88-8.33,3.24-18l.86.11L887.8,142s0,4.48.2,8.68c.19,3.28.57,6.39,1.29,7.07l1.78.15h0l0,0c.81.07,1.55.14,2.23.22h.16c1.26.15,2.3.3,3.15.45l.18,0a13.71,13.71,0,0,1,3.27.87v.05c-.12,4.51,7.17,12.4,6.66,22.61,0,.39-3.73,27.15-3.71,27.55.3,7.62,4,29.08,4,29.08C910.48,245.46,856.6,251.33,854.41,245Z" fill="#ffb27b"/><path d="M867.66,105.55c-.26-.74-3.38-8.63-15.82-5.18,0,0,6.28-1.18,8.16,1.15,0,0-5.16-2-8.18.12s-3.14,8.62-2.55,10.55,4.42,7.59,6.71,7.45a6.76,6.76,0,0,0,2.58-.81,30.2,30.2,0,0,0-.72,3.47c-1.74,11.63,6.43,19.88,10.24,17.49,2.45-1.54,4.64,2.77,4.64,2.77L892,113.43S876.3,96.74,867.66,105.55Z" fill="#1f3765"/><path d="M887.8,142s0,4.47.2,8.67c-7.93.26-12.56-6.71-14.52-10.61Z" fill="#ff985b"/><path d="M890.69,145.82S872,147.28,871.24,135.6s-3.63-19.34,8.29-20.77,14.53,2.89,15.72,6.73S895.54,145.14,890.69,145.82Z" fill="#ffb27b"/><path d="M894.29,115.1c-3.11-3.33-5.25-2.43-6.41-1.3a13.13,13.13,0,0,0-16.68,3.73,22.34,22.34,0,0,1-6.49,13.62s3.55,1.9,11.3-.61a13.37,13.37,0,0,0,6.1-4.79,43.36,43.36,0,0,1-7,9.65c9.14-4.92,12.12-18.24,12.41-19.64,1.21.95,3.6,3,4.42,5.19,1.12,2.92,1.91,9,3.68,8.69C895.66,129.64,899,120.1,894.29,115.1Z" fill="#1f3765"/><path d="M901.86,424.5H872.8s-1.08-4.63.82-7.78c1.69-2.79.65-4.69-.08-7.06a10.63,10.63,0,0,0,4.77,1.29,14.3,14.3,0,0,0,5.06-1.93c1.25,1.43,5.86,7.9,7.54,9.11C892.81,419.49,901.27,419,901.86,424.5Z" fill="#0c3563"/><path d="M858.67,423.82l-10.93-26.91s3.88-2.75,7.52-2.17c3.22.51,4.45-.69,6.12-2.71a11.29,11.29,0,0,0,1,4.88,10.27,10.27,0,0,0,3,3.43c-.85,1.69-4.45,8.94-4.94,10.94C859.91,413.55,863.55,421.21,858.67,423.82Z" fill="#0c3563"/><path d="M903,209.74c0-.22,1.14-8.63,2.16-16.1a24.1,24.1,0,0,0,7.33-1.88c-.13-3.26-2.3-31.14-14-32.71-.56-.15-1.14-.28-1.69-.39l-.18,0c-1.43-.27-2.71-.41-3.15-.45l-.16,0s3.5,9.92,3.43,11.09-11.3,1.55-18.68,1.65-11.44-12.15-11.5-12.34q-.44.09-.87.21c-.41.1-10.2,1.59-14.23,4.95a37.52,37.52,0,0,1,5.19,7.55c.19.4.38.8.56,1.2a18.38,18.38,0,0,1,.91,2.61,5.25,5.25,0,0,1-.59,3.64,25.32,25.32,0,0,1-2.43,3.82c-.66.89-1.37,1.84-2.09,2.85a25.53,25.53,0,0,0,1.26,3.18h0c1.05,2.32,2.51,5.15,4,8.21,2.25,4.65,4.55,9.84,5.53,14.51.5,2.38-13.47,27.55-9.4,33.71.65,1.87,5.81,2.68,12.67,2.71,16.36.09,42.39-4.21,40-8.89C907.07,238.82,903.34,217.36,903,209.74Z" fill="#0d458d"/><path d="M867.08,247.71c-6.86,0-12-.84-12.67-2.71-4.07-6.16,9.9-31.33,9.4-33.71-1-4.67-3.28-9.86-5.53-14.51-1.48-3.06-2.94-5.89-4-8.21h0c.57-2.28.91-3.61.91-3.61s14.87,17.29,18.28,25.44C876.15,216.8,869.9,238.59,867.08,247.71Z" fill="#0c3563"/><path d="M860,236l-2.94,5.1c-18.91-7.49-31-24.36-31-24.36-.66-9.58,3.83-20.59,9.19-30.09q1.33-2.35,2.73-4.58a119,119,0,0,0,14.15,10.58l-2.74,4.52c-4.19,6.91-9.61,15.76-10.31,16.46C838,214.79,860,236,860,236Z" fill="#ffb27b"/><path d="M850.23,199.24c-9.3-.62-16.17-12.73-16.17-12.73a116.37,116.37,0,0,1,17.42-22.79C877.28,173.57,854.44,196.46,850.23,199.24Z" fill="#0d458d"/><path d="M860,236a5.82,5.82,0,0,0,2.62-1.13c1-.91,4.34-3.47,4.54-2.68s-2.4,2-1,2.22,3.5-.72,5.63-.39,5.43,5.25,4.41,5.83-4.7-1.36-5.67-.68-7.9,4.47-13.43,1.93S860,236,860,236Z" fill="#ffb27b"/><path d="M734.07,68.26s-12.32-.62-12.66-7.73-10.52-12.29-7.58-18c3.62-7,.32-13.72,4.88-18.43,5-5.18,11.38-2.37,14.73-5.39s9.48-5.8,15.52-2.07,10.65,1.72,14.62,5.32c4.39,4,2.73,9,6.35,11.68,3.31,2.49,2,9.28-.83,14.81-2,4,2.63,7.71-5.34,12.29-3.32,1.9-2.6,6.69-12.67,7.52C746.56,68.63,736.71,66.5,734.07,68.26Z" fill="#1f3765"/><path d="M710.57,341.9s0-5,.71-6.65,3.31-8.41,3.31-8.41h10.19s1.9,6.16,2,8.17,0,6.89,0,6.89Z" fill="#0c3563"/><path d="M775.25,341.9s0-5-.71-6.65-3.31-8.41-3.31-8.41H761s-1.9,6.16-2,8.17,0,6.89,0,6.89Z" fill="#0c3563"/><path d="M734.44,62s-.36,11.11-1.78,16.08l-11.25,7.85,42.35,6.34-10.1-14s-3-14.9-1.45-20.4S734.44,62,734.44,62Z" fill="#ca703a"/><path d="M734.38,63.49s3.34,8.06,9.65,7.88,7.75-7.31,7.75-7.31Z" fill="#ac5927"/><path d="M743.31,68.26c-4.57-.08-13-6.17-13-13.71V42.79c0-2.75,1.92-5,4.26-5H752c2.35,0,4.26,2.25,4.26,5v11.1C756.29,61.79,748.55,68.35,743.31,68.26Z" fill="#ca703a"/><path d="M711.84,169.17s1.79,54.43-.88,85.49,0,74.27,0,74.27a20.15,20.15,0,0,0,17.76,0s10.14-60,10.07-74.27c-.06-15.21,11-83.12,11-83.12Z" fill="#ff9841"/><path d="M774.88,328.93a20.11,20.11,0,0,1-17.76,0s-10.13-60-10.07-74.27c0-6.43-1.93-22.25-4.21-38.39-3.11-22.07-6.82-44.73-6.82-44.73l39.48-2.46s-3.26,54.52-.59,85.58S774.88,328.93,774.88,328.93Z" fill="#ff9841"/><path d="M768.05,80.9v0a110.45,110.45,0,0,0-14.39-2.65c-3.93,5.22-6.76,6.43-10.35,7.85-5.78-.8-10.65-7.92-10.65-8.09a65.61,65.61,0,0,0-12.28,2.34c-.34,0-18.82,2.48-45,55.72,0,0,1.41,4.9,8.27,13.45,4.88,6.07,12.52,14,24.38,23.31a40.55,40.55,0,0,0,2.14-6.26s-7.05-13.71-11.29-23c-2.07-4.52-3.47-8-3.06-8.32.76-.64,9.28-8,15.58-13.51,0,1.37-.07,2.61,0,3.69.34,11.89.82,23.45-.71,36.25-2,16.82,1.39,16.52,1.39,16.52s4.59.9,11,1.75a154.69,154.69,0,0,0,19.76,1.51c15.36,0,32.18-3.26,32.18-3.26,4.85.06-1.35-30.14-2.26-48.31-.21-4.22-.41-8.07-.59-11.59,5.79,5,18.6,16.16,19.55,17,.4.33-1,3.8-3.06,8.32-4.24,9.29-11.29,23-11.29,23a40.55,40.55,0,0,0,2.14,6.26c11.85-9.31,19.5-17.24,24.38-23.31,6.86-8.55,8.27-13.45,8.27-13.45C785.76,82.35,768.05,80.9,768.05,80.9Z" fill="#d04b3e"/><path d="M723.08,180c-6.41-.85-11-1.75-11-1.75s-3.41.3-1.39-16.52c1.53-12.8,1-24.36.71-36.25,0-1.32,0-2.88.07-4.63,1,1.58,11.91,19.23,14.85,32.35C728.47,162.74,725.24,174,723.08,180Z" fill="#c33f3b"/><path d="M747.05,254.66c0-6.43-1.93-22.25-4.21-38.39,2.37-9.64,8.12-18.91,8.12-18.91C758.25,217.79,747.05,254.66,747.05,254.66Z" fill="#ff862d"/><path d="M708.79,167.27s6.4-5.92,9-2.61,3.08,8.53,1.07,8.18-6.16-2.25-6.75-1.31-3.25,2.76-4.05,1.32S708.79,167.27,708.79,167.27Z" fill="#ca703a"/><path d="M710.2,166.59a40.55,40.55,0,0,1-2.14,6.26c-11.86-9.31-19.5-17.24-24.38-23.31,3.67-.28,9-1.59,15.23-5.95C703.15,152.88,710.2,166.59,710.2,166.59Z" fill="#ca703a"/><path d="M778.77,167.27s-6.39-5.92-9-2.61-3.08,8.53-1.07,8.18,6.16-2.25,6.76-1.31,3.24,2.76,4,1.32S778.77,167.27,778.77,167.27Z" fill="#ca703a"/><path d="M777.37,166.59a40.55,40.55,0,0,0,2.14,6.26c11.85-9.31,19.5-17.24,24.38-23.31-3.68-.28-9-1.59-15.23-5.95C784.42,152.88,777.37,166.59,777.37,166.59Z" fill="#ca703a"/><path d="M791.72,135.27c-1-.79-13.85-12-19.61-17,0,0,5.75-4.31,9.3,2A161.83,161.83,0,0,0,791.72,135.27Z" fill="#c33f3b"/><path d="M812.16,136.09s-1.41,4.9-8.27,13.45C796,149.43,812.16,136.09,812.16,136.09Z" fill="#c33f3b"/><path d="M730.33,47.56s3.17-9.68,13.56-8.17,11.3,3.73,12.4,6.3,3.24-9.41,3.24-9.41l-12.26-3.65s-14.84,1.69-15.9,4.18L730.3,39.3Z" fill="#1f3765"/><path d="M737,54.78c-1.79,0-5.38-.39-6-3.51a2.81,2.81,0,0,1,.51-2.43,3.35,3.35,0,0,1,2.63-1.12h5.52a2.44,2.44,0,0,1,2.17.9c.67,1,.16,2.51-.09,3.1-.86,2.06-2,3-3.72,3C737.89,54.75,737.5,54.78,737,54.78Zm-2.87-6.69a3,3,0,0,0-2.35,1,2.53,2.53,0,0,0-.44,2.13c.33,1.6,1.53,2.62,3.58,3a11,11,0,0,0,3.06.15h0c1.52,0,2.6-.89,3.39-2.8.18-.42.72-1.88.13-2.76a2.08,2.08,0,0,0-1.87-.73Z" fill="#1f3765"/><path d="M749.68,54.78a10.07,10.07,0,0,1-1,0c-1.68,0-2.86-1-3.72-3-.25-.59-.76-2.1-.1-3.1a2.46,2.46,0,0,1,2.18-.9h5.52a3.32,3.32,0,0,1,2.62,1.12,2.82,2.82,0,0,1,.52,2.43C755.06,54.39,751.47,54.78,749.68,54.78ZM747,48.09a2.11,2.11,0,0,0-1.88.73c-.58.88,0,2.34.13,2.76.8,1.91,1.88,2.8,3.4,2.8h0a11,11,0,0,0,3.06-.15c2-.41,3.25-1.43,3.57-3a2.46,2.46,0,0,0-.44-2.13,3,3,0,0,0-2.34-1Z" fill="#1f3765"/><path d="M741.34,50.28a.22.22,0,0,1-.09-.42,5.14,5.14,0,0,1,4.17,0,.22.22,0,0,1,.09.29.22.22,0,0,1-.3.09,4.73,4.73,0,0,0-3.78,0Z" fill="#1f3765"/><path d="M56.47,402.35s0-5.2.75-6.92,3.45-8.77,3.45-8.77H71.29s2,6.42,2.1,8.52,0,7.17,0,7.17Z" fill="#0c3563"/><path d="M123.87,402.35s0-5.2-.74-6.92-3.45-8.77-3.45-8.77H109.06s-2,6.42-2.1,8.52,0,7.17,0,7.17Z" fill="#0c3563"/><path d="M81.35,110.67s-.38,11.57-1.86,16.75L67.77,135.6l44.13,6.6-10.53-14.54s-3.17-15.51-1.51-21.25S81.35,110.67,81.35,110.67Z" fill="#ffb27b"/><path d="M81.28,112.26s3.49,8.4,10.06,8.22,8.07-7.62,8.07-7.62Z" fill="#ff985b"/><path d="M77.36,105.46s-2.12-10.59-3.6-13.8S71,74.13,87.46,73.39c0,0,6.29.74,9.75-1.36,0,0,0,2.1-.87,2.84a10.92,10.92,0,0,1,10.13,3.58c4.44,4.94-3,22.22-2.6,26.29Z" fill="#1f3765"/><path d="M104.12,90.7v11.56a13.69,13.69,0,0,1-1.19,5.5h0A17.51,17.51,0,0,1,97,114.9a11.29,11.29,0,0,1-6.41,2.33,12.43,12.43,0,0,1-6.09-2.29,17.19,17.19,0,0,1-6.84-8.43l0-.05,0-.15a11.15,11.15,0,0,1-.54-3.36V90.7c0-2.87,2-5.21,4.45-5.21H99.67C102.12,85.49,104.12,87.83,104.12,90.7Z" fill="#ffb27b"/><path d="M77.06,97.24s0-7.36,5.86-8.49,18.89,3.59,20.74-1.78-25.23-5.28-26.6-1.85S77.06,97.24,77.06,97.24Z" fill="#1f3765"/><path d="M57.81,222.38s1.85,56.71-.92,89.07,0,77.39,0,77.39a21,21,0,0,0,18.51,0S86,326.33,85.91,311.45c-.07-15.84,11.49-86.6,11.49-86.6Z" fill="#0d458d"/><path d="M123.49,388.84a21,21,0,0,1-18.51,0s-10.55-62.51-10.49-77.39c0-6.69-2-23.18-4.39-40-3.24-23-7.1-46.61-7.1-46.61l41.13-2.57s-3.39,56.81-.62,89.17S123.49,388.84,123.49,388.84Z" fill="#0d458d"/><path d="M69.51,233.64c-6.67-.89-11.46-1.83-11.46-1.83s-3.55.31-1.45-17.21c1.6-13.34,1.1-25.38.74-37.77,0-1.38,0-3,.07-4.82,1,1.63,12.42,20,15.48,33.7C75.13,215.68,71.76,227.43,69.51,233.64Z" fill="#ff7e1c"/><path d="M116.37,130.41v0a117.51,117.51,0,0,0-15-2.77c-4.09,5.44-7,6.71-10.78,8.19-6-.84-11.1-8.26-11.1-8.43a67,67,0,0,0-12.79,2.44c-.36,0-19.61,2.58-46.86,58,0,0,1.47,5.11,8.62,14,5.08,6.33,13,14.59,25.4,24.3a41.8,41.8,0,0,0,2.23-6.53s-7.34-14.29-11.77-24c-2.14-4.71-3.6-8.33-3.18-8.67.79-.67,9.68-8.38,16.23-14.08,0,1.43-.06,2.72,0,3.85.36,12.39.86,24.43-.74,37.77-2.1,17.52,1.45,17.21,1.45,17.21s4.79.94,11.46,1.83a163.68,163.68,0,0,0,20.59,1.57c16,0,33.53-3.4,33.53-3.4,5.05.07-1.41-31.4-2.35-50.34q-.33-6.58-.62-12.07c6,5.23,19.39,16.84,20.37,17.66.42.34-1,4-3.19,8.67-4.42,9.67-11.76,24-11.76,24a41.8,41.8,0,0,0,2.23,6.53c12.35-9.71,20.32-18,25.4-24.3,7.15-8.9,8.61-14,8.61-14C134.82,131.92,116.37,130.41,116.37,130.41Z" fill="#ff973d"/><path d="M94.49,311.45c0-6.69-2-23.18-4.39-40,2.47-10,8.47-19.71,8.47-19.71C106.16,273,94.49,311.45,94.49,311.45Z" fill="#0c3563"/><path d="M54.62,220.4s6.67-6.17,9.38-2.72,3.21,8.89,1.12,8.52-6.42-2.35-7-1.36-3.38,2.88-4.22,1.38S54.62,220.4,54.62,220.4Z" fill="#ffb27b"/><path d="M56.09,219.69a41.8,41.8,0,0,1-2.23,6.53c-12.35-9.71-20.32-18-25.4-24.3,3.83-.28,9.42-1.65,15.86-6.19C48.75,205.4,56.09,219.69,56.09,219.69Z" fill="#ffb27b"/><path d="M127.54,220.4s-6.66-6.17-9.38-2.72-3.21,8.89-1.11,8.52,6.42-2.35,7-1.36,3.38,2.88,4.22,1.38S127.54,220.4,127.54,220.4Z" fill="#ffb27b"/><path d="M126.08,219.69a41.8,41.8,0,0,0,2.23,6.53c12.35-9.71,20.32-18,25.4-24.3-3.83-.28-9.43-1.65-15.87-6.19C133.42,205.4,126.08,219.69,126.08,219.69Z" fill="#ffb27b"/><path d="M97,109.81v5.09a11.29,11.29,0,0,1-6.41,2.33,12.43,12.43,0,0,1-6.09-2.29v-5.13a5.19,5.19,0,0,1,5.17-5.18h2.16A5.19,5.19,0,0,1,97,109.81Z" fill="#1f3765"/><path d="M141,187.06c-1-.83-14.43-12.51-20.43-17.72,0,0,6-4.49,9.69,2.06A169.51,169.51,0,0,0,141,187.06Z" fill="#ff7e1c"/><path d="M102.92,107.76c-2.44,5.56-8.15,9.55-12.33,9.47-4-.07-10.88-4.6-12.93-10.72l0-.05,0-.15s4.31,3.68,7.17,1.86h12A5.92,5.92,0,0,0,102.92,107.76Z" fill="#1f3765"/><path d="M162.32,187.91s-1.46,5.11-8.61,14C145.44,201.81,162.32,187.91,162.32,187.91Z" fill="#ff7e1c"/><path d="M92,109.18H89.46c-.6,0-1.35-1-1.35-1.56a2.83,2.83,0,0,1,1.35-.59H92a2.16,2.16,0,0,1,1.6.84A1.78,1.78,0,0,1,92,109.18Z" fill="#ffb27b"/><path d="M406,70.15S401.76,58,401.53,54.81s1.19-12.29,11.74-13.27,14.47-2.1,14.47-2.1l-2,2.38a7.5,7.5,0,0,1,6,1.09c3.05,2,4.6,7.94,4.15,13.05s-4.45,10.74-4.51,12.85S406,70.15,406,70.15Z" fill="#0c3563"/><path d="M377.29,196.52s-.24,2.78-3.15,8.83c0,0-1.33,4.12,7.38,10.29s.25-19.12.25-19.12Z" fill="#ee9358"/><path d="M408,89s-4.88,26.16-10.21,53.49c-5.8,29.7-12.11,60.78-13.25,61.16-2.17.73-5.51-2.12-7-5.75-1.16-2.92-3.17-26.92-1.8-42.42a76.3,76.3,0,0,1,1.14-8.82c2.18-9.8,2.84-44.47,9.37-49.92S408,89,408,89Z" fill="#ee9358"/><path d="M408,89s-2.81,15.08-6.5,34.29c-1.17,6.1-2.43,12.61-3.71,19.2-5.23,10.23-9.71,17.19-11.09,15.88-2.83-2.66-7.79-3-10.92-2.89a76.3,76.3,0,0,1,1.14-8.82c.17-.77.33-1.7.49-2.76,1.83-12.33,2.86-42.14,8.88-47.16C392.86,91.33,408,89,408,89Z" fill="#5e9af2"/><path d="M401.53,123.32c-1.17,6.1-2.43,12.61-3.71,19.2-5.23,10.23-9.71,17.19-11.09,15.88-2.83-2.66-7.79-3-10.92-2.89a76.3,76.3,0,0,1,1.14-8.82c.17-.77.33-1.7.49-2.76l15.66-37.8Z" fill="#2776ce"/><path d="M429.7,88.65a115.36,115.36,0,0,0-.68-16.9L408,75.19s0,6.42.09,13.56h0s-.57,6.61,7.58,7.58S429.92,93.75,429.7,88.65Z" fill="#ee9358"/><path d="M407.9,76.49s5,10.16,10.65,10.16,11-9.56,11-9.56Z" fill="#e17e3f"/><path d="M421.94,367.81s.76-6,2.54-9.52S437.55,357,437.55,357s2.26,1.94,2.74,11Z" fill="#0c3563"/><path d="M383.46,367.73c2.66-1.62,1.15-13.7,1.15-13.7s-12.37-9.89-14.07-2.32-11.75,11-17.47,11.9c-3.94.64-5.17,2.83-5.54,4.12Z" fill="#0c3563"/><path d="M408.59,77.24c2,1.61,8,3.21,9.78,3.4,0,0,8.89-2,10.51-3,2.51-1.52,2.34-4.59,2.47-8.87.16-5.05.67-9,.1-11.94-.67-3.49-2.88-5.47-9.07-6-11.37-1-16.1,1.86-16.3,5.67-.05,1-.1,2-.13,2.92C405.49,71.33,406.43,75.55,408.59,77.24Z" fill="#ee9358"/><path d="M409.07,277.94a56.68,56.68,0,0,0-.9,6.68C407,307,389.29,358.31,386.12,359.5c-4.9,1.86-12.63-2.08-16.67-3.37A3.46,3.46,0,0,1,367,352.2c8.78-40.35,12-98.46,13.18-132.86a156.2,156.2,0,0,1,3.56-29.29s43.23-11.54,43.49,3C427.48,206,412.93,256.65,409.07,277.94Z" fill="#0d458d"/><path d="M409.07,277.94l-28.87-58.6a156.2,156.2,0,0,1,3.56-29.29s43.23-11.54,43.49,3C427.48,206,412.93,256.65,409.07,277.94Z" fill="#0c3563"/><path d="M399.46,193.15l22.85,165.63s10,2.42,17.84.48c0,0,6.69-88.08,6.13-109.38s4.8-57-1.22-60.92S399.46,193.15,399.46,193.15Z" fill="#0d458d"/><path d="M448.34,189a3.41,3.41,0,0,1-3.36,3.55l-36,.55-26.45.4c-1.24,0,2.68-9.89,2.76-74.5C385.3,104.54,407.62,89,408,89h0c0,2.08,3.27,5.91,8.32,6.24,6,.39,13.32-2.58,13.32-6a16,16,0,0,1,1.81,2.34c3,4.35,9,15,12.84,33.43,3,14.58,1.87,34.08,4.05,59.24C448.53,186.07,448.3,187.69,448.34,189Z" fill="#ffa400"/><path d="M447,192.71a73.49,73.49,0,0,1-13.74,4,135.65,135.65,0,0,1-26.62,2.67c-17.5.11-24.13-5.92-24.13-5.92-1.24,0,2.68-9.89,2.76-74.5C385.3,104.54,407.62,89,408,89h0s-.57,19.2,5.24,24.85c0,0,8.14-6.3,18.71-24.2,3,4.35,8.5,16.86,12.34,35.33A99.24,99.24,0,0,1,446,137.27c1,12.74.79,28.3,2.41,47,.16,1.82-.07,3.44,0,4.71C448.42,190.88,448.93,192.68,447,192.71Z" fill="#5e9af2"/><path d="M447,192.71a73.49,73.49,0,0,1-13.74,4c-2.81-4.3-6.36-12.05-6.86-24.27-.83-20.66,18.8-47.27,18.8-47.27l.75,12.1c1,12.74.79,28.3,2.41,47,.16,1.82-.07,3.44,0,4.71C448.42,190.88,448.93,192.68,447,192.71Z" fill="#2776ce"/><rect x="407.22" y="128.85" width="38.63" height="52.99" transform="translate(-20.53 234.08) rotate(-30)" fill="#0d458d"/><path d="M461.75,165.66a103.31,103.31,0,0,1-18.57-.53A178.6,178.6,0,0,1,411,158.65l3.73-6.38s15.25-.67,26.43-2.3a67.78,67.78,0,0,0,7.29-1.41c2.43-.65-9.63-31.21-15.72-49.18-1.45-4.29-2.56-7.86-3.05-10.14,0,0,1.06.17,2.73.5,4.74.93,14.36,3.13,18.46,6.23C456.4,100.16,470.23,147.4,461.75,165.66Z" fill="#ee9358"/><path d="M414.86,152.27s-5.17-4.84-7.17-4.84-7.75,2.1-8.34,3.71-.82,4.52.82,5.17a74.76,74.76,0,0,0,10.22,2.42C412.15,158.89,416.5,157.92,414.86,152.27Z" fill="#ee9358"/><path d="M461.75,165.66a103.31,103.31,0,0,1-18.57-.53c.65-3.18,1.25-9.4-2-15.16a67.78,67.78,0,0,0,7.29-1.41c2.43-.65-9.63-31.21-15.72-49.18-.48-5.81-.74-9.7-.74-9.7l.42.06c4.74.93,14.36,3.13,18.46,6.23C456.4,100.16,470.23,147.4,461.75,165.66Z" fill="#5e9af2"/><path d="M413.27,113.88s16.29-7.18,16.53-7.75-.8-4.92-1.93-6.21c0,0,7.82.73,8.31-.24s.64-9,.64-9a12.45,12.45,0,0,0-7.1-3.54s-3.53,8.75-4.84,11.37C421.41,105.41,413.27,113.88,413.27,113.88Z" fill="#2776ce"/><path d="M409.39,99.68s1.05,8.39,3.88,14.2c0,0-8.51-5.93-9.24-7.87s2.06-5.69,2.06-5.69-5.08-.12-5.21-1.81,1.58-8.35,1.58-8.35S406.83,87,408,87.09Z" fill="#2776ce"/><path d="M405.85,63.26s.44-7.57,5.14-7.66,12.87-.55,16.27-3.75-20.19-1.73-20.19-1.73S404.22,59.24,405.85,63.26Z" fill="#0c3563"/><path d="M424.72,53s6.13,2.5,7,6.39C431.71,59.37,433.73,45,424.72,53Z" fill="#0c3563"/></svg>