<svg id="Layer_1" data-name="Layer 1" xmlns="http://www.w3.org/2000/svg" viewBox="0 0 1000 1000"><path d="M500,907A407.11,407.11,0,0,1,341.57,125,407.1,407.1,0,0,1,658.43,875,404.43,404.43,0,0,1,500,907Zm0-796A389.1,389.1,0,0,0,348.59,858.43,389.1,389.1,0,0,0,651.41,141.57,386.39,386.39,0,0,0,500,111Z" fill="#00adb3"/><path d="M361.57,492.35h-50V408.08a7.86,7.86,0,0,0-5.19-7.62,7.71,7.71,0,0,0-10.2,7.29V584.31a7.88,7.88,0,0,0,5.19,7.62,7.72,7.72,0,0,0,10.2-7.29V503.88h46.14v5.54a13.69,13.69,0,0,0,13.69,13.69h12A124.33,124.33,0,0,0,400.54,565l-4.8,4.87a13.68,13.68,0,0,0,0,19l16.48,16.74a13.18,13.18,0,0,0,18.72,0l4.8-4.87a120.22,120.22,0,0,0,41.19,17.35V627a11.53,11.53,0,0,0,11.5,11.5h27A11.47,11.47,0,0,0,526.91,627v-1.35a118.24,118.24,0,0,0,41.84-18.73l4.87,5.26a12.85,12.85,0,0,0,19,0l16.73-18.08a15.47,15.47,0,0,0,0-20.54l-4.86-5.26a139.4,139.4,0,0,0,17.34-45.19h6.77a13.65,13.65,0,0,0,13.65-13.65v-5.58h26.92v99.66a7.88,7.88,0,0,0,5.19,7.62,7.72,7.72,0,0,0,10.19-7.3V423.46a7.87,7.87,0,0,0-5.18-7.62,7.71,7.71,0,0,0-10.2,7.29v69.22H642.27v-5.54a13.69,13.69,0,0,0-13.69-13.69H620a124.44,124.44,0,0,0-17-41.84l4.78-4.87a13.7,13.7,0,0,0,0-19l-16.27-16.78a13.12,13.12,0,0,0-18.67,0L568,395.49a119.69,119.69,0,0,0-41.07-17.34v-8.91a11.5,11.5,0,0,0-11.57-11.49H488.42a11.49,11.49,0,0,0-11.49,11.5v2.35a118.8,118.8,0,0,0-41.84,18.58L430.22,385a12.91,12.91,0,0,0-19,0l-16.77,17.76a15.25,15.25,0,0,0,0,20.37l4.87,5.21A137.32,137.32,0,0,0,382,473.12h-6.8a13.59,13.59,0,0,0-13.59,13.68v5.55ZM377,488.5h16.77a7.32,7.32,0,0,0,7.21-6.43A111.15,111.15,0,0,1,419.51,435a7.68,7.68,0,0,0-.76-9.67L411,417.07l13.6-14.34,7.32,7.72a7.7,7.7,0,0,0,10.27.81,99.35,99.35,0,0,1,44.06-19.1,7.52,7.52,0,0,0,6.1-7.61V373.14h19.22v16.78a7.34,7.34,0,0,0,6.43,7.21,110.88,110.88,0,0,1,47.1,18.57,7.68,7.68,0,0,0,9.67-.76l8.21-7.78,14.33,13.6-8.1,7.75a7,7,0,0,0-.76,9.38,99.39,99.39,0,0,1,19.47,44.52,7.5,7.5,0,0,0,7.61,6.09h11.4v19.23h-17a7.33,7.33,0,0,0-7.2,6.42,110.82,110.82,0,0,1-18.54,47.11,7.7,7.7,0,0,0,.76,9.67l7.77,8.2-13.57,14.34-7.29-7.7a7.72,7.72,0,0,0-10.28-.81,99.17,99.17,0,0,1-44,19.12,7.49,7.49,0,0,0-6.09,7.6v11.41H492.31v-17a7.33,7.33,0,0,0-6.43-7.2,111.21,111.21,0,0,1-47.13-18.54,7.67,7.67,0,0,0-9.66.75l-8.21,7.78-14.34-13.57,7.7-7.29a7.73,7.73,0,0,0,.81-10.29,99.07,99.07,0,0,1-19.09-44,7.49,7.49,0,0,0-7.6-6.08H377Z" fill="#00adb3"/><path d="M501.45,583.05a84.6,84.6,0,1,0-84.59-84.6A84.6,84.6,0,0,0,501.45,583.05Zm-63.3-90.7h-6.91A68.91,68.91,0,0,1,446,456.89l4.85,4.85a7.86,7.86,0,0,0,9.05,1.72,7.72,7.72,0,0,0,2.06-12.37l-5.08-4.89a68.91,68.91,0,0,1,35.46-14.92v6.91a7.88,7.88,0,0,0,5.18,7.62,7.72,7.72,0,0,0,10.2-7.3v-7.23a68.91,68.91,0,0,1,35.45,14.92l-5.07,4.89a7.71,7.71,0,0,0,2,12.37,7.88,7.88,0,0,0,9.06-1.72l4.84-4.85a68.82,68.82,0,0,1,14.73,35.46h-6.9a7.88,7.88,0,0,0-7.62,5.18,7.71,7.71,0,0,0,7.29,10.2h7.23A68.79,68.79,0,0,1,554,543.18l-4.84-4.84a7.9,7.9,0,0,0-9.06-1.73,7.72,7.72,0,0,0-2,12.38l5.07,4.88a68.83,68.83,0,0,1-35.45,14.92v-6.9a7.87,7.87,0,0,0-5.19-7.62,7.71,7.71,0,0,0-10.19,7.29v7.23a68.82,68.82,0,0,1-35.46-14.92L461.7,549a7.88,7.88,0,0,0,1.72-9.06,7.72,7.72,0,0,0-12.37-2.06L446,543a68.88,68.88,0,0,1-14.73-35.26h7.23a7.72,7.72,0,0,0,7.3-10.2A7.88,7.88,0,0,0,438.15,492.35Z" fill="#00adb3"/><path d="M469.23,507.73H500a7.69,7.69,0,0,0,7.69-7.69V469.6A7.88,7.88,0,0,0,502.5,462a7.72,7.72,0,0,0-10.19,7.3v23.07H469.56a7.88,7.88,0,0,0-7.62,5.18A7.72,7.72,0,0,0,469.23,507.73Z" fill="#00adb3"/><path d="M745.37,741.76a7.73,7.73,0,0,0-1-8.16L723,707.69V638.47a7.69,7.69,0,0,0-7.7-7.69h-100a7.69,7.69,0,0,0-7.69,7.69v69.22l-21.35,26a7.7,7.7,0,0,0,6,12.42H738.41A7.69,7.69,0,0,0,745.37,741.76Zm-122.32-95.6h84.59V700H623.05ZM610,730.76l12.61-15.38H711l12.62,15.38Z" fill="#00adb3"/><path d="M273.12,396.21h69.22A19.22,19.22,0,0,0,361.57,377v-84.6a19.23,19.23,0,0,0-19.23-19.23H330.8v-3.84a15.37,15.37,0,0,0-15.38-15.38H300a15.38,15.38,0,0,0-15.38,15.38v3.84H273.12a19.22,19.22,0,0,0-19.22,19.23V377A19.21,19.21,0,0,0,273.12,396.21ZM300,269.32h15.38V284.7H300Zm-30.76,23.07a3.84,3.84,0,0,1,3.84-3.84h11.54v3.84a7.69,7.69,0,0,0,7.69,7.69h30.76a7.69,7.69,0,0,0,7.69-7.69v-3.84h11.54a3.84,3.84,0,0,1,3.84,3.84V377a3.84,3.84,0,0,1-3.84,3.84H273.12a3.84,3.84,0,0,1-3.84-3.84Z" fill="#00adb3"/><path d="M293.34,330.84h31.4a7.87,7.87,0,0,0,7.62-5.18,7.71,7.71,0,0,0-7.29-10.2h-31.4a7.88,7.88,0,0,0-7.62,5.19A7.71,7.71,0,0,0,293.34,330.84Z" fill="#00adb3"/><path d="M293.34,361.61h31.4a7.86,7.86,0,0,0,7.62-5.19,7.71,7.71,0,0,0-7.29-10.19h-31.4a7.88,7.88,0,0,0-7.62,5.18A7.72,7.72,0,0,0,293.34,361.61Z" fill="#00adb3"/><path d="M274.58,636.88a30.76,30.76,0,1,0,30.76-30.76A30.77,30.77,0,0,0,274.58,636.88Zm46.14,0a15.38,15.38,0,1,1-15.38-15.38A15.38,15.38,0,0,1,320.72,636.88Z" fill="#00adb3"/><path d="M261.59,746.14h84.59a7.69,7.69,0,0,0,7.69-7.69V703.57h0a23.06,23.06,0,0,0-10.3-19.23,25.29,25.29,0,0,0-23.07-2.69,46.44,46.44,0,0,1-32.88,0,25.29,25.29,0,0,0-23.07,2.69,23.38,23.38,0,0,0-10.65,19.5v34.61A7.69,7.69,0,0,0,261.59,746.14Zm7.69-41.83a9.53,9.53,0,0,1,2.88-6.56,10,10,0,0,1,9.77-1.5,62.29,62.29,0,0,0,43.87,0,10,10,0,0,1,9.08,1,7.92,7.92,0,0,1,3.58,6.6h7.69l-7.66.23v26.69H269.28Z" fill="#00adb3"/><path d="M678.34,253.86c-29.69,0-53.84,25.23-53.84,56.26a54.14,54.14,0,0,0,8.85,28c1.65,2.62,3.42,5.31,5.23,8,6.34,9.57,12.92,19.46,14.26,29.57.23,1.77.89,7.11,1.23,12.8a7.72,7.72,0,0,0,1.2,15.39h46.14a7.72,7.72,0,0,0,1.31-15.39,95.54,95.54,0,0,1,1.69-14.3c2.15-9.92,7.92-18,14-26.57l3.84-5.27a56.63,56.63,0,0,0,9.92-32.26C732.17,279.09,708,253.86,678.34,253.86Zm31.11,79.91-3.58,5.07c-6.73,9.46-13.73,19.23-16.53,32.26a113.41,113.41,0,0,0-2,17.42H669.49c-.34-6.26-1-12.15-1.38-14.69-1.81-13.65-9.73-25.57-16.73-36.06-1.73-2.58-3.38-5.12-4.88-7.69a38.52,38.52,0,0,1-6.62-19.92c0-22.54,17.27-40.88,38.46-40.88s38.45,18.34,38.45,40.88A41.34,41.34,0,0,1,709.45,333.77Z" fill="#00adb3"/><path d="M670.65,276.42a49,49,0,0,0-18.19,18.23,7.69,7.69,0,1,0,13,8.25,6.22,6.22,0,0,0,.32-.56,33.62,33.62,0,0,1,12.58-12.53,7.72,7.72,0,0,0-7.69-13.39Z" fill="#00adb3"/></svg>