<svg id="Layer_1" data-name="Layer 1" xmlns="http://www.w3.org/2000/svg" viewBox="0 0 1000 1000"><path d="M500,907A407.11,407.11,0,0,1,341.57,125,407.1,407.1,0,0,1,658.43,875,404.43,404.43,0,0,1,500,907Zm0-796A389.1,389.1,0,0,0,348.59,858.43,389.1,389.1,0,0,0,651.41,141.57,386.39,386.39,0,0,0,500,111Z" fill="#00adb3"/><path d="M496.32,736.37a9.43,9.43,0,0,1-1.06-.07c-1.88-.25-20.09-3.48-79-39-28.89-17.44-55-41.76-77.51-72.28a366.89,366.89,0,0,1-48.67-91.46c-17.05-46.9-19.42-92.64-21.93-141-.82-15.83-1.67-32.2-3.08-48.53a8,8,0,0,1,7.25-8.65c35.93-3.27,48-4.37,120.68-31.89,70.18-26.58,95-57,95.21-57.29a8.14,8.14,0,0,1,6.5-3,8,8,0,0,1,6.3,3.35h0c.22.32,23.49,31.87,93.43,58.36,72.65,27.53,84.75,28.63,120.68,31.89a8,8,0,0,1,7.24,8.66c-1.4,16.33-2.25,32.7-3.07,48.53-2.51,48.41-4.88,94.14-21.94,141a366.71,366.71,0,0,1-48.66,91.46c-22.55,30.52-48.63,54.84-77.51,72.28-56.42,34.06-71.14,37.46-74.3,37.69ZM281.68,350.49c1.06,13.93,1.77,27.73,2.47,41.15,2.44,47.19,4.75,91.76,21,136.41,24.7,67.93,68.22,124.61,119.41,155.52,47.86,28.89,66.95,35.3,71.75,36.6,4-1.21,20.26-7.21,66.63-35.21,51.18-30.9,94.71-87.58,119.41-155.51,16.24-44.66,18.54-89.22,21-136.41.69-13.42,1.41-27.23,2.47-41.15-31.85-3-47.79-5.91-117-32.13-55.22-20.92-83.19-44.94-94.54-56.77-11.76,11.34-40.48,34.51-95.56,55.37C329.47,344.58,313.53,347.49,281.68,350.49Z" fill="#00adb3"/><path d="M529.91,600.46H453a34.59,34.59,0,0,1-34.55-34.54V478a8,8,0,0,1,8-8H556.46a8,8,0,0,1,8,8v87.88A34.59,34.59,0,0,1,529.91,600.46ZM434.41,486v79.88A18.57,18.57,0,0,0,453,584.46h76.95a18.57,18.57,0,0,0,18.55-18.54V486Z" fill="#00adb3"/><path d="M443.16,458.14a8,8,0,0,1-8-8V439.5a56.56,56.56,0,1,1,113.11,0v10.08a8,8,0,0,1-16,0V439.5a40.56,40.56,0,1,0-81.11,0v10.64A8,8,0,0,1,443.16,458.14Z" fill="#00adb3"/></svg>