<svg id="Layer_1" data-name="Layer 1" xmlns="http://www.w3.org/2000/svg" viewBox="0 0 1000 1000"><path d="M500,907A407.11,407.11,0,0,1,341.57,125,407.1,407.1,0,0,1,658.43,875,404.43,404.43,0,0,1,500,907Zm0-796A389.1,389.1,0,0,0,348.59,858.43,389.1,389.1,0,0,0,651.41,141.57,386.39,386.39,0,0,0,500,111Z" fill="#00adb3"/><path d="M392.76,745.74C307,745.74,237.27,676,237.27,590.25S307,434.75,392.76,434.75s155.49,69.76,155.49,155.5S478.5,745.74,392.76,745.74Zm0-293c-75.81,0-137.49,61.68-137.49,137.5S317,727.74,392.76,727.74s137.49-61.68,137.49-137.49S468.58,452.75,392.76,452.75Z" fill="#00adb3"/><path d="M635.94,449.7A102.63,102.63,0,1,1,738.56,347.07,102.75,102.75,0,0,1,635.94,449.7Zm0-187.25a84.63,84.63,0,1,0,84.62,84.62A84.72,84.72,0,0,0,635.94,262.45Z" fill="#00adb3"/><path d="M685.05,760.28a81.68,81.68,0,1,1,81.68-81.67A81.77,81.77,0,0,1,685.05,760.28Zm0-145.35a63.68,63.68,0,1,0,63.68,63.68A63.75,63.75,0,0,0,685.05,614.93Z" fill="#00adb3"/><path d="M363.57,402.62A75.64,75.64,0,1,1,439.2,327,75.72,75.72,0,0,1,363.57,402.62Zm0-133.28A57.64,57.64,0,1,0,421.2,327,57.7,57.7,0,0,0,363.57,269.34Z" fill="#00adb3"/><path d="M313.64,666.72a9,9,0,0,1-6-15.7c1.49-1.33,37.05-32.68,86.55-32.68,49.14,0,84.76,27.1,86.25,28.26a9,9,0,1,1-11,14.24c-.3-.24-32.44-24.5-75.24-24.5-42.44,0-74.24,27.82-74.56,28.1A8.94,8.94,0,0,1,313.64,666.72Z" fill="#00adb3"/><path d="M392.57,605.69a54.63,54.63,0,1,1,54.62-54.62A54.69,54.69,0,0,1,392.57,605.69Zm0-91.25a36.63,36.63,0,1,0,36.62,36.63A36.67,36.67,0,0,0,392.57,514.44Z" fill="#00adb3"/><path d="M324.48,365.2a9,9,0,0,1-6-15.68c.75-.68,18.66-16.46,43.54-16.46,24.52,0,42.38,13.59,43.13,14.17a9,9,0,0,1-11,14.24c-.11-.08-13.92-10.41-32.12-10.41-17.84,0-31.42,11.77-31.56,11.89A9,9,0,0,1,324.48,365.2Z" fill="#00adb3"/><path d="M361.25,336.78a30.26,30.26,0,1,1,30.26-30.26A30.29,30.29,0,0,1,361.25,336.78Zm0-42.52a12.26,12.26,0,1,0,12.26,12.26A12.27,12.27,0,0,0,361.25,294.26Z" fill="#00adb3"/><path d="M583.84,400.63a9,9,0,0,1-6-15.69c1-.94,26.06-23,60.84-23,34.41,0,59.42,19,60.46,19.83a9,9,0,0,1-11,14.25c-.2-.15-21.37-16.08-49.46-16.08-27.73,0-48.64,18.22-48.85,18.41A9,9,0,0,1,583.84,400.63Z" fill="#00adb3"/><path d="M637.56,359.1A40.06,40.06,0,1,1,677.61,319,40.1,40.1,0,0,1,637.56,359.1Zm0-62.11A22.06,22.06,0,1,0,659.61,319,22.08,22.08,0,0,0,637.56,297Z" fill="#00adb3"/><path d="M645.4,718.74a9,9,0,0,1-6-15.68c.8-.72,19.88-17.54,46.4-17.54,26.16,0,45.21,14.49,46,15.11a9,9,0,0,1-11,14.24c-.12-.09-15.16-11.35-35-11.35-19.48,0-34.27,12.84-34.42,13A9,9,0,0,1,645.4,718.74Z" fill="#00adb3"/><path d="M685,688.15a31.89,31.89,0,1,1,31.89-31.88A31.91,31.91,0,0,1,685,688.15Zm0-45.77a13.89,13.89,0,1,0,13.89,13.89A13.9,13.9,0,0,0,685,642.38Z" fill="#00adb3"/><path d="M506.17,474.77a9,9,0,0,1-5.73-15.94L549,418.67a9,9,0,0,1,11.47,13.87l-48.6,40.17A9,9,0,0,1,506.17,474.77Z" fill="#00adb3"/><path d="M596.92,664.21a8.73,8.73,0,0,1-2.56-.38l-45.13-13.39a9,9,0,1,1,5.12-17.25l45.13,13.39a9,9,0,0,1-2.56,17.63Z" fill="#00adb3"/><path d="M385.66,435.1a9,9,0,0,1-8.79-7.08l-3.47-15.87A9,9,0,0,1,391,408.31l3.47,15.86a9,9,0,0,1-6.87,10.72A9.19,9.19,0,0,1,385.66,435.1Z" fill="#00adb3"/></svg>