<svg id="Layer_1" data-name="Layer 1" xmlns="http://www.w3.org/2000/svg" viewBox="0 0 1000 1000"><path d="M500,907A407.11,407.11,0,0,1,341.57,125,407.1,407.1,0,0,1,658.43,875,404.43,404.43,0,0,1,500,907Zm0-796A389.1,389.1,0,0,0,348.59,858.43,389.1,389.1,0,0,0,651.41,141.57,386.39,386.39,0,0,0,500,111Z" fill="#00adb3"/><path d="M631.75,719.15c-8.26,0-21.78-.12-38.4-.27-14-.13-28.41-.27-31-.19-6.35.18-11.35-1.5-14.88-5-2.3-2.28-5-6.45-4.89-13.41-.09-2.72-1.81-32.76-3-52.61-.23-2.68-2.25-30.46,11.36-55.74,17.88-33.2,39-47.43,45-51,8.45-5,41.28-48.8,52.07-63.2,3.81-5.09,6.57-8.77,8-10.54,12.43-15.53,27.41-19.7,40.08-11.16,9.18,6.18,11.93,13.73,12.62,19a25.17,25.17,0,0,1-.16,7.55c3.29-7.68,5.53-14.8,6.19-20.14.49-4,1.33-12,2.31-21.31,3.06-29.13,5.73-53.84,7.47-61.18.18-.76.35-1.5.52-2.23,2.27-9.76,4.83-20.83,17.83-24.43,7.36-2,14.86-1.1,20.58,2.58,3.82,2.46,8.68,7.28,10.11,16.3,1.25,7.9-.37,22.4-3.11,45.39-1.35,11.33-2.74,23-3.66,34.1-1.78,21.49-3,32.77-3.9,41.83-.4,3.82-.77,7.33-1.13,11.16-1.3,13.58-4.36,33.59-15.85,50.6-11,16.22-41.64,52.92-49.8,62-8,8.9-32.4,37.74-36,41.95a31.4,31.4,0,0,0-3.2,13.05c-.55,11-1.29,29.32-1.3,29.5a8.71,8.71,0,0,1-.15,1.25c-1.14,5.7-5.7,15.51-15.56,16.09C638.79,719.12,636,719.15,631.75,719.15Zm-66.41-16.48c5.55,0,16.22.1,28.16.21,17,.16,40,.37,45,.22a10,10,0,0,0,1.29-2.82c.15-3.63.79-19.1,1.28-28.87.65-13,5.44-20.53,6-21.34.17-.25.35-.49.55-.73,1.13-1.34,28-33.09,36.72-42.84,9.25-10.27,38.37-45.34,48.43-60.24,9.34-13.82,11.95-30.33,13.18-43.17.37-3.87.74-7.42,1.14-11.28,1-9.46,2.11-20.19,3.88-41.5.94-11.35,2.35-23.2,3.72-34.67,2-17.15,4.15-34.89,3.18-41-.4-2.54-1.39-4.34-2.95-5.34-1.87-1.2-4.73-1.43-7.66-.62-3.33.92-4.18,2.57-6.51,12.63-.18.75-.35,1.52-.54,2.3-1.64,6.94-4.94,38.36-7.13,59.16-1,9.38-1.83,17.49-2.34,21.6-2,16.51-13.15,38.23-22,51.82C703.18,524.54,693,539,684,551.66c-6.88,9.72-13.37,18.9-15.21,21.81-4.32,6.84-9.18,8.58-12.51,8.83a12.57,12.57,0,0,1-10.47-4.41c-6.78-7.83-1.16-17.35.69-20.48,3.75-6.33,39.11-64.82,44.33-72.64,2.24-3.37,4.75-9.85-3.62-15.48-5.31-3.58-11.59-.93-18.64,7.89-1.26,1.57-4.09,5.35-7.68,10.14-28.11,37.51-47.4,61.86-56.73,67.38-10.6,6.26-26.43,21.32-39.08,44.81-11.65,21.64-9.52,46.56-9.49,46.81,0,.09,0,.19,0,.28,3,52.19,3,53.44,3,53.85h0a5.58,5.58,0,0,0,.19,1.87,7.4,7.4,0,0,0,3.11.38C562.55,702.68,563.73,702.67,565.34,702.67Zm-6.51-.25h0Zm-8.23-2.15h0Zm-8-.17v0ZM653.85,566.7Z" fill="#00adb3"/><path d="M696.93,458.41a7.29,7.29,0,0,1-1.38-.12A8,8,0,0,1,689,449c.05-.25,4.51-25.9,8.09-47.12,3.52-20.88,5.13-30.41,19.9-37.19a8,8,0,1,1,6.68,14.53c-6,2.76-7.08,3.25-10.8,25.32-3.59,21.26-8.06,46.95-8.1,47.2A8,8,0,0,1,696.93,458.41Z" fill="#00adb3"/><path d="M670.14,457.86a7.77,7.77,0,0,1-1.58-.16,8,8,0,0,1-6.27-9.41c.16-.81,4-20,7.92-34.8,4.24-16,10.7-25.13,20.35-28.64a8,8,0,1,1,5.47,15c-4.17,1.51-7.65,7.46-10.35,17.68-3.8,14.38-7.66,33.66-7.7,33.85A8,8,0,0,1,670.14,457.86Z" fill="#00adb3"/><path d="M367.78,719.15c-4.19,0-7,0-8.24-.1-9.86-.58-14.42-10.39-15.56-16.09a8.71,8.71,0,0,1-.15-1.25c0-.18-.75-18.51-1.3-29.5a31.4,31.4,0,0,0-3.2-13.05c-3.56-4.21-27.95-33-36-41.95-8.17-9.07-38.84-45.77-49.8-62-11.49-17-14.55-37-15.85-50.6-.37-3.83-.73-7.34-1.13-11.16-.94-9.06-2.12-20.34-3.9-41.83-.92-11.06-2.31-22.77-3.66-34.1-2.74-23-4.36-37.49-3.11-45.39,1.43-9,6.29-13.84,10.11-16.3,5.72-3.67,13.22-4.61,20.58-2.58,13,3.6,15.56,14.67,17.83,24.44l.52,2.22c1.74,7.34,4.41,32.05,7.47,61.19,1,9.3,1.82,17.33,2.31,21.3.67,5.38,2.93,12.56,6.26,20.31-1.6-9.13,1.44-19.33,12.39-26.7,12.67-8.54,27.65-4.36,40.08,11.16,1.41,1.77,4.17,5.45,8,10.54,10.79,14.4,43.61,58.2,52.07,63.2,6,3.57,27.14,17.8,45,51,13.61,25.28,11.59,53,11.36,55.74-1.15,19.84-2.87,49.88-3,52.61.11,7-2.59,11.13-4.89,13.41-3.53,3.51-8.54,5.21-14.88,5-2.57-.08-17,.06-31,.19C389.57,719,376.05,719.15,367.78,719.15Zm-6.7-16c5,.15,28-.06,45-.22,15.41-.15,28.72-.27,31.6-.18a7.29,7.29,0,0,0,3.1-.38,5.47,5.47,0,0,0,.2-1.87h0c0-.41,0-1.66,3-53.85,0-.1,0-.2,0-.3s2.16-25.15-9.5-46.79C421.8,576,406,561,395.38,554.7c-9.33-5.52-28.62-29.87-56.73-67.38-3.59-4.79-6.42-8.57-7.68-10.14-7.05-8.82-13.33-11.47-18.64-7.89-8.37,5.63-5.86,12.11-3.62,15.48,5.22,7.82,40.58,66.31,44.33,72.64,1.84,3.13,7.47,12.65.69,20.48a12.57,12.57,0,0,1-10.47,4.41c-3.33-.25-8.2-2-12.51-8.83-1.84-2.91-8.33-12.09-15.21-21.81-9-12.71-19.18-27.12-24.64-35.47-8.89-13.59-20-35.31-22-51.82-.51-4.11-1.36-12.21-2.34-21.59-2.19-20.8-5.49-52.23-7.13-59.17-.19-.78-.37-1.55-.54-2.3-2.33-10.06-3.18-11.71-6.51-12.63-2.93-.81-5.79-.58-7.66.62-1.56,1-2.55,2.8-3,5.34-1,6.11,1.14,23.85,3.18,41,1.37,11.47,2.78,23.32,3.72,34.67,1.77,21.31,2.89,32,3.87,41.5.41,3.86.78,7.41,1.15,11.28,1.23,12.84,3.84,29.35,13.17,43.17,10.07,14.9,39.19,50,48.44,60.24C324,616.25,350.85,648,352,649.34c.2.24.38.48.55.73.54.81,5.33,8.35,6,21.34.49,9.76,1.13,25.22,1.27,28.87A9.89,9.89,0,0,0,361.08,703.1Zm95.86-3v0ZM345.69,566.7Z" fill="#00adb3"/><path d="M302.6,458.41a8,8,0,0,1-7.87-6.63c0-.25-4.51-25.94-8.1-47.2-3.72-22.07-4.8-22.56-10.8-25.32a8,8,0,1,1,6.68-14.53c14.77,6.78,16.37,16.31,19.9,37.19,3.58,21.22,8,46.87,8.09,47.12a8,8,0,0,1-6.51,9.25A7.32,7.32,0,0,1,302.6,458.41Z" fill="#00adb3"/><path d="M329.4,457.86a8,8,0,0,1-7.84-6.44c0-.19-3.91-19.47-7.7-33.85-2.7-10.22-6.19-16.17-10.35-17.68a8,8,0,1,1,5.47-15c9.64,3.51,16.11,12.61,20.35,28.64,3.92,14.85,7.76,34,7.92,34.8A8,8,0,0,1,331,457.7,7.68,7.68,0,0,1,329.4,457.86Z" fill="#00adb3"/><path d="M560.39,410.22c-16.84,0-30.24-11.15-41.72-20.71-2.27-1.88-4.61-3.83-6.92-5.66-7.53-6-14.73-13.81-22.35-22.12-12.81-14-26.06-28.42-41.34-34.3-10.11-3.89-23.13-.41-31.66,8.47-9.29,9.67-11.15,23.26-5.1,37.28,3.63,8.43,8.8,13.76,15.79,16.28,15,5.43,33.5-3.8,33.69-3.89a8,8,0,0,1,7.3,14.24c-1,.51-24.72,12.48-46.32,4.74-11.27-4-19.73-12.46-25.15-25-8.6-19.92-5.52-40.37,8.25-54.7,13.07-13.61,32.73-18.55,48.95-12.32,18.78,7.23,34,23.79,47.38,38.41,7.18,7.83,14,15.22,20.49,20.39,2.46,1.95,4.88,4,7.22,5.92,18.29,15.21,29.56,23.24,48.47,11.18,11.09-7.07,13.52-18.07,13.6-26.06.13-12.95-5.94-25.75-11.69-29.59-10.31-6.87-19.21-9.45-34.2-2.29A8,8,0,0,1,538.19,316c23-11,38.18-4.44,50,3.42,11.08,7.39,19,25.5,18.81,43.06-.17,16.88-7.63,30.87-21,39.39C576.62,407.85,568.14,410.22,560.39,410.22Z" fill="#00adb3"/></svg>